G04 #@! TF.GenerationSoftware,KiCad,Pcbnew,(6.0.11)*
G04 #@! TF.CreationDate,2023-03-02T01:09:38+03:00*
G04 #@! TF.ProjectId,Device-1,44657669-6365-42d3-912e-6b696361645f,rev?*
G04 #@! TF.SameCoordinates,Original*
G04 #@! TF.FileFunction,Soldermask,Bot*
G04 #@! TF.FilePolarity,Negative*
%FSLAX46Y46*%
G04 Gerber Fmt 4.6, Leading zero omitted, Abs format (unit mm)*
G04 Created by KiCad (PCBNEW (6.0.11)) date 2023-03-02 01:09:38*
%MOMM*%
%LPD*%
G01*
G04 APERTURE LIST*
G04 Aperture macros list*
%AMOutline5P*
0 Free polygon, 5 corners , with rotation*
0 The origin of the aperture is its center*
0 number of corners: always 5*
0 $1 to $10 corner X, Y*
0 $11 Rotation angle, in degrees counterclockwise*
0 create outline with 5 corners*
4,1,5,$1,$2,$3,$4,$5,$6,$7,$8,$9,$10,$1,$2,$11*%
%AMOutline6P*
0 Free polygon, 6 corners , with rotation*
0 The origin of the aperture is its center*
0 number of corners: always 6*
0 $1 to $12 corner X, Y*
0 $13 Rotation angle, in degrees counterclockwise*
0 create outline with 6 corners*
4,1,6,$1,$2,$3,$4,$5,$6,$7,$8,$9,$10,$11,$12,$1,$2,$13*%
%AMOutline7P*
0 Free polygon, 7 corners , with rotation*
0 The origin of the aperture is its center*
0 number of corners: always 7*
0 $1 to $14 corner X, Y*
0 $15 Rotation angle, in degrees counterclockwise*
0 create outline with 7 corners*
4,1,7,$1,$2,$3,$4,$5,$6,$7,$8,$9,$10,$11,$12,$13,$14,$1,$2,$15*%
%AMOutline8P*
0 Free polygon, 8 corners , with rotation*
0 The origin of the aperture is its center*
0 number of corners: always 8*
0 $1 to $16 corner X, Y*
0 $17 Rotation angle, in degrees counterclockwise*
0 create outline with 8 corners*
4,1,8,$1,$2,$3,$4,$5,$6,$7,$8,$9,$10,$11,$12,$13,$14,$15,$16,$1,$2,$17*%
G04 Aperture macros list end*
G04 #@! TA.AperFunction,Profile*
%ADD10C,0.100000*%
G04 #@! TD*
%ADD11Outline8P,-0.900000X0.420000X-0.620000X0.700000X0.620000X0.700000X0.900000X0.420000X0.900000X-0.420000X0.620000X-0.700000X-0.620000X-0.700000X-0.900000X-0.420000X0.000000*%
%ADD12R,1.700000X1.700000*%
%ADD13O,1.700000X1.700000*%
%ADD14C,5.600000*%
%ADD15R,1.600000X1.600000*%
%ADD16O,1.800000X1.800000*%
%ADD17Outline8P,-1.250000X0.750000X-0.750000X1.250000X0.750000X1.250000X1.250000X0.750000X1.250000X-0.750000X0.750000X-1.250000X-0.750000X-1.250000X-1.250000X-0.750000X0.000000*%
%ADD18C,1.700000*%
%ADD19O,1.600000X1.600000*%
G04 APERTURE END LIST*
D10*
X12954000Y-16002000D02*
X13004370Y-64922400D01*
X66447246Y-64922400D02*
G75*
G03*
X66447246Y-64922400I-1524846J0D01*
G01*
X64973200Y-67970400D02*
G75*
G03*
X67970400Y-64871600I-50800J3048000D01*
G01*
X66447246Y-15951200D02*
G75*
G03*
X66447246Y-15951200I-1524846J0D01*
G01*
X16052800Y-67919600D02*
X64973200Y-67970400D01*
X17526846Y-64922400D02*
G75*
G03*
X17526846Y-64922400I-1524846J0D01*
G01*
X13004370Y-64922400D02*
G75*
G03*
X16052800Y-67919600I2997630J0D01*
G01*
X67919656Y-16051109D02*
G75*
G03*
X65024000Y-12954001I-2997256J99909D01*
G01*
X67970400Y-64871600D02*
X67919656Y-16051109D01*
X17526000Y-16002000D02*
G75*
G03*
X17526000Y-16002000I-1524000J0D01*
G01*
X65024000Y-12954001D02*
X16002000Y-12954000D01*
X16002000Y-12954000D02*
G75*
G03*
X12954000Y-16002000I0J-3048000D01*
G01*
D11*
X64414400Y-54889400D03*
X64389000Y-36957000D03*
X64389000Y-52324000D03*
X64414400Y-21640800D03*
D12*
X19304400Y-46014800D03*
D13*
X19304400Y-43474800D03*
X19304400Y-40934800D03*
X19304400Y-38394800D03*
D11*
X50927000Y-65201800D03*
X64389000Y-44577000D03*
X64389000Y-34417000D03*
D14*
X15925800Y-65125600D03*
D11*
X64414400Y-49682400D03*
D14*
X15824200Y-15824200D03*
D11*
X64389000Y-57480200D03*
X64389000Y-47117000D03*
X64414400Y-29260800D03*
X64414400Y-31851600D03*
X64389000Y-39497000D03*
D15*
X45349000Y-21615400D03*
D16*
X45349000Y-24155400D03*
X45349000Y-26695400D03*
X45349000Y-29235400D03*
X45349000Y-31775400D03*
X45349000Y-34315400D03*
X45349000Y-36855400D03*
X45349000Y-39395400D03*
X45349000Y-41935400D03*
X45349000Y-44475400D03*
X45349000Y-47015400D03*
X45349000Y-49555400D03*
X45349000Y-52095400D03*
X45349000Y-54635400D03*
X45349000Y-57175400D03*
X60589000Y-57175400D03*
X60589000Y-54635400D03*
X60589000Y-52095400D03*
X60589000Y-49555400D03*
X60589000Y-47015400D03*
X60589000Y-44475400D03*
X60589000Y-41935400D03*
X60589000Y-39395400D03*
X60589000Y-36855400D03*
X60589000Y-34315400D03*
X60589000Y-31775400D03*
X60589000Y-29235400D03*
X60589000Y-26695400D03*
X60589000Y-24155400D03*
X60589000Y-21615400D03*
D11*
X64389000Y-26695400D03*
X38684200Y-16205200D03*
X48361600Y-65176400D03*
X46786800Y-16205200D03*
D14*
X65049400Y-65151000D03*
X64922400Y-15925800D03*
D11*
X45770800Y-65176400D03*
X64414400Y-42062400D03*
X42697400Y-16256000D03*
D17*
X16332200Y-48399700D03*
X16383000Y-44310300D03*
X16383000Y-40271700D03*
X16332200Y-36182300D03*
D11*
X64414400Y-24180800D03*
D18*
X24333200Y-48209200D03*
X26873200Y-48209200D03*
X29413200Y-48209200D03*
X31953200Y-48209200D03*
X34493200Y-48209200D03*
X37033200Y-48209200D03*
X39573200Y-48209200D03*
D15*
X29972000Y-60807600D03*
D19*
X27432000Y-60807600D03*
X24892000Y-60807600D03*
X22352000Y-60807600D03*
X22352000Y-53187600D03*
X24892000Y-53187600D03*
X27432000Y-53187600D03*
X29972000Y-53187600D03*
M02*
