G04 #@! TF.GenerationSoftware,KiCad,Pcbnew,(6.0.11)*
G04 #@! TF.CreationDate,2023-03-02T01:09:38+03:00*
G04 #@! TF.ProjectId,Device-1,44657669-6365-42d3-912e-6b696361645f,rev?*
G04 #@! TF.SameCoordinates,Original*
G04 #@! TF.FileFunction,Copper,L1,Top*
G04 #@! TF.FilePolarity,Positive*
%FSLAX46Y46*%
G04 Gerber Fmt 4.6, Leading zero omitted, Abs format (unit mm)*
G04 Created by KiCad (PCBNEW (6.0.11)) date 2023-03-02 01:09:38*
%MOMM*%
%LPD*%
G01*
G04 APERTURE LIST*
G04 Aperture macros list*
%AMRoundRect*
0 Rectangle with rounded corners*
0 $1 Rounding radius*
0 $2 $3 $4 $5 $6 $7 $8 $9 X,Y pos of 4 corners*
0 Add a 4 corners polygon primitive as box body*
4,1,4,$2,$3,$4,$5,$6,$7,$8,$9,$2,$3,0*
0 Add four circle primitives for the rounded corners*
1,1,$1+$1,$2,$3*
1,1,$1+$1,$4,$5*
1,1,$1+$1,$6,$7*
1,1,$1+$1,$8,$9*
0 Add four rect primitives between the rounded corners*
20,1,$1+$1,$2,$3,$4,$5,0*
20,1,$1+$1,$4,$5,$6,$7,0*
20,1,$1+$1,$6,$7,$8,$9,0*
20,1,$1+$1,$8,$9,$2,$3,0*%
%AMOutline5P*
0 Free polygon, 5 corners , with rotation*
0 The origin of the aperture is its center*
0 number of corners: always 5*
0 $1 to $10 corner X, Y*
0 $11 Rotation angle, in degrees counterclockwise*
0 create outline with 5 corners*
4,1,5,$1,$2,$3,$4,$5,$6,$7,$8,$9,$10,$1,$2,$11*%
%AMOutline6P*
0 Free polygon, 6 corners , with rotation*
0 The origin of the aperture is its center*
0 number of corners: always 6*
0 $1 to $12 corner X, Y*
0 $13 Rotation angle, in degrees counterclockwise*
0 create outline with 6 corners*
4,1,6,$1,$2,$3,$4,$5,$6,$7,$8,$9,$10,$11,$12,$1,$2,$13*%
%AMOutline7P*
0 Free polygon, 7 corners , with rotation*
0 The origin of the aperture is its center*
0 number of corners: always 7*
0 $1 to $14 corner X, Y*
0 $15 Rotation angle, in degrees counterclockwise*
0 create outline with 7 corners*
4,1,7,$1,$2,$3,$4,$5,$6,$7,$8,$9,$10,$11,$12,$13,$14,$1,$2,$15*%
%AMOutline8P*
0 Free polygon, 8 corners , with rotation*
0 The origin of the aperture is its center*
0 number of corners: always 8*
0 $1 to $16 corner X, Y*
0 $17 Rotation angle, in degrees counterclockwise*
0 create outline with 8 corners*
4,1,8,$1,$2,$3,$4,$5,$6,$7,$8,$9,$10,$11,$12,$13,$14,$15,$16,$1,$2,$17*%
G04 Aperture macros list end*
G04 #@! TA.AperFunction,Profile*
%ADD10C,0.100000*%
G04 #@! TD*
G04 #@! TA.AperFunction,SMDPad,CuDef*
%ADD11RoundRect,0.250000X-0.220971X0.662913X-0.662913X0.220971X0.220971X-0.662913X0.662913X-0.220971X0*%
G04 #@! TD*
G04 #@! TA.AperFunction,SMDPad,CuDef*
%ADD12RoundRect,0.250000X-0.550000X1.500000X-0.550000X-1.500000X0.550000X-1.500000X0.550000X1.500000X0*%
G04 #@! TD*
G04 #@! TA.AperFunction,ComponentPad*
%ADD13Outline8P,-0.900000X0.420000X-0.620000X0.700000X0.620000X0.700000X0.900000X0.420000X0.900000X-0.420000X0.620000X-0.700000X-0.620000X-0.700000X-0.900000X-0.420000X0.000000*%
G04 #@! TD*
G04 #@! TA.AperFunction,SMDPad,CuDef*
%ADD14R,2.000000X1.950000*%
G04 #@! TD*
G04 #@! TA.AperFunction,SMDPad,CuDef*
%ADD15R,2.000000X1.300000*%
G04 #@! TD*
G04 #@! TA.AperFunction,SMDPad,CuDef*
%ADD16RoundRect,0.250000X-0.625000X0.312500X-0.625000X-0.312500X0.625000X-0.312500X0.625000X0.312500X0*%
G04 #@! TD*
G04 #@! TA.AperFunction,SMDPad,CuDef*
%ADD17RoundRect,0.250000X0.625000X-0.312500X0.625000X0.312500X-0.625000X0.312500X-0.625000X-0.312500X0*%
G04 #@! TD*
G04 #@! TA.AperFunction,ComponentPad*
%ADD18R,1.700000X1.700000*%
G04 #@! TD*
G04 #@! TA.AperFunction,ComponentPad*
%ADD19O,1.700000X1.700000*%
G04 #@! TD*
G04 #@! TA.AperFunction,SMDPad,CuDef*
%ADD20R,1.950000X2.000000*%
G04 #@! TD*
G04 #@! TA.AperFunction,SMDPad,CuDef*
%ADD21R,1.300000X2.000000*%
G04 #@! TD*
G04 #@! TA.AperFunction,ComponentPad*
%ADD22C,5.600000*%
G04 #@! TD*
G04 #@! TA.AperFunction,SMDPad,CuDef*
%ADD23RoundRect,0.250000X0.325000X0.650000X-0.325000X0.650000X-0.325000X-0.650000X0.325000X-0.650000X0*%
G04 #@! TD*
G04 #@! TA.AperFunction,SMDPad,CuDef*
%ADD24RoundRect,0.250000X-0.312500X-0.625000X0.312500X-0.625000X0.312500X0.625000X-0.312500X0.625000X0*%
G04 #@! TD*
G04 #@! TA.AperFunction,SMDPad,CuDef*
%ADD25RoundRect,0.250000X0.312500X0.625000X-0.312500X0.625000X-0.312500X-0.625000X0.312500X-0.625000X0*%
G04 #@! TD*
G04 #@! TA.AperFunction,ComponentPad*
%ADD26R,1.600000X1.600000*%
G04 #@! TD*
G04 #@! TA.AperFunction,ComponentPad*
%ADD27O,1.800000X1.800000*%
G04 #@! TD*
G04 #@! TA.AperFunction,ComponentPad*
%ADD28Outline8P,-1.250000X0.750000X-0.750000X1.250000X0.750000X1.250000X1.250000X0.750000X1.250000X-0.750000X0.750000X-1.250000X-0.750000X-1.250000X-1.250000X-0.750000X0.000000*%
G04 #@! TD*
G04 #@! TA.AperFunction,ComponentPad*
%ADD29C,1.700000*%
G04 #@! TD*
G04 #@! TA.AperFunction,ComponentPad*
%ADD30O,1.600000X1.600000*%
G04 #@! TD*
G04 #@! TA.AperFunction,ViaPad*
%ADD31C,0.800000*%
G04 #@! TD*
G04 #@! TA.AperFunction,Conductor*
%ADD32C,0.750000*%
G04 #@! TD*
G04 APERTURE END LIST*
D10*
X12954000Y-16002000D02*
X13004370Y-64922400D01*
X66447246Y-64922400D02*
G75*
G03*
X66447246Y-64922400I-1524846J0D01*
G01*
X64973200Y-67970400D02*
G75*
G03*
X67970400Y-64871600I-50800J3048000D01*
G01*
X66447246Y-15951200D02*
G75*
G03*
X66447246Y-15951200I-1524846J0D01*
G01*
X16052800Y-67919600D02*
X64973200Y-67970400D01*
X17526846Y-64922400D02*
G75*
G03*
X17526846Y-64922400I-1524846J0D01*
G01*
X13004370Y-64922400D02*
G75*
G03*
X16052800Y-67919600I2997630J0D01*
G01*
X67919656Y-16051109D02*
G75*
G03*
X65024000Y-12954001I-2997256J99909D01*
G01*
X67970400Y-64871600D02*
X67919656Y-16051109D01*
X17526000Y-16002000D02*
G75*
G03*
X17526000Y-16002000I-1524000J0D01*
G01*
X65024000Y-12954001D02*
X16002000Y-12954000D01*
X16002000Y-12954000D02*
G75*
G03*
X12954000Y-16002000I0J-3048000D01*
G01*
D11*
X34602056Y-45941344D03*
X36670344Y-43873056D03*
X40672656Y-46169944D03*
X42740944Y-44101656D03*
X37599256Y-46017544D03*
X39667544Y-43949256D03*
D12*
X24028400Y-35376200D03*
X24028400Y-40976200D03*
D13*
X64414400Y-54889400D03*
X64389000Y-36957000D03*
D14*
X41173400Y-23799800D03*
D15*
X41173400Y-21615400D03*
D13*
X64389000Y-52324000D03*
X64414400Y-21640800D03*
D16*
X32842200Y-55458900D03*
X32842200Y-58383900D03*
D17*
X31820200Y-33612400D03*
X31820200Y-30687400D03*
D18*
X19304400Y-46014800D03*
D19*
X19304400Y-43474800D03*
X19304400Y-40934800D03*
X19304400Y-38394800D03*
D13*
X50927000Y-65201800D03*
X64389000Y-44577000D03*
X64389000Y-34417000D03*
D17*
X36753800Y-55147400D03*
X36753800Y-52222400D03*
D14*
X40919400Y-37160200D03*
D15*
X40919400Y-39344600D03*
D20*
X38531800Y-64084200D03*
D21*
X36347400Y-64084200D03*
D22*
X15925800Y-65125600D03*
D13*
X64414400Y-49682400D03*
D22*
X15824200Y-15824200D03*
D17*
X39217600Y-55158100D03*
X39217600Y-52233100D03*
D23*
X27256000Y-44500800D03*
X24306000Y-44500800D03*
D24*
X24851900Y-50774600D03*
X27776900Y-50774600D03*
D13*
X64389000Y-57480200D03*
D17*
X29331000Y-30680400D03*
X29331000Y-33605400D03*
X36900200Y-33605400D03*
X36900200Y-30680400D03*
D16*
X41910000Y-27264900D03*
X41910000Y-30189900D03*
D13*
X64389000Y-47117000D03*
D20*
X38511750Y-61061600D03*
D21*
X36327350Y-61061600D03*
D25*
X27472100Y-55778400D03*
X24547100Y-55778400D03*
D13*
X64414400Y-29260800D03*
X64414400Y-31851600D03*
D16*
X29997400Y-55458900D03*
X29997400Y-58383900D03*
D13*
X64389000Y-39497000D03*
D26*
X45349000Y-21615400D03*
D27*
X45349000Y-24155400D03*
X45349000Y-26695400D03*
X45349000Y-29235400D03*
X45349000Y-31775400D03*
X45349000Y-34315400D03*
X45349000Y-36855400D03*
X45349000Y-39395400D03*
X45349000Y-41935400D03*
X45349000Y-44475400D03*
X45349000Y-47015400D03*
X45349000Y-49555400D03*
X45349000Y-52095400D03*
X45349000Y-54635400D03*
X45349000Y-57175400D03*
X60589000Y-57175400D03*
X60589000Y-54635400D03*
X60589000Y-52095400D03*
X60589000Y-49555400D03*
X60589000Y-47015400D03*
X60589000Y-44475400D03*
X60589000Y-41935400D03*
X60589000Y-39395400D03*
X60589000Y-36855400D03*
X60589000Y-34315400D03*
X60589000Y-31775400D03*
X60589000Y-29235400D03*
X60589000Y-26695400D03*
X60589000Y-24155400D03*
X60589000Y-21615400D03*
D17*
X34411000Y-33605400D03*
X34411000Y-30680400D03*
X39522400Y-33593500D03*
X39522400Y-30668500D03*
D13*
X64389000Y-26695400D03*
D24*
X21930900Y-63271400D03*
X24855900Y-63271400D03*
D13*
X38684200Y-16205200D03*
X48361600Y-65176400D03*
D14*
X38023800Y-37160200D03*
D15*
X38023800Y-39344600D03*
D17*
X41681400Y-52222400D03*
X41681400Y-55147400D03*
D13*
X46786800Y-16205200D03*
D22*
X65049400Y-65151000D03*
D14*
X35077400Y-37185600D03*
D15*
X35077400Y-39370000D03*
D20*
X38537150Y-58160000D03*
D21*
X36352750Y-58160000D03*
D22*
X64922400Y-15925800D03*
D13*
X45770800Y-65176400D03*
D16*
X22275800Y-54976300D03*
X22275800Y-57901300D03*
D14*
X32156400Y-37160200D03*
D15*
X32156400Y-39344600D03*
D13*
X64414400Y-42062400D03*
X42697400Y-16256000D03*
D28*
X16332200Y-48399700D03*
X16383000Y-44310300D03*
X16383000Y-40271700D03*
X16332200Y-36182300D03*
D13*
X64414400Y-24180800D03*
D14*
X29235400Y-37160200D03*
D15*
X29235400Y-39344600D03*
D29*
X24333200Y-48209200D03*
X26873200Y-48209200D03*
X29413200Y-48209200D03*
X31953200Y-48209200D03*
X34493200Y-48209200D03*
X37033200Y-48209200D03*
X39573200Y-48209200D03*
D26*
X29972000Y-60807600D03*
D30*
X27432000Y-60807600D03*
X24892000Y-60807600D03*
X22352000Y-60807600D03*
X22352000Y-53187600D03*
X24892000Y-53187600D03*
X27432000Y-53187600D03*
X29972000Y-53187600D03*
D31*
X38100000Y-42265600D03*
X39649400Y-41732200D03*
X26466800Y-30657800D03*
X21945600Y-65430400D03*
X34036000Y-52222400D03*
X33274000Y-43434000D03*
X30810200Y-43434000D03*
X33070800Y-61264800D03*
X34518600Y-59791600D03*
X33045400Y-63754000D03*
D32*
X37033200Y-46583600D02*
X37599256Y-46017544D01*
X37033200Y-48209200D02*
X37033200Y-46583600D01*
X36670344Y-43695256D02*
X38100000Y-42265600D01*
X36670344Y-43873056D02*
X36670344Y-43695256D01*
X35077400Y-42280112D02*
X36670344Y-43873056D01*
X35077400Y-39370000D02*
X35077400Y-42280112D01*
X39649400Y-41732200D02*
X40157400Y-42240200D01*
X40157400Y-42240200D02*
X40157400Y-43611800D01*
X38023800Y-39344600D02*
X38023800Y-40106600D01*
X38023800Y-40106600D02*
X39649400Y-41732200D01*
X42900600Y-40005000D02*
X42900600Y-44094400D01*
X42240200Y-39344600D02*
X42900600Y-40005000D01*
X40919400Y-39344600D02*
X42240200Y-39344600D01*
X39573200Y-47421800D02*
X40832312Y-46162688D01*
X39573200Y-48209200D02*
X39573200Y-47421800D01*
X34493200Y-48209200D02*
X34493200Y-45923200D01*
X45059600Y-41935400D02*
X42900600Y-44094400D01*
X45349000Y-41935400D02*
X45059600Y-41935400D01*
X58013600Y-21209000D02*
X58013600Y-28346400D01*
X24384000Y-36220400D02*
X24384000Y-30073600D01*
X28905200Y-50774600D02*
X29972000Y-51841400D01*
X29972000Y-51841400D02*
X29972000Y-53187600D01*
X31989300Y-55458900D02*
X32842200Y-55458900D01*
X16306800Y-35991800D02*
X18567400Y-38252400D01*
X27256000Y-44500800D02*
X27256000Y-42800800D01*
X42443400Y-19507200D02*
X56311800Y-19507200D01*
X29972000Y-53441600D02*
X31989300Y-55458900D01*
X26847800Y-49845500D02*
X27776900Y-50774600D01*
X35915600Y-28244800D02*
X39420800Y-24739600D01*
X26593800Y-42138600D02*
X26593800Y-37465000D01*
X39751000Y-21615400D02*
X41173400Y-21615400D01*
X29972000Y-55433500D02*
X29997400Y-55458900D01*
X27256000Y-44500800D02*
X27256000Y-47743600D01*
X56311800Y-19507200D02*
X58013600Y-21209000D01*
X29972000Y-53187600D02*
X29972000Y-53441600D01*
X39420800Y-24739600D02*
X39420800Y-21945600D01*
X27776900Y-50774600D02*
X28905200Y-50774600D01*
X64389000Y-29235400D02*
X64414400Y-29260800D01*
X29972000Y-53187600D02*
X29972000Y-55433500D01*
X39420800Y-21945600D02*
X39751000Y-21615400D01*
X26847800Y-48151800D02*
X26847800Y-49845500D01*
X27256000Y-42800800D02*
X26593800Y-42138600D01*
X18567400Y-38252400D02*
X22352000Y-38252400D01*
X24530400Y-35401600D02*
X24358600Y-35401600D01*
X60589000Y-29235400D02*
X64389000Y-29235400D01*
X26212800Y-28244800D02*
X35915600Y-28244800D01*
X58953400Y-29286200D02*
X60487400Y-29286200D01*
X22352000Y-38252400D02*
X24384000Y-36220400D01*
X41224200Y-20726400D02*
X42443400Y-19507200D01*
X24384000Y-30073600D02*
X26212800Y-28244800D01*
X58013600Y-28346400D02*
X58953400Y-29286200D01*
X26593800Y-37465000D02*
X24530400Y-35401600D01*
X41224200Y-21945600D02*
X41224200Y-20726400D01*
X27256000Y-47743600D02*
X26847800Y-48151800D01*
X26489400Y-30680400D02*
X26466800Y-30657800D01*
X18847200Y-40807800D02*
X16246000Y-40807800D01*
X24306000Y-43686200D02*
X24003000Y-43383200D01*
X24164800Y-40807800D02*
X24358600Y-41001600D01*
X21945600Y-63286100D02*
X21930900Y-63271400D01*
X36900200Y-30680400D02*
X39510500Y-30680400D01*
X39217600Y-52233100D02*
X41670700Y-52233100D01*
X24306000Y-44500800D02*
X24306000Y-48150000D01*
X34382600Y-30652000D02*
X34411000Y-30680400D01*
X29331000Y-30680400D02*
X31813200Y-30680400D01*
X39510500Y-30680400D02*
X39522400Y-30668500D01*
X31737000Y-30604200D02*
X31820200Y-30687400D01*
X39522400Y-30668500D02*
X41431400Y-30668500D01*
X39206900Y-52222400D02*
X39217600Y-52233100D01*
X23069800Y-48151800D02*
X22352000Y-48869600D01*
X34487200Y-30756600D02*
X34411000Y-30680400D01*
X21945600Y-65430400D02*
X21945600Y-63286100D01*
X31820200Y-30687400D02*
X34404000Y-30687400D01*
X24561800Y-48405800D02*
X24307800Y-48151800D01*
X29331000Y-30680400D02*
X26489400Y-30680400D01*
X24003000Y-43383200D02*
X24003000Y-41001600D01*
X41431400Y-30668500D02*
X41910000Y-30189900D01*
X34404000Y-30687400D02*
X34411000Y-30680400D01*
X24306000Y-44500800D02*
X24306000Y-43686200D01*
X22352000Y-48869600D02*
X22352000Y-53187600D01*
X36753800Y-52222400D02*
X39206900Y-52222400D01*
X37074300Y-30680400D02*
X36900200Y-30680400D01*
X36900200Y-30680400D02*
X34411000Y-30680400D01*
X34036000Y-52222400D02*
X36753800Y-52222400D01*
X24307800Y-48151800D02*
X23069800Y-48151800D01*
X29230000Y-30781400D02*
X29331000Y-30680400D01*
X22352000Y-54900100D02*
X22275800Y-54976300D01*
X36824000Y-30604200D02*
X36900200Y-30680400D01*
X41910000Y-30189900D02*
X44343700Y-30189900D01*
X31813200Y-30680400D02*
X31820200Y-30687400D01*
X18847200Y-40807800D02*
X24164800Y-40807800D01*
X23975800Y-47819800D02*
X24307800Y-48151800D01*
X41670700Y-52233100D02*
X41681400Y-52222400D01*
X24306000Y-48150000D02*
X24307800Y-48151800D01*
X22352000Y-53187600D02*
X22352000Y-54900100D01*
X44343700Y-30189900D02*
X45247400Y-29286200D01*
X24003000Y-41001600D02*
X24028400Y-40976200D01*
X39598600Y-48101000D02*
X39547800Y-48151800D01*
X36982400Y-48126400D02*
X37007800Y-48151800D01*
X32156400Y-39344600D02*
X32192000Y-39380200D01*
X33274000Y-43434000D02*
X32217400Y-42377400D01*
X32192000Y-39380200D02*
X32192000Y-42377400D01*
X32217400Y-42377400D02*
X32192000Y-42377400D01*
X34442400Y-48126400D02*
X34467800Y-48151800D01*
X29413200Y-48126400D02*
X29387800Y-48151800D01*
X29235400Y-39344600D02*
X29235400Y-41859200D01*
X30810200Y-43434000D02*
X29235400Y-41859200D01*
X29972000Y-60807600D02*
X30429200Y-61264800D01*
X36124150Y-61264800D02*
X36327350Y-61061600D01*
X33070800Y-61264800D02*
X36124150Y-61264800D01*
X29997400Y-60782200D02*
X29972000Y-60807600D01*
X30429200Y-61264800D02*
X33070800Y-61264800D01*
X29997400Y-58383900D02*
X29997400Y-60782200D01*
X36316650Y-58383900D02*
X36352750Y-58420000D01*
X26670000Y-59131200D02*
X22910800Y-59131200D01*
X34249900Y-59791600D02*
X32842200Y-58383900D01*
X22326600Y-59715400D02*
X22326600Y-60782200D01*
X34518600Y-59791600D02*
X34249900Y-59791600D01*
X32842200Y-57454800D02*
X32334200Y-56946800D01*
X32842200Y-58383900D02*
X36316650Y-58383900D01*
X32334200Y-56946800D02*
X28854400Y-56946800D01*
X22910800Y-59131200D02*
X22326600Y-59715400D01*
X22326600Y-60782200D02*
X22352000Y-60807600D01*
X28854400Y-56946800D02*
X26670000Y-59131200D01*
X32842200Y-58383900D02*
X32842200Y-57454800D01*
X33045400Y-63754000D02*
X36378150Y-63754000D01*
X24892000Y-60807600D02*
X27432000Y-60807600D01*
X27432000Y-62103000D02*
X29083000Y-63754000D01*
X27432000Y-60807600D02*
X27432000Y-62103000D01*
X29083000Y-63754000D02*
X33045400Y-63754000D01*
X24892000Y-63235300D02*
X24855900Y-63271400D01*
X24892000Y-60807600D02*
X24892000Y-63235300D01*
X41910000Y-27264900D02*
X42037000Y-27137900D01*
X42037000Y-25059700D02*
X41198800Y-24221500D01*
X42037000Y-27137900D02*
X42037000Y-25059700D01*
X29331000Y-33605400D02*
X29331000Y-37064600D01*
X29331000Y-37064600D02*
X29235400Y-37160200D01*
X42494200Y-56489600D02*
X42494200Y-60756800D01*
X39497000Y-63754000D02*
X38562550Y-63754000D01*
X41681400Y-55676800D02*
X42494200Y-56489600D01*
X41681400Y-55147400D02*
X41681400Y-55676800D01*
X42494200Y-60756800D02*
X39497000Y-63754000D01*
X31820200Y-36824000D02*
X32156400Y-37160200D01*
X31820200Y-33612400D02*
X31820200Y-36824000D01*
X31820200Y-36979400D02*
X31845600Y-37004800D01*
X38537150Y-57409350D02*
X38537150Y-58420000D01*
X36753800Y-55626000D02*
X38537150Y-57409350D01*
X36753800Y-55147400D02*
X36753800Y-55626000D01*
X34411000Y-36979400D02*
X34385600Y-37004800D01*
X34411000Y-33605400D02*
X34411000Y-36519200D01*
X34411000Y-36519200D02*
X35077400Y-37185600D01*
X39217600Y-55803800D02*
X40640000Y-57226200D01*
X39217600Y-55158100D02*
X39217600Y-55803800D01*
X40640000Y-57226200D02*
X40640000Y-60248800D01*
X39827200Y-61061600D02*
X38511750Y-61061600D01*
X40640000Y-60248800D02*
X39827200Y-61061600D01*
X38537150Y-61087000D02*
X38511750Y-61061600D01*
X38023800Y-35763200D02*
X38023800Y-37160200D01*
X36900200Y-34639600D02*
X38023800Y-35763200D01*
X36900200Y-33605400D02*
X36900200Y-34639600D01*
X36830000Y-33675600D02*
X36900200Y-33605400D01*
X39522400Y-33593500D02*
X39522400Y-33832800D01*
X39522400Y-33832800D02*
X40919400Y-35229800D01*
X40919400Y-35229800D02*
X40919400Y-37160200D01*
X39452200Y-33663700D02*
X39522400Y-33593500D01*
X17754600Y-50698400D02*
X19304400Y-49148600D01*
X25461500Y-57901300D02*
X22275800Y-57901300D01*
X27432000Y-55738300D02*
X27472100Y-55778400D01*
X27025600Y-55778400D02*
X26009600Y-56794400D01*
X27472100Y-55778400D02*
X27025600Y-55778400D01*
X19064700Y-57901300D02*
X17780000Y-56616600D01*
X17780000Y-56616600D02*
X17780000Y-53009800D01*
X26009600Y-57353200D02*
X25461500Y-57901300D01*
X17754600Y-52984400D02*
X17754600Y-51739800D01*
X19304400Y-49148600D02*
X19304400Y-46014800D01*
X27472100Y-55778400D02*
X27472100Y-56449500D01*
X27432000Y-53187600D02*
X27432000Y-55738300D01*
X17754600Y-50076100D02*
X16205200Y-48526700D01*
X22275800Y-57901300D02*
X19064700Y-57901300D01*
X26009600Y-56794400D02*
X26009600Y-57353200D01*
X17780000Y-53009800D02*
X17754600Y-52984400D01*
X17754600Y-51130200D02*
X17754600Y-51739800D01*
X17754600Y-50698400D02*
X17754600Y-50076100D01*
X17754600Y-51739800D02*
X17754600Y-50698400D01*
X19304400Y-43474800D02*
X17218500Y-43474800D01*
X20320000Y-50088800D02*
X20320000Y-55803800D01*
X19304400Y-43474800D02*
X20386200Y-43474800D01*
X20386200Y-43474800D02*
X20929600Y-44018200D01*
X20320000Y-55803800D02*
X20878800Y-56362600D01*
X17218500Y-43474800D02*
X16383000Y-44310300D01*
X23596600Y-56362600D02*
X24180800Y-55778400D01*
X20878800Y-56362600D02*
X23596600Y-56362600D01*
X20929600Y-44018200D02*
X20929600Y-49479200D01*
X24547100Y-53532500D02*
X24892000Y-53187600D01*
X24851900Y-50774600D02*
X24851900Y-53147500D01*
X24851900Y-53147500D02*
X24892000Y-53187600D01*
X24547100Y-56021700D02*
X24547100Y-55778400D01*
X20929600Y-49479200D02*
X20320000Y-50088800D01*
X24547100Y-55778400D02*
X24547100Y-53532500D01*
X24180800Y-55778400D02*
X24547100Y-55778400D01*
X64084200Y-57175400D02*
X64389000Y-57480200D01*
X60589000Y-57175400D02*
X64084200Y-57175400D01*
X60589000Y-54635400D02*
X64160400Y-54635400D01*
X64160400Y-54635400D02*
X64414400Y-54889400D01*
X61341000Y-52349400D02*
X61366400Y-52324000D01*
X61087000Y-52095400D02*
X61341000Y-52349400D01*
X60589000Y-52095400D02*
X61087000Y-52095400D01*
X61366400Y-52324000D02*
X64389000Y-52324000D01*
X64287400Y-49555400D02*
X64414400Y-49682400D01*
X60589000Y-49555400D02*
X64287400Y-49555400D01*
X64287400Y-47015400D02*
X64389000Y-47117000D01*
X60589000Y-47015400D02*
X64287400Y-47015400D01*
X60589000Y-44475400D02*
X64287400Y-44475400D01*
X64287400Y-44475400D02*
X64389000Y-44577000D01*
X64287400Y-41935400D02*
X64414400Y-42062400D01*
X60589000Y-41935400D02*
X64287400Y-41935400D01*
X64287400Y-39395400D02*
X64389000Y-39497000D01*
X60589000Y-39395400D02*
X64287400Y-39395400D01*
X64287400Y-36855400D02*
X64389000Y-36957000D01*
X60589000Y-36855400D02*
X64287400Y-36855400D01*
X64389000Y-34417000D02*
X60690600Y-34417000D01*
X60690600Y-34417000D02*
X60589000Y-34315400D01*
X64338200Y-31775400D02*
X64414400Y-31851600D01*
X60589000Y-31775400D02*
X64338200Y-31775400D01*
X60589000Y-26695400D02*
X64389000Y-26695400D01*
X64389000Y-24155400D02*
X64414400Y-24180800D01*
X60589000Y-24155400D02*
X64389000Y-24155400D01*
X64389000Y-21615400D02*
X64414400Y-21640800D01*
X60589000Y-21615400D02*
X64389000Y-21615400D01*
G04 #@! TA.AperFunction,Conductor*
G36*
X62590538Y-13634501D02*
G01*
X62658659Y-13654503D01*
X62705152Y-13708159D01*
X62715256Y-13778433D01*
X62683583Y-13845463D01*
X62552813Y-13988674D01*
X62548369Y-13994123D01*
X62351655Y-14264877D01*
X62347838Y-14270799D01*
X62182534Y-14561788D01*
X62179404Y-14568093D01*
X62047560Y-14875708D01*
X62045158Y-14882309D01*
X61948426Y-15202697D01*
X61946771Y-15209540D01*
X61886357Y-15538706D01*
X61885474Y-15545700D01*
X61862129Y-15879546D01*
X61862031Y-15886591D01*
X61876046Y-16220966D01*
X61876731Y-16227956D01*
X61927933Y-16558706D01*
X61929393Y-16565573D01*
X62017145Y-16888552D01*
X62019359Y-16895208D01*
X62142564Y-17206389D01*
X62145518Y-17212782D01*
X62302632Y-17508270D01*
X62306279Y-17514293D01*
X62495357Y-17790434D01*
X62499651Y-17796009D01*
X62659933Y-17981697D01*
X62672975Y-17990114D01*
X62683006Y-17984175D01*
X63168068Y-17499113D01*
X63230380Y-17465087D01*
X63301195Y-17470152D01*
X63351912Y-17505150D01*
X63354555Y-17508165D01*
X63384418Y-17572575D01*
X63374719Y-17642906D01*
X63348901Y-17680318D01*
X62866656Y-18162563D01*
X62859042Y-18176507D01*
X62859081Y-18177052D01*
X62864683Y-18185412D01*
X62968768Y-18281795D01*
X62974210Y-18286297D01*
X63243572Y-18484889D01*
X63249462Y-18488743D01*
X63539299Y-18656080D01*
X63545568Y-18659247D01*
X63852264Y-18793240D01*
X63858847Y-18795688D01*
X64178562Y-18894656D01*
X64185377Y-18896355D01*
X64514137Y-18959069D01*
X64521086Y-18959996D01*
X64854802Y-18985675D01*
X64861809Y-18985821D01*
X65196295Y-18974141D01*
X65203291Y-18973504D01*
X65534370Y-18924615D01*
X65541269Y-18923199D01*
X65864853Y-18837704D01*
X65871513Y-18835540D01*
X66183556Y-18714506D01*
X66189955Y-18711603D01*
X66486545Y-18556549D01*
X66492590Y-18552946D01*
X66770051Y-18365797D01*
X66775644Y-18361552D01*
X66978745Y-18188700D01*
X66987177Y-18175832D01*
X66981148Y-18165567D01*
X66495899Y-17680318D01*
X66461873Y-17618006D01*
X66466938Y-17547191D01*
X66490245Y-17508165D01*
X66492888Y-17505150D01*
X66552834Y-17467110D01*
X66623829Y-17467518D01*
X66676732Y-17499113D01*
X67159271Y-17981652D01*
X67175674Y-17990609D01*
X67225876Y-18040812D01*
X67241287Y-18101063D01*
X67287117Y-62194850D01*
X67287716Y-62770947D01*
X67267785Y-62839089D01*
X67214177Y-62885637D01*
X67143914Y-62895814D01*
X67077406Y-62864715D01*
X66969928Y-62767942D01*
X66964452Y-62763539D01*
X66692328Y-62568716D01*
X66686396Y-62564951D01*
X66394248Y-62401677D01*
X66387930Y-62398595D01*
X66079397Y-62268899D01*
X66072783Y-62266543D01*
X65751706Y-62172046D01*
X65744884Y-62170446D01*
X65415271Y-62112326D01*
X65408302Y-62111495D01*
X65074286Y-62090481D01*
X65067254Y-62090432D01*
X64732965Y-62106780D01*
X64725987Y-62107514D01*
X64395610Y-62161024D01*
X64388742Y-62162534D01*
X64066396Y-62252535D01*
X64059740Y-62254801D01*
X63749432Y-62380173D01*
X63743077Y-62383163D01*
X63448673Y-62542347D01*
X63442684Y-62546031D01*
X63167859Y-62737040D01*
X63162328Y-62741361D01*
X62993841Y-62888860D01*
X62985443Y-62902074D01*
X62991288Y-62911869D01*
X63313298Y-63233879D01*
X63347324Y-63296191D01*
X63342259Y-63367006D01*
X63318952Y-63406032D01*
X63316309Y-63409047D01*
X63256363Y-63447087D01*
X63185368Y-63446679D01*
X63132465Y-63415084D01*
X62812637Y-63095256D01*
X62798693Y-63087642D01*
X62798384Y-63087664D01*
X62789713Y-63093518D01*
X62679813Y-63213874D01*
X62675369Y-63219323D01*
X62478655Y-63490077D01*
X62474838Y-63495999D01*
X62309534Y-63786988D01*
X62306404Y-63793293D01*
X62174560Y-64100908D01*
X62172158Y-64107509D01*
X62075426Y-64427897D01*
X62073771Y-64434740D01*
X62013357Y-64763906D01*
X62012474Y-64770900D01*
X61989129Y-65104746D01*
X61989031Y-65111791D01*
X62003046Y-65446166D01*
X62003731Y-65453156D01*
X62054933Y-65783906D01*
X62056393Y-65790773D01*
X62144145Y-66113752D01*
X62146359Y-66120408D01*
X62269564Y-66431589D01*
X62272518Y-66437982D01*
X62429632Y-66733470D01*
X62433279Y-66739493D01*
X62622357Y-67015634D01*
X62626644Y-67021200D01*
X62676608Y-67079083D01*
X62705978Y-67143720D01*
X62695741Y-67213975D01*
X62649146Y-67267542D01*
X62581096Y-67287415D01*
X18410918Y-67241547D01*
X18342818Y-67221474D01*
X18296381Y-67167770D01*
X18286350Y-67097486D01*
X18310157Y-67040070D01*
X18473109Y-66822248D01*
X18476999Y-66816394D01*
X18646356Y-66527730D01*
X18649571Y-66521476D01*
X18785696Y-66215734D01*
X18788193Y-66209159D01*
X18889388Y-65890154D01*
X18891140Y-65883331D01*
X18956143Y-65555035D01*
X18957121Y-65548079D01*
X18985239Y-65213245D01*
X18985452Y-65208879D01*
X18986585Y-65127778D01*
X18986494Y-65123428D01*
X18967736Y-64787927D01*
X18966952Y-64780937D01*
X18911140Y-64450957D01*
X18909582Y-64444098D01*
X18817328Y-64122371D01*
X18815025Y-64115758D01*
X18742944Y-63940875D01*
X21112401Y-63940875D01*
X21112771Y-63947696D01*
X21118269Y-63998316D01*
X21121896Y-64013573D01*
X21166850Y-64133488D01*
X21175382Y-64149074D01*
X21251543Y-64250694D01*
X21264106Y-64263257D01*
X21365726Y-64339418D01*
X21381312Y-64347950D01*
X21501232Y-64392906D01*
X21516477Y-64396531D01*
X21567108Y-64402031D01*
X21573922Y-64402400D01*
X21784785Y-64402400D01*
X21800024Y-64397925D01*
X21801229Y-64396535D01*
X21802900Y-64388852D01*
X21802900Y-64384284D01*
X22058900Y-64384284D01*
X22063375Y-64399523D01*
X22064765Y-64400728D01*
X22072448Y-64402399D01*
X22287875Y-64402399D01*
X22294696Y-64402029D01*
X22345316Y-64396531D01*
X22360573Y-64392904D01*
X22480488Y-64347950D01*
X22496074Y-64339418D01*
X22597694Y-64263257D01*
X22610257Y-64250694D01*
X22686418Y-64149074D01*
X22694950Y-64133488D01*
X22739906Y-64013568D01*
X22743531Y-63998323D01*
X22749031Y-63947692D01*
X22749400Y-63940878D01*
X22749400Y-63417515D01*
X22744925Y-63402276D01*
X22743535Y-63401071D01*
X22735852Y-63399400D01*
X22077015Y-63399400D01*
X22061776Y-63403875D01*
X22060571Y-63405265D01*
X22058900Y-63412948D01*
X22058900Y-64384284D01*
X21802900Y-64384284D01*
X21802900Y-63417515D01*
X21798425Y-63402276D01*
X21797035Y-63401071D01*
X21789352Y-63399400D01*
X21130516Y-63399400D01*
X21115277Y-63403875D01*
X21114072Y-63405265D01*
X21112401Y-63412948D01*
X21112401Y-63940875D01*
X18742944Y-63940875D01*
X18687484Y-63806319D01*
X18684444Y-63799974D01*
X18523214Y-63506700D01*
X18519489Y-63500739D01*
X18326569Y-63227257D01*
X18322211Y-63221758D01*
X18187717Y-63070273D01*
X18174331Y-63061897D01*
X18164772Y-63067647D01*
X17803802Y-63428617D01*
X17741490Y-63462643D01*
X17670675Y-63457578D01*
X17619960Y-63422582D01*
X17617315Y-63419565D01*
X17587452Y-63355155D01*
X17597151Y-63284824D01*
X17622969Y-63247412D01*
X17981649Y-62888732D01*
X17989263Y-62874788D01*
X17989258Y-62874714D01*
X17983151Y-62865736D01*
X17846339Y-62742551D01*
X17840852Y-62738139D01*
X17568728Y-62543316D01*
X17562796Y-62539551D01*
X17270648Y-62376277D01*
X17264330Y-62373195D01*
X16955797Y-62243499D01*
X16949183Y-62241143D01*
X16628106Y-62146646D01*
X16621284Y-62145046D01*
X16291671Y-62086926D01*
X16284702Y-62086095D01*
X15950686Y-62065081D01*
X15943654Y-62065032D01*
X15609365Y-62081380D01*
X15602387Y-62082114D01*
X15272010Y-62135624D01*
X15265142Y-62137134D01*
X14942796Y-62227135D01*
X14936140Y-62229401D01*
X14625832Y-62354773D01*
X14619477Y-62357763D01*
X14325073Y-62516947D01*
X14319084Y-62520631D01*
X14044259Y-62711640D01*
X14038739Y-62715953D01*
X13891629Y-62844737D01*
X13827198Y-62874557D01*
X13756874Y-62864810D01*
X13702983Y-62818590D01*
X13682634Y-62750062D01*
X13682595Y-62712322D01*
X13667017Y-47583225D01*
X14401700Y-47583225D01*
X14401701Y-49216171D01*
X14404772Y-49254571D01*
X14406427Y-49260460D01*
X14406428Y-49260464D01*
X14418266Y-49302578D01*
X14449342Y-49413134D01*
X14530447Y-49556487D01*
X14554013Y-49583885D01*
X15148021Y-50177892D01*
X15177341Y-50202870D01*
X15182675Y-50205864D01*
X15182679Y-50205866D01*
X15314354Y-50279758D01*
X15314358Y-50279760D01*
X15320977Y-50283474D01*
X15328294Y-50285503D01*
X15328296Y-50285504D01*
X15473751Y-50325843D01*
X15473753Y-50325843D01*
X15479694Y-50327491D01*
X15497726Y-50328847D01*
X15513364Y-50330023D01*
X15513378Y-50330024D01*
X15515725Y-50330200D01*
X15559052Y-50330200D01*
X16463806Y-50330199D01*
X16531927Y-50350201D01*
X16552901Y-50367104D01*
X16662195Y-50476398D01*
X16696221Y-50538710D01*
X16699100Y-50565493D01*
X16699100Y-50638098D01*
X16698455Y-50650831D01*
X16693999Y-50694698D01*
X16694579Y-50700829D01*
X16698541Y-50742747D01*
X16699100Y-50754605D01*
X16699100Y-52919994D01*
X16698363Y-52933602D01*
X16694051Y-52973293D01*
X16694588Y-52979432D01*
X16694588Y-52979438D01*
X16698623Y-53025560D01*
X16698953Y-53030392D01*
X16699100Y-53033397D01*
X16699100Y-53036485D01*
X16699401Y-53039551D01*
X16703495Y-53081315D01*
X16703616Y-53082626D01*
X16712092Y-53179500D01*
X16713648Y-53184855D01*
X16714192Y-53190406D01*
X16715975Y-53196311D01*
X16715975Y-53196312D01*
X16719122Y-53206735D01*
X16724500Y-53243153D01*
X16724500Y-56552194D01*
X16723763Y-56565802D01*
X16721146Y-56589894D01*
X16719451Y-56605493D01*
X16719988Y-56611632D01*
X16719988Y-56611638D01*
X16724023Y-56657760D01*
X16724353Y-56662592D01*
X16724500Y-56665597D01*
X16724500Y-56668685D01*
X16726619Y-56690300D01*
X16728895Y-56713515D01*
X16729016Y-56714826D01*
X16737492Y-56811700D01*
X16739048Y-56817055D01*
X16739592Y-56822606D01*
X16754922Y-56873380D01*
X16767708Y-56915730D01*
X16768079Y-56916984D01*
X16795241Y-57010475D01*
X16797808Y-57015428D01*
X16799420Y-57020766D01*
X16802312Y-57026205D01*
X16845065Y-57106612D01*
X16845679Y-57107780D01*
X16885945Y-57185460D01*
X16890500Y-57194248D01*
X16893980Y-57198608D01*
X16896598Y-57203531D01*
X16903963Y-57212561D01*
X16958100Y-57278940D01*
X16958929Y-57279968D01*
X16989437Y-57318186D01*
X16989444Y-57318194D01*
X16991633Y-57320936D01*
X16994126Y-57323429D01*
X16995158Y-57324583D01*
X16998846Y-57328899D01*
X17027424Y-57363940D01*
X17032169Y-57367865D01*
X17064609Y-57394702D01*
X17073389Y-57402692D01*
X18272803Y-58602106D01*
X18281905Y-58612250D01*
X18303061Y-58638564D01*
X18303069Y-58638573D01*
X18306925Y-58643368D01*
X18347116Y-58677092D01*
X18350764Y-58680275D01*
X18352996Y-58682299D01*
X18355178Y-58684481D01*
X18390000Y-58713084D01*
X18390923Y-58713851D01*
X18460765Y-58772456D01*
X18460774Y-58772462D01*
X18465492Y-58776421D01*
X18470379Y-58779107D01*
X18474689Y-58782648D01*
X18480123Y-58785562D01*
X18480125Y-58785563D01*
X18560532Y-58828676D01*
X18561525Y-58829215D01*
X18646882Y-58876141D01*
X18652199Y-58877828D01*
X18657114Y-58880463D01*
X18663004Y-58882264D01*
X18663007Y-58882265D01*
X18721840Y-58900252D01*
X18750145Y-58908905D01*
X18751349Y-58909280D01*
X18844187Y-58938730D01*
X18849731Y-58939352D01*
X18855063Y-58940982D01*
X18861188Y-58941604D01*
X18861192Y-58941605D01*
X18917858Y-58947361D01*
X18951904Y-58950819D01*
X18953085Y-58950945D01*
X18984279Y-58954444D01*
X19001784Y-58956408D01*
X19001789Y-58956408D01*
X19005281Y-58956800D01*
X19008805Y-58956800D01*
X19010345Y-58956886D01*
X19016043Y-58957335D01*
X19025773Y-58958323D01*
X19054870Y-58961279D01*
X19054874Y-58961279D01*
X19060997Y-58961901D01*
X19109047Y-58957359D01*
X19120904Y-58956800D01*
X21045131Y-58956800D01*
X21113252Y-58976802D01*
X21124426Y-58984880D01*
X21136090Y-58994326D01*
X21136095Y-58994329D01*
X21141222Y-58998481D01*
X21315502Y-59087281D01*
X21314507Y-59089234D01*
X21362838Y-59126146D01*
X21387007Y-59192902D01*
X21371662Y-59261380D01*
X21351759Y-59297582D01*
X21350072Y-59302899D01*
X21347437Y-59307814D01*
X21345636Y-59313704D01*
X21345635Y-59313707D01*
X21329399Y-59366813D01*
X21319141Y-59400368D01*
X21319004Y-59400815D01*
X21318620Y-59402049D01*
X21289170Y-59494887D01*
X21288548Y-59500431D01*
X21286918Y-59505763D01*
X21286296Y-59511888D01*
X21286295Y-59511892D01*
X21277089Y-59602529D01*
X21276953Y-59603803D01*
X21271100Y-59655981D01*
X21271100Y-59659505D01*
X21271014Y-59661045D01*
X21270566Y-59666741D01*
X21265999Y-59711698D01*
X21267557Y-59728181D01*
X21268265Y-59735672D01*
X21254762Y-59805373D01*
X21233918Y-59834580D01*
X21201064Y-59868960D01*
X21197492Y-59872698D01*
X21060301Y-60073813D01*
X20957799Y-60294634D01*
X20892740Y-60529231D01*
X20892192Y-60534359D01*
X20892191Y-60534364D01*
X20868679Y-60754371D01*
X20866869Y-60771304D01*
X20867166Y-60776456D01*
X20867166Y-60776460D01*
X20880586Y-61009193D01*
X20880587Y-61009199D01*
X20880884Y-61014352D01*
X20934405Y-61251847D01*
X21025998Y-61477412D01*
X21028695Y-61481813D01*
X21028696Y-61481815D01*
X21069684Y-61548701D01*
X21153201Y-61684988D01*
X21312598Y-61869002D01*
X21436397Y-61971781D01*
X21437296Y-61972528D01*
X21476931Y-62031430D01*
X21478429Y-62102411D01*
X21441315Y-62162934D01*
X21401040Y-62187454D01*
X21381311Y-62194850D01*
X21365726Y-62203382D01*
X21264106Y-62279543D01*
X21251543Y-62292106D01*
X21175382Y-62393726D01*
X21166850Y-62409312D01*
X21121894Y-62529232D01*
X21118269Y-62544477D01*
X21112769Y-62595108D01*
X21112400Y-62601922D01*
X21112400Y-63125285D01*
X21116875Y-63140524D01*
X21118265Y-63141729D01*
X21125948Y-63143400D01*
X22731284Y-63143400D01*
X22746523Y-63138925D01*
X22747728Y-63137535D01*
X22749399Y-63129852D01*
X22749399Y-62601925D01*
X22749029Y-62595104D01*
X22743531Y-62544484D01*
X22739904Y-62529227D01*
X22691800Y-62400908D01*
X22693031Y-62400446D01*
X22679817Y-62340011D01*
X22704557Y-62273464D01*
X22761347Y-62230857D01*
X22769298Y-62228180D01*
X22889095Y-62192239D01*
X22889096Y-62192239D01*
X22894051Y-62190752D01*
X22898690Y-62188479D01*
X22898696Y-62188477D01*
X23108043Y-62085919D01*
X23108046Y-62085917D01*
X23112678Y-62083648D01*
X23310875Y-61942276D01*
X23483322Y-61770430D01*
X23518942Y-61720859D01*
X23574936Y-61677211D01*
X23645640Y-61670765D01*
X23708604Y-61703567D01*
X23716496Y-61711880D01*
X23767213Y-61770430D01*
X23805738Y-61814905D01*
X23835220Y-61879491D01*
X23836500Y-61897402D01*
X23836500Y-61996151D01*
X23816498Y-62064272D01*
X23808420Y-62075445D01*
X23762878Y-62131685D01*
X23762875Y-62131690D01*
X23758719Y-62136822D01*
X23669919Y-62311102D01*
X23668211Y-62317475D01*
X23668211Y-62317476D01*
X23643604Y-62409312D01*
X23619294Y-62500036D01*
X23618841Y-62505792D01*
X23613889Y-62568716D01*
X23612900Y-62581280D01*
X23612900Y-63961520D01*
X23613093Y-63963968D01*
X23613093Y-63963977D01*
X23613983Y-63975285D01*
X23619294Y-64042764D01*
X23620787Y-64048337D01*
X23620788Y-64048341D01*
X23643837Y-64134359D01*
X23669919Y-64231698D01*
X23758719Y-64405978D01*
X23881813Y-64557987D01*
X23886939Y-64562138D01*
X23972445Y-64631379D01*
X24033822Y-64681081D01*
X24208102Y-64769881D01*
X24214475Y-64771589D01*
X24214476Y-64771589D01*
X24391459Y-64819012D01*
X24391463Y-64819013D01*
X24397036Y-64820506D01*
X24402792Y-64820959D01*
X24475823Y-64826707D01*
X24475832Y-64826707D01*
X24478280Y-64826900D01*
X25233520Y-64826900D01*
X25235968Y-64826707D01*
X25235977Y-64826707D01*
X25309008Y-64820959D01*
X25314764Y-64820506D01*
X25320337Y-64819013D01*
X25320341Y-64819012D01*
X25497324Y-64771589D01*
X25497325Y-64771589D01*
X25503698Y-64769881D01*
X25677978Y-64681081D01*
X25739355Y-64631379D01*
X25824861Y-64562138D01*
X25829987Y-64557987D01*
X25953081Y-64405978D01*
X26041881Y-64231698D01*
X26067963Y-64134359D01*
X26091012Y-64048341D01*
X26091013Y-64048337D01*
X26092506Y-64042764D01*
X26097817Y-63975285D01*
X26098707Y-63963977D01*
X26098707Y-63963968D01*
X26098900Y-63961520D01*
X26098900Y-62581280D01*
X26097912Y-62568716D01*
X26092959Y-62505792D01*
X26092506Y-62500036D01*
X26068197Y-62409312D01*
X26043589Y-62317476D01*
X26043589Y-62317475D01*
X26041881Y-62311102D01*
X25963949Y-62158151D01*
X25961233Y-62152821D01*
X25947500Y-62095618D01*
X25947500Y-61989100D01*
X25967502Y-61920979D01*
X26021158Y-61874486D01*
X26073500Y-61863100D01*
X26250500Y-61863100D01*
X26318621Y-61883102D01*
X26365114Y-61936758D01*
X26376500Y-61989100D01*
X26376500Y-62038594D01*
X26375763Y-62052202D01*
X26372347Y-62083648D01*
X26371451Y-62091893D01*
X26371988Y-62098032D01*
X26371988Y-62098038D01*
X26376023Y-62144160D01*
X26376353Y-62148992D01*
X26376500Y-62151997D01*
X26376500Y-62155085D01*
X26377270Y-62162934D01*
X26380895Y-62199915D01*
X26381016Y-62201226D01*
X26389492Y-62298100D01*
X26391048Y-62303455D01*
X26391592Y-62309006D01*
X26393375Y-62314911D01*
X26393375Y-62314912D01*
X26396542Y-62325400D01*
X26419200Y-62400446D01*
X26419708Y-62402130D01*
X26420079Y-62403384D01*
X26447241Y-62496875D01*
X26449808Y-62501828D01*
X26451420Y-62507166D01*
X26454312Y-62512605D01*
X26497065Y-62593012D01*
X26497679Y-62594180D01*
X26542500Y-62680648D01*
X26545980Y-62685008D01*
X26548598Y-62689931D01*
X26566860Y-62712322D01*
X26610100Y-62765340D01*
X26610929Y-62766368D01*
X26641437Y-62804586D01*
X26641444Y-62804594D01*
X26643633Y-62807336D01*
X26646126Y-62809829D01*
X26647158Y-62810983D01*
X26650846Y-62815299D01*
X26679424Y-62850340D01*
X26708887Y-62874714D01*
X26716609Y-62881102D01*
X26725389Y-62889092D01*
X28291099Y-64454801D01*
X28300201Y-64464945D01*
X28321361Y-64491264D01*
X28321370Y-64491273D01*
X28325225Y-64496068D01*
X28329943Y-64500027D01*
X28329949Y-64500033D01*
X28365431Y-64529806D01*
X28369078Y-64532987D01*
X28371300Y-64535002D01*
X28373479Y-64537181D01*
X28375856Y-64539134D01*
X28375861Y-64539138D01*
X28408174Y-64565680D01*
X28409189Y-64566522D01*
X28483792Y-64629121D01*
X28488679Y-64631808D01*
X28492989Y-64635348D01*
X28498421Y-64638261D01*
X28498423Y-64638262D01*
X28539046Y-64660044D01*
X28578280Y-64681081D01*
X28578761Y-64681339D01*
X28579890Y-64681952D01*
X28665182Y-64728841D01*
X28670495Y-64730526D01*
X28675414Y-64733164D01*
X28681306Y-64734966D01*
X28681310Y-64734967D01*
X28768517Y-64761629D01*
X28769776Y-64762021D01*
X28785110Y-64766885D01*
X28862487Y-64791430D01*
X28868028Y-64792051D01*
X28873364Y-64793683D01*
X28879498Y-64794306D01*
X28879503Y-64794307D01*
X28970153Y-64803514D01*
X28971467Y-64803654D01*
X29020083Y-64809108D01*
X29020090Y-64809108D01*
X29023581Y-64809500D01*
X29027104Y-64809500D01*
X29028644Y-64809586D01*
X29034336Y-64810034D01*
X29055454Y-64812179D01*
X29073172Y-64813979D01*
X29073175Y-64813979D01*
X29079298Y-64814601D01*
X29127348Y-64810059D01*
X29139205Y-64809500D01*
X32799770Y-64809500D01*
X32827578Y-64812607D01*
X32898126Y-64828571D01*
X32898129Y-64828571D01*
X32903762Y-64829846D01*
X32909533Y-64830073D01*
X32909535Y-64830073D01*
X32970782Y-64832479D01*
X33102191Y-64837642D01*
X33287290Y-64810804D01*
X33305369Y-64809500D01*
X34890900Y-64809500D01*
X34959021Y-64829502D01*
X35005514Y-64883158D01*
X35016900Y-64935500D01*
X35016900Y-65138592D01*
X35023381Y-65209122D01*
X35072635Y-65366292D01*
X35157958Y-65507177D01*
X35274423Y-65623642D01*
X35415308Y-65708965D01*
X35422555Y-65711236D01*
X35422557Y-65711237D01*
X35566092Y-65756218D01*
X35566094Y-65756218D01*
X35572478Y-65758219D01*
X35643008Y-65764700D01*
X37051792Y-65764700D01*
X37122322Y-65758219D01*
X37128706Y-65756218D01*
X37128708Y-65756218D01*
X37239421Y-65721523D01*
X37314779Y-65721523D01*
X37425492Y-65756218D01*
X37425494Y-65756218D01*
X37431878Y-65758219D01*
X37502408Y-65764700D01*
X39561192Y-65764700D01*
X39631722Y-65758219D01*
X39638106Y-65756218D01*
X39638108Y-65756218D01*
X39781643Y-65711237D01*
X39781645Y-65711236D01*
X39788892Y-65708965D01*
X39929777Y-65623642D01*
X40046242Y-65507177D01*
X40131565Y-65366292D01*
X40180819Y-65209122D01*
X40187300Y-65138592D01*
X40187300Y-64689925D01*
X44190300Y-64689925D01*
X44190301Y-65662871D01*
X44193372Y-65701271D01*
X44195027Y-65707160D01*
X44195028Y-65707164D01*
X44200060Y-65725065D01*
X44237942Y-65859834D01*
X44319047Y-66003187D01*
X44342613Y-66030585D01*
X44716621Y-66404592D01*
X44745941Y-66429570D01*
X44751275Y-66432564D01*
X44751279Y-66432566D01*
X44882954Y-66506458D01*
X44882958Y-66506460D01*
X44889577Y-66510174D01*
X44896894Y-66512203D01*
X44896896Y-66512204D01*
X45042351Y-66552543D01*
X45042353Y-66552543D01*
X45048294Y-66554191D01*
X45066326Y-66555547D01*
X45081964Y-66556723D01*
X45081978Y-66556724D01*
X45084325Y-66556900D01*
X45748590Y-66556900D01*
X46457271Y-66556899D01*
X46467048Y-66556117D01*
X46489570Y-66554316D01*
X46489571Y-66554316D01*
X46495671Y-66553828D01*
X46501560Y-66552173D01*
X46501564Y-66552172D01*
X46577183Y-66530916D01*
X46654234Y-66509258D01*
X46797587Y-66428153D01*
X46824985Y-66404587D01*
X46977105Y-66252467D01*
X47039417Y-66218441D01*
X47110232Y-66223506D01*
X47155295Y-66252467D01*
X47305620Y-66402792D01*
X47305633Y-66402804D01*
X47307421Y-66404592D01*
X47336741Y-66429570D01*
X47342075Y-66432564D01*
X47342079Y-66432566D01*
X47473754Y-66506458D01*
X47473758Y-66506460D01*
X47480377Y-66510174D01*
X47487694Y-66512203D01*
X47487696Y-66512204D01*
X47633151Y-66552543D01*
X47633153Y-66552543D01*
X47639094Y-66554191D01*
X47657126Y-66555547D01*
X47672764Y-66556723D01*
X47672778Y-66556724D01*
X47675125Y-66556900D01*
X48339390Y-66556900D01*
X49048071Y-66556899D01*
X49057848Y-66556117D01*
X49080370Y-66554316D01*
X49080371Y-66554316D01*
X49086471Y-66553828D01*
X49092360Y-66552173D01*
X49092364Y-66552172D01*
X49167983Y-66530916D01*
X49245034Y-66509258D01*
X49388387Y-66428153D01*
X49415785Y-66404587D01*
X49542505Y-66277867D01*
X49604817Y-66243841D01*
X49675632Y-66248906D01*
X49720695Y-66277867D01*
X49871020Y-66428192D01*
X49871033Y-66428204D01*
X49872821Y-66429992D01*
X49902141Y-66454970D01*
X49907475Y-66457964D01*
X49907479Y-66457966D01*
X50039154Y-66531858D01*
X50039158Y-66531860D01*
X50045777Y-66535574D01*
X50053094Y-66537603D01*
X50053096Y-66537604D01*
X50198551Y-66577943D01*
X50198553Y-66577943D01*
X50204494Y-66579591D01*
X50222526Y-66580947D01*
X50238164Y-66582123D01*
X50238178Y-66582124D01*
X50240525Y-66582300D01*
X50904790Y-66582300D01*
X51613471Y-66582299D01*
X51623248Y-66581517D01*
X51645770Y-66579716D01*
X51645771Y-66579716D01*
X51651871Y-66579228D01*
X51657760Y-66577573D01*
X51657764Y-66577572D01*
X51748126Y-66552172D01*
X51810434Y-66534658D01*
X51953787Y-66453553D01*
X51981185Y-66429987D01*
X52355192Y-66055979D01*
X52380170Y-66026659D01*
X52383166Y-66021321D01*
X52457058Y-65889646D01*
X52457060Y-65889642D01*
X52460774Y-65883023D01*
X52504791Y-65724306D01*
X52506982Y-65695170D01*
X52507323Y-65690636D01*
X52507324Y-65690622D01*
X52507500Y-65688275D01*
X52507499Y-64715329D01*
X52504428Y-64676929D01*
X52497954Y-64653894D01*
X52466604Y-64542367D01*
X52459858Y-64518366D01*
X52378753Y-64375013D01*
X52355187Y-64347615D01*
X51981179Y-63973608D01*
X51951859Y-63948630D01*
X51946525Y-63945636D01*
X51946521Y-63945634D01*
X51814846Y-63871742D01*
X51814842Y-63871740D01*
X51808223Y-63868026D01*
X51800906Y-63865997D01*
X51800904Y-63865996D01*
X51655449Y-63825657D01*
X51655447Y-63825657D01*
X51649506Y-63824009D01*
X51631474Y-63822653D01*
X51615836Y-63821477D01*
X51615822Y-63821476D01*
X51613475Y-63821300D01*
X50949210Y-63821300D01*
X50240529Y-63821301D01*
X50238015Y-63821502D01*
X50238016Y-63821502D01*
X50208230Y-63823884D01*
X50208229Y-63823884D01*
X50202129Y-63824372D01*
X50196240Y-63826027D01*
X50196236Y-63826028D01*
X50144410Y-63840596D01*
X50043566Y-63868942D01*
X49900213Y-63950047D01*
X49872815Y-63973613D01*
X49746095Y-64100333D01*
X49683783Y-64134359D01*
X49612968Y-64129294D01*
X49567905Y-64100333D01*
X49417580Y-63950008D01*
X49417567Y-63949996D01*
X49415779Y-63948208D01*
X49386459Y-63923230D01*
X49381125Y-63920236D01*
X49381121Y-63920234D01*
X49249446Y-63846342D01*
X49249442Y-63846340D01*
X49242823Y-63842626D01*
X49235506Y-63840597D01*
X49235504Y-63840596D01*
X49090049Y-63800257D01*
X49090047Y-63800257D01*
X49084106Y-63798609D01*
X49066074Y-63797253D01*
X49050436Y-63796077D01*
X49050422Y-63796076D01*
X49048075Y-63795900D01*
X48383810Y-63795900D01*
X47675129Y-63795901D01*
X47672615Y-63796102D01*
X47672616Y-63796102D01*
X47642830Y-63798484D01*
X47642829Y-63798484D01*
X47636729Y-63798972D01*
X47630840Y-63800627D01*
X47630836Y-63800628D01*
X47571308Y-63817361D01*
X47478166Y-63843542D01*
X47334813Y-63924647D01*
X47315946Y-63940875D01*
X47309221Y-63946660D01*
X47307415Y-63948213D01*
X47155295Y-64100333D01*
X47092983Y-64134359D01*
X47022168Y-64129294D01*
X46977105Y-64100333D01*
X46826780Y-63950008D01*
X46826767Y-63949996D01*
X46824979Y-63948208D01*
X46795659Y-63923230D01*
X46790325Y-63920236D01*
X46790321Y-63920234D01*
X46658646Y-63846342D01*
X46658642Y-63846340D01*
X46652023Y-63842626D01*
X46644706Y-63840597D01*
X46644704Y-63840596D01*
X46499249Y-63800257D01*
X46499247Y-63800257D01*
X46493306Y-63798609D01*
X46475274Y-63797253D01*
X46459636Y-63796077D01*
X46459622Y-63796076D01*
X46457275Y-63795900D01*
X45793010Y-63795900D01*
X45084329Y-63795901D01*
X45081815Y-63796102D01*
X45081816Y-63796102D01*
X45052030Y-63798484D01*
X45052029Y-63798484D01*
X45045929Y-63798972D01*
X45040040Y-63800627D01*
X45040036Y-63800628D01*
X44980508Y-63817361D01*
X44887366Y-63843542D01*
X44744013Y-63924647D01*
X44716615Y-63948213D01*
X44342608Y-64322221D01*
X44317630Y-64351541D01*
X44314636Y-64356875D01*
X44314634Y-64356879D01*
X44240742Y-64488554D01*
X44240740Y-64488558D01*
X44237026Y-64495177D01*
X44234997Y-64502494D01*
X44234996Y-64502496D01*
X44198546Y-64633927D01*
X44193009Y-64653894D01*
X44192547Y-64660044D01*
X44190477Y-64687564D01*
X44190476Y-64687578D01*
X44190300Y-64689925D01*
X40187300Y-64689925D01*
X40187300Y-64612925D01*
X40207302Y-64544804D01*
X40233664Y-64515283D01*
X40244340Y-64506576D01*
X40275103Y-64469390D01*
X40283092Y-64460611D01*
X43195001Y-61548701D01*
X43205145Y-61539599D01*
X43231464Y-61518439D01*
X43231473Y-61518430D01*
X43236268Y-61514575D01*
X43240227Y-61509857D01*
X43240233Y-61509851D01*
X43270006Y-61474369D01*
X43273187Y-61470722D01*
X43275202Y-61468500D01*
X43277381Y-61466321D01*
X43305880Y-61431626D01*
X43306722Y-61430611D01*
X43315373Y-61420301D01*
X43369321Y-61356008D01*
X43372008Y-61351121D01*
X43375548Y-61346811D01*
X43378458Y-61341385D01*
X43378462Y-61341378D01*
X43421576Y-61260968D01*
X43422115Y-61259975D01*
X43469041Y-61174618D01*
X43470728Y-61169301D01*
X43473363Y-61164386D01*
X43501818Y-61071315D01*
X43502201Y-61070084D01*
X43529765Y-60983191D01*
X43531630Y-60977313D01*
X43532251Y-60971774D01*
X43533883Y-60966437D01*
X43543722Y-60869577D01*
X43543857Y-60868307D01*
X43549700Y-60816219D01*
X43549700Y-60812693D01*
X43549786Y-60811156D01*
X43550235Y-60805454D01*
X43554179Y-60766630D01*
X43554179Y-60766625D01*
X43554801Y-60760502D01*
X43550259Y-60712453D01*
X43549700Y-60700595D01*
X43549700Y-57515666D01*
X43569702Y-57447545D01*
X43623358Y-57401052D01*
X43693632Y-57390948D01*
X43758212Y-57420442D01*
X43798219Y-57486252D01*
X43841207Y-57665312D01*
X43936410Y-57895151D01*
X44066395Y-58107267D01*
X44069607Y-58111027D01*
X44069610Y-58111032D01*
X44118305Y-58168046D01*
X44227962Y-58296438D01*
X44231724Y-58299651D01*
X44413368Y-58454790D01*
X44413373Y-58454793D01*
X44417133Y-58458005D01*
X44629249Y-58587990D01*
X44633819Y-58589883D01*
X44633823Y-58589885D01*
X44854515Y-58681299D01*
X44854517Y-58681300D01*
X44859088Y-58683193D01*
X44941704Y-58703027D01*
X45096178Y-58740113D01*
X45096184Y-58740114D01*
X45100991Y-58741268D01*
X45349000Y-58760787D01*
X45597009Y-58741268D01*
X45601816Y-58740114D01*
X45601822Y-58740113D01*
X45756296Y-58703027D01*
X45838912Y-58683193D01*
X45843483Y-58681300D01*
X45843485Y-58681299D01*
X46064177Y-58589885D01*
X46064181Y-58589883D01*
X46068751Y-58587990D01*
X46280867Y-58458005D01*
X46284627Y-58454793D01*
X46284632Y-58454790D01*
X46466276Y-58299651D01*
X46470038Y-58296438D01*
X46579695Y-58168046D01*
X46628390Y-58111032D01*
X46628393Y-58111027D01*
X46631605Y-58107267D01*
X46761590Y-57895151D01*
X46856793Y-57665312D01*
X46876627Y-57582696D01*
X46913713Y-57428222D01*
X46913714Y-57428216D01*
X46914868Y-57423409D01*
X46934387Y-57175400D01*
X46914868Y-56927391D01*
X46912373Y-56916996D01*
X46863663Y-56714104D01*
X46856793Y-56685488D01*
X46849833Y-56668685D01*
X46763485Y-56460223D01*
X46763483Y-56460219D01*
X46761590Y-56455649D01*
X46631605Y-56243533D01*
X46628393Y-56239773D01*
X46628390Y-56239768D01*
X46473251Y-56058124D01*
X46470038Y-56054362D01*
X46407806Y-56001211D01*
X46368996Y-55941761D01*
X46368489Y-55870766D01*
X46407806Y-55809589D01*
X46433056Y-55788024D01*
X46470038Y-55756438D01*
X46512793Y-55706378D01*
X46628390Y-55571032D01*
X46628393Y-55571027D01*
X46631605Y-55567267D01*
X46761590Y-55355151D01*
X46781494Y-55307100D01*
X46854899Y-55129885D01*
X46854900Y-55129883D01*
X46856793Y-55125312D01*
X46914868Y-54883409D01*
X46934387Y-54635400D01*
X46914868Y-54387391D01*
X46910845Y-54370630D01*
X46874869Y-54220782D01*
X46856793Y-54145488D01*
X46854899Y-54140915D01*
X46763485Y-53920223D01*
X46763483Y-53920219D01*
X46761590Y-53915649D01*
X46631605Y-53703533D01*
X46628393Y-53699773D01*
X46628390Y-53699768D01*
X46473251Y-53518124D01*
X46470038Y-53514362D01*
X46407806Y-53461211D01*
X46368996Y-53401761D01*
X46368489Y-53330766D01*
X46407806Y-53269589D01*
X46466276Y-53219651D01*
X46470038Y-53216438D01*
X46502714Y-53178179D01*
X46628390Y-53031032D01*
X46628393Y-53031027D01*
X46631605Y-53027267D01*
X46761590Y-52815151D01*
X46766295Y-52803794D01*
X46854899Y-52589885D01*
X46854900Y-52589883D01*
X46856793Y-52585312D01*
X46893075Y-52434186D01*
X46913713Y-52348222D01*
X46913714Y-52348216D01*
X46914868Y-52343409D01*
X46934387Y-52095400D01*
X46914868Y-51847391D01*
X46912501Y-51837529D01*
X46865214Y-51640566D01*
X46856793Y-51605488D01*
X46836131Y-51555606D01*
X46763485Y-51380223D01*
X46763483Y-51380219D01*
X46761590Y-51375649D01*
X46631605Y-51163533D01*
X46628393Y-51159773D01*
X46628390Y-51159768D01*
X46473251Y-50978124D01*
X46470038Y-50974362D01*
X46407806Y-50921211D01*
X46368996Y-50861761D01*
X46368489Y-50790766D01*
X46407806Y-50729589D01*
X46466276Y-50679651D01*
X46470038Y-50676438D01*
X46511932Y-50627386D01*
X46628390Y-50491032D01*
X46628393Y-50491027D01*
X46631605Y-50487267D01*
X46761590Y-50275151D01*
X46793175Y-50198900D01*
X46854899Y-50049885D01*
X46854900Y-50049883D01*
X46856793Y-50045312D01*
X46893532Y-49892282D01*
X46913713Y-49808222D01*
X46913714Y-49808216D01*
X46914868Y-49803409D01*
X46934387Y-49555400D01*
X46914868Y-49307391D01*
X46912798Y-49298766D01*
X46860591Y-49081308D01*
X46856793Y-49065488D01*
X46826499Y-48992352D01*
X46763485Y-48840223D01*
X46763483Y-48840219D01*
X46761590Y-48835649D01*
X46631605Y-48623533D01*
X46628393Y-48619773D01*
X46628390Y-48619768D01*
X46473251Y-48438124D01*
X46470038Y-48434362D01*
X46407806Y-48381211D01*
X46368996Y-48321761D01*
X46368489Y-48250766D01*
X46407806Y-48189589D01*
X46466276Y-48139651D01*
X46470038Y-48136438D01*
X46566938Y-48022983D01*
X46628390Y-47951032D01*
X46628393Y-47951027D01*
X46631605Y-47947267D01*
X46761590Y-47735151D01*
X46764710Y-47727620D01*
X46854899Y-47509885D01*
X46854900Y-47509883D01*
X46856793Y-47505312D01*
X46893518Y-47352340D01*
X46913713Y-47268222D01*
X46913714Y-47268216D01*
X46914868Y-47263409D01*
X46934387Y-47015400D01*
X46914868Y-46767391D01*
X46912099Y-46755854D01*
X46857948Y-46530300D01*
X46856793Y-46525488D01*
X46854762Y-46520584D01*
X46763485Y-46300223D01*
X46763483Y-46300219D01*
X46761590Y-46295649D01*
X46631605Y-46083533D01*
X46628393Y-46079773D01*
X46628390Y-46079768D01*
X46473251Y-45898124D01*
X46470038Y-45894362D01*
X46407806Y-45841211D01*
X46368996Y-45781761D01*
X46368489Y-45710766D01*
X46407806Y-45649589D01*
X46410482Y-45647304D01*
X46470038Y-45596438D01*
X46530329Y-45525846D01*
X46628390Y-45411032D01*
X46628393Y-45411027D01*
X46631605Y-45407267D01*
X46761590Y-45195151D01*
X46764093Y-45189110D01*
X46854899Y-44969885D01*
X46854900Y-44969883D01*
X46856793Y-44965312D01*
X46901295Y-44779946D01*
X46913713Y-44728222D01*
X46913714Y-44728216D01*
X46914868Y-44723409D01*
X46934387Y-44475400D01*
X46914868Y-44227391D01*
X46907579Y-44197027D01*
X46870741Y-44043586D01*
X46856793Y-43985488D01*
X46851039Y-43971597D01*
X46763485Y-43760223D01*
X46763483Y-43760219D01*
X46761590Y-43755649D01*
X46631605Y-43543533D01*
X46628393Y-43539773D01*
X46628390Y-43539768D01*
X46477344Y-43362916D01*
X46470038Y-43354362D01*
X46407806Y-43301211D01*
X46368996Y-43241761D01*
X46368489Y-43170766D01*
X46407806Y-43109589D01*
X46466276Y-43059651D01*
X46470038Y-43056438D01*
X46534871Y-42980528D01*
X46628390Y-42871032D01*
X46628393Y-42871027D01*
X46631605Y-42867267D01*
X46761590Y-42655151D01*
X46770101Y-42634605D01*
X46854899Y-42429885D01*
X46854900Y-42429883D01*
X46856793Y-42425312D01*
X46880610Y-42326104D01*
X46913713Y-42188222D01*
X46913714Y-42188216D01*
X46914868Y-42183409D01*
X46934387Y-41935400D01*
X46914868Y-41687391D01*
X46911797Y-41674596D01*
X46868166Y-41492860D01*
X46856793Y-41445488D01*
X46834480Y-41391619D01*
X46763485Y-41220223D01*
X46763483Y-41220219D01*
X46761590Y-41215649D01*
X46631605Y-41003533D01*
X46628393Y-40999773D01*
X46628390Y-40999768D01*
X46483467Y-40830085D01*
X46470038Y-40814362D01*
X46407806Y-40761211D01*
X46368996Y-40701761D01*
X46368489Y-40630766D01*
X46407806Y-40569589D01*
X46442842Y-40539666D01*
X46470038Y-40516438D01*
X46554473Y-40417577D01*
X46628390Y-40331032D01*
X46628393Y-40331027D01*
X46631605Y-40327267D01*
X46761590Y-40115151D01*
X46785466Y-40057511D01*
X46854899Y-39889885D01*
X46854900Y-39889883D01*
X46856793Y-39885312D01*
X46885773Y-39764600D01*
X46913713Y-39648222D01*
X46913714Y-39648216D01*
X46914868Y-39643409D01*
X46934387Y-39395400D01*
X46914868Y-39147391D01*
X46912715Y-39138420D01*
X46857948Y-38910300D01*
X46856793Y-38905488D01*
X46853088Y-38896543D01*
X46763485Y-38680223D01*
X46763483Y-38680219D01*
X46761590Y-38675649D01*
X46631605Y-38463533D01*
X46628393Y-38459773D01*
X46628390Y-38459768D01*
X46473251Y-38278124D01*
X46470038Y-38274362D01*
X46407806Y-38221211D01*
X46368996Y-38161761D01*
X46368489Y-38090766D01*
X46407806Y-38029589D01*
X46466276Y-37979651D01*
X46470038Y-37976438D01*
X46533441Y-37902203D01*
X46628390Y-37791032D01*
X46628393Y-37791027D01*
X46631605Y-37787267D01*
X46761590Y-37575151D01*
X46815155Y-37445836D01*
X46854899Y-37349885D01*
X46854900Y-37349883D01*
X46856793Y-37345312D01*
X46893114Y-37194021D01*
X46913713Y-37108222D01*
X46913714Y-37108216D01*
X46914868Y-37103409D01*
X46934387Y-36855400D01*
X46914868Y-36607391D01*
X46913263Y-36600702D01*
X46857948Y-36370300D01*
X46856793Y-36365488D01*
X46821748Y-36280882D01*
X46763485Y-36140223D01*
X46763483Y-36140219D01*
X46761590Y-36135649D01*
X46631605Y-35923533D01*
X46628393Y-35919773D01*
X46628390Y-35919768D01*
X46473251Y-35738124D01*
X46470038Y-35734362D01*
X46407806Y-35681211D01*
X46368996Y-35621761D01*
X46368489Y-35550766D01*
X46407806Y-35489589D01*
X46466276Y-35439651D01*
X46470038Y-35436438D01*
X46522304Y-35375242D01*
X46628390Y-35251032D01*
X46628393Y-35251027D01*
X46631605Y-35247267D01*
X46761590Y-35035151D01*
X46763702Y-35030054D01*
X46854899Y-34809885D01*
X46854900Y-34809883D01*
X46856793Y-34805312D01*
X46893611Y-34651951D01*
X46913713Y-34568222D01*
X46913714Y-34568216D01*
X46914868Y-34563409D01*
X46934387Y-34315400D01*
X46914868Y-34067391D01*
X46912736Y-34058508D01*
X46857948Y-33830300D01*
X46856793Y-33825488D01*
X46819557Y-33735592D01*
X46763485Y-33600223D01*
X46763483Y-33600219D01*
X46761590Y-33595649D01*
X46631605Y-33383533D01*
X46628393Y-33379773D01*
X46628390Y-33379768D01*
X46473251Y-33198124D01*
X46470038Y-33194362D01*
X46407806Y-33141211D01*
X46368996Y-33081761D01*
X46368489Y-33010766D01*
X46407806Y-32949589D01*
X46466276Y-32899651D01*
X46470038Y-32896438D01*
X46484083Y-32879994D01*
X46628390Y-32711032D01*
X46628393Y-32711027D01*
X46631605Y-32707267D01*
X46751033Y-32512378D01*
X46759004Y-32499371D01*
X46761590Y-32495151D01*
X46790768Y-32424711D01*
X46854899Y-32269885D01*
X46854900Y-32269883D01*
X46856793Y-32265312D01*
X46914868Y-32023409D01*
X46934387Y-31775400D01*
X46914868Y-31527391D01*
X46909709Y-31505899D01*
X46857948Y-31290300D01*
X46856793Y-31285488D01*
X46854899Y-31280915D01*
X46763485Y-31060223D01*
X46763483Y-31060219D01*
X46761590Y-31055649D01*
X46631605Y-30843533D01*
X46628393Y-30839773D01*
X46628390Y-30839768D01*
X46473251Y-30658124D01*
X46470038Y-30654362D01*
X46453594Y-30640317D01*
X46284632Y-30496010D01*
X46284627Y-30496007D01*
X46280867Y-30492795D01*
X46068751Y-30362810D01*
X46069309Y-30361899D01*
X46021445Y-30316687D01*
X46004383Y-30247772D01*
X46027288Y-30180571D01*
X46049698Y-30156302D01*
X46165479Y-30060008D01*
X46173608Y-30051879D01*
X46302080Y-29897408D01*
X46308590Y-29887936D01*
X46406763Y-29712635D01*
X46411437Y-29702138D01*
X46476017Y-29511893D01*
X46478705Y-29500697D01*
X46496012Y-29381329D01*
X46494026Y-29367393D01*
X46480458Y-29363400D01*
X44216942Y-29363400D01*
X44201902Y-29367816D01*
X44199850Y-29379002D01*
X44201963Y-29411245D01*
X44203764Y-29422615D01*
X44253216Y-29617334D01*
X44257057Y-29628180D01*
X44341168Y-29810631D01*
X44346919Y-29820592D01*
X44462873Y-29984663D01*
X44470339Y-29993405D01*
X44614255Y-30133602D01*
X44623184Y-30140832D01*
X44635915Y-30149339D01*
X44681442Y-30203817D01*
X44690289Y-30274260D01*
X44659648Y-30338304D01*
X44628770Y-30362028D01*
X44629249Y-30362810D01*
X44417133Y-30492795D01*
X44413373Y-30496007D01*
X44413368Y-30496010D01*
X44244406Y-30640317D01*
X44227962Y-30654362D01*
X44224749Y-30658124D01*
X44069610Y-30839768D01*
X44069607Y-30839773D01*
X44066395Y-30843533D01*
X43936410Y-31055649D01*
X43934517Y-31060219D01*
X43934515Y-31060223D01*
X43843101Y-31280915D01*
X43841207Y-31285488D01*
X43840052Y-31290300D01*
X43788292Y-31505899D01*
X43783132Y-31527391D01*
X43763613Y-31775400D01*
X43783132Y-32023409D01*
X43841207Y-32265312D01*
X43843100Y-32269883D01*
X43843101Y-32269885D01*
X43907233Y-32424711D01*
X43936410Y-32495151D01*
X43938996Y-32499371D01*
X43946967Y-32512378D01*
X44066395Y-32707267D01*
X44069607Y-32711027D01*
X44069610Y-32711032D01*
X44213917Y-32879994D01*
X44227962Y-32896438D01*
X44231724Y-32899651D01*
X44290194Y-32949589D01*
X44329004Y-33009039D01*
X44329511Y-33080034D01*
X44290194Y-33141211D01*
X44227962Y-33194362D01*
X44224749Y-33198124D01*
X44069610Y-33379768D01*
X44069607Y-33379773D01*
X44066395Y-33383533D01*
X43936410Y-33595649D01*
X43934517Y-33600219D01*
X43934515Y-33600223D01*
X43878443Y-33735592D01*
X43841207Y-33825488D01*
X43840052Y-33830300D01*
X43785265Y-34058508D01*
X43783132Y-34067391D01*
X43763613Y-34315400D01*
X43783132Y-34563409D01*
X43784286Y-34568216D01*
X43784287Y-34568222D01*
X43804389Y-34651951D01*
X43841207Y-34805312D01*
X43843100Y-34809883D01*
X43843101Y-34809885D01*
X43934299Y-35030054D01*
X43936410Y-35035151D01*
X44066395Y-35247267D01*
X44069607Y-35251027D01*
X44069610Y-35251032D01*
X44175696Y-35375242D01*
X44227962Y-35436438D01*
X44231724Y-35439651D01*
X44290194Y-35489589D01*
X44329004Y-35549039D01*
X44329511Y-35620034D01*
X44290194Y-35681211D01*
X44227962Y-35734362D01*
X44224749Y-35738124D01*
X44069610Y-35919768D01*
X44069607Y-35919773D01*
X44066395Y-35923533D01*
X43936410Y-36135649D01*
X43934517Y-36140219D01*
X43934515Y-36140223D01*
X43876252Y-36280882D01*
X43841207Y-36365488D01*
X43840052Y-36370300D01*
X43784738Y-36600702D01*
X43783132Y-36607391D01*
X43763613Y-36855400D01*
X43783132Y-37103409D01*
X43784286Y-37108216D01*
X43784287Y-37108222D01*
X43804886Y-37194021D01*
X43841207Y-37345312D01*
X43843100Y-37349883D01*
X43843101Y-37349885D01*
X43882846Y-37445836D01*
X43936410Y-37575151D01*
X44066395Y-37787267D01*
X44069607Y-37791027D01*
X44069610Y-37791032D01*
X44164559Y-37902203D01*
X44227962Y-37976438D01*
X44231724Y-37979651D01*
X44290194Y-38029589D01*
X44329004Y-38089039D01*
X44329511Y-38160034D01*
X44290194Y-38221211D01*
X44227962Y-38274362D01*
X44224749Y-38278124D01*
X44069610Y-38459768D01*
X44069607Y-38459773D01*
X44066395Y-38463533D01*
X43936410Y-38675649D01*
X43934517Y-38680219D01*
X43934515Y-38680223D01*
X43844912Y-38896543D01*
X43841207Y-38905488D01*
X43789251Y-39121906D01*
X43787751Y-39128153D01*
X43752399Y-39189722D01*
X43689373Y-39222405D01*
X43618682Y-39215825D01*
X43576136Y-39187834D01*
X43032093Y-38643790D01*
X43022992Y-38633647D01*
X43001834Y-38607332D01*
X42997975Y-38602532D01*
X42957782Y-38568806D01*
X42954136Y-38565625D01*
X42951904Y-38563601D01*
X42949722Y-38561419D01*
X42914900Y-38532816D01*
X42913977Y-38532049D01*
X42844135Y-38473444D01*
X42844126Y-38473438D01*
X42839408Y-38469479D01*
X42834521Y-38466793D01*
X42830211Y-38463252D01*
X42824777Y-38460338D01*
X42824775Y-38460337D01*
X42744368Y-38417224D01*
X42743375Y-38416685D01*
X42659255Y-38370439D01*
X42609198Y-38320094D01*
X42594487Y-38248496D01*
X42596471Y-38226906D01*
X42599900Y-38189592D01*
X42599900Y-36130808D01*
X42593419Y-36060278D01*
X42591418Y-36053892D01*
X42546437Y-35910357D01*
X42546436Y-35910355D01*
X42544165Y-35903108D01*
X42458842Y-35762223D01*
X42342377Y-35645758D01*
X42201492Y-35560435D01*
X42194245Y-35558164D01*
X42194243Y-35558163D01*
X42139351Y-35540961D01*
X42063220Y-35517103D01*
X42004199Y-35477647D01*
X41975879Y-35412543D01*
X41974900Y-35396870D01*
X41974900Y-35294205D01*
X41975637Y-35280597D01*
X41979284Y-35247030D01*
X41979284Y-35247027D01*
X41979949Y-35240906D01*
X41979412Y-35234767D01*
X41979412Y-35234761D01*
X41975377Y-35188640D01*
X41975047Y-35183807D01*
X41974900Y-35180797D01*
X41974900Y-35177715D01*
X41974033Y-35168866D01*
X41970512Y-35132966D01*
X41970390Y-35131651D01*
X41967466Y-35098223D01*
X41961908Y-35034700D01*
X41960352Y-35029345D01*
X41959808Y-35023794D01*
X41931659Y-34930558D01*
X41931303Y-34929359D01*
X41909560Y-34854517D01*
X41904158Y-34835925D01*
X41901593Y-34830977D01*
X41899980Y-34825634D01*
X41854252Y-34739632D01*
X41853702Y-34738584D01*
X41811735Y-34657621D01*
X41811734Y-34657620D01*
X41808900Y-34652152D01*
X41805420Y-34647792D01*
X41802802Y-34642869D01*
X41746928Y-34574361D01*
X41741300Y-34567460D01*
X41740471Y-34566432D01*
X41709963Y-34528214D01*
X41709956Y-34528206D01*
X41707767Y-34525464D01*
X41705274Y-34522971D01*
X41704242Y-34521817D01*
X41700554Y-34517501D01*
X41671976Y-34482460D01*
X41634790Y-34451697D01*
X41626011Y-34443708D01*
X41114805Y-33932502D01*
X41080779Y-33870190D01*
X41077900Y-33843407D01*
X41077900Y-33215880D01*
X41075770Y-33188808D01*
X41071959Y-33140392D01*
X41071506Y-33134636D01*
X41056876Y-33080034D01*
X41022589Y-32952076D01*
X41022589Y-32952075D01*
X41020881Y-32945702D01*
X40932081Y-32771422D01*
X40880372Y-32707567D01*
X40813138Y-32624539D01*
X40808987Y-32619413D01*
X40757523Y-32577738D01*
X40662109Y-32500474D01*
X40656978Y-32496319D01*
X40482698Y-32407519D01*
X40476324Y-32405811D01*
X40299341Y-32358388D01*
X40299337Y-32358387D01*
X40293764Y-32356894D01*
X40287208Y-32356378D01*
X40214977Y-32350693D01*
X40214968Y-32350693D01*
X40212520Y-32350500D01*
X38832280Y-32350500D01*
X38829832Y-32350693D01*
X38829823Y-32350693D01*
X38757592Y-32356378D01*
X38751036Y-32356894D01*
X38745463Y-32358387D01*
X38745459Y-32358388D01*
X38568476Y-32405811D01*
X38562102Y-32407519D01*
X38387822Y-32496319D01*
X38382691Y-32500474D01*
X38283246Y-32581002D01*
X38217718Y-32608327D01*
X38147820Y-32595887D01*
X38124658Y-32581002D01*
X38039909Y-32512374D01*
X38034778Y-32508219D01*
X37860498Y-32419419D01*
X37809713Y-32405811D01*
X37677141Y-32370288D01*
X37677137Y-32370287D01*
X37671564Y-32368794D01*
X37660916Y-32367956D01*
X37592777Y-32362593D01*
X37592768Y-32362593D01*
X37590320Y-32362400D01*
X36210080Y-32362400D01*
X36207632Y-32362593D01*
X36207623Y-32362593D01*
X36139484Y-32367956D01*
X36128836Y-32368794D01*
X36123263Y-32370287D01*
X36123259Y-32370288D01*
X35990687Y-32405811D01*
X35939902Y-32419419D01*
X35851195Y-32464617D01*
X35771503Y-32505222D01*
X35771500Y-32505224D01*
X35765622Y-32508219D01*
X35756978Y-32515219D01*
X35734894Y-32533102D01*
X35669367Y-32560428D01*
X35599468Y-32547988D01*
X35576306Y-32533102D01*
X35554222Y-32515219D01*
X35545578Y-32508219D01*
X35539700Y-32505224D01*
X35539697Y-32505222D01*
X35460005Y-32464617D01*
X35371298Y-32419419D01*
X35320513Y-32405811D01*
X35187941Y-32370288D01*
X35187937Y-32370287D01*
X35182364Y-32368794D01*
X35171716Y-32367956D01*
X35103577Y-32362593D01*
X35103568Y-32362593D01*
X35101120Y-32362400D01*
X33720880Y-32362400D01*
X33718432Y-32362593D01*
X33718423Y-32362593D01*
X33650284Y-32367956D01*
X33639636Y-32368794D01*
X33634063Y-32370287D01*
X33634059Y-32370288D01*
X33501487Y-32405811D01*
X33450702Y-32419419D01*
X33276422Y-32508219D01*
X33271291Y-32512374D01*
X33271285Y-32512378D01*
X33190572Y-32577738D01*
X33125045Y-32605064D01*
X33055147Y-32592624D01*
X33031984Y-32577739D01*
X32959909Y-32519374D01*
X32954778Y-32515219D01*
X32780498Y-32426419D01*
X32754374Y-32419419D01*
X32597141Y-32377288D01*
X32597137Y-32377287D01*
X32591564Y-32375794D01*
X32585008Y-32375278D01*
X32512777Y-32369593D01*
X32512768Y-32369593D01*
X32510320Y-32369400D01*
X31130080Y-32369400D01*
X31127632Y-32369593D01*
X31127623Y-32369593D01*
X31055392Y-32375278D01*
X31048836Y-32375794D01*
X31043263Y-32377287D01*
X31043259Y-32377288D01*
X30886026Y-32419419D01*
X30859902Y-32426419D01*
X30771195Y-32471617D01*
X30691503Y-32512222D01*
X30691500Y-32512224D01*
X30685622Y-32515219D01*
X30659214Y-32536604D01*
X30593688Y-32563928D01*
X30523790Y-32551488D01*
X30500628Y-32536602D01*
X30470711Y-32512375D01*
X30470707Y-32512372D01*
X30465578Y-32508219D01*
X30459700Y-32505224D01*
X30459697Y-32505222D01*
X30380005Y-32464617D01*
X30291298Y-32419419D01*
X30240513Y-32405811D01*
X30107941Y-32370288D01*
X30107937Y-32370287D01*
X30102364Y-32368794D01*
X30091716Y-32367956D01*
X30023577Y-32362593D01*
X30023568Y-32362593D01*
X30021120Y-32362400D01*
X28640880Y-32362400D01*
X28638432Y-32362593D01*
X28638423Y-32362593D01*
X28570284Y-32367956D01*
X28559636Y-32368794D01*
X28554063Y-32370287D01*
X28554059Y-32370288D01*
X28421487Y-32405811D01*
X28370702Y-32419419D01*
X28196422Y-32508219D01*
X28191291Y-32512374D01*
X28082078Y-32600813D01*
X28044413Y-32631313D01*
X28040262Y-32636439D01*
X28032766Y-32645696D01*
X27921319Y-32783322D01*
X27832519Y-32957602D01*
X27830811Y-32963975D01*
X27830811Y-32963976D01*
X27785083Y-33134636D01*
X27781894Y-33146536D01*
X27781441Y-33152292D01*
X27776133Y-33219739D01*
X27775500Y-33227780D01*
X27775500Y-33983020D01*
X27781894Y-34064264D01*
X27832519Y-34253198D01*
X27921319Y-34427478D01*
X28044413Y-34579487D01*
X28196422Y-34702581D01*
X28206700Y-34707818D01*
X28258316Y-34756564D01*
X28275500Y-34820086D01*
X28275500Y-35381065D01*
X28255498Y-35449186D01*
X28201842Y-35495679D01*
X28161030Y-35506536D01*
X28110478Y-35511181D01*
X28104094Y-35513182D01*
X28104092Y-35513182D01*
X27960557Y-35558163D01*
X27960555Y-35558164D01*
X27953308Y-35560435D01*
X27812423Y-35645758D01*
X27695958Y-35762223D01*
X27610635Y-35903108D01*
X27608364Y-35910355D01*
X27608363Y-35910357D01*
X27563382Y-36053892D01*
X27561381Y-36060278D01*
X27554900Y-36130808D01*
X27554900Y-36622800D01*
X27534898Y-36690921D01*
X27481242Y-36737414D01*
X27410968Y-36747518D01*
X27346842Y-36718231D01*
X27346376Y-36717660D01*
X27343090Y-36714942D01*
X27343083Y-36714935D01*
X27309191Y-36686898D01*
X27300411Y-36678908D01*
X25545805Y-34924302D01*
X25511779Y-34861990D01*
X25508900Y-34835207D01*
X25508900Y-33811080D01*
X25502506Y-33729836D01*
X25466551Y-33595649D01*
X25453589Y-33547276D01*
X25453589Y-33547275D01*
X25451881Y-33540902D01*
X25448885Y-33535023D01*
X25447869Y-33532375D01*
X25439500Y-33487221D01*
X25439500Y-31037375D01*
X28200001Y-31037375D01*
X28200371Y-31044196D01*
X28205869Y-31094816D01*
X28209496Y-31110073D01*
X28254450Y-31229988D01*
X28262982Y-31245574D01*
X28339143Y-31347194D01*
X28351706Y-31359757D01*
X28453326Y-31435918D01*
X28468912Y-31444450D01*
X28588832Y-31489406D01*
X28604077Y-31493031D01*
X28654708Y-31498531D01*
X28661522Y-31498900D01*
X29184885Y-31498900D01*
X29200124Y-31494425D01*
X29201329Y-31493035D01*
X29203000Y-31485352D01*
X29203000Y-31480784D01*
X29459000Y-31480784D01*
X29463475Y-31496023D01*
X29464865Y-31497228D01*
X29472548Y-31498899D01*
X30000475Y-31498899D01*
X30007296Y-31498529D01*
X30057916Y-31493031D01*
X30073173Y-31489404D01*
X30193088Y-31444450D01*
X30208674Y-31435918D01*
X30310294Y-31359757D01*
X30322857Y-31347194D01*
X30399018Y-31245574D01*
X30407550Y-31229988D01*
X30455278Y-31102673D01*
X30456843Y-31103260D01*
X30487404Y-31049766D01*
X30550359Y-31016947D01*
X30621064Y-31023374D01*
X30677071Y-31067006D01*
X30697351Y-31111416D01*
X30698696Y-31117072D01*
X30743650Y-31236988D01*
X30752182Y-31252574D01*
X30828343Y-31354194D01*
X30840906Y-31366757D01*
X30942526Y-31442918D01*
X30958112Y-31451450D01*
X31078032Y-31496406D01*
X31093277Y-31500031D01*
X31143908Y-31505531D01*
X31150722Y-31505900D01*
X31674085Y-31505900D01*
X31689324Y-31501425D01*
X31690529Y-31500035D01*
X31692200Y-31492352D01*
X31692200Y-31487784D01*
X31948200Y-31487784D01*
X31952675Y-31503023D01*
X31954065Y-31504228D01*
X31961748Y-31505899D01*
X32489675Y-31505899D01*
X32496496Y-31505529D01*
X32547116Y-31500031D01*
X32562373Y-31496404D01*
X32682288Y-31451450D01*
X32697874Y-31442918D01*
X32799494Y-31366757D01*
X32812057Y-31354194D01*
X32888218Y-31252574D01*
X32896750Y-31236988D01*
X32941706Y-31117068D01*
X32945331Y-31101823D01*
X32950831Y-31051192D01*
X32951200Y-31044378D01*
X32951200Y-31037375D01*
X33280001Y-31037375D01*
X33280371Y-31044196D01*
X33285869Y-31094816D01*
X33289496Y-31110073D01*
X33334450Y-31229988D01*
X33342982Y-31245574D01*
X33419143Y-31347194D01*
X33431706Y-31359757D01*
X33533326Y-31435918D01*
X33548912Y-31444450D01*
X33668832Y-31489406D01*
X33684077Y-31493031D01*
X33734708Y-31498531D01*
X33741522Y-31498900D01*
X34264885Y-31498900D01*
X34280124Y-31494425D01*
X34281329Y-31493035D01*
X34283000Y-31485352D01*
X34283000Y-31480784D01*
X34539000Y-31480784D01*
X34543475Y-31496023D01*
X34544865Y-31497228D01*
X34552548Y-31498899D01*
X35080475Y-31498899D01*
X35087296Y-31498529D01*
X35137916Y-31493031D01*
X35153173Y-31489404D01*
X35273088Y-31444450D01*
X35288674Y-31435918D01*
X35390294Y-31359757D01*
X35402857Y-31347194D01*
X35479018Y-31245574D01*
X35487550Y-31229988D01*
X35532504Y-31110073D01*
X35533017Y-31107915D01*
X35533878Y-31106408D01*
X35535278Y-31102673D01*
X35535882Y-31102900D01*
X35568234Y-31046268D01*
X35631188Y-31013447D01*
X35701894Y-31019873D01*
X35757901Y-31063504D01*
X35775808Y-31102716D01*
X35775922Y-31102673D01*
X35776531Y-31104298D01*
X35778183Y-31107915D01*
X35778696Y-31110073D01*
X35823650Y-31229988D01*
X35832182Y-31245574D01*
X35908343Y-31347194D01*
X35920906Y-31359757D01*
X36022526Y-31435918D01*
X36038112Y-31444450D01*
X36158032Y-31489406D01*
X36173277Y-31493031D01*
X36223908Y-31498531D01*
X36230722Y-31498900D01*
X36754085Y-31498900D01*
X36769324Y-31494425D01*
X36770529Y-31493035D01*
X36772200Y-31485352D01*
X36772200Y-31480784D01*
X37028200Y-31480784D01*
X37032675Y-31496023D01*
X37034065Y-31497228D01*
X37041748Y-31498899D01*
X37569675Y-31498899D01*
X37576496Y-31498529D01*
X37627116Y-31493031D01*
X37642373Y-31489404D01*
X37762288Y-31444450D01*
X37777874Y-31435918D01*
X37879494Y-31359757D01*
X37892057Y-31347194D01*
X37968218Y-31245574D01*
X37976750Y-31229988D01*
X38021706Y-31110068D01*
X38025331Y-31094823D01*
X38030831Y-31044192D01*
X38031200Y-31037378D01*
X38031200Y-31025475D01*
X38391401Y-31025475D01*
X38391771Y-31032296D01*
X38397269Y-31082916D01*
X38400896Y-31098173D01*
X38445850Y-31218088D01*
X38454382Y-31233674D01*
X38530543Y-31335294D01*
X38543106Y-31347857D01*
X38644726Y-31424018D01*
X38660312Y-31432550D01*
X38780232Y-31477506D01*
X38795477Y-31481131D01*
X38846108Y-31486631D01*
X38852922Y-31487000D01*
X39376285Y-31487000D01*
X39391524Y-31482525D01*
X39392729Y-31481135D01*
X39394400Y-31473452D01*
X39394400Y-31468884D01*
X39650400Y-31468884D01*
X39654875Y-31484123D01*
X39656265Y-31485328D01*
X39663948Y-31486999D01*
X40191875Y-31486999D01*
X40198696Y-31486629D01*
X40249316Y-31481131D01*
X40264573Y-31477504D01*
X40384488Y-31432550D01*
X40400074Y-31424018D01*
X40501694Y-31347857D01*
X40514257Y-31335294D01*
X40590418Y-31233674D01*
X40598950Y-31218088D01*
X40643906Y-31098168D01*
X40647531Y-31082923D01*
X40653031Y-31032292D01*
X40653400Y-31025478D01*
X40653400Y-30881666D01*
X40673402Y-30813545D01*
X40727058Y-30767052D01*
X40797332Y-30756948D01*
X40861912Y-30786442D01*
X40880226Y-30806101D01*
X40918144Y-30856695D01*
X40930706Y-30869257D01*
X41032326Y-30945418D01*
X41047912Y-30953950D01*
X41167832Y-30998906D01*
X41183077Y-31002531D01*
X41233708Y-31008031D01*
X41240522Y-31008400D01*
X41763885Y-31008400D01*
X41779124Y-31003925D01*
X41780329Y-31002535D01*
X41782000Y-30994852D01*
X41782000Y-30990284D01*
X42038000Y-30990284D01*
X42042475Y-31005523D01*
X42043865Y-31006728D01*
X42051548Y-31008399D01*
X42579475Y-31008399D01*
X42586296Y-31008029D01*
X42636916Y-31002531D01*
X42652173Y-30998904D01*
X42772088Y-30953950D01*
X42787674Y-30945418D01*
X42889294Y-30869257D01*
X42901857Y-30856694D01*
X42978018Y-30755074D01*
X42986550Y-30739488D01*
X43031506Y-30619568D01*
X43035131Y-30604323D01*
X43040631Y-30553692D01*
X43041000Y-30546878D01*
X43041000Y-30336015D01*
X43036525Y-30320776D01*
X43035135Y-30319571D01*
X43027452Y-30317900D01*
X42056115Y-30317900D01*
X42040876Y-30322375D01*
X42039671Y-30323765D01*
X42038000Y-30331448D01*
X42038000Y-30990284D01*
X41782000Y-30990284D01*
X41782000Y-30043785D01*
X42038000Y-30043785D01*
X42042475Y-30059024D01*
X42043865Y-30060229D01*
X42051548Y-30061900D01*
X43022884Y-30061900D01*
X43038123Y-30057425D01*
X43039328Y-30056035D01*
X43040999Y-30048352D01*
X43040999Y-29832925D01*
X43040629Y-29826104D01*
X43035131Y-29775484D01*
X43031504Y-29760227D01*
X42986550Y-29640312D01*
X42978018Y-29624726D01*
X42901857Y-29523106D01*
X42889294Y-29510543D01*
X42787674Y-29434382D01*
X42772088Y-29425850D01*
X42652168Y-29380894D01*
X42636923Y-29377269D01*
X42586292Y-29371769D01*
X42579478Y-29371400D01*
X42056115Y-29371400D01*
X42040876Y-29375875D01*
X42039671Y-29377265D01*
X42038000Y-29384948D01*
X42038000Y-30043785D01*
X41782000Y-30043785D01*
X41782000Y-29389516D01*
X41777525Y-29374277D01*
X41776135Y-29373072D01*
X41768452Y-29371401D01*
X41240525Y-29371401D01*
X41233704Y-29371771D01*
X41183084Y-29377269D01*
X41167827Y-29380896D01*
X41047912Y-29425850D01*
X41032326Y-29434382D01*
X40930706Y-29510543D01*
X40918143Y-29523106D01*
X40841982Y-29624726D01*
X40833450Y-29640312D01*
X40788494Y-29760232D01*
X40784869Y-29775477D01*
X40779369Y-29826108D01*
X40779000Y-29832922D01*
X40779000Y-29976734D01*
X40758998Y-30044855D01*
X40705342Y-30091348D01*
X40635068Y-30101452D01*
X40570488Y-30071958D01*
X40552174Y-30052299D01*
X40514256Y-30001705D01*
X40501694Y-29989143D01*
X40400074Y-29912982D01*
X40384488Y-29904450D01*
X40264568Y-29859494D01*
X40249323Y-29855869D01*
X40198692Y-29850369D01*
X40191878Y-29850000D01*
X39668515Y-29850000D01*
X39653276Y-29854475D01*
X39652071Y-29855865D01*
X39650400Y-29863548D01*
X39650400Y-31468884D01*
X39394400Y-31468884D01*
X39394400Y-30814615D01*
X39389925Y-30799376D01*
X39388535Y-30798171D01*
X39380852Y-30796500D01*
X38409516Y-30796500D01*
X38394277Y-30800975D01*
X38393072Y-30802365D01*
X38391401Y-30810048D01*
X38391401Y-31025475D01*
X38031200Y-31025475D01*
X38031200Y-30826515D01*
X38026725Y-30811276D01*
X38025335Y-30810071D01*
X38017652Y-30808400D01*
X37046315Y-30808400D01*
X37031076Y-30812875D01*
X37029871Y-30814265D01*
X37028200Y-30821948D01*
X37028200Y-31480784D01*
X36772200Y-31480784D01*
X36772200Y-30534285D01*
X37028200Y-30534285D01*
X37032675Y-30549524D01*
X37034065Y-30550729D01*
X37041748Y-30552400D01*
X38013084Y-30552400D01*
X38028323Y-30547925D01*
X38029528Y-30546535D01*
X38031199Y-30538852D01*
X38031199Y-30522385D01*
X38391400Y-30522385D01*
X38395875Y-30537624D01*
X38397265Y-30538829D01*
X38404948Y-30540500D01*
X39376285Y-30540500D01*
X39391524Y-30536025D01*
X39392729Y-30534635D01*
X39394400Y-30526952D01*
X39394400Y-29868116D01*
X39389925Y-29852877D01*
X39388535Y-29851672D01*
X39380852Y-29850001D01*
X38852925Y-29850001D01*
X38846104Y-29850371D01*
X38795484Y-29855869D01*
X38780227Y-29859496D01*
X38660312Y-29904450D01*
X38644726Y-29912982D01*
X38543106Y-29989143D01*
X38530543Y-30001706D01*
X38454382Y-30103326D01*
X38445850Y-30118912D01*
X38400894Y-30238832D01*
X38397269Y-30254077D01*
X38391769Y-30304708D01*
X38391400Y-30311522D01*
X38391400Y-30522385D01*
X38031199Y-30522385D01*
X38031199Y-30323425D01*
X38030829Y-30316604D01*
X38025331Y-30265984D01*
X38021704Y-30250727D01*
X37976750Y-30130812D01*
X37968218Y-30115226D01*
X37892057Y-30013606D01*
X37879494Y-30001043D01*
X37777874Y-29924882D01*
X37762288Y-29916350D01*
X37642368Y-29871394D01*
X37627123Y-29867769D01*
X37576492Y-29862269D01*
X37569678Y-29861900D01*
X37046315Y-29861900D01*
X37031076Y-29866375D01*
X37029871Y-29867765D01*
X37028200Y-29875448D01*
X37028200Y-30534285D01*
X36772200Y-30534285D01*
X36772200Y-29880016D01*
X36767725Y-29864777D01*
X36766335Y-29863572D01*
X36758652Y-29861901D01*
X36230725Y-29861901D01*
X36223904Y-29862271D01*
X36173284Y-29867769D01*
X36158027Y-29871396D01*
X36038112Y-29916350D01*
X36022526Y-29924882D01*
X35920906Y-30001043D01*
X35908343Y-30013606D01*
X35832182Y-30115226D01*
X35823650Y-30130812D01*
X35778696Y-30250727D01*
X35778183Y-30252885D01*
X35777322Y-30254392D01*
X35775922Y-30258127D01*
X35775318Y-30257900D01*
X35742966Y-30314532D01*
X35680012Y-30347353D01*
X35609306Y-30340927D01*
X35553299Y-30297296D01*
X35535392Y-30258084D01*
X35535278Y-30258127D01*
X35534669Y-30256502D01*
X35533017Y-30252885D01*
X35532504Y-30250727D01*
X35487550Y-30130812D01*
X35479018Y-30115226D01*
X35402857Y-30013606D01*
X35390294Y-30001043D01*
X35288674Y-29924882D01*
X35273088Y-29916350D01*
X35153168Y-29871394D01*
X35137923Y-29867769D01*
X35087292Y-29862269D01*
X35080478Y-29861900D01*
X34557115Y-29861900D01*
X34541876Y-29866375D01*
X34540671Y-29867765D01*
X34539000Y-29875448D01*
X34539000Y-31480784D01*
X34283000Y-31480784D01*
X34283000Y-30826515D01*
X34278525Y-30811276D01*
X34277135Y-30810071D01*
X34269452Y-30808400D01*
X33298116Y-30808400D01*
X33282877Y-30812875D01*
X33281672Y-30814265D01*
X33280001Y-30821948D01*
X33280001Y-31037375D01*
X32951200Y-31037375D01*
X32951200Y-30833515D01*
X32946725Y-30818276D01*
X32945335Y-30817071D01*
X32937652Y-30815400D01*
X31966315Y-30815400D01*
X31951076Y-30819875D01*
X31949871Y-30821265D01*
X31948200Y-30828948D01*
X31948200Y-31487784D01*
X31692200Y-31487784D01*
X31692200Y-30541285D01*
X31948200Y-30541285D01*
X31952675Y-30556524D01*
X31954065Y-30557729D01*
X31961748Y-30559400D01*
X32933084Y-30559400D01*
X32948323Y-30554925D01*
X32949528Y-30553535D01*
X32951199Y-30545852D01*
X32951199Y-30534285D01*
X33280000Y-30534285D01*
X33284475Y-30549524D01*
X33285865Y-30550729D01*
X33293548Y-30552400D01*
X34264885Y-30552400D01*
X34280124Y-30547925D01*
X34281329Y-30546535D01*
X34283000Y-30538852D01*
X34283000Y-29880016D01*
X34278525Y-29864777D01*
X34277135Y-29863572D01*
X34269452Y-29861901D01*
X33741525Y-29861901D01*
X33734704Y-29862271D01*
X33684084Y-29867769D01*
X33668827Y-29871396D01*
X33548912Y-29916350D01*
X33533326Y-29924882D01*
X33431706Y-30001043D01*
X33419143Y-30013606D01*
X33342982Y-30115226D01*
X33334450Y-30130812D01*
X33289494Y-30250732D01*
X33285869Y-30265977D01*
X33280369Y-30316608D01*
X33280000Y-30323422D01*
X33280000Y-30534285D01*
X32951199Y-30534285D01*
X32951199Y-30330425D01*
X32950829Y-30323604D01*
X32945331Y-30272984D01*
X32941704Y-30257727D01*
X32896750Y-30137812D01*
X32888218Y-30122226D01*
X32812057Y-30020606D01*
X32799494Y-30008043D01*
X32697874Y-29931882D01*
X32682288Y-29923350D01*
X32562368Y-29878394D01*
X32547123Y-29874769D01*
X32496492Y-29869269D01*
X32489678Y-29868900D01*
X31966315Y-29868900D01*
X31951076Y-29873375D01*
X31949871Y-29874765D01*
X31948200Y-29882448D01*
X31948200Y-30541285D01*
X31692200Y-30541285D01*
X31692200Y-29887016D01*
X31687725Y-29871777D01*
X31686335Y-29870572D01*
X31678652Y-29868901D01*
X31150725Y-29868901D01*
X31143904Y-29869271D01*
X31093284Y-29874769D01*
X31078027Y-29878396D01*
X30958112Y-29923350D01*
X30942526Y-29931882D01*
X30840906Y-30008043D01*
X30828343Y-30020606D01*
X30752182Y-30122226D01*
X30743650Y-30137812D01*
X30695922Y-30265127D01*
X30694357Y-30264540D01*
X30663796Y-30318034D01*
X30600841Y-30350853D01*
X30530136Y-30344426D01*
X30474129Y-30300794D01*
X30453849Y-30256384D01*
X30452504Y-30250728D01*
X30407550Y-30130812D01*
X30399018Y-30115226D01*
X30322857Y-30013606D01*
X30310294Y-30001043D01*
X30208674Y-29924882D01*
X30193088Y-29916350D01*
X30073168Y-29871394D01*
X30057923Y-29867769D01*
X30007292Y-29862269D01*
X30000478Y-29861900D01*
X29477115Y-29861900D01*
X29461876Y-29866375D01*
X29460671Y-29867765D01*
X29459000Y-29875448D01*
X29459000Y-31480784D01*
X29203000Y-31480784D01*
X29203000Y-30826515D01*
X29198525Y-30811276D01*
X29197135Y-30810071D01*
X29189452Y-30808400D01*
X28218116Y-30808400D01*
X28202877Y-30812875D01*
X28201672Y-30814265D01*
X28200001Y-30821948D01*
X28200001Y-31037375D01*
X25439500Y-31037375D01*
X25439500Y-30562993D01*
X25447929Y-30534285D01*
X28200000Y-30534285D01*
X28204475Y-30549524D01*
X28205865Y-30550729D01*
X28213548Y-30552400D01*
X29184885Y-30552400D01*
X29200124Y-30547925D01*
X29201329Y-30546535D01*
X29203000Y-30538852D01*
X29203000Y-29880016D01*
X29198525Y-29864777D01*
X29197135Y-29863572D01*
X29189452Y-29861901D01*
X28661525Y-29861901D01*
X28654704Y-29862271D01*
X28604084Y-29867769D01*
X28588827Y-29871396D01*
X28468912Y-29916350D01*
X28453326Y-29924882D01*
X28351706Y-30001043D01*
X28339143Y-30013606D01*
X28262982Y-30115226D01*
X28254450Y-30130812D01*
X28209494Y-30250732D01*
X28205869Y-30265977D01*
X28200369Y-30316608D01*
X28200000Y-30323422D01*
X28200000Y-30534285D01*
X25447929Y-30534285D01*
X25459502Y-30494872D01*
X25476405Y-30473898D01*
X26613097Y-29337205D01*
X26675409Y-29303180D01*
X26702192Y-29300300D01*
X35851194Y-29300300D01*
X35864802Y-29301037D01*
X35898369Y-29304684D01*
X35898372Y-29304684D01*
X35904493Y-29305349D01*
X35910632Y-29304812D01*
X35910638Y-29304812D01*
X35956760Y-29300777D01*
X35961592Y-29300447D01*
X35964597Y-29300300D01*
X35967685Y-29300300D01*
X35996368Y-29297488D01*
X36012515Y-29295905D01*
X36013826Y-29295784D01*
X36037887Y-29293679D01*
X36110700Y-29287308D01*
X36116055Y-29285752D01*
X36121606Y-29285208D01*
X36133219Y-29281702D01*
X36148937Y-29276956D01*
X36214793Y-29257073D01*
X36215996Y-29256717D01*
X36303558Y-29231278D01*
X36309475Y-29229559D01*
X36314428Y-29226992D01*
X36319766Y-29225380D01*
X36405612Y-29179735D01*
X36406780Y-29179121D01*
X36487779Y-29137135D01*
X36487780Y-29137134D01*
X36493248Y-29134300D01*
X36497608Y-29130820D01*
X36502531Y-29128202D01*
X36577940Y-29066700D01*
X36578968Y-29065871D01*
X36617186Y-29035363D01*
X36617194Y-29035356D01*
X36619936Y-29033167D01*
X36622429Y-29030674D01*
X36623583Y-29029642D01*
X36627899Y-29025954D01*
X36662940Y-28997376D01*
X36693703Y-28960190D01*
X36701692Y-28951411D01*
X40121606Y-25531497D01*
X40131750Y-25522395D01*
X40158064Y-25501239D01*
X40158073Y-25501231D01*
X40162868Y-25497375D01*
X40166827Y-25492657D01*
X40168236Y-25491277D01*
X40230901Y-25457906D01*
X40256394Y-25455300D01*
X40855500Y-25455300D01*
X40923621Y-25475302D01*
X40970114Y-25528958D01*
X40981500Y-25581300D01*
X40981500Y-25985504D01*
X40961498Y-26053625D01*
X40912703Y-26097771D01*
X40775422Y-26167719D01*
X40744852Y-26192474D01*
X40628542Y-26286660D01*
X40623413Y-26290813D01*
X40500319Y-26442822D01*
X40411519Y-26617102D01*
X40360894Y-26806036D01*
X40354500Y-26887280D01*
X40354500Y-27642520D01*
X40360894Y-27723764D01*
X40362387Y-27729337D01*
X40362388Y-27729341D01*
X40399968Y-27869589D01*
X40411519Y-27912698D01*
X40500319Y-28086978D01*
X40623413Y-28238987D01*
X40775422Y-28362081D01*
X40949702Y-28450881D01*
X40956075Y-28452589D01*
X40956076Y-28452589D01*
X41133059Y-28500012D01*
X41133063Y-28500013D01*
X41138636Y-28501506D01*
X41144392Y-28501959D01*
X41217423Y-28507707D01*
X41217432Y-28507707D01*
X41219880Y-28507900D01*
X42600120Y-28507900D01*
X42602568Y-28507707D01*
X42602577Y-28507707D01*
X42675608Y-28501959D01*
X42681364Y-28501506D01*
X42686937Y-28500013D01*
X42686941Y-28500012D01*
X42863924Y-28452589D01*
X42863925Y-28452589D01*
X42870298Y-28450881D01*
X43044578Y-28362081D01*
X43196587Y-28238987D01*
X43319681Y-28086978D01*
X43408481Y-27912698D01*
X43420032Y-27869589D01*
X43457612Y-27729341D01*
X43457613Y-27729337D01*
X43459106Y-27723764D01*
X43465500Y-27642520D01*
X43465500Y-26887280D01*
X43459106Y-26806036D01*
X43408481Y-26617102D01*
X43319681Y-26442822D01*
X43196587Y-26290813D01*
X43139204Y-26244345D01*
X43098854Y-26185933D01*
X43092500Y-26146427D01*
X43092500Y-25124106D01*
X43093237Y-25110498D01*
X43096884Y-25076931D01*
X43096884Y-25076928D01*
X43097549Y-25070807D01*
X43097012Y-25064668D01*
X43097012Y-25064662D01*
X43092977Y-25018540D01*
X43092647Y-25013708D01*
X43092500Y-25010703D01*
X43092500Y-25007615D01*
X43088105Y-24962785D01*
X43087984Y-24961474D01*
X43080045Y-24870743D01*
X43079508Y-24864600D01*
X43077952Y-24859245D01*
X43077408Y-24853694D01*
X43049273Y-24760507D01*
X43048917Y-24759304D01*
X43023478Y-24671742D01*
X43021759Y-24665825D01*
X43019192Y-24660872D01*
X43017580Y-24655534D01*
X42971855Y-24569537D01*
X42971292Y-24568464D01*
X42929335Y-24487523D01*
X42926500Y-24482053D01*
X42923021Y-24477695D01*
X42920402Y-24472769D01*
X42882255Y-24425996D01*
X42854703Y-24360566D01*
X42853900Y-24346363D01*
X42853900Y-22770408D01*
X42847419Y-22699878D01*
X42844400Y-22690243D01*
X42810723Y-22582779D01*
X42810723Y-22507421D01*
X42845418Y-22396708D01*
X42845418Y-22396706D01*
X42847419Y-22390322D01*
X42853900Y-22319792D01*
X42853900Y-20911008D01*
X42847419Y-20840478D01*
X42811876Y-20727060D01*
X42810591Y-20656078D01*
X42843015Y-20600288D01*
X42843698Y-20599605D01*
X42906010Y-20565579D01*
X42932793Y-20562700D01*
X43748614Y-20562700D01*
X43816735Y-20582702D01*
X43863228Y-20636358D01*
X43874085Y-20700230D01*
X43868500Y-20761008D01*
X43868500Y-22469792D01*
X43874981Y-22540322D01*
X43924235Y-22697492D01*
X44009558Y-22838377D01*
X44126023Y-22954842D01*
X44126653Y-22955223D01*
X44166215Y-23010616D01*
X44169693Y-23081527D01*
X44143016Y-23133821D01*
X44066395Y-23223533D01*
X43936410Y-23435649D01*
X43934517Y-23440219D01*
X43934515Y-23440223D01*
X43907815Y-23504682D01*
X43841207Y-23665488D01*
X43783132Y-23907391D01*
X43763613Y-24155400D01*
X43783132Y-24403409D01*
X43784286Y-24408216D01*
X43784287Y-24408222D01*
X43821373Y-24562696D01*
X43841207Y-24645312D01*
X43843100Y-24649883D01*
X43843101Y-24649885D01*
X43933716Y-24868646D01*
X43936410Y-24875151D01*
X44066395Y-25087267D01*
X44069607Y-25091027D01*
X44069610Y-25091032D01*
X44213917Y-25259994D01*
X44227962Y-25276438D01*
X44231724Y-25279651D01*
X44290194Y-25329589D01*
X44329004Y-25389039D01*
X44329511Y-25460034D01*
X44290194Y-25521211D01*
X44227962Y-25574362D01*
X44224749Y-25578124D01*
X44069610Y-25759768D01*
X44069607Y-25759773D01*
X44066395Y-25763533D01*
X43936410Y-25975649D01*
X43934517Y-25980219D01*
X43934515Y-25980223D01*
X43855130Y-26171874D01*
X43841207Y-26205488D01*
X43783132Y-26447391D01*
X43763613Y-26695400D01*
X43783132Y-26943409D01*
X43841207Y-27185312D01*
X43843100Y-27189883D01*
X43843101Y-27189885D01*
X43915760Y-27365297D01*
X43936410Y-27415151D01*
X44066395Y-27627267D01*
X44069607Y-27631027D01*
X44069610Y-27631032D01*
X44143895Y-27718008D01*
X44227962Y-27816438D01*
X44231724Y-27819651D01*
X44413368Y-27974790D01*
X44413373Y-27974793D01*
X44417133Y-27978005D01*
X44453081Y-28000034D01*
X44629249Y-28107990D01*
X44628408Y-28109362D01*
X44674878Y-28153261D01*
X44691937Y-28222178D01*
X44669028Y-28289377D01*
X44649130Y-28311500D01*
X44511214Y-28432448D01*
X44503304Y-28440783D01*
X44378921Y-28598563D01*
X44372653Y-28608214D01*
X44279112Y-28786007D01*
X44274707Y-28796641D01*
X44215131Y-28988508D01*
X44212739Y-28999762D01*
X44202128Y-29089412D01*
X44204570Y-29103831D01*
X44217312Y-29107400D01*
X46480076Y-29107400D01*
X46494621Y-29103129D01*
X46496684Y-29090995D01*
X46491041Y-29029588D01*
X46488943Y-29018271D01*
X46434410Y-28824911D01*
X46430288Y-28814172D01*
X46341429Y-28633985D01*
X46335419Y-28624177D01*
X46215208Y-28463195D01*
X46207518Y-28454655D01*
X46059984Y-28318276D01*
X46056888Y-28315900D01*
X46055794Y-28314403D01*
X46055743Y-28314355D01*
X46055752Y-28314345D01*
X46015017Y-28258564D01*
X46010791Y-28187693D01*
X46045552Y-28125789D01*
X46069239Y-28108786D01*
X46068751Y-28107990D01*
X46244919Y-28000034D01*
X46280867Y-27978005D01*
X46284627Y-27974793D01*
X46284632Y-27974790D01*
X46466276Y-27819651D01*
X46470038Y-27816438D01*
X46554105Y-27718008D01*
X46628390Y-27631032D01*
X46628393Y-27631027D01*
X46631605Y-27627267D01*
X46761590Y-27415151D01*
X46782241Y-27365297D01*
X46854899Y-27189885D01*
X46854900Y-27189883D01*
X46856793Y-27185312D01*
X46914868Y-26943409D01*
X46934387Y-26695400D01*
X46914868Y-26447391D01*
X46856793Y-26205488D01*
X46842870Y-26171874D01*
X46763485Y-25980223D01*
X46763483Y-25980219D01*
X46761590Y-25975649D01*
X46631605Y-25763533D01*
X46628393Y-25759773D01*
X46628390Y-25759768D01*
X46473251Y-25578124D01*
X46470038Y-25574362D01*
X46407806Y-25521211D01*
X46368996Y-25461761D01*
X46368489Y-25390766D01*
X46407806Y-25329589D01*
X46466276Y-25279651D01*
X46470038Y-25276438D01*
X46484083Y-25259994D01*
X46628390Y-25091032D01*
X46628393Y-25091027D01*
X46631605Y-25087267D01*
X46761590Y-24875151D01*
X46764285Y-24868646D01*
X46854899Y-24649885D01*
X46854900Y-24649883D01*
X46856793Y-24645312D01*
X46876627Y-24562696D01*
X46913713Y-24408222D01*
X46913714Y-24408216D01*
X46914868Y-24403409D01*
X46934387Y-24155400D01*
X46914868Y-23907391D01*
X46856793Y-23665488D01*
X46790185Y-23504682D01*
X46763485Y-23440223D01*
X46763483Y-23440219D01*
X46761590Y-23435649D01*
X46631605Y-23223533D01*
X46554985Y-23133822D01*
X46525955Y-23069035D01*
X46536560Y-22998835D01*
X46570984Y-22955443D01*
X46571977Y-22954842D01*
X46688442Y-22838377D01*
X46773765Y-22697492D01*
X46823019Y-22540322D01*
X46829500Y-22469792D01*
X46829500Y-20761008D01*
X46823915Y-20700230D01*
X46837599Y-20630565D01*
X46886775Y-20579357D01*
X46949386Y-20562700D01*
X55822407Y-20562700D01*
X55890528Y-20582702D01*
X55911502Y-20599605D01*
X56921195Y-21609297D01*
X56955220Y-21671609D01*
X56958100Y-21698392D01*
X56958100Y-28281994D01*
X56957363Y-28295602D01*
X56953051Y-28335293D01*
X56953588Y-28341432D01*
X56953588Y-28341438D01*
X56957623Y-28387560D01*
X56957953Y-28392392D01*
X56958100Y-28395397D01*
X56958100Y-28398485D01*
X56958897Y-28406615D01*
X56962495Y-28443315D01*
X56962616Y-28444626D01*
X56971092Y-28541500D01*
X56972648Y-28546855D01*
X56973192Y-28552406D01*
X56974975Y-28558311D01*
X56974975Y-28558312D01*
X57001308Y-28645530D01*
X57001679Y-28646784D01*
X57028841Y-28740275D01*
X57031408Y-28745228D01*
X57033020Y-28750566D01*
X57035912Y-28756005D01*
X57078665Y-28836412D01*
X57079279Y-28837580D01*
X57124100Y-28924048D01*
X57127580Y-28928408D01*
X57130198Y-28933331D01*
X57144944Y-28951411D01*
X57191700Y-29008740D01*
X57192529Y-29009768D01*
X57223037Y-29047986D01*
X57223044Y-29047994D01*
X57225233Y-29050736D01*
X57227726Y-29053229D01*
X57228758Y-29054383D01*
X57232446Y-29058699D01*
X57261024Y-29093740D01*
X57273222Y-29103831D01*
X57298204Y-29124498D01*
X57306984Y-29132487D01*
X58161503Y-29987005D01*
X58170605Y-29997150D01*
X58191761Y-30023464D01*
X58191770Y-30023473D01*
X58195625Y-30028268D01*
X58200343Y-30032227D01*
X58200349Y-30032233D01*
X58235831Y-30062006D01*
X58239478Y-30065187D01*
X58241700Y-30067202D01*
X58243879Y-30069381D01*
X58246256Y-30071334D01*
X58246261Y-30071338D01*
X58278574Y-30097880D01*
X58279589Y-30098722D01*
X58354192Y-30161321D01*
X58359079Y-30164008D01*
X58363389Y-30167548D01*
X58368815Y-30170458D01*
X58368822Y-30170462D01*
X58449232Y-30213576D01*
X58450225Y-30214115D01*
X58535582Y-30261041D01*
X58540899Y-30262728D01*
X58545814Y-30265363D01*
X58551704Y-30267164D01*
X58551707Y-30267165D01*
X58574914Y-30274260D01*
X58638885Y-30293818D01*
X58640090Y-30294193D01*
X58732887Y-30323630D01*
X58738426Y-30324251D01*
X58743763Y-30325883D01*
X58749894Y-30326506D01*
X58749895Y-30326506D01*
X58785404Y-30330113D01*
X58840623Y-30335722D01*
X58841853Y-30335853D01*
X58893981Y-30341700D01*
X58897507Y-30341700D01*
X58899044Y-30341786D01*
X58904746Y-30342235D01*
X58943570Y-30346179D01*
X58943575Y-30346179D01*
X58949698Y-30346801D01*
X58997746Y-30342259D01*
X59009605Y-30341700D01*
X59404223Y-30341700D01*
X59472344Y-30361702D01*
X59486053Y-30371889D01*
X59530194Y-30409589D01*
X59569004Y-30469039D01*
X59569510Y-30540034D01*
X59530194Y-30601211D01*
X59467962Y-30654362D01*
X59464749Y-30658124D01*
X59309610Y-30839768D01*
X59309607Y-30839773D01*
X59306395Y-30843533D01*
X59176410Y-31055649D01*
X59174517Y-31060219D01*
X59174515Y-31060223D01*
X59083101Y-31280915D01*
X59081207Y-31285488D01*
X59080052Y-31290300D01*
X59028292Y-31505899D01*
X59023132Y-31527391D01*
X59003613Y-31775400D01*
X59023132Y-32023409D01*
X59081207Y-32265312D01*
X59083100Y-32269883D01*
X59083101Y-32269885D01*
X59147233Y-32424711D01*
X59176410Y-32495151D01*
X59178996Y-32499371D01*
X59186967Y-32512378D01*
X59306395Y-32707267D01*
X59309607Y-32711027D01*
X59309610Y-32711032D01*
X59453917Y-32879994D01*
X59467962Y-32896438D01*
X59471724Y-32899651D01*
X59530194Y-32949589D01*
X59569004Y-33009039D01*
X59569511Y-33080034D01*
X59530194Y-33141211D01*
X59467962Y-33194362D01*
X59464749Y-33198124D01*
X59309610Y-33379768D01*
X59309607Y-33379773D01*
X59306395Y-33383533D01*
X59176410Y-33595649D01*
X59174517Y-33600219D01*
X59174515Y-33600223D01*
X59118443Y-33735592D01*
X59081207Y-33825488D01*
X59080052Y-33830300D01*
X59025265Y-34058508D01*
X59023132Y-34067391D01*
X59003613Y-34315400D01*
X59023132Y-34563409D01*
X59024286Y-34568216D01*
X59024287Y-34568222D01*
X59044389Y-34651951D01*
X59081207Y-34805312D01*
X59083100Y-34809883D01*
X59083101Y-34809885D01*
X59174299Y-35030054D01*
X59176410Y-35035151D01*
X59306395Y-35247267D01*
X59309607Y-35251027D01*
X59309610Y-35251032D01*
X59415696Y-35375242D01*
X59467962Y-35436438D01*
X59471724Y-35439651D01*
X59530194Y-35489589D01*
X59569004Y-35549039D01*
X59569511Y-35620034D01*
X59530194Y-35681211D01*
X59467962Y-35734362D01*
X59464749Y-35738124D01*
X59309610Y-35919768D01*
X59309607Y-35919773D01*
X59306395Y-35923533D01*
X59176410Y-36135649D01*
X59174517Y-36140219D01*
X59174515Y-36140223D01*
X59116252Y-36280882D01*
X59081207Y-36365488D01*
X59080052Y-36370300D01*
X59024738Y-36600702D01*
X59023132Y-36607391D01*
X59003613Y-36855400D01*
X59023132Y-37103409D01*
X59024286Y-37108216D01*
X59024287Y-37108222D01*
X59044886Y-37194021D01*
X59081207Y-37345312D01*
X59083100Y-37349883D01*
X59083101Y-37349885D01*
X59122846Y-37445836D01*
X59176410Y-37575151D01*
X59306395Y-37787267D01*
X59309607Y-37791027D01*
X59309610Y-37791032D01*
X59404559Y-37902203D01*
X59467962Y-37976438D01*
X59471724Y-37979651D01*
X59530194Y-38029589D01*
X59569004Y-38089039D01*
X59569511Y-38160034D01*
X59530194Y-38221211D01*
X59467962Y-38274362D01*
X59464749Y-38278124D01*
X59309610Y-38459768D01*
X59309607Y-38459773D01*
X59306395Y-38463533D01*
X59176410Y-38675649D01*
X59174517Y-38680219D01*
X59174515Y-38680223D01*
X59084912Y-38896543D01*
X59081207Y-38905488D01*
X59080052Y-38910300D01*
X59025286Y-39138420D01*
X59023132Y-39147391D01*
X59003613Y-39395400D01*
X59023132Y-39643409D01*
X59024286Y-39648216D01*
X59024287Y-39648222D01*
X59052227Y-39764600D01*
X59081207Y-39885312D01*
X59083100Y-39889883D01*
X59083101Y-39889885D01*
X59152535Y-40057511D01*
X59176410Y-40115151D01*
X59306395Y-40327267D01*
X59309607Y-40331027D01*
X59309610Y-40331032D01*
X59383527Y-40417577D01*
X59467962Y-40516438D01*
X59495159Y-40539666D01*
X59530194Y-40569589D01*
X59569004Y-40629039D01*
X59569511Y-40700034D01*
X59530194Y-40761211D01*
X59467962Y-40814362D01*
X59454533Y-40830085D01*
X59309610Y-40999768D01*
X59309607Y-40999773D01*
X59306395Y-41003533D01*
X59176410Y-41215649D01*
X59174517Y-41220219D01*
X59174515Y-41220223D01*
X59103520Y-41391619D01*
X59081207Y-41445488D01*
X59069834Y-41492860D01*
X59026204Y-41674596D01*
X59023132Y-41687391D01*
X59003613Y-41935400D01*
X59023132Y-42183409D01*
X59024286Y-42188216D01*
X59024287Y-42188222D01*
X59057390Y-42326104D01*
X59081207Y-42425312D01*
X59083100Y-42429883D01*
X59083101Y-42429885D01*
X59167900Y-42634605D01*
X59176410Y-42655151D01*
X59306395Y-42867267D01*
X59309607Y-42871027D01*
X59309610Y-42871032D01*
X59403129Y-42980528D01*
X59467962Y-43056438D01*
X59471724Y-43059651D01*
X59530194Y-43109589D01*
X59569004Y-43169039D01*
X59569511Y-43240034D01*
X59530194Y-43301211D01*
X59467962Y-43354362D01*
X59460656Y-43362916D01*
X59309610Y-43539768D01*
X59309607Y-43539773D01*
X59306395Y-43543533D01*
X59176410Y-43755649D01*
X59174517Y-43760219D01*
X59174515Y-43760223D01*
X59086961Y-43971597D01*
X59081207Y-43985488D01*
X59067259Y-44043586D01*
X59030422Y-44197027D01*
X59023132Y-44227391D01*
X59003613Y-44475400D01*
X59023132Y-44723409D01*
X59024286Y-44728216D01*
X59024287Y-44728222D01*
X59036705Y-44779946D01*
X59081207Y-44965312D01*
X59083100Y-44969883D01*
X59083101Y-44969885D01*
X59173908Y-45189110D01*
X59176410Y-45195151D01*
X59306395Y-45407267D01*
X59309607Y-45411027D01*
X59309610Y-45411032D01*
X59407671Y-45525846D01*
X59467962Y-45596438D01*
X59527519Y-45647304D01*
X59530194Y-45649589D01*
X59569004Y-45709039D01*
X59569511Y-45780034D01*
X59530194Y-45841211D01*
X59467962Y-45894362D01*
X59464749Y-45898124D01*
X59309610Y-46079768D01*
X59309607Y-46079773D01*
X59306395Y-46083533D01*
X59176410Y-46295649D01*
X59174517Y-46300219D01*
X59174515Y-46300223D01*
X59083238Y-46520584D01*
X59081207Y-46525488D01*
X59080052Y-46530300D01*
X59025902Y-46755854D01*
X59023132Y-46767391D01*
X59003613Y-47015400D01*
X59023132Y-47263409D01*
X59024286Y-47268216D01*
X59024287Y-47268222D01*
X59044482Y-47352340D01*
X59081207Y-47505312D01*
X59083100Y-47509883D01*
X59083101Y-47509885D01*
X59173291Y-47727620D01*
X59176410Y-47735151D01*
X59306395Y-47947267D01*
X59309607Y-47951027D01*
X59309610Y-47951032D01*
X59371062Y-48022983D01*
X59467962Y-48136438D01*
X59471724Y-48139651D01*
X59530194Y-48189589D01*
X59569004Y-48249039D01*
X59569511Y-48320034D01*
X59530194Y-48381211D01*
X59467962Y-48434362D01*
X59464749Y-48438124D01*
X59309610Y-48619768D01*
X59309607Y-48619773D01*
X59306395Y-48623533D01*
X59176410Y-48835649D01*
X59174517Y-48840219D01*
X59174515Y-48840223D01*
X59111501Y-48992352D01*
X59081207Y-49065488D01*
X59077409Y-49081308D01*
X59025203Y-49298766D01*
X59023132Y-49307391D01*
X59003613Y-49555400D01*
X59023132Y-49803409D01*
X59024286Y-49808216D01*
X59024287Y-49808222D01*
X59044468Y-49892282D01*
X59081207Y-50045312D01*
X59083100Y-50049883D01*
X59083101Y-50049885D01*
X59144826Y-50198900D01*
X59176410Y-50275151D01*
X59306395Y-50487267D01*
X59309607Y-50491027D01*
X59309610Y-50491032D01*
X59426068Y-50627386D01*
X59467962Y-50676438D01*
X59471724Y-50679651D01*
X59530194Y-50729589D01*
X59569004Y-50789039D01*
X59569511Y-50860034D01*
X59530194Y-50921211D01*
X59467962Y-50974362D01*
X59464749Y-50978124D01*
X59309610Y-51159768D01*
X59309607Y-51159773D01*
X59306395Y-51163533D01*
X59176410Y-51375649D01*
X59174517Y-51380219D01*
X59174515Y-51380223D01*
X59101869Y-51555606D01*
X59081207Y-51605488D01*
X59072786Y-51640566D01*
X59025500Y-51837529D01*
X59023132Y-51847391D01*
X59003613Y-52095400D01*
X59023132Y-52343409D01*
X59024286Y-52348216D01*
X59024287Y-52348222D01*
X59044925Y-52434186D01*
X59081207Y-52585312D01*
X59083100Y-52589883D01*
X59083101Y-52589885D01*
X59171706Y-52803794D01*
X59176410Y-52815151D01*
X59306395Y-53027267D01*
X59309607Y-53031027D01*
X59309610Y-53031032D01*
X59435286Y-53178179D01*
X59467962Y-53216438D01*
X59471724Y-53219651D01*
X59530194Y-53269589D01*
X59569004Y-53329039D01*
X59569511Y-53400034D01*
X59530194Y-53461211D01*
X59467962Y-53514362D01*
X59464749Y-53518124D01*
X59309610Y-53699768D01*
X59309607Y-53699773D01*
X59306395Y-53703533D01*
X59176410Y-53915649D01*
X59174517Y-53920219D01*
X59174515Y-53920223D01*
X59083101Y-54140915D01*
X59081207Y-54145488D01*
X59063131Y-54220782D01*
X59027156Y-54370630D01*
X59023132Y-54387391D01*
X59003613Y-54635400D01*
X59023132Y-54883409D01*
X59081207Y-55125312D01*
X59083100Y-55129883D01*
X59083101Y-55129885D01*
X59156507Y-55307100D01*
X59176410Y-55355151D01*
X59306395Y-55567267D01*
X59309607Y-55571027D01*
X59309610Y-55571032D01*
X59425207Y-55706378D01*
X59467962Y-55756438D01*
X59504945Y-55788024D01*
X59530194Y-55809589D01*
X59569004Y-55869039D01*
X59569511Y-55940034D01*
X59530194Y-56001211D01*
X59467962Y-56054362D01*
X59464749Y-56058124D01*
X59309610Y-56239768D01*
X59309607Y-56239773D01*
X59306395Y-56243533D01*
X59176410Y-56455649D01*
X59174517Y-56460219D01*
X59174515Y-56460223D01*
X59088167Y-56668685D01*
X59081207Y-56685488D01*
X59074337Y-56714104D01*
X59025628Y-56916996D01*
X59023132Y-56927391D01*
X59003613Y-57175400D01*
X59023132Y-57423409D01*
X59024286Y-57428216D01*
X59024287Y-57428222D01*
X59061373Y-57582696D01*
X59081207Y-57665312D01*
X59176410Y-57895151D01*
X59306395Y-58107267D01*
X59309607Y-58111027D01*
X59309610Y-58111032D01*
X59358305Y-58168046D01*
X59467962Y-58296438D01*
X59471724Y-58299651D01*
X59653368Y-58454790D01*
X59653373Y-58454793D01*
X59657133Y-58458005D01*
X59869249Y-58587990D01*
X59873819Y-58589883D01*
X59873823Y-58589885D01*
X60094515Y-58681299D01*
X60094517Y-58681300D01*
X60099088Y-58683193D01*
X60181704Y-58703027D01*
X60336178Y-58740113D01*
X60336184Y-58740114D01*
X60340991Y-58741268D01*
X60589000Y-58760787D01*
X60837009Y-58741268D01*
X60841816Y-58740114D01*
X60841822Y-58740113D01*
X60996296Y-58703027D01*
X61078912Y-58683193D01*
X61083483Y-58681300D01*
X61083485Y-58681299D01*
X61186655Y-58638564D01*
X61308751Y-58587990D01*
X61368412Y-58551430D01*
X61435901Y-58532875D01*
X63131064Y-58555180D01*
X63198915Y-58576076D01*
X63218501Y-58592073D01*
X63303521Y-58677092D01*
X63334821Y-58708392D01*
X63364141Y-58733370D01*
X63369475Y-58736364D01*
X63369479Y-58736366D01*
X63501154Y-58810258D01*
X63501158Y-58810260D01*
X63507777Y-58813974D01*
X63515094Y-58816003D01*
X63515096Y-58816004D01*
X63660551Y-58856343D01*
X63660553Y-58856343D01*
X63666494Y-58857991D01*
X63684526Y-58859347D01*
X63700164Y-58860523D01*
X63700178Y-58860524D01*
X63702525Y-58860700D01*
X64366790Y-58860700D01*
X65075471Y-58860699D01*
X65085248Y-58859917D01*
X65107770Y-58858116D01*
X65107771Y-58858116D01*
X65113871Y-58857628D01*
X65119760Y-58855973D01*
X65119764Y-58855972D01*
X65214626Y-58829307D01*
X65272434Y-58813058D01*
X65415787Y-58731953D01*
X65443185Y-58708387D01*
X65817192Y-58334379D01*
X65842170Y-58305059D01*
X65849119Y-58292676D01*
X65919058Y-58168046D01*
X65919060Y-58168042D01*
X65922774Y-58161423D01*
X65966791Y-58002706D01*
X65968147Y-57984674D01*
X65969323Y-57969036D01*
X65969324Y-57969022D01*
X65969500Y-57966675D01*
X65969499Y-56993729D01*
X65966428Y-56955329D01*
X65953256Y-56908466D01*
X65935641Y-56845800D01*
X65921858Y-56796766D01*
X65840753Y-56653413D01*
X65817187Y-56626015D01*
X65815505Y-56624333D01*
X65815492Y-56624319D01*
X65477768Y-56286595D01*
X65443742Y-56224283D01*
X65448807Y-56153468D01*
X65477767Y-56108405D01*
X65840804Y-55745367D01*
X65842592Y-55743579D01*
X65867570Y-55714259D01*
X65870566Y-55708921D01*
X65944458Y-55577246D01*
X65944460Y-55577242D01*
X65948174Y-55570623D01*
X65961882Y-55521197D01*
X65990543Y-55417849D01*
X65990543Y-55417847D01*
X65992191Y-55411906D01*
X65993547Y-55393874D01*
X65994723Y-55378236D01*
X65994724Y-55378222D01*
X65994900Y-55375875D01*
X65994899Y-54402929D01*
X65991828Y-54364529D01*
X65983351Y-54334369D01*
X65966078Y-54272919D01*
X65947258Y-54205966D01*
X65866153Y-54062613D01*
X65842587Y-54035215D01*
X65490467Y-53683096D01*
X65456442Y-53620783D01*
X65461506Y-53549968D01*
X65490467Y-53504905D01*
X65815392Y-53179980D01*
X65815404Y-53179967D01*
X65817192Y-53178179D01*
X65842170Y-53148859D01*
X65879338Y-53082626D01*
X65919058Y-53011846D01*
X65919060Y-53011842D01*
X65922774Y-53005223D01*
X65935950Y-52957715D01*
X65965143Y-52852449D01*
X65965143Y-52852447D01*
X65966791Y-52846506D01*
X65968147Y-52828474D01*
X65969323Y-52812836D01*
X65969324Y-52812822D01*
X65969500Y-52810475D01*
X65969499Y-51837529D01*
X65966428Y-51799129D01*
X65964629Y-51792727D01*
X65930922Y-51672812D01*
X65921858Y-51640566D01*
X65840753Y-51497213D01*
X65817187Y-51469815D01*
X65451399Y-51104028D01*
X65417374Y-51041715D01*
X65422438Y-50970900D01*
X65458331Y-50919407D01*
X65468585Y-50910587D01*
X65842592Y-50536579D01*
X65867570Y-50507259D01*
X65870566Y-50501921D01*
X65944458Y-50370246D01*
X65944460Y-50370242D01*
X65948174Y-50363623D01*
X65951897Y-50350201D01*
X65990543Y-50210849D01*
X65990543Y-50210847D01*
X65992191Y-50204906D01*
X65994222Y-50177892D01*
X65994723Y-50171236D01*
X65994724Y-50171222D01*
X65994900Y-50168875D01*
X65994899Y-49195929D01*
X65991828Y-49157529D01*
X65989668Y-49149842D01*
X65949314Y-49006282D01*
X65947258Y-48998966D01*
X65866153Y-48855613D01*
X65842587Y-48828215D01*
X65490467Y-48476096D01*
X65456442Y-48413783D01*
X65461506Y-48342968D01*
X65490467Y-48297905D01*
X65815392Y-47972980D01*
X65815404Y-47972967D01*
X65817192Y-47971179D01*
X65842170Y-47941859D01*
X65845166Y-47936521D01*
X65919058Y-47804846D01*
X65919060Y-47804842D01*
X65922774Y-47798223D01*
X65928100Y-47779021D01*
X65965143Y-47645449D01*
X65965143Y-47645447D01*
X65966791Y-47639506D01*
X65969058Y-47609360D01*
X65969323Y-47605836D01*
X65969324Y-47605822D01*
X65969500Y-47603475D01*
X65969499Y-46630529D01*
X65967215Y-46601969D01*
X65966916Y-46598230D01*
X65966916Y-46598229D01*
X65966428Y-46592129D01*
X65964549Y-46585442D01*
X65944036Y-46512468D01*
X65921858Y-46433566D01*
X65840753Y-46290213D01*
X65817187Y-46262815D01*
X65815505Y-46261133D01*
X65815492Y-46261119D01*
X65490468Y-45936095D01*
X65456442Y-45873783D01*
X65461507Y-45802968D01*
X65490467Y-45757905D01*
X65815404Y-45432967D01*
X65817192Y-45431179D01*
X65842170Y-45401859D01*
X65845166Y-45396521D01*
X65919058Y-45264846D01*
X65919060Y-45264842D01*
X65922774Y-45258223D01*
X65933690Y-45218864D01*
X65965143Y-45105449D01*
X65965143Y-45105447D01*
X65966791Y-45099506D01*
X65968147Y-45081474D01*
X65969323Y-45065836D01*
X65969324Y-45065822D01*
X65969500Y-45063475D01*
X65969499Y-44090529D01*
X65966428Y-44052129D01*
X65960950Y-44032638D01*
X65943963Y-43972208D01*
X65921858Y-43893566D01*
X65840753Y-43750213D01*
X65817187Y-43722815D01*
X65815505Y-43721133D01*
X65815492Y-43721119D01*
X65515868Y-43421495D01*
X65481842Y-43359183D01*
X65486907Y-43288368D01*
X65515867Y-43243305D01*
X65840804Y-42918367D01*
X65842592Y-42916579D01*
X65867570Y-42887259D01*
X65870986Y-42881172D01*
X65944458Y-42750246D01*
X65944460Y-42750242D01*
X65948174Y-42743623D01*
X65951195Y-42732732D01*
X65990543Y-42590849D01*
X65990543Y-42590847D01*
X65992191Y-42584906D01*
X65993798Y-42563536D01*
X65994723Y-42551236D01*
X65994724Y-42551222D01*
X65994900Y-42548875D01*
X65994899Y-41575929D01*
X65991828Y-41537529D01*
X65986521Y-41518646D01*
X65959353Y-41421997D01*
X65947258Y-41378966D01*
X65866153Y-41235613D01*
X65842587Y-41208215D01*
X65490467Y-40856096D01*
X65456442Y-40793783D01*
X65461506Y-40722968D01*
X65490467Y-40677905D01*
X65815392Y-40352980D01*
X65815404Y-40352967D01*
X65817192Y-40351179D01*
X65842170Y-40321859D01*
X65912689Y-40196195D01*
X65919058Y-40184846D01*
X65919060Y-40184842D01*
X65922774Y-40178223D01*
X65933590Y-40139225D01*
X65965143Y-40025449D01*
X65965143Y-40025447D01*
X65966791Y-40019506D01*
X65968147Y-40001474D01*
X65969323Y-39985836D01*
X65969324Y-39985822D01*
X65969500Y-39983475D01*
X65969499Y-39010529D01*
X65966428Y-38972129D01*
X65921858Y-38813566D01*
X65840753Y-38670213D01*
X65817187Y-38642815D01*
X65815505Y-38641133D01*
X65815492Y-38641119D01*
X65490468Y-38316095D01*
X65456442Y-38253783D01*
X65461507Y-38182968D01*
X65490467Y-38137905D01*
X65815404Y-37812967D01*
X65817192Y-37811179D01*
X65842170Y-37781859D01*
X65859269Y-37751389D01*
X65919058Y-37644846D01*
X65919060Y-37644842D01*
X65922774Y-37638223D01*
X65939096Y-37579371D01*
X65965143Y-37485449D01*
X65965143Y-37485447D01*
X65966791Y-37479506D01*
X65968147Y-37461474D01*
X65969323Y-37445836D01*
X65969324Y-37445822D01*
X65969500Y-37443475D01*
X65969499Y-36470529D01*
X65966428Y-36432129D01*
X65921858Y-36273566D01*
X65840753Y-36130213D01*
X65817187Y-36102815D01*
X65815505Y-36101133D01*
X65815492Y-36101119D01*
X65490468Y-35776095D01*
X65456442Y-35713783D01*
X65461507Y-35642968D01*
X65490467Y-35597905D01*
X65815404Y-35272967D01*
X65817192Y-35271179D01*
X65842170Y-35241859D01*
X65845166Y-35236521D01*
X65919058Y-35104846D01*
X65919060Y-35104842D01*
X65922774Y-35098223D01*
X65933690Y-35058864D01*
X65965143Y-34945449D01*
X65965143Y-34945447D01*
X65966791Y-34939506D01*
X65969253Y-34906761D01*
X65969323Y-34905836D01*
X65969324Y-34905822D01*
X65969500Y-34903475D01*
X65969499Y-33930529D01*
X65966428Y-33892129D01*
X65960262Y-33870190D01*
X65923914Y-33740882D01*
X65921858Y-33733566D01*
X65840753Y-33590213D01*
X65817187Y-33562815D01*
X65815505Y-33561133D01*
X65815492Y-33561119D01*
X65490468Y-33236095D01*
X65456442Y-33173783D01*
X65461507Y-33102968D01*
X65490467Y-33057905D01*
X65840804Y-32707567D01*
X65842592Y-32705779D01*
X65867570Y-32676459D01*
X65870566Y-32671121D01*
X65944458Y-32539446D01*
X65944460Y-32539442D01*
X65948174Y-32532823D01*
X65951905Y-32519372D01*
X65990543Y-32380049D01*
X65990543Y-32380047D01*
X65992191Y-32374106D01*
X65993966Y-32350500D01*
X65994723Y-32340436D01*
X65994724Y-32340422D01*
X65994900Y-32338075D01*
X65994899Y-31365129D01*
X65991828Y-31326729D01*
X65981589Y-31290300D01*
X65949314Y-31175482D01*
X65947258Y-31168166D01*
X65866153Y-31024813D01*
X65842587Y-30997415D01*
X65840905Y-30995733D01*
X65840892Y-30995719D01*
X65490468Y-30645295D01*
X65456442Y-30582983D01*
X65461507Y-30512168D01*
X65490467Y-30467105D01*
X65840804Y-30116767D01*
X65842592Y-30114979D01*
X65867570Y-30085659D01*
X65870566Y-30080321D01*
X65944458Y-29948646D01*
X65944460Y-29948642D01*
X65948174Y-29942023D01*
X65950987Y-29931882D01*
X65990543Y-29789249D01*
X65990543Y-29789247D01*
X65992191Y-29783306D01*
X65993967Y-29759685D01*
X65994723Y-29749636D01*
X65994724Y-29749622D01*
X65994900Y-29747275D01*
X65994899Y-28774329D01*
X65991828Y-28735929D01*
X65947258Y-28577366D01*
X65866153Y-28434013D01*
X65842587Y-28406615D01*
X65490467Y-28054496D01*
X65456442Y-27992183D01*
X65461506Y-27921368D01*
X65490467Y-27876305D01*
X65815392Y-27551380D01*
X65815404Y-27551367D01*
X65817192Y-27549579D01*
X65842170Y-27520259D01*
X65845166Y-27514921D01*
X65919058Y-27383246D01*
X65919060Y-27383242D01*
X65922774Y-27376623D01*
X65926997Y-27361398D01*
X65965143Y-27223849D01*
X65965143Y-27223847D01*
X65966791Y-27217906D01*
X65968607Y-27193753D01*
X65969323Y-27184236D01*
X65969324Y-27184222D01*
X65969500Y-27181875D01*
X65969499Y-26208929D01*
X65966428Y-26170529D01*
X65959654Y-26146427D01*
X65923914Y-26019282D01*
X65921858Y-26011966D01*
X65840753Y-25868613D01*
X65817187Y-25841215D01*
X65815505Y-25839533D01*
X65815492Y-25839519D01*
X65515868Y-25539895D01*
X65481842Y-25477583D01*
X65486907Y-25406768D01*
X65515867Y-25361705D01*
X65840804Y-25036767D01*
X65842592Y-25034979D01*
X65867570Y-25005659D01*
X65891630Y-24962785D01*
X65944458Y-24868646D01*
X65944460Y-24868642D01*
X65948174Y-24862023D01*
X65950294Y-24854381D01*
X65990543Y-24709249D01*
X65990543Y-24709247D01*
X65992191Y-24703306D01*
X65993547Y-24685274D01*
X65994723Y-24669636D01*
X65994724Y-24669622D01*
X65994900Y-24667275D01*
X65994899Y-23694329D01*
X65992977Y-23670300D01*
X65992316Y-23662030D01*
X65992316Y-23662029D01*
X65991828Y-23655929D01*
X65947258Y-23497366D01*
X65866153Y-23354013D01*
X65842587Y-23326615D01*
X65840905Y-23324933D01*
X65840892Y-23324919D01*
X65515868Y-22999895D01*
X65481842Y-22937583D01*
X65486907Y-22866768D01*
X65515867Y-22821705D01*
X65840804Y-22496767D01*
X65842592Y-22494979D01*
X65867570Y-22465659D01*
X65870566Y-22460321D01*
X65944458Y-22328646D01*
X65944460Y-22328642D01*
X65948174Y-22322023D01*
X65992191Y-22163306D01*
X65993547Y-22145274D01*
X65994723Y-22129636D01*
X65994724Y-22129622D01*
X65994900Y-22127275D01*
X65994899Y-21154329D01*
X65994117Y-21144552D01*
X65992316Y-21122030D01*
X65992316Y-21122029D01*
X65991828Y-21115929D01*
X65947258Y-20957366D01*
X65866153Y-20814013D01*
X65842587Y-20786615D01*
X65468579Y-20412608D01*
X65439259Y-20387630D01*
X65433925Y-20384636D01*
X65433921Y-20384634D01*
X65302246Y-20310742D01*
X65302242Y-20310740D01*
X65295623Y-20307026D01*
X65288306Y-20304997D01*
X65288304Y-20304996D01*
X65142849Y-20264657D01*
X65142847Y-20264657D01*
X65136906Y-20263009D01*
X65118874Y-20261653D01*
X65103236Y-20260477D01*
X65103222Y-20260476D01*
X65100875Y-20260300D01*
X64436610Y-20260300D01*
X63727929Y-20260301D01*
X63725415Y-20260502D01*
X63725416Y-20260502D01*
X63695630Y-20262884D01*
X63695629Y-20262884D01*
X63689529Y-20263372D01*
X63683640Y-20265027D01*
X63683636Y-20265028D01*
X63612941Y-20284900D01*
X63530966Y-20307942D01*
X63524352Y-20311684D01*
X63390732Y-20387282D01*
X63329475Y-20403615D01*
X62411212Y-20409355D01*
X61663253Y-20414030D01*
X61595009Y-20394454D01*
X61580646Y-20383851D01*
X61520867Y-20332795D01*
X61308751Y-20202810D01*
X61304181Y-20200917D01*
X61304177Y-20200915D01*
X61083485Y-20109501D01*
X61083483Y-20109500D01*
X61078912Y-20107607D01*
X60996296Y-20087773D01*
X60841822Y-20050687D01*
X60841816Y-20050686D01*
X60837009Y-20049532D01*
X60589000Y-20030013D01*
X60340991Y-20049532D01*
X60336184Y-20050686D01*
X60336178Y-20050687D01*
X60181704Y-20087773D01*
X60099088Y-20107607D01*
X60094517Y-20109500D01*
X60094515Y-20109501D01*
X59873823Y-20200915D01*
X59873819Y-20200917D01*
X59869249Y-20202810D01*
X59657133Y-20332795D01*
X59653375Y-20336005D01*
X59653368Y-20336010D01*
X59484406Y-20480317D01*
X59467962Y-20494362D01*
X59464749Y-20498124D01*
X59309610Y-20679768D01*
X59309607Y-20679773D01*
X59306395Y-20683533D01*
X59218954Y-20826224D01*
X59166307Y-20873854D01*
X59096266Y-20885461D01*
X59031068Y-20857358D01*
X58999743Y-20814342D01*
X58998332Y-20815073D01*
X58997999Y-20814430D01*
X58995359Y-20808739D01*
X58994180Y-20804834D01*
X58948486Y-20718896D01*
X58947879Y-20717741D01*
X58928744Y-20680825D01*
X58903100Y-20631353D01*
X58899621Y-20626995D01*
X58897002Y-20622069D01*
X58881550Y-20603122D01*
X58835538Y-20546706D01*
X58834710Y-20545680D01*
X58804171Y-20507424D01*
X58804157Y-20507408D01*
X58801967Y-20504665D01*
X58799472Y-20502170D01*
X58798464Y-20501043D01*
X58794755Y-20496702D01*
X58766176Y-20461660D01*
X58728985Y-20430893D01*
X58720206Y-20422904D01*
X57103698Y-18806395D01*
X57094596Y-18796252D01*
X57073434Y-18769932D01*
X57069575Y-18765132D01*
X57029382Y-18731406D01*
X57025736Y-18728225D01*
X57023504Y-18726201D01*
X57021322Y-18724019D01*
X56986500Y-18695416D01*
X56985577Y-18694649D01*
X56915735Y-18636044D01*
X56915726Y-18636038D01*
X56911008Y-18632079D01*
X56906121Y-18629393D01*
X56901811Y-18625852D01*
X56896377Y-18622938D01*
X56896375Y-18622937D01*
X56815968Y-18579824D01*
X56814975Y-18579285D01*
X56729618Y-18532359D01*
X56724301Y-18530672D01*
X56719386Y-18528037D01*
X56713496Y-18526236D01*
X56713493Y-18526235D01*
X56654660Y-18508248D01*
X56626355Y-18499595D01*
X56625151Y-18499220D01*
X56532313Y-18469770D01*
X56526769Y-18469148D01*
X56521437Y-18467518D01*
X56515312Y-18466896D01*
X56515308Y-18466895D01*
X56443535Y-18459605D01*
X56424648Y-18457687D01*
X56423397Y-18457553D01*
X56385627Y-18453316D01*
X56374714Y-18452092D01*
X56374713Y-18452092D01*
X56371219Y-18451700D01*
X56367695Y-18451700D01*
X56366155Y-18451614D01*
X56360459Y-18451166D01*
X56345951Y-18449692D01*
X56321629Y-18447221D01*
X56321625Y-18447221D01*
X56315502Y-18446599D01*
X56271513Y-18450757D01*
X56267453Y-18451141D01*
X56255595Y-18451700D01*
X42507805Y-18451700D01*
X42494197Y-18450963D01*
X42460630Y-18447316D01*
X42460627Y-18447316D01*
X42454506Y-18446651D01*
X42448367Y-18447188D01*
X42448361Y-18447188D01*
X42402240Y-18451223D01*
X42397407Y-18451553D01*
X42394397Y-18451700D01*
X42391315Y-18451700D01*
X42388258Y-18452000D01*
X42388253Y-18452000D01*
X42370099Y-18453780D01*
X42346509Y-18456093D01*
X42345292Y-18456206D01*
X42248300Y-18464692D01*
X42242945Y-18466248D01*
X42237394Y-18466792D01*
X42231489Y-18468575D01*
X42231488Y-18468575D01*
X42227530Y-18469770D01*
X42144158Y-18494941D01*
X42143020Y-18495279D01*
X42049525Y-18522442D01*
X42044577Y-18525007D01*
X42039234Y-18526620D01*
X41953232Y-18572348D01*
X41952184Y-18572898D01*
X41871221Y-18614865D01*
X41865752Y-18617700D01*
X41861392Y-18621180D01*
X41856469Y-18623798D01*
X41802461Y-18667846D01*
X41781060Y-18685300D01*
X41780032Y-18686129D01*
X41741814Y-18716637D01*
X41741806Y-18716644D01*
X41739064Y-18718833D01*
X41736571Y-18721326D01*
X41735417Y-18722358D01*
X41731101Y-18726046D01*
X41696060Y-18754624D01*
X41687367Y-18765132D01*
X41665298Y-18791809D01*
X41657308Y-18800589D01*
X40523394Y-19934503D01*
X40513250Y-19943605D01*
X40486936Y-19964761D01*
X40486927Y-19964769D01*
X40482132Y-19968625D01*
X40448408Y-20008816D01*
X40445225Y-20012464D01*
X40443201Y-20014696D01*
X40441019Y-20016878D01*
X40412416Y-20051700D01*
X40411649Y-20052623D01*
X40353044Y-20122465D01*
X40353038Y-20122474D01*
X40349079Y-20127192D01*
X40346393Y-20132079D01*
X40342852Y-20136389D01*
X40339938Y-20141823D01*
X40339937Y-20141825D01*
X40298857Y-20218440D01*
X40249039Y-20269024D01*
X40187812Y-20284900D01*
X40119008Y-20284900D01*
X40048478Y-20291381D01*
X40042094Y-20293382D01*
X40042092Y-20293382D01*
X39898557Y-20338363D01*
X39898555Y-20338364D01*
X39891308Y-20340635D01*
X39750423Y-20425958D01*
X39640480Y-20535901D01*
X39578168Y-20569927D01*
X39562369Y-20572326D01*
X39555900Y-20572892D01*
X39550545Y-20574448D01*
X39544994Y-20574992D01*
X39451758Y-20603141D01*
X39450620Y-20603479D01*
X39357125Y-20630642D01*
X39352177Y-20633207D01*
X39346834Y-20634820D01*
X39260832Y-20680548D01*
X39259784Y-20681098D01*
X39186837Y-20718910D01*
X39173352Y-20725900D01*
X39168992Y-20729380D01*
X39164069Y-20731998D01*
X39124946Y-20763906D01*
X39088660Y-20793500D01*
X39087632Y-20794329D01*
X39049414Y-20824837D01*
X39049406Y-20824844D01*
X39046664Y-20827033D01*
X39044171Y-20829526D01*
X39043017Y-20830558D01*
X39038701Y-20834246D01*
X39003660Y-20862824D01*
X38984933Y-20885461D01*
X38972898Y-20900009D01*
X38964908Y-20908789D01*
X38719994Y-21153703D01*
X38709850Y-21162805D01*
X38683536Y-21183961D01*
X38683527Y-21183969D01*
X38678732Y-21187825D01*
X38645008Y-21228016D01*
X38641825Y-21231664D01*
X38639801Y-21233896D01*
X38637619Y-21236078D01*
X38609016Y-21270900D01*
X38608249Y-21271823D01*
X38549644Y-21341665D01*
X38549638Y-21341674D01*
X38545679Y-21346392D01*
X38542993Y-21351279D01*
X38539452Y-21355589D01*
X38536538Y-21361023D01*
X38536537Y-21361025D01*
X38493424Y-21441432D01*
X38492885Y-21442425D01*
X38445959Y-21527782D01*
X38444272Y-21533099D01*
X38441637Y-21538014D01*
X38439836Y-21543904D01*
X38439835Y-21543907D01*
X38413204Y-21631015D01*
X38412820Y-21632249D01*
X38383370Y-21725087D01*
X38382748Y-21730631D01*
X38381118Y-21735963D01*
X38380496Y-21742088D01*
X38380495Y-21742092D01*
X38371289Y-21832729D01*
X38371153Y-21834003D01*
X38365300Y-21886181D01*
X38365300Y-21889705D01*
X38365214Y-21891245D01*
X38364766Y-21896941D01*
X38360199Y-21941898D01*
X38360779Y-21948029D01*
X38364741Y-21989947D01*
X38365300Y-22001805D01*
X38365300Y-24250207D01*
X38345298Y-24318328D01*
X38328395Y-24339302D01*
X35515302Y-27152395D01*
X35452990Y-27186421D01*
X35426207Y-27189300D01*
X26277206Y-27189300D01*
X26263598Y-27188563D01*
X26230031Y-27184916D01*
X26230028Y-27184916D01*
X26223907Y-27184251D01*
X26217768Y-27184788D01*
X26217762Y-27184788D01*
X26171640Y-27188823D01*
X26166808Y-27189153D01*
X26163803Y-27189300D01*
X26160715Y-27189300D01*
X26132032Y-27192112D01*
X26115885Y-27193695D01*
X26114574Y-27193816D01*
X26090513Y-27195921D01*
X26017700Y-27202292D01*
X26012345Y-27203848D01*
X26006794Y-27204392D01*
X25913607Y-27232527D01*
X25912416Y-27232879D01*
X25818925Y-27260041D01*
X25813972Y-27262608D01*
X25808634Y-27264220D01*
X25722637Y-27309945D01*
X25721564Y-27310508D01*
X25686261Y-27328808D01*
X25635153Y-27355300D01*
X25630795Y-27358779D01*
X25625869Y-27361398D01*
X25621090Y-27365296D01*
X25621088Y-27365297D01*
X25550506Y-27422862D01*
X25549480Y-27423690D01*
X25511224Y-27454229D01*
X25511208Y-27454243D01*
X25508465Y-27456433D01*
X25505970Y-27458928D01*
X25504843Y-27459936D01*
X25500502Y-27463645D01*
X25465460Y-27492224D01*
X25461533Y-27496971D01*
X25461531Y-27496973D01*
X25442268Y-27520259D01*
X25438413Y-27524919D01*
X25434694Y-27529414D01*
X25426704Y-27538194D01*
X23683195Y-29281702D01*
X23673053Y-29290803D01*
X23641932Y-29315825D01*
X23608208Y-29356016D01*
X23605025Y-29359664D01*
X23603001Y-29361896D01*
X23600819Y-29364078D01*
X23572216Y-29398900D01*
X23571449Y-29399823D01*
X23512844Y-29469665D01*
X23512838Y-29469674D01*
X23508879Y-29474392D01*
X23506193Y-29479279D01*
X23502652Y-29483589D01*
X23499738Y-29489023D01*
X23499737Y-29489025D01*
X23456624Y-29569432D01*
X23456085Y-29570425D01*
X23409159Y-29655782D01*
X23407472Y-29661099D01*
X23404837Y-29666014D01*
X23403036Y-29671904D01*
X23403035Y-29671907D01*
X23376404Y-29759015D01*
X23376027Y-29760227D01*
X23346570Y-29853087D01*
X23345948Y-29858631D01*
X23344318Y-29863963D01*
X23343696Y-29870088D01*
X23343695Y-29870092D01*
X23334489Y-29960729D01*
X23334353Y-29962003D01*
X23328500Y-30014181D01*
X23328500Y-30017705D01*
X23328414Y-30019245D01*
X23327965Y-30024951D01*
X23324201Y-30062006D01*
X23323399Y-30069898D01*
X23325427Y-30091348D01*
X23327941Y-30117947D01*
X23328500Y-30129805D01*
X23328500Y-32856358D01*
X23308498Y-32924479D01*
X23254842Y-32970972D01*
X23235111Y-32978065D01*
X23149474Y-33001011D01*
X23149469Y-33001013D01*
X23143102Y-33002719D01*
X23137229Y-33005712D01*
X23137225Y-33005713D01*
X23060550Y-33044781D01*
X22968822Y-33091519D01*
X22816813Y-33214613D01*
X22693719Y-33366622D01*
X22604919Y-33540902D01*
X22603211Y-33547275D01*
X22603211Y-33547276D01*
X22590250Y-33595649D01*
X22554294Y-33729836D01*
X22547900Y-33811080D01*
X22547900Y-36511607D01*
X22527898Y-36579728D01*
X22510995Y-36600702D01*
X21951702Y-37159995D01*
X21889390Y-37194021D01*
X21862607Y-37196900D01*
X20304940Y-37196900D01*
X20236819Y-37176898D01*
X20223119Y-37166718D01*
X20206787Y-37152770D01*
X20001381Y-37026897D01*
X19996811Y-37025004D01*
X19996807Y-37025002D01*
X19783386Y-36936601D01*
X19783384Y-36936600D01*
X19778813Y-36934707D01*
X19696228Y-36914880D01*
X19549376Y-36879623D01*
X19549370Y-36879622D01*
X19544563Y-36878468D01*
X19304400Y-36859567D01*
X19064237Y-36878468D01*
X19059430Y-36879622D01*
X19059424Y-36879623D01*
X18829987Y-36934707D01*
X18829545Y-36932865D01*
X18766650Y-36934657D01*
X18709597Y-36901894D01*
X18299605Y-36491902D01*
X18265579Y-36429590D01*
X18262700Y-36402807D01*
X18262699Y-35368350D01*
X18262699Y-35365829D01*
X18259628Y-35327429D01*
X18252600Y-35302424D01*
X18237236Y-35247768D01*
X18215058Y-35168866D01*
X18133953Y-35025513D01*
X18110387Y-34998115D01*
X17516379Y-34404108D01*
X17487059Y-34379130D01*
X17481725Y-34376136D01*
X17481721Y-34376134D01*
X17350046Y-34302242D01*
X17350042Y-34302240D01*
X17343423Y-34298526D01*
X17336106Y-34296497D01*
X17336104Y-34296496D01*
X17190649Y-34256157D01*
X17190647Y-34256157D01*
X17184706Y-34254509D01*
X17166674Y-34253153D01*
X17151036Y-34251977D01*
X17151022Y-34251976D01*
X17148675Y-34251800D01*
X16358615Y-34251800D01*
X15515729Y-34251801D01*
X15513215Y-34252002D01*
X15513216Y-34252002D01*
X15483430Y-34254384D01*
X15483429Y-34254384D01*
X15477329Y-34254872D01*
X15471440Y-34256527D01*
X15471436Y-34256528D01*
X15397668Y-34277264D01*
X15318766Y-34299442D01*
X15175413Y-34380547D01*
X15148015Y-34404113D01*
X14554008Y-34998121D01*
X14529030Y-35027441D01*
X14526036Y-35032775D01*
X14526034Y-35032779D01*
X14452142Y-35164454D01*
X14452140Y-35164458D01*
X14448426Y-35171077D01*
X14446397Y-35178394D01*
X14446396Y-35178396D01*
X14411849Y-35302966D01*
X14404409Y-35329794D01*
X14403947Y-35335944D01*
X14401877Y-35363464D01*
X14401876Y-35363478D01*
X14401700Y-35365825D01*
X14401701Y-36998771D01*
X14404772Y-37037171D01*
X14406427Y-37043060D01*
X14406428Y-37043064D01*
X14427164Y-37116832D01*
X14449342Y-37195734D01*
X14530447Y-37339087D01*
X14554013Y-37366485D01*
X15148021Y-37960492D01*
X15177341Y-37985470D01*
X15182675Y-37988464D01*
X15182679Y-37988466D01*
X15314354Y-38062358D01*
X15314358Y-38062360D01*
X15320977Y-38066074D01*
X15328294Y-38068103D01*
X15328296Y-38068104D01*
X15473751Y-38108443D01*
X15473753Y-38108443D01*
X15479694Y-38110091D01*
X15497726Y-38111447D01*
X15513364Y-38112623D01*
X15513378Y-38112624D01*
X15515725Y-38112800D01*
X15577206Y-38112800D01*
X16882906Y-38112799D01*
X16951027Y-38132801D01*
X16972001Y-38149704D01*
X17443234Y-38620937D01*
X17477260Y-38683249D01*
X17472195Y-38754064D01*
X17429648Y-38810900D01*
X17363128Y-38835711D01*
X17293754Y-38820620D01*
X17284289Y-38814899D01*
X17242775Y-38787247D01*
X17220312Y-38777974D01*
X17164379Y-38766898D01*
X17152159Y-38765700D01*
X16529115Y-38765700D01*
X16513876Y-38770175D01*
X16512671Y-38771565D01*
X16511000Y-38779248D01*
X16511000Y-40125585D01*
X16515475Y-40140824D01*
X16516865Y-40142029D01*
X16524548Y-40143700D01*
X17870885Y-40143700D01*
X17886124Y-40139225D01*
X17887329Y-40137835D01*
X17889000Y-40130152D01*
X17889000Y-39502605D01*
X17887775Y-39490260D01*
X17878851Y-39445736D01*
X17885076Y-39375013D01*
X17928548Y-39318882D01*
X17995466Y-39295165D01*
X18064583Y-39311391D01*
X18098203Y-39339143D01*
X18218826Y-39480374D01*
X18402013Y-39636830D01*
X18607419Y-39762703D01*
X18611989Y-39764596D01*
X18611993Y-39764598D01*
X18672222Y-39789545D01*
X18727503Y-39834093D01*
X18749924Y-39901456D01*
X18732366Y-39970248D01*
X18688428Y-40014238D01*
X18656494Y-40033237D01*
X18647181Y-40040004D01*
X18503046Y-40166406D01*
X18495119Y-40174760D01*
X18376433Y-40325313D01*
X18370169Y-40334959D01*
X18280905Y-40504621D01*
X18276496Y-40515264D01*
X18219646Y-40698350D01*
X18217256Y-40709594D01*
X18207880Y-40788812D01*
X18210322Y-40803231D01*
X18223064Y-40806800D01*
X20385262Y-40806800D01*
X20399807Y-40802529D01*
X20401870Y-40790395D01*
X20397068Y-40738138D01*
X20394971Y-40726824D01*
X20342931Y-40542306D01*
X20338809Y-40531567D01*
X20254015Y-40359622D01*
X20248005Y-40349814D01*
X20133292Y-40196195D01*
X20125602Y-40187655D01*
X19984814Y-40057511D01*
X19975694Y-40050513D01*
X19916299Y-40013038D01*
X19869361Y-39959771D01*
X19858672Y-39889584D01*
X19887627Y-39824759D01*
X19935318Y-39790067D01*
X19996803Y-39764600D01*
X19996811Y-39764596D01*
X20001381Y-39762703D01*
X20206787Y-39636830D01*
X20389974Y-39480374D01*
X20499557Y-39352068D01*
X20559005Y-39313261D01*
X20595366Y-39307900D01*
X22287594Y-39307900D01*
X22301202Y-39308637D01*
X22334769Y-39312284D01*
X22334772Y-39312284D01*
X22340893Y-39312949D01*
X22347032Y-39312412D01*
X22347038Y-39312412D01*
X22393160Y-39308377D01*
X22397992Y-39308047D01*
X22400997Y-39307900D01*
X22404085Y-39307900D01*
X22432768Y-39305088D01*
X22448915Y-39303505D01*
X22450226Y-39303384D01*
X22474287Y-39301279D01*
X22547100Y-39294908D01*
X22552455Y-39293352D01*
X22558006Y-39292808D01*
X22651193Y-39264673D01*
X22652396Y-39264317D01*
X22739958Y-39238878D01*
X22745875Y-39237159D01*
X22750828Y-39234592D01*
X22756166Y-39232980D01*
X22803080Y-39208035D01*
X22872614Y-39193716D01*
X22938855Y-39219263D01*
X22980768Y-39276568D01*
X22985047Y-39347435D01*
X22983154Y-39353733D01*
X22978269Y-39374277D01*
X22972769Y-39424908D01*
X22972400Y-39431722D01*
X22972400Y-40830085D01*
X22976875Y-40845324D01*
X22978265Y-40846529D01*
X22985948Y-40848200D01*
X23882285Y-40848200D01*
X23897524Y-40843725D01*
X23898729Y-40842335D01*
X23900400Y-40834652D01*
X23900400Y-40830085D01*
X24156400Y-40830085D01*
X24160875Y-40845324D01*
X24162265Y-40846529D01*
X24169948Y-40848200D01*
X25066284Y-40848200D01*
X25081523Y-40843725D01*
X25082728Y-40842335D01*
X25084399Y-40834652D01*
X25084399Y-39431725D01*
X25084029Y-39424904D01*
X25078531Y-39374284D01*
X25074904Y-39359027D01*
X25029950Y-39239112D01*
X25021418Y-39223526D01*
X24945257Y-39121906D01*
X24932694Y-39109343D01*
X24831074Y-39033182D01*
X24815488Y-39024650D01*
X24695568Y-38979694D01*
X24680323Y-38976069D01*
X24629692Y-38970569D01*
X24622878Y-38970200D01*
X24174515Y-38970200D01*
X24159276Y-38974675D01*
X24158071Y-38976065D01*
X24156400Y-38983748D01*
X24156400Y-40830085D01*
X23900400Y-40830085D01*
X23900400Y-38988316D01*
X23895925Y-38973077D01*
X23894535Y-38971872D01*
X23886852Y-38970201D01*
X23431092Y-38970201D01*
X23362971Y-38950199D01*
X23316478Y-38896543D01*
X23306374Y-38826269D01*
X23335868Y-38761689D01*
X23341997Y-38755106D01*
X24253498Y-37843605D01*
X24315810Y-37809579D01*
X24342593Y-37806700D01*
X24643520Y-37806700D01*
X24645968Y-37806507D01*
X24645977Y-37806507D01*
X24719008Y-37800759D01*
X24724764Y-37800306D01*
X24730337Y-37798813D01*
X24730341Y-37798812D01*
X24907324Y-37751389D01*
X24907325Y-37751389D01*
X24913698Y-37749681D01*
X25087978Y-37660881D01*
X25093108Y-37656727D01*
X25093114Y-37656723D01*
X25115297Y-37638760D01*
X25180825Y-37611436D01*
X25250723Y-37623877D01*
X25283684Y-37647587D01*
X25501395Y-37865298D01*
X25535421Y-37927610D01*
X25538300Y-37954393D01*
X25538300Y-42074194D01*
X25537563Y-42087802D01*
X25535208Y-42109483D01*
X25533251Y-42127493D01*
X25533788Y-42133632D01*
X25533788Y-42133638D01*
X25537823Y-42179760D01*
X25538153Y-42184592D01*
X25538300Y-42187597D01*
X25538300Y-42190685D01*
X25540573Y-42213869D01*
X25542695Y-42235515D01*
X25542816Y-42236826D01*
X25551292Y-42333700D01*
X25552848Y-42339055D01*
X25553392Y-42344606D01*
X25581242Y-42436848D01*
X25581508Y-42437730D01*
X25581879Y-42438984D01*
X25609041Y-42532475D01*
X25611608Y-42537428D01*
X25613220Y-42542766D01*
X25616112Y-42548205D01*
X25658865Y-42628612D01*
X25659479Y-42629780D01*
X25697588Y-42703300D01*
X25704300Y-42716248D01*
X25707780Y-42720608D01*
X25710398Y-42725531D01*
X25734275Y-42754807D01*
X25771900Y-42800940D01*
X25772729Y-42801968D01*
X25803237Y-42840186D01*
X25803244Y-42840194D01*
X25805433Y-42842936D01*
X25807926Y-42845429D01*
X25808958Y-42846583D01*
X25812646Y-42850899D01*
X25841224Y-42885940D01*
X25875935Y-42914655D01*
X25878409Y-42916702D01*
X25887189Y-42924692D01*
X26136642Y-43174145D01*
X26170668Y-43236457D01*
X26165603Y-43307272D01*
X26153217Y-43331868D01*
X26150476Y-43336089D01*
X26146319Y-43341222D01*
X26057519Y-43515502D01*
X26055811Y-43521875D01*
X26055811Y-43521876D01*
X26009492Y-43694742D01*
X26006894Y-43704436D01*
X26006441Y-43710192D01*
X26003196Y-43751429D01*
X26000500Y-43785680D01*
X26000500Y-45215920D01*
X26000693Y-45218368D01*
X26000693Y-45218377D01*
X26004479Y-45266476D01*
X26006894Y-45297164D01*
X26008387Y-45302737D01*
X26008388Y-45302741D01*
X26053678Y-45471762D01*
X26057519Y-45486098D01*
X26077772Y-45525846D01*
X26142216Y-45652325D01*
X26146319Y-45660378D01*
X26150472Y-45665507D01*
X26150475Y-45665511D01*
X26172420Y-45692610D01*
X26199746Y-45758137D01*
X26200500Y-45771904D01*
X26200500Y-46755854D01*
X26180498Y-46823975D01*
X26140336Y-46863286D01*
X25970813Y-46967170D01*
X25787626Y-47123626D01*
X25631170Y-47306813D01*
X25505297Y-47512219D01*
X25503404Y-47516789D01*
X25503402Y-47516793D01*
X25478728Y-47576362D01*
X25434180Y-47631643D01*
X25366816Y-47654064D01*
X25298025Y-47636506D01*
X25261361Y-47603533D01*
X25211719Y-47537054D01*
X25200461Y-47528605D01*
X25188042Y-47535377D01*
X24527031Y-48196388D01*
X24519417Y-48210332D01*
X24519548Y-48212165D01*
X24523799Y-48218780D01*
X25187991Y-48882972D01*
X25201299Y-48890239D01*
X25211338Y-48883117D01*
X25244895Y-48842769D01*
X25251410Y-48833291D01*
X25253066Y-48830333D01*
X25254216Y-48829207D01*
X25254683Y-48828528D01*
X25254816Y-48828620D01*
X25303803Y-48780672D01*
X25373335Y-48766325D01*
X25439585Y-48791846D01*
X25479409Y-48843682D01*
X25498694Y-48890239D01*
X25505297Y-48906181D01*
X25507883Y-48910401D01*
X25612615Y-49081308D01*
X25631153Y-49149842D01*
X25609697Y-49217518D01*
X25555057Y-49262851D01*
X25484583Y-49271448D01*
X25472571Y-49268850D01*
X25316341Y-49226988D01*
X25316337Y-49226987D01*
X25310764Y-49225494D01*
X25304208Y-49224978D01*
X25231977Y-49219293D01*
X25231968Y-49219293D01*
X25229520Y-49219100D01*
X25140375Y-49219100D01*
X25072254Y-49199098D01*
X25025761Y-49145442D01*
X25014401Y-49090552D01*
X25014686Y-49076454D01*
X25008135Y-49065154D01*
X24346012Y-48403031D01*
X24332068Y-48395417D01*
X24330235Y-48395548D01*
X24323620Y-48399799D01*
X23657087Y-49066332D01*
X23650891Y-49077678D01*
X23660773Y-49090168D01*
X23798398Y-49182126D01*
X23808508Y-49187616D01*
X23904437Y-49228830D01*
X23959130Y-49274098D01*
X23980667Y-49341749D01*
X23962210Y-49410305D01*
X23933994Y-49442518D01*
X23882940Y-49483861D01*
X23877813Y-49488013D01*
X23873662Y-49493139D01*
X23826710Y-49551120D01*
X23754719Y-49640022D01*
X23665919Y-49814302D01*
X23664211Y-49820675D01*
X23664211Y-49820676D01*
X23620599Y-49983439D01*
X23615294Y-50003236D01*
X23614841Y-50008992D01*
X23609366Y-50078561D01*
X23608900Y-50084480D01*
X23608900Y-51464720D01*
X23609093Y-51467168D01*
X23609093Y-51467177D01*
X23614778Y-51539408D01*
X23615294Y-51545964D01*
X23616787Y-51551537D01*
X23616788Y-51551541D01*
X23642603Y-51647882D01*
X23665919Y-51734898D01*
X23754719Y-51909178D01*
X23758871Y-51914305D01*
X23758874Y-51914310D01*
X23768320Y-51925974D01*
X23795646Y-51991502D01*
X23796400Y-52005269D01*
X23796400Y-52140530D01*
X23776398Y-52208651D01*
X23761494Y-52227581D01*
X23737492Y-52252698D01*
X23734578Y-52256970D01*
X23734577Y-52256971D01*
X23667792Y-52354875D01*
X23600301Y-52453813D01*
X23500726Y-52668328D01*
X23453904Y-52721693D01*
X23385660Y-52741274D01*
X23317665Y-52720850D01*
X23275189Y-52674430D01*
X23238717Y-52605837D01*
X23231923Y-52595612D01*
X23108828Y-52444681D01*
X23100184Y-52435977D01*
X22950115Y-52311829D01*
X22939944Y-52304969D01*
X22768615Y-52212332D01*
X22757310Y-52207580D01*
X22571251Y-52149985D01*
X22559241Y-52147519D01*
X22498015Y-52141084D01*
X22483364Y-52143764D01*
X22480000Y-52156083D01*
X22480000Y-54172223D01*
X22459998Y-54240344D01*
X22411987Y-54281946D01*
X22405471Y-54289465D01*
X22403800Y-54297148D01*
X22403800Y-54978300D01*
X22383798Y-55046421D01*
X22330142Y-55092914D01*
X22277800Y-55104300D01*
X22273800Y-55104300D01*
X22205679Y-55084298D01*
X22159186Y-55030642D01*
X22147800Y-54978300D01*
X22147800Y-54229177D01*
X22167802Y-54161056D01*
X22215813Y-54119454D01*
X22222329Y-54111935D01*
X22224000Y-54104252D01*
X22224000Y-52156954D01*
X22219724Y-52142392D01*
X22207621Y-52140330D01*
X22159306Y-52144726D01*
X22147260Y-52147024D01*
X21960410Y-52202017D01*
X21949042Y-52206610D01*
X21776435Y-52296847D01*
X21766174Y-52303561D01*
X21614380Y-52425607D01*
X21605619Y-52434186D01*
X21598021Y-52443241D01*
X21538911Y-52482567D01*
X21467923Y-52483693D01*
X21407596Y-52446261D01*
X21377082Y-52382156D01*
X21375500Y-52362249D01*
X21375500Y-50578192D01*
X21395502Y-50510071D01*
X21412405Y-50489097D01*
X21630401Y-50271101D01*
X21640545Y-50261999D01*
X21666864Y-50240839D01*
X21666873Y-50240830D01*
X21671668Y-50236975D01*
X21675627Y-50232257D01*
X21675633Y-50232251D01*
X21705406Y-50196769D01*
X21708587Y-50193122D01*
X21710602Y-50190900D01*
X21712781Y-50188721D01*
X21727144Y-50171236D01*
X21741280Y-50154026D01*
X21742122Y-50153011D01*
X21797553Y-50086950D01*
X21804721Y-50078408D01*
X21807408Y-50073521D01*
X21810948Y-50069211D01*
X21828040Y-50037336D01*
X21856939Y-49983439D01*
X21857568Y-49982280D01*
X21868692Y-49962046D01*
X21904441Y-49897018D01*
X21906126Y-49891705D01*
X21908764Y-49886786D01*
X21932723Y-49808423D01*
X21937229Y-49793683D01*
X21937621Y-49792424D01*
X21958840Y-49725532D01*
X21967030Y-49699713D01*
X21967651Y-49694172D01*
X21969283Y-49688836D01*
X21971461Y-49667399D01*
X21979114Y-49592047D01*
X21979254Y-49590733D01*
X21984708Y-49542117D01*
X21984708Y-49542110D01*
X21985100Y-49538619D01*
X21985100Y-49535096D01*
X21985186Y-49533556D01*
X21985635Y-49527850D01*
X21989579Y-49489028D01*
X21989579Y-49489025D01*
X21990201Y-49482902D01*
X21985659Y-49434852D01*
X21985100Y-49422995D01*
X21985100Y-48185890D01*
X23223221Y-48185890D01*
X23235759Y-48377190D01*
X23237560Y-48388560D01*
X23284750Y-48574372D01*
X23288591Y-48585218D01*
X23368855Y-48759324D01*
X23374606Y-48769285D01*
X23454209Y-48881922D01*
X23464799Y-48890310D01*
X23478099Y-48883282D01*
X24139369Y-48222012D01*
X24146983Y-48208068D01*
X24146852Y-48206235D01*
X24142601Y-48199620D01*
X23478640Y-47535659D01*
X23465800Y-47528647D01*
X23455109Y-47536444D01*
X23405231Y-47599716D01*
X23398968Y-47609360D01*
X23309705Y-47779021D01*
X23305296Y-47789664D01*
X23248449Y-47972742D01*
X23246055Y-47984004D01*
X23223522Y-48174388D01*
X23223221Y-48185890D01*
X21985100Y-48185890D01*
X21985100Y-47342121D01*
X23651072Y-47342121D01*
X23656907Y-47351888D01*
X24320388Y-48015369D01*
X24334332Y-48022983D01*
X24336165Y-48022852D01*
X24342780Y-48018601D01*
X25009041Y-47352340D01*
X25016655Y-47338396D01*
X25016618Y-47337879D01*
X25011559Y-47330335D01*
X25004484Y-47324907D01*
X24842347Y-47222606D01*
X24832103Y-47217386D01*
X24654035Y-47146344D01*
X24642997Y-47143074D01*
X24454971Y-47105674D01*
X24443525Y-47104471D01*
X24251835Y-47101962D01*
X24240355Y-47102865D01*
X24051417Y-47135330D01*
X24040297Y-47138310D01*
X23860431Y-47204666D01*
X23850053Y-47209616D01*
X23685295Y-47307637D01*
X23675980Y-47314404D01*
X23659467Y-47328886D01*
X23651072Y-47342121D01*
X21985100Y-47342121D01*
X21985100Y-45195275D01*
X23475001Y-45195275D01*
X23475371Y-45202096D01*
X23480869Y-45252716D01*
X23484496Y-45267973D01*
X23529450Y-45387888D01*
X23537982Y-45403474D01*
X23614143Y-45505094D01*
X23626706Y-45517657D01*
X23728326Y-45593818D01*
X23743912Y-45602350D01*
X23863832Y-45647306D01*
X23879077Y-45650931D01*
X23929708Y-45656431D01*
X23936522Y-45656800D01*
X24159885Y-45656800D01*
X24175124Y-45652325D01*
X24176329Y-45650935D01*
X24178000Y-45643252D01*
X24178000Y-45638684D01*
X24434000Y-45638684D01*
X24438475Y-45653923D01*
X24439865Y-45655128D01*
X24447548Y-45656799D01*
X24675475Y-45656799D01*
X24682296Y-45656429D01*
X24732916Y-45650931D01*
X24748173Y-45647304D01*
X24868088Y-45602350D01*
X24883674Y-45593818D01*
X24985294Y-45517657D01*
X24997857Y-45505094D01*
X25074018Y-45403474D01*
X25082550Y-45387888D01*
X25127506Y-45267968D01*
X25131131Y-45252723D01*
X25136631Y-45202092D01*
X25137000Y-45195278D01*
X25137000Y-44646915D01*
X25132525Y-44631676D01*
X25131135Y-44630471D01*
X25123452Y-44628800D01*
X24452115Y-44628800D01*
X24436876Y-44633275D01*
X24435671Y-44634665D01*
X24434000Y-44642348D01*
X24434000Y-45638684D01*
X24178000Y-45638684D01*
X24178000Y-44646915D01*
X24173525Y-44631676D01*
X24172135Y-44630471D01*
X24164452Y-44628800D01*
X23493116Y-44628800D01*
X23477877Y-44633275D01*
X23476672Y-44634665D01*
X23475001Y-44642348D01*
X23475001Y-45195275D01*
X21985100Y-45195275D01*
X21985100Y-44354685D01*
X23475000Y-44354685D01*
X23479475Y-44369924D01*
X23480865Y-44371129D01*
X23488548Y-44372800D01*
X24159885Y-44372800D01*
X24175124Y-44368325D01*
X24176329Y-44366935D01*
X24178000Y-44359252D01*
X24178000Y-44354685D01*
X24434000Y-44354685D01*
X24438475Y-44369924D01*
X24439865Y-44371129D01*
X24447548Y-44372800D01*
X25118884Y-44372800D01*
X25134123Y-44368325D01*
X25135328Y-44366935D01*
X25136999Y-44359252D01*
X25136999Y-43806325D01*
X25136629Y-43799504D01*
X25131131Y-43748884D01*
X25127504Y-43733627D01*
X25082550Y-43613712D01*
X25074018Y-43598126D01*
X24997857Y-43496506D01*
X24985294Y-43483943D01*
X24883674Y-43407782D01*
X24868088Y-43399250D01*
X24748168Y-43354294D01*
X24732923Y-43350669D01*
X24682292Y-43345169D01*
X24675478Y-43344800D01*
X24452115Y-43344800D01*
X24436876Y-43349275D01*
X24435671Y-43350665D01*
X24434000Y-43358348D01*
X24434000Y-44354685D01*
X24178000Y-44354685D01*
X24178000Y-43362916D01*
X24173525Y-43347677D01*
X24172135Y-43346472D01*
X24164452Y-43344801D01*
X23936525Y-43344801D01*
X23929704Y-43345171D01*
X23879084Y-43350669D01*
X23863827Y-43354296D01*
X23743912Y-43399250D01*
X23728326Y-43407782D01*
X23626706Y-43483943D01*
X23614143Y-43496506D01*
X23537982Y-43598126D01*
X23529450Y-43613712D01*
X23484494Y-43733632D01*
X23480869Y-43748877D01*
X23475369Y-43799508D01*
X23475000Y-43806322D01*
X23475000Y-44354685D01*
X21985100Y-44354685D01*
X21985100Y-44082608D01*
X21985837Y-44069000D01*
X21989484Y-44035432D01*
X21989484Y-44035428D01*
X21990149Y-44029307D01*
X21989612Y-44023168D01*
X21989612Y-44023162D01*
X21985577Y-43977040D01*
X21985247Y-43972208D01*
X21985100Y-43969203D01*
X21985100Y-43966115D01*
X21980705Y-43921285D01*
X21980584Y-43919974D01*
X21977122Y-43880403D01*
X21972108Y-43823100D01*
X21970552Y-43817745D01*
X21970008Y-43812194D01*
X21941869Y-43718994D01*
X21941513Y-43717791D01*
X21916079Y-43630245D01*
X21916078Y-43630242D01*
X21914359Y-43624326D01*
X21911792Y-43619375D01*
X21910180Y-43614034D01*
X21864486Y-43528096D01*
X21863879Y-43526941D01*
X21846713Y-43493825D01*
X21819100Y-43440553D01*
X21815621Y-43436195D01*
X21813002Y-43431269D01*
X21754211Y-43359183D01*
X21751538Y-43355906D01*
X21750710Y-43354880D01*
X21720171Y-43316624D01*
X21720157Y-43316608D01*
X21717967Y-43313865D01*
X21715472Y-43311370D01*
X21714464Y-43310243D01*
X21710755Y-43305902D01*
X21682176Y-43270860D01*
X21655537Y-43248822D01*
X21644991Y-43240098D01*
X21636210Y-43232108D01*
X21178093Y-42773990D01*
X21168992Y-42763847D01*
X21143975Y-42732732D01*
X21103782Y-42699006D01*
X21100136Y-42695825D01*
X21097904Y-42693801D01*
X21095722Y-42691619D01*
X21060900Y-42663016D01*
X21059977Y-42662249D01*
X20990135Y-42603644D01*
X20990126Y-42603638D01*
X20985408Y-42599679D01*
X20980521Y-42596993D01*
X20976211Y-42593452D01*
X20970777Y-42590538D01*
X20970775Y-42590537D01*
X20902705Y-42554039D01*
X20890361Y-42547420D01*
X20889375Y-42546885D01*
X20841700Y-42520675D01*
X22972401Y-42520675D01*
X22972771Y-42527496D01*
X22978269Y-42578116D01*
X22981896Y-42593373D01*
X23026850Y-42713288D01*
X23035382Y-42728874D01*
X23111543Y-42830494D01*
X23124106Y-42843057D01*
X23225726Y-42919218D01*
X23241312Y-42927750D01*
X23361232Y-42972706D01*
X23376477Y-42976331D01*
X23427108Y-42981831D01*
X23433922Y-42982200D01*
X23882285Y-42982200D01*
X23897524Y-42977725D01*
X23898729Y-42976335D01*
X23900400Y-42968652D01*
X23900400Y-42964084D01*
X24156400Y-42964084D01*
X24160875Y-42979323D01*
X24162265Y-42980528D01*
X24169948Y-42982199D01*
X24622875Y-42982199D01*
X24629696Y-42981829D01*
X24680316Y-42976331D01*
X24695573Y-42972704D01*
X24815488Y-42927750D01*
X24831074Y-42919218D01*
X24932694Y-42843057D01*
X24945257Y-42830494D01*
X25021418Y-42728874D01*
X25029950Y-42713288D01*
X25074906Y-42593368D01*
X25078531Y-42578123D01*
X25084031Y-42527492D01*
X25084400Y-42520678D01*
X25084400Y-41122315D01*
X25079925Y-41107076D01*
X25078535Y-41105871D01*
X25070852Y-41104200D01*
X24174515Y-41104200D01*
X24159276Y-41108675D01*
X24158071Y-41110065D01*
X24156400Y-41117748D01*
X24156400Y-42964084D01*
X23900400Y-42964084D01*
X23900400Y-41122315D01*
X23895925Y-41107076D01*
X23894535Y-41105871D01*
X23886852Y-41104200D01*
X22990516Y-41104200D01*
X22975277Y-41108675D01*
X22974072Y-41110065D01*
X22972401Y-41117748D01*
X22972401Y-42520675D01*
X20841700Y-42520675D01*
X20804018Y-42499959D01*
X20798701Y-42498272D01*
X20793786Y-42495637D01*
X20787896Y-42493836D01*
X20787893Y-42493835D01*
X20726979Y-42475212D01*
X20700755Y-42467195D01*
X20699551Y-42466820D01*
X20606713Y-42437370D01*
X20601169Y-42436748D01*
X20595837Y-42435118D01*
X20589712Y-42434496D01*
X20589708Y-42434495D01*
X20517935Y-42427205D01*
X20499051Y-42425287D01*
X20497756Y-42425148D01*
X20460045Y-42420917D01*
X20394579Y-42393445D01*
X20390214Y-42389506D01*
X20389974Y-42389226D01*
X20206787Y-42232770D01*
X20001381Y-42106897D01*
X19996811Y-42105004D01*
X19996807Y-42105002D01*
X19938882Y-42081009D01*
X19883601Y-42036461D01*
X19861180Y-41969097D01*
X19878738Y-41900306D01*
X19923787Y-41856369D01*
X19923728Y-41856283D01*
X19924226Y-41855941D01*
X19925533Y-41854666D01*
X19928491Y-41853010D01*
X19937969Y-41846495D01*
X20085372Y-41723901D01*
X20093501Y-41715772D01*
X20216095Y-41568369D01*
X20222610Y-41558891D01*
X20316287Y-41391619D01*
X20320968Y-41381106D01*
X20382592Y-41199566D01*
X20385277Y-41188383D01*
X20400885Y-41080729D01*
X20398899Y-41066793D01*
X20385331Y-41062800D01*
X18222453Y-41062800D01*
X18207413Y-41067216D01*
X18205361Y-41078402D01*
X18206959Y-41102789D01*
X18208760Y-41114161D01*
X18255950Y-41299972D01*
X18259791Y-41310818D01*
X18340055Y-41484924D01*
X18345806Y-41494885D01*
X18456456Y-41651452D01*
X18463922Y-41660194D01*
X18601256Y-41793979D01*
X18610189Y-41801213D01*
X18695543Y-41858244D01*
X18741071Y-41912721D01*
X18749919Y-41983164D01*
X18719278Y-42047208D01*
X18673759Y-42079418D01*
X18611993Y-42105002D01*
X18611989Y-42105004D01*
X18607419Y-42106897D01*
X18402013Y-42232770D01*
X18398253Y-42235982D01*
X18398248Y-42235985D01*
X18317905Y-42304605D01*
X18229656Y-42379977D01*
X18218961Y-42389111D01*
X18154172Y-42418142D01*
X18137131Y-42419300D01*
X17385315Y-42419300D01*
X17351642Y-42414717D01*
X17241449Y-42384157D01*
X17241447Y-42384157D01*
X17235506Y-42382509D01*
X17217474Y-42381153D01*
X17201836Y-42379977D01*
X17201822Y-42379976D01*
X17199475Y-42379800D01*
X16409415Y-42379800D01*
X15566529Y-42379801D01*
X15564015Y-42380002D01*
X15564016Y-42380002D01*
X15534230Y-42382384D01*
X15534229Y-42382384D01*
X15528129Y-42382872D01*
X15522240Y-42384527D01*
X15522236Y-42384528D01*
X15448468Y-42405264D01*
X15369566Y-42427442D01*
X15226213Y-42508547D01*
X15198815Y-42532113D01*
X14604808Y-43126121D01*
X14579830Y-43155441D01*
X14576836Y-43160775D01*
X14576834Y-43160779D01*
X14502942Y-43292454D01*
X14502940Y-43292458D01*
X14499226Y-43299077D01*
X14497197Y-43306394D01*
X14497196Y-43306396D01*
X14456857Y-43451851D01*
X14455209Y-43457794D01*
X14454747Y-43463944D01*
X14452677Y-43491464D01*
X14452676Y-43491478D01*
X14452500Y-43493825D01*
X14452501Y-45126771D01*
X14455572Y-45165171D01*
X14457227Y-45171060D01*
X14457228Y-45171064D01*
X14470664Y-45218864D01*
X14500142Y-45323734D01*
X14581247Y-45467087D01*
X14604813Y-45494485D01*
X15198821Y-46088492D01*
X15228141Y-46113470D01*
X15233475Y-46116464D01*
X15233479Y-46116466D01*
X15365154Y-46190358D01*
X15365158Y-46190360D01*
X15371777Y-46194074D01*
X15379094Y-46196103D01*
X15379096Y-46196104D01*
X15490776Y-46227076D01*
X15551073Y-46264555D01*
X15581536Y-46328684D01*
X15572492Y-46399102D01*
X15526813Y-46453452D01*
X15480556Y-46472014D01*
X15477329Y-46472272D01*
X15318766Y-46516842D01*
X15175413Y-46597947D01*
X15148015Y-46621513D01*
X14554008Y-47215521D01*
X14529030Y-47244841D01*
X14526036Y-47250175D01*
X14526034Y-47250179D01*
X14452142Y-47381854D01*
X14452140Y-47381858D01*
X14448426Y-47388477D01*
X14446397Y-47395794D01*
X14446396Y-47395796D01*
X14407760Y-47535111D01*
X14404409Y-47547194D01*
X14403947Y-47553344D01*
X14401877Y-47580864D01*
X14401876Y-47580878D01*
X14401700Y-47583225D01*
X13667017Y-47583225D01*
X13660280Y-41040795D01*
X14877000Y-41040795D01*
X14878225Y-41053137D01*
X14889594Y-41109859D01*
X14898922Y-41132304D01*
X14930644Y-41179690D01*
X14938428Y-41189166D01*
X15465485Y-41716222D01*
X15475075Y-41724081D01*
X15523225Y-41756153D01*
X15545688Y-41765426D01*
X15601621Y-41776502D01*
X15613841Y-41777700D01*
X16236885Y-41777700D01*
X16252124Y-41773225D01*
X16253329Y-41771835D01*
X16255000Y-41764152D01*
X16255000Y-41759585D01*
X16511000Y-41759585D01*
X16515475Y-41774824D01*
X16516865Y-41776029D01*
X16524548Y-41777700D01*
X17152095Y-41777700D01*
X17164437Y-41776475D01*
X17221159Y-41765106D01*
X17243604Y-41755778D01*
X17290990Y-41724056D01*
X17300466Y-41716272D01*
X17827522Y-41189215D01*
X17835381Y-41179625D01*
X17867453Y-41131475D01*
X17876726Y-41109012D01*
X17887802Y-41053079D01*
X17889000Y-41040859D01*
X17889000Y-40417815D01*
X17884525Y-40402576D01*
X17883135Y-40401371D01*
X17875452Y-40399700D01*
X16529115Y-40399700D01*
X16513876Y-40404175D01*
X16512671Y-40405565D01*
X16511000Y-40413248D01*
X16511000Y-41759585D01*
X16255000Y-41759585D01*
X16255000Y-40417815D01*
X16250525Y-40402576D01*
X16249135Y-40401371D01*
X16241452Y-40399700D01*
X14895115Y-40399700D01*
X14879876Y-40404175D01*
X14878671Y-40405565D01*
X14877000Y-40413248D01*
X14877000Y-41040795D01*
X13660280Y-41040795D01*
X13659338Y-40125585D01*
X14877000Y-40125585D01*
X14881475Y-40140824D01*
X14882865Y-40142029D01*
X14890548Y-40143700D01*
X16236885Y-40143700D01*
X16252124Y-40139225D01*
X16253329Y-40137835D01*
X16255000Y-40130152D01*
X16255000Y-38783815D01*
X16250525Y-38768576D01*
X16249135Y-38767371D01*
X16241452Y-38765700D01*
X15613905Y-38765700D01*
X15601563Y-38766925D01*
X15544841Y-38778294D01*
X15522396Y-38787622D01*
X15475010Y-38819344D01*
X15465534Y-38827128D01*
X14938478Y-39354185D01*
X14930619Y-39363775D01*
X14898547Y-39411925D01*
X14889274Y-39434388D01*
X14878198Y-39490321D01*
X14877000Y-39502541D01*
X14877000Y-40125585D01*
X13659338Y-40125585D01*
X13636817Y-18252270D01*
X13656749Y-18184130D01*
X13710357Y-18137582D01*
X13780620Y-18127406D01*
X13848425Y-18159691D01*
X13870568Y-18180195D01*
X13876010Y-18184697D01*
X14145372Y-18383289D01*
X14151262Y-18387143D01*
X14441099Y-18554480D01*
X14447368Y-18557647D01*
X14754064Y-18691640D01*
X14760647Y-18694088D01*
X15080362Y-18793056D01*
X15087177Y-18794755D01*
X15415937Y-18857469D01*
X15422886Y-18858396D01*
X15756602Y-18884075D01*
X15763609Y-18884221D01*
X16098095Y-18872541D01*
X16105091Y-18871904D01*
X16436170Y-18823015D01*
X16443069Y-18821599D01*
X16766653Y-18736104D01*
X16773313Y-18733940D01*
X17085356Y-18612906D01*
X17091755Y-18610003D01*
X17388345Y-18454949D01*
X17394390Y-18451346D01*
X17671851Y-18264197D01*
X17677444Y-18259952D01*
X17880545Y-18087100D01*
X17888977Y-18074232D01*
X17882948Y-18063967D01*
X17562557Y-17743576D01*
X17528531Y-17681264D01*
X17533596Y-17610449D01*
X17562287Y-17565807D01*
X17564162Y-17564162D01*
X17565738Y-17562365D01*
X17627698Y-17528531D01*
X17698513Y-17533596D01*
X17743576Y-17562557D01*
X18061068Y-17880049D01*
X18075012Y-17887663D01*
X18075792Y-17887608D01*
X18083839Y-17882256D01*
X18166509Y-17794222D01*
X18171031Y-17788833D01*
X18371509Y-17520848D01*
X18375399Y-17514994D01*
X18544756Y-17226330D01*
X18547971Y-17220076D01*
X18684096Y-16914334D01*
X18686593Y-16907759D01*
X18787788Y-16588754D01*
X18789540Y-16581931D01*
X18854543Y-16253635D01*
X18855521Y-16246679D01*
X18883639Y-15911845D01*
X18883852Y-15907479D01*
X18884985Y-15826378D01*
X18884894Y-15822028D01*
X18879118Y-15718725D01*
X37103700Y-15718725D01*
X37103701Y-16691671D01*
X37106772Y-16730071D01*
X37108427Y-16735960D01*
X37108428Y-16735964D01*
X37113560Y-16754221D01*
X37151342Y-16888634D01*
X37232447Y-17031987D01*
X37256013Y-17059385D01*
X37630021Y-17433392D01*
X37659341Y-17458370D01*
X37664675Y-17461364D01*
X37664679Y-17461366D01*
X37796354Y-17535258D01*
X37796358Y-17535260D01*
X37802977Y-17538974D01*
X37810294Y-17541003D01*
X37810296Y-17541004D01*
X37955751Y-17581343D01*
X37955753Y-17581343D01*
X37961694Y-17582991D01*
X37979726Y-17584347D01*
X37995364Y-17585523D01*
X37995378Y-17585524D01*
X37997725Y-17585700D01*
X38661990Y-17585700D01*
X39370671Y-17585699D01*
X39380448Y-17584917D01*
X39402970Y-17583116D01*
X39402971Y-17583116D01*
X39409071Y-17582628D01*
X39414960Y-17580973D01*
X39414964Y-17580972D01*
X39488732Y-17560236D01*
X39567634Y-17538058D01*
X39710987Y-17456953D01*
X39738385Y-17433387D01*
X40112392Y-17059379D01*
X40137370Y-17030059D01*
X40140366Y-17024721D01*
X40214258Y-16893046D01*
X40214260Y-16893042D01*
X40217974Y-16886423D01*
X40240773Y-16804216D01*
X40260343Y-16733649D01*
X40260343Y-16733647D01*
X40261991Y-16727706D01*
X40263347Y-16709674D01*
X40264523Y-16694036D01*
X40264524Y-16694022D01*
X40264700Y-16691675D01*
X40264699Y-15769525D01*
X41116900Y-15769525D01*
X41116901Y-16742471D01*
X41119972Y-16780871D01*
X41121627Y-16786760D01*
X41121628Y-16786764D01*
X41142364Y-16860532D01*
X41164542Y-16939434D01*
X41245647Y-17082787D01*
X41269213Y-17110185D01*
X41643221Y-17484192D01*
X41672541Y-17509170D01*
X41677875Y-17512164D01*
X41677879Y-17512166D01*
X41809554Y-17586058D01*
X41809558Y-17586060D01*
X41816177Y-17589774D01*
X41823494Y-17591803D01*
X41823496Y-17591804D01*
X41968951Y-17632143D01*
X41968953Y-17632143D01*
X41974894Y-17633791D01*
X41992926Y-17635147D01*
X42008564Y-17636323D01*
X42008578Y-17636324D01*
X42010925Y-17636500D01*
X42675190Y-17636500D01*
X43383871Y-17636499D01*
X43393648Y-17635717D01*
X43416170Y-17633916D01*
X43416171Y-17633916D01*
X43422271Y-17633428D01*
X43428160Y-17631773D01*
X43428164Y-17631772D01*
X43504021Y-17610449D01*
X43580834Y-17588858D01*
X43724187Y-17507753D01*
X43751585Y-17484187D01*
X44125592Y-17110179D01*
X44150570Y-17080859D01*
X44162624Y-17059379D01*
X44227458Y-16943846D01*
X44227460Y-16943842D01*
X44231174Y-16937223D01*
X44245263Y-16886423D01*
X44273543Y-16784449D01*
X44273543Y-16784447D01*
X44275191Y-16778506D01*
X44277017Y-16754221D01*
X44277723Y-16744836D01*
X44277724Y-16744822D01*
X44277900Y-16742475D01*
X44277899Y-15769529D01*
X44274828Y-15731129D01*
X44272052Y-15721250D01*
X44271342Y-15718725D01*
X45206300Y-15718725D01*
X45206301Y-16691671D01*
X45209372Y-16730071D01*
X45211027Y-16735960D01*
X45211028Y-16735964D01*
X45216160Y-16754221D01*
X45253942Y-16888634D01*
X45335047Y-17031987D01*
X45358613Y-17059385D01*
X45732621Y-17433392D01*
X45761941Y-17458370D01*
X45767275Y-17461364D01*
X45767279Y-17461366D01*
X45898954Y-17535258D01*
X45898958Y-17535260D01*
X45905577Y-17538974D01*
X45912894Y-17541003D01*
X45912896Y-17541004D01*
X46058351Y-17581343D01*
X46058353Y-17581343D01*
X46064294Y-17582991D01*
X46082326Y-17584347D01*
X46097964Y-17585523D01*
X46097978Y-17585524D01*
X46100325Y-17585700D01*
X46764590Y-17585700D01*
X47473271Y-17585699D01*
X47483048Y-17584917D01*
X47505570Y-17583116D01*
X47505571Y-17583116D01*
X47511671Y-17582628D01*
X47517560Y-17580973D01*
X47517564Y-17580972D01*
X47591332Y-17560236D01*
X47670234Y-17538058D01*
X47813587Y-17456953D01*
X47840985Y-17433387D01*
X48214992Y-17059379D01*
X48239970Y-17030059D01*
X48242966Y-17024721D01*
X48316858Y-16893046D01*
X48316860Y-16893042D01*
X48320574Y-16886423D01*
X48343373Y-16804216D01*
X48362943Y-16733649D01*
X48362943Y-16733647D01*
X48364591Y-16727706D01*
X48365947Y-16709674D01*
X48367123Y-16694036D01*
X48367124Y-16694022D01*
X48367300Y-16691675D01*
X48367299Y-15718729D01*
X48364228Y-15680329D01*
X48359281Y-15662727D01*
X48332078Y-15565952D01*
X48319658Y-15521766D01*
X48238553Y-15378413D01*
X48214987Y-15351015D01*
X47840979Y-14977008D01*
X47811659Y-14952030D01*
X47806325Y-14949036D01*
X47806321Y-14949034D01*
X47674646Y-14875142D01*
X47674642Y-14875140D01*
X47668023Y-14871426D01*
X47660706Y-14869397D01*
X47660704Y-14869396D01*
X47515249Y-14829057D01*
X47515247Y-14829057D01*
X47509306Y-14827409D01*
X47491274Y-14826053D01*
X47475636Y-14824877D01*
X47475622Y-14824876D01*
X47473275Y-14824700D01*
X46809010Y-14824700D01*
X46100329Y-14824701D01*
X46097815Y-14824902D01*
X46097816Y-14824902D01*
X46068030Y-14827284D01*
X46068029Y-14827284D01*
X46061929Y-14827772D01*
X46056040Y-14829427D01*
X46056036Y-14829428D01*
X45996508Y-14846161D01*
X45903366Y-14872342D01*
X45760013Y-14953447D01*
X45732615Y-14977013D01*
X45358608Y-15351021D01*
X45333630Y-15380341D01*
X45330636Y-15385675D01*
X45330634Y-15385679D01*
X45256742Y-15517354D01*
X45256740Y-15517358D01*
X45253026Y-15523977D01*
X45250997Y-15531294D01*
X45250996Y-15531296D01*
X45221930Y-15636102D01*
X45209009Y-15682694D01*
X45208547Y-15688844D01*
X45206477Y-15716364D01*
X45206476Y-15716378D01*
X45206300Y-15718725D01*
X44271342Y-15718725D01*
X44248117Y-15636102D01*
X44230258Y-15572566D01*
X44149153Y-15429213D01*
X44125587Y-15401815D01*
X43751579Y-15027808D01*
X43722259Y-15002830D01*
X43716925Y-14999836D01*
X43716921Y-14999834D01*
X43585246Y-14925942D01*
X43585242Y-14925940D01*
X43578623Y-14922226D01*
X43571306Y-14920197D01*
X43571304Y-14920196D01*
X43425849Y-14879857D01*
X43425847Y-14879857D01*
X43419906Y-14878209D01*
X43401874Y-14876853D01*
X43386236Y-14875677D01*
X43386222Y-14875676D01*
X43383875Y-14875500D01*
X42719610Y-14875500D01*
X42010929Y-14875501D01*
X42008415Y-14875702D01*
X42008416Y-14875702D01*
X41978630Y-14878084D01*
X41978629Y-14878084D01*
X41972529Y-14878572D01*
X41966640Y-14880227D01*
X41966636Y-14880228D01*
X41892868Y-14900964D01*
X41813966Y-14923142D01*
X41670613Y-15004247D01*
X41643215Y-15027813D01*
X41269208Y-15401821D01*
X41244230Y-15431141D01*
X41241236Y-15436475D01*
X41241234Y-15436479D01*
X41167342Y-15568154D01*
X41167340Y-15568158D01*
X41163626Y-15574777D01*
X41161597Y-15582094D01*
X41161596Y-15582096D01*
X41121899Y-15725236D01*
X41119609Y-15733494D01*
X41119147Y-15739644D01*
X41117077Y-15767164D01*
X41117076Y-15767178D01*
X41116900Y-15769525D01*
X40264699Y-15769525D01*
X40264699Y-15718729D01*
X40261628Y-15680329D01*
X40256681Y-15662727D01*
X40229478Y-15565952D01*
X40217058Y-15521766D01*
X40135953Y-15378413D01*
X40112387Y-15351015D01*
X39738379Y-14977008D01*
X39709059Y-14952030D01*
X39703725Y-14949036D01*
X39703721Y-14949034D01*
X39572046Y-14875142D01*
X39572042Y-14875140D01*
X39565423Y-14871426D01*
X39558106Y-14869397D01*
X39558104Y-14869396D01*
X39412649Y-14829057D01*
X39412647Y-14829057D01*
X39406706Y-14827409D01*
X39388674Y-14826053D01*
X39373036Y-14824877D01*
X39373022Y-14824876D01*
X39370675Y-14824700D01*
X38706410Y-14824700D01*
X37997729Y-14824701D01*
X37995215Y-14824902D01*
X37995216Y-14824902D01*
X37965430Y-14827284D01*
X37965429Y-14827284D01*
X37959329Y-14827772D01*
X37953440Y-14829427D01*
X37953436Y-14829428D01*
X37893908Y-14846161D01*
X37800766Y-14872342D01*
X37657413Y-14953447D01*
X37630015Y-14977013D01*
X37256008Y-15351021D01*
X37231030Y-15380341D01*
X37228036Y-15385675D01*
X37228034Y-15385679D01*
X37154142Y-15517354D01*
X37154140Y-15517358D01*
X37150426Y-15523977D01*
X37148397Y-15531294D01*
X37148396Y-15531296D01*
X37119330Y-15636102D01*
X37106409Y-15682694D01*
X37105947Y-15688844D01*
X37103877Y-15716364D01*
X37103876Y-15716378D01*
X37103700Y-15718725D01*
X18879118Y-15718725D01*
X18866136Y-15486527D01*
X18865352Y-15479537D01*
X18809540Y-15149557D01*
X18807982Y-15142698D01*
X18715728Y-14820971D01*
X18713425Y-14814358D01*
X18585884Y-14504919D01*
X18582844Y-14498574D01*
X18421614Y-14205300D01*
X18417889Y-14199339D01*
X18224969Y-13925857D01*
X18220603Y-13920348D01*
X18152956Y-13844155D01*
X18122686Y-13779934D01*
X18131941Y-13709544D01*
X18177784Y-13655331D01*
X18247178Y-13634500D01*
X39598440Y-13634500D01*
X62590538Y-13634501D01*
G37*
G04 #@! TD.AperFunction*
G04 #@! TA.AperFunction,Conductor*
G36*
X41368411Y-44491431D02*
G01*
X41390399Y-44508978D01*
X42349999Y-45468578D01*
X42411968Y-45521505D01*
X42416970Y-45524393D01*
X42416973Y-45524395D01*
X42575639Y-45616000D01*
X42581362Y-45619304D01*
X42641007Y-45638684D01*
X42761109Y-45677708D01*
X42761111Y-45677708D01*
X42767388Y-45679748D01*
X42773951Y-45680438D01*
X42773952Y-45680438D01*
X42955350Y-45699504D01*
X42961915Y-45700194D01*
X42968480Y-45699504D01*
X43149878Y-45680438D01*
X43149879Y-45680438D01*
X43156442Y-45679748D01*
X43162719Y-45677708D01*
X43162721Y-45677708D01*
X43282823Y-45638684D01*
X43342468Y-45619304D01*
X43348191Y-45616000D01*
X43506857Y-45524395D01*
X43506860Y-45524393D01*
X43511862Y-45521505D01*
X43573831Y-45468578D01*
X43789519Y-45252890D01*
X43851831Y-45218864D01*
X43922646Y-45223929D01*
X43979482Y-45266476D01*
X43986047Y-45276151D01*
X44054520Y-45387888D01*
X44066395Y-45407267D01*
X44069607Y-45411027D01*
X44069610Y-45411032D01*
X44167671Y-45525846D01*
X44227962Y-45596438D01*
X44287519Y-45647304D01*
X44290194Y-45649589D01*
X44329004Y-45709039D01*
X44329511Y-45780034D01*
X44290194Y-45841211D01*
X44227962Y-45894362D01*
X44224749Y-45898124D01*
X44069610Y-46079768D01*
X44069607Y-46079773D01*
X44066395Y-46083533D01*
X43936410Y-46295649D01*
X43934517Y-46300219D01*
X43934515Y-46300223D01*
X43843238Y-46520584D01*
X43841207Y-46525488D01*
X43840052Y-46530300D01*
X43785902Y-46755854D01*
X43783132Y-46767391D01*
X43763613Y-47015400D01*
X43783132Y-47263409D01*
X43784286Y-47268216D01*
X43784287Y-47268222D01*
X43804482Y-47352340D01*
X43841207Y-47505312D01*
X43843100Y-47509883D01*
X43843101Y-47509885D01*
X43933291Y-47727620D01*
X43936410Y-47735151D01*
X44066395Y-47947267D01*
X44069607Y-47951027D01*
X44069610Y-47951032D01*
X44131062Y-48022983D01*
X44227962Y-48136438D01*
X44231724Y-48139651D01*
X44290194Y-48189589D01*
X44329004Y-48249039D01*
X44329511Y-48320034D01*
X44290194Y-48381211D01*
X44227962Y-48434362D01*
X44224749Y-48438124D01*
X44069610Y-48619768D01*
X44069607Y-48619773D01*
X44066395Y-48623533D01*
X43936410Y-48835649D01*
X43934517Y-48840219D01*
X43934515Y-48840223D01*
X43871501Y-48992352D01*
X43841207Y-49065488D01*
X43837409Y-49081308D01*
X43785203Y-49298766D01*
X43783132Y-49307391D01*
X43763613Y-49555400D01*
X43783132Y-49803409D01*
X43784286Y-49808216D01*
X43784287Y-49808222D01*
X43804468Y-49892282D01*
X43841207Y-50045312D01*
X43843100Y-50049883D01*
X43843101Y-50049885D01*
X43904826Y-50198900D01*
X43936410Y-50275151D01*
X44066395Y-50487267D01*
X44069607Y-50491027D01*
X44069610Y-50491032D01*
X44186068Y-50627386D01*
X44227962Y-50676438D01*
X44231724Y-50679651D01*
X44290194Y-50729589D01*
X44329004Y-50789039D01*
X44329511Y-50860034D01*
X44290194Y-50921211D01*
X44227962Y-50974362D01*
X44224749Y-50978124D01*
X44069610Y-51159768D01*
X44069607Y-51159773D01*
X44066395Y-51163533D01*
X43936410Y-51375649D01*
X43934517Y-51380219D01*
X43934515Y-51380223D01*
X43861869Y-51555606D01*
X43841207Y-51605488D01*
X43832786Y-51640566D01*
X43785500Y-51837529D01*
X43783132Y-51847391D01*
X43763613Y-52095400D01*
X43783132Y-52343409D01*
X43784286Y-52348216D01*
X43784287Y-52348222D01*
X43804925Y-52434186D01*
X43841207Y-52585312D01*
X43843100Y-52589883D01*
X43843101Y-52589885D01*
X43931706Y-52803794D01*
X43936410Y-52815151D01*
X44066395Y-53027267D01*
X44069607Y-53031027D01*
X44069610Y-53031032D01*
X44195286Y-53178179D01*
X44227962Y-53216438D01*
X44231724Y-53219651D01*
X44290194Y-53269589D01*
X44329004Y-53329039D01*
X44329511Y-53400034D01*
X44290194Y-53461211D01*
X44227962Y-53514362D01*
X44224749Y-53518124D01*
X44069610Y-53699768D01*
X44069607Y-53699773D01*
X44066395Y-53703533D01*
X43936410Y-53915649D01*
X43934517Y-53920219D01*
X43934515Y-53920223D01*
X43843101Y-54140915D01*
X43841207Y-54145488D01*
X43823131Y-54220782D01*
X43787156Y-54370630D01*
X43783132Y-54387391D01*
X43763613Y-54635400D01*
X43783132Y-54883409D01*
X43841207Y-55125312D01*
X43843100Y-55129883D01*
X43843101Y-55129885D01*
X43916507Y-55307100D01*
X43936410Y-55355151D01*
X44066395Y-55567267D01*
X44069607Y-55571027D01*
X44069610Y-55571032D01*
X44185207Y-55706378D01*
X44227962Y-55756438D01*
X44264945Y-55788024D01*
X44290194Y-55809589D01*
X44329004Y-55869039D01*
X44329511Y-55940034D01*
X44290194Y-56001211D01*
X44227962Y-56054362D01*
X44224749Y-56058124D01*
X44069610Y-56239768D01*
X44069607Y-56239773D01*
X44066395Y-56243533D01*
X43936410Y-56455649D01*
X43934517Y-56460219D01*
X43934515Y-56460223D01*
X43848167Y-56668685D01*
X43841207Y-56685488D01*
X43812381Y-56805557D01*
X43798219Y-56864548D01*
X43762867Y-56926117D01*
X43699840Y-56958800D01*
X43629149Y-56952220D01*
X43573238Y-56908466D01*
X43549700Y-56835134D01*
X43549700Y-56554006D01*
X43550437Y-56540398D01*
X43554084Y-56506831D01*
X43554084Y-56506828D01*
X43554749Y-56500707D01*
X43554212Y-56494568D01*
X43554212Y-56494562D01*
X43550177Y-56448440D01*
X43549847Y-56443608D01*
X43549700Y-56440603D01*
X43549700Y-56437515D01*
X43546795Y-56407886D01*
X43545305Y-56392685D01*
X43545184Y-56391374D01*
X43537245Y-56300643D01*
X43536708Y-56294500D01*
X43535152Y-56289145D01*
X43534608Y-56283594D01*
X43506473Y-56190407D01*
X43506117Y-56189204D01*
X43487650Y-56125638D01*
X43478959Y-56095725D01*
X43476392Y-56090772D01*
X43474780Y-56085434D01*
X43429110Y-55999541D01*
X43428496Y-55998373D01*
X43386534Y-55917419D01*
X43386531Y-55917414D01*
X43383700Y-55911953D01*
X43380221Y-55907595D01*
X43377602Y-55902669D01*
X43325657Y-55838977D01*
X43316138Y-55827306D01*
X43315310Y-55826280D01*
X43284771Y-55788024D01*
X43284757Y-55788008D01*
X43282567Y-55785265D01*
X43280072Y-55782770D01*
X43279064Y-55781643D01*
X43275341Y-55777284D01*
X43247851Y-55743577D01*
X43220298Y-55678145D01*
X43223789Y-55631330D01*
X43230506Y-55606264D01*
X43236900Y-55525020D01*
X43236900Y-54769780D01*
X43230506Y-54688536D01*
X43224916Y-54667672D01*
X43181589Y-54505976D01*
X43181589Y-54505975D01*
X43179881Y-54499602D01*
X43091081Y-54325322D01*
X43007284Y-54221841D01*
X42972138Y-54178439D01*
X42967987Y-54173313D01*
X42815978Y-54050219D01*
X42687800Y-53984909D01*
X42636185Y-53936161D01*
X42619019Y-53874626D01*
X42617748Y-53793898D01*
X42605375Y-53008237D01*
X42624302Y-52939812D01*
X42655795Y-52905428D01*
X42660696Y-52901755D01*
X42673257Y-52889194D01*
X42749418Y-52787574D01*
X42757950Y-52771988D01*
X42802906Y-52652068D01*
X42806531Y-52636823D01*
X42812031Y-52586192D01*
X42812400Y-52579378D01*
X42812400Y-52368515D01*
X42807925Y-52353276D01*
X42806535Y-52352071D01*
X42798852Y-52350400D01*
X41679400Y-52350400D01*
X41611279Y-52330398D01*
X41564786Y-52276742D01*
X41553400Y-52224400D01*
X41553400Y-52076285D01*
X41809400Y-52076285D01*
X41813875Y-52091524D01*
X41815265Y-52092729D01*
X41822948Y-52094400D01*
X42794284Y-52094400D01*
X42809523Y-52089925D01*
X42810728Y-52088535D01*
X42812399Y-52080852D01*
X42812399Y-51865425D01*
X42812029Y-51858604D01*
X42806531Y-51807984D01*
X42802904Y-51792727D01*
X42757950Y-51672812D01*
X42749418Y-51657226D01*
X42673257Y-51555606D01*
X42660694Y-51543043D01*
X42559074Y-51466882D01*
X42543488Y-51458350D01*
X42423568Y-51413394D01*
X42408323Y-51409769D01*
X42357692Y-51404269D01*
X42350878Y-51403900D01*
X41827515Y-51403900D01*
X41812276Y-51408375D01*
X41811071Y-51409765D01*
X41809400Y-51417448D01*
X41809400Y-52076285D01*
X41553400Y-52076285D01*
X41553400Y-51422016D01*
X41548925Y-51406777D01*
X41547535Y-51405572D01*
X41539852Y-51403901D01*
X41011925Y-51403901D01*
X41005104Y-51404271D01*
X40954484Y-51409769D01*
X40939227Y-51413396D01*
X40819312Y-51458350D01*
X40803726Y-51466882D01*
X40702106Y-51543043D01*
X40689543Y-51555606D01*
X40613382Y-51657226D01*
X40604850Y-51672812D01*
X40565476Y-51777841D01*
X40522835Y-51834606D01*
X40456273Y-51859306D01*
X40386924Y-51844099D01*
X40336806Y-51793813D01*
X40329512Y-51777841D01*
X40294150Y-51683511D01*
X40285618Y-51667926D01*
X40209457Y-51566306D01*
X40196894Y-51553743D01*
X40095274Y-51477582D01*
X40079688Y-51469050D01*
X39959768Y-51424094D01*
X39944523Y-51420469D01*
X39893892Y-51414969D01*
X39887078Y-51414600D01*
X39363715Y-51414600D01*
X39348476Y-51419075D01*
X39347271Y-51420465D01*
X39345600Y-51428148D01*
X39345600Y-52235100D01*
X39325598Y-52303221D01*
X39271942Y-52349714D01*
X39219600Y-52361100D01*
X39215600Y-52361100D01*
X39147479Y-52341098D01*
X39100986Y-52287442D01*
X39089600Y-52235100D01*
X39089600Y-51432716D01*
X39085125Y-51417477D01*
X39083735Y-51416272D01*
X39076052Y-51414601D01*
X38548125Y-51414601D01*
X38541304Y-51414971D01*
X38490684Y-51420469D01*
X38475427Y-51424096D01*
X38355512Y-51469050D01*
X38339926Y-51477582D01*
X38238306Y-51553743D01*
X38225743Y-51566306D01*
X38149582Y-51667926D01*
X38141050Y-51683511D01*
X38105688Y-51777841D01*
X38063047Y-51834606D01*
X37996486Y-51859306D01*
X37927137Y-51844099D01*
X37877018Y-51793814D01*
X37869724Y-51777841D01*
X37830350Y-51672812D01*
X37821818Y-51657226D01*
X37745657Y-51555606D01*
X37733094Y-51543043D01*
X37631474Y-51466882D01*
X37615888Y-51458350D01*
X37495968Y-51413394D01*
X37480723Y-51409769D01*
X37430092Y-51404269D01*
X37423278Y-51403900D01*
X36899915Y-51403900D01*
X36884676Y-51408375D01*
X36883471Y-51409765D01*
X36881800Y-51417448D01*
X36881800Y-52209062D01*
X36861798Y-52277183D01*
X36808142Y-52323676D01*
X36754395Y-52335054D01*
X36666352Y-52334072D01*
X36598458Y-52313312D01*
X36552567Y-52259141D01*
X36543247Y-52188758D01*
X36573459Y-52124511D01*
X36616790Y-52097004D01*
X36624129Y-52088535D01*
X36625800Y-52080852D01*
X36625800Y-51422016D01*
X36621325Y-51406777D01*
X36619935Y-51405572D01*
X36612252Y-51403901D01*
X36084325Y-51403901D01*
X36077504Y-51404271D01*
X36026884Y-51409769D01*
X36011627Y-51413396D01*
X35891712Y-51458350D01*
X35876126Y-51466882D01*
X35774506Y-51543043D01*
X35761943Y-51555606D01*
X35685782Y-51657226D01*
X35677250Y-51672812D01*
X35632294Y-51792732D01*
X35628669Y-51807977D01*
X35623169Y-51858608D01*
X35622800Y-51865422D01*
X35622800Y-52076285D01*
X35627275Y-52091524D01*
X35628665Y-52092729D01*
X35636348Y-52094400D01*
X35693473Y-52094400D01*
X35761594Y-52114402D01*
X35808087Y-52168058D01*
X35818191Y-52238332D01*
X35787782Y-52303958D01*
X35784238Y-52307958D01*
X35724092Y-52345680D01*
X35689929Y-52350400D01*
X35640916Y-52350400D01*
X35625677Y-52354875D01*
X35624472Y-52356265D01*
X35622801Y-52363948D01*
X35622801Y-52579375D01*
X35623171Y-52586196D01*
X35628669Y-52636816D01*
X35632296Y-52652073D01*
X35677250Y-52771988D01*
X35685782Y-52787574D01*
X35742945Y-52863846D01*
X35767793Y-52930353D01*
X35768115Y-52938403D01*
X35770109Y-53187600D01*
X35774482Y-53734192D01*
X35775746Y-53892243D01*
X35756290Y-53960522D01*
X35706953Y-54005518D01*
X35619222Y-54050219D01*
X35467213Y-54173313D01*
X35463062Y-54178439D01*
X35427916Y-54221841D01*
X35344119Y-54325322D01*
X35255319Y-54499602D01*
X35253611Y-54505975D01*
X35253611Y-54505976D01*
X35210285Y-54667672D01*
X35204694Y-54688536D01*
X35198300Y-54769780D01*
X35198300Y-55525020D01*
X35204694Y-55606264D01*
X35206187Y-55611837D01*
X35206188Y-55611841D01*
X35244933Y-55756438D01*
X35255319Y-55795198D01*
X35344119Y-55969478D01*
X35467213Y-56121487D01*
X35619222Y-56244581D01*
X35625103Y-56247578D01*
X35625110Y-56247582D01*
X35625968Y-56248019D01*
X35626375Y-56248403D01*
X35630643Y-56251175D01*
X35630136Y-56251956D01*
X35677582Y-56296769D01*
X35694646Y-56365684D01*
X35671743Y-56432885D01*
X35616144Y-56477036D01*
X35590866Y-56483181D01*
X35591041Y-56484057D01*
X35584491Y-56485369D01*
X35577828Y-56485981D01*
X35571444Y-56487982D01*
X35571442Y-56487982D01*
X35427907Y-56532963D01*
X35427905Y-56532964D01*
X35420658Y-56535235D01*
X35279773Y-56620558D01*
X35163308Y-56737023D01*
X35077985Y-56877908D01*
X35075714Y-56885155D01*
X35075713Y-56885157D01*
X35030732Y-57028692D01*
X35028731Y-57035078D01*
X35022250Y-57105608D01*
X35022250Y-57202400D01*
X35002248Y-57270521D01*
X34948592Y-57317014D01*
X34896250Y-57328400D01*
X34072869Y-57328400D01*
X34004748Y-57308398D01*
X33993574Y-57300320D01*
X33981910Y-57290874D01*
X33981905Y-57290871D01*
X33976778Y-57286719D01*
X33926906Y-57261308D01*
X33875290Y-57212561D01*
X33863486Y-57185460D01*
X33854444Y-57155509D01*
X33854103Y-57154359D01*
X33840782Y-57108506D01*
X33826958Y-57060925D01*
X33824393Y-57055977D01*
X33822780Y-57050634D01*
X33777052Y-56964632D01*
X33776502Y-56963584D01*
X33734534Y-56882619D01*
X33734533Y-56882618D01*
X33731700Y-56877152D01*
X33728220Y-56872793D01*
X33725602Y-56867869D01*
X33713242Y-56852714D01*
X33685688Y-56787282D01*
X33697884Y-56717341D01*
X33745956Y-56665096D01*
X33778273Y-56651373D01*
X33796117Y-56646591D01*
X33796119Y-56646590D01*
X33802498Y-56644881D01*
X33976778Y-56556081D01*
X34128787Y-56432987D01*
X34251881Y-56280978D01*
X34340681Y-56106698D01*
X34347836Y-56079995D01*
X34389812Y-55923341D01*
X34389813Y-55923337D01*
X34391306Y-55917764D01*
X34396176Y-55855885D01*
X34397507Y-55838977D01*
X34397507Y-55838968D01*
X34397700Y-55836520D01*
X34397700Y-55081280D01*
X34391306Y-55000036D01*
X34361346Y-54888222D01*
X34342389Y-54817476D01*
X34342389Y-54817475D01*
X34340681Y-54811102D01*
X34251881Y-54636822D01*
X34128787Y-54484813D01*
X34030782Y-54405450D01*
X33981909Y-54365874D01*
X33976778Y-54361719D01*
X33802498Y-54272919D01*
X33796124Y-54271211D01*
X33619141Y-54223788D01*
X33619137Y-54223787D01*
X33613564Y-54222294D01*
X33607008Y-54221778D01*
X33534777Y-54216093D01*
X33534768Y-54216093D01*
X33532320Y-54215900D01*
X32291193Y-54215900D01*
X32223072Y-54195898D01*
X32202098Y-54178995D01*
X31479666Y-53456563D01*
X31445640Y-53394251D01*
X31443839Y-53351022D01*
X31455363Y-53263492D01*
X31455363Y-53263486D01*
X31455800Y-53260170D01*
X31457574Y-53187600D01*
X31444702Y-53031032D01*
X31438050Y-52950118D01*
X31438049Y-52950112D01*
X31437626Y-52944967D01*
X31378318Y-52708850D01*
X31281241Y-52485591D01*
X31149005Y-52281184D01*
X31081148Y-52206610D01*
X31060306Y-52183705D01*
X31029254Y-52119860D01*
X31027500Y-52098906D01*
X31027500Y-51905806D01*
X31028237Y-51892198D01*
X31031884Y-51858631D01*
X31031884Y-51858628D01*
X31032549Y-51852507D01*
X31032012Y-51846368D01*
X31032012Y-51846362D01*
X31027977Y-51800240D01*
X31027647Y-51795408D01*
X31027500Y-51792403D01*
X31027500Y-51789315D01*
X31023105Y-51744485D01*
X31022984Y-51743174D01*
X31020879Y-51719113D01*
X31014508Y-51646300D01*
X31012952Y-51640945D01*
X31012408Y-51635394D01*
X30984273Y-51542207D01*
X30983917Y-51541004D01*
X30963760Y-51471621D01*
X30956759Y-51447525D01*
X30954192Y-51442572D01*
X30952580Y-51437234D01*
X30906935Y-51351388D01*
X30906321Y-51350220D01*
X30864335Y-51269221D01*
X30864334Y-51269220D01*
X30861500Y-51263752D01*
X30858020Y-51259392D01*
X30855402Y-51254469D01*
X30793900Y-51179060D01*
X30793071Y-51178032D01*
X30762563Y-51139814D01*
X30762556Y-51139806D01*
X30760367Y-51137064D01*
X30757874Y-51134571D01*
X30756842Y-51133417D01*
X30753154Y-51129101D01*
X30724576Y-51094060D01*
X30687390Y-51063297D01*
X30678611Y-51055308D01*
X29697097Y-50073794D01*
X29687995Y-50063650D01*
X29666839Y-50037336D01*
X29666831Y-50037327D01*
X29662975Y-50032532D01*
X29622782Y-49998806D01*
X29619136Y-49995625D01*
X29616904Y-49993601D01*
X29614722Y-49991419D01*
X29579887Y-49962805D01*
X29579066Y-49962124D01*
X29568914Y-49953606D01*
X29563582Y-49949131D01*
X29524259Y-49890019D01*
X29523135Y-49819031D01*
X29560570Y-49758706D01*
X29624676Y-49728195D01*
X29634690Y-49727002D01*
X29637882Y-49726750D01*
X29648428Y-49725921D01*
X29648436Y-49725920D01*
X29653363Y-49725532D01*
X29658170Y-49724378D01*
X29658176Y-49724377D01*
X29809223Y-49688113D01*
X29887613Y-49669293D01*
X29892186Y-49667399D01*
X30105607Y-49578998D01*
X30105611Y-49578996D01*
X30110181Y-49577103D01*
X30315587Y-49451230D01*
X30498774Y-49294774D01*
X30587389Y-49191019D01*
X30646839Y-49152209D01*
X30717834Y-49151702D01*
X30779011Y-49191019D01*
X30867626Y-49294774D01*
X31050813Y-49451230D01*
X31256219Y-49577103D01*
X31260789Y-49578996D01*
X31260793Y-49578998D01*
X31474214Y-49667399D01*
X31478787Y-49669293D01*
X31557177Y-49688113D01*
X31708224Y-49724377D01*
X31708230Y-49724378D01*
X31713037Y-49725532D01*
X31953200Y-49744433D01*
X32193363Y-49725532D01*
X32198170Y-49724378D01*
X32198176Y-49724377D01*
X32349223Y-49688113D01*
X32427613Y-49669293D01*
X32432186Y-49667399D01*
X32645607Y-49578998D01*
X32645611Y-49578996D01*
X32650181Y-49577103D01*
X32855587Y-49451230D01*
X33038774Y-49294774D01*
X33127389Y-49191019D01*
X33186839Y-49152209D01*
X33257834Y-49151702D01*
X33319011Y-49191019D01*
X33407626Y-49294774D01*
X33590813Y-49451230D01*
X33796219Y-49577103D01*
X33800789Y-49578996D01*
X33800793Y-49578998D01*
X34014214Y-49667399D01*
X34018787Y-49669293D01*
X34097177Y-49688113D01*
X34248224Y-49724377D01*
X34248230Y-49724378D01*
X34253037Y-49725532D01*
X34493200Y-49744433D01*
X34733363Y-49725532D01*
X34738170Y-49724378D01*
X34738176Y-49724377D01*
X34889223Y-49688113D01*
X34967613Y-49669293D01*
X34972186Y-49667399D01*
X35185607Y-49578998D01*
X35185611Y-49578996D01*
X35190181Y-49577103D01*
X35395587Y-49451230D01*
X35578774Y-49294774D01*
X35667389Y-49191019D01*
X35726839Y-49152209D01*
X35797834Y-49151702D01*
X35859011Y-49191019D01*
X35947626Y-49294774D01*
X36130813Y-49451230D01*
X36336219Y-49577103D01*
X36340789Y-49578996D01*
X36340793Y-49578998D01*
X36554214Y-49667399D01*
X36558787Y-49669293D01*
X36637177Y-49688113D01*
X36788224Y-49724377D01*
X36788230Y-49724378D01*
X36793037Y-49725532D01*
X37033200Y-49744433D01*
X37273363Y-49725532D01*
X37278170Y-49724378D01*
X37278176Y-49724377D01*
X37429223Y-49688113D01*
X37507613Y-49669293D01*
X37512186Y-49667399D01*
X37725607Y-49578998D01*
X37725611Y-49578996D01*
X37730181Y-49577103D01*
X37935587Y-49451230D01*
X38118774Y-49294774D01*
X38207389Y-49191019D01*
X38266839Y-49152209D01*
X38337834Y-49151702D01*
X38399011Y-49191019D01*
X38487626Y-49294774D01*
X38670813Y-49451230D01*
X38876219Y-49577103D01*
X38880789Y-49578996D01*
X38880793Y-49578998D01*
X39094214Y-49667399D01*
X39098787Y-49669293D01*
X39177177Y-49688113D01*
X39328224Y-49724377D01*
X39328230Y-49724378D01*
X39333037Y-49725532D01*
X39573200Y-49744433D01*
X39813363Y-49725532D01*
X39818170Y-49724378D01*
X39818176Y-49724377D01*
X39969223Y-49688113D01*
X40047613Y-49669293D01*
X40052186Y-49667399D01*
X40265607Y-49578998D01*
X40265611Y-49578996D01*
X40270181Y-49577103D01*
X40475587Y-49451230D01*
X40658774Y-49294774D01*
X40815230Y-49111587D01*
X40941103Y-48906181D01*
X40947707Y-48890239D01*
X41031399Y-48688186D01*
X41031400Y-48688184D01*
X41033293Y-48683613D01*
X41088369Y-48454208D01*
X41088377Y-48454176D01*
X41088378Y-48454170D01*
X41089532Y-48449363D01*
X41108433Y-48209200D01*
X41089532Y-47969037D01*
X41088378Y-47964230D01*
X41088377Y-47964224D01*
X41067404Y-47876867D01*
X41070951Y-47805959D01*
X41112271Y-47748225D01*
X41150987Y-47727620D01*
X41267895Y-47689634D01*
X41274180Y-47687592D01*
X41332253Y-47654064D01*
X41438569Y-47592683D01*
X41438572Y-47592681D01*
X41443574Y-47589793D01*
X41505543Y-47536866D01*
X42039578Y-47002831D01*
X42072244Y-46964585D01*
X42088753Y-46945255D01*
X42092505Y-46940862D01*
X42148496Y-46843883D01*
X42187000Y-46777191D01*
X42187001Y-46777190D01*
X42190304Y-46771468D01*
X42250748Y-46585442D01*
X42251863Y-46574839D01*
X42270504Y-46397480D01*
X42271194Y-46390915D01*
X42260118Y-46285538D01*
X42251438Y-46202952D01*
X42251438Y-46202951D01*
X42250748Y-46196388D01*
X42190304Y-46010362D01*
X42138815Y-45921179D01*
X42095395Y-45845973D01*
X42095393Y-45845970D01*
X42092505Y-45840968D01*
X42039578Y-45778999D01*
X41116725Y-44856146D01*
X41082699Y-44793834D01*
X41087764Y-44723019D01*
X41096699Y-44704056D01*
X41185192Y-44550780D01*
X41186650Y-44546292D01*
X41232176Y-44492729D01*
X41300103Y-44472079D01*
X41368411Y-44491431D01*
G37*
G04 #@! TD.AperFunction*
M02*
