G04 #@! TF.GenerationSoftware,KiCad,Pcbnew,(6.0.11)*
G04 #@! TF.CreationDate,2023-03-02T01:09:38+03:00*
G04 #@! TF.ProjectId,Device-1,44657669-6365-42d3-912e-6b696361645f,rev?*
G04 #@! TF.SameCoordinates,Original*
G04 #@! TF.FileFunction,Legend,Top*
G04 #@! TF.FilePolarity,Positive*
%FSLAX46Y46*%
G04 Gerber Fmt 4.6, Leading zero omitted, Abs format (unit mm)*
G04 Created by KiCad (PCBNEW (6.0.11)) date 2023-03-02 01:09:38*
%MOMM*%
%LPD*%
G01*
G04 APERTURE LIST*
%ADD10C,0.167500*%
G04 #@! TA.AperFunction,Profile*
%ADD11C,0.100000*%
G04 #@! TD*
%ADD12C,0.150000*%
%ADD13C,0.250000*%
%ADD14C,0.200000*%
%ADD15C,0.120000*%
G04 APERTURE END LIST*
D10*
X26669380Y-46191295D02*
X26350333Y-46191295D01*
X26318428Y-46510342D01*
X26350333Y-46478438D01*
X26414142Y-46446533D01*
X26573666Y-46446533D01*
X26637476Y-46478438D01*
X26669380Y-46510342D01*
X26701285Y-46574152D01*
X26701285Y-46733676D01*
X26669380Y-46797485D01*
X26637476Y-46829390D01*
X26573666Y-46861295D01*
X26414142Y-46861295D01*
X26350333Y-46829390D01*
X26318428Y-46797485D01*
X26892714Y-46191295D02*
X27116047Y-46861295D01*
X27339380Y-46191295D01*
X23721123Y-46172400D02*
X23657314Y-46140495D01*
X23561600Y-46140495D01*
X23465885Y-46172400D01*
X23402076Y-46236209D01*
X23370171Y-46300019D01*
X23338266Y-46427638D01*
X23338266Y-46523352D01*
X23370171Y-46650971D01*
X23402076Y-46714780D01*
X23465885Y-46778590D01*
X23561600Y-46810495D01*
X23625409Y-46810495D01*
X23721123Y-46778590D01*
X23753028Y-46746685D01*
X23753028Y-46523352D01*
X23625409Y-46523352D01*
X24040171Y-46810495D02*
X24040171Y-46140495D01*
X24423028Y-46810495D01*
X24423028Y-46140495D01*
X24742076Y-46810495D02*
X24742076Y-46140495D01*
X24901600Y-46140495D01*
X24997314Y-46172400D01*
X25061123Y-46236209D01*
X25093028Y-46300019D01*
X25124933Y-46427638D01*
X25124933Y-46523352D01*
X25093028Y-46650971D01*
X25061123Y-46714780D01*
X24997314Y-46778590D01*
X24901600Y-46810495D01*
X24742076Y-46810495D01*
D11*
X12954000Y-16002000D02*
X13004370Y-64922400D01*
X66447246Y-64922400D02*
G75*
G03*
X66447246Y-64922400I-1524846J0D01*
G01*
X64973200Y-67970400D02*
G75*
G03*
X67970400Y-64871600I-50800J3048000D01*
G01*
X66447246Y-15951200D02*
G75*
G03*
X66447246Y-15951200I-1524846J0D01*
G01*
X16052800Y-67919600D02*
X64973200Y-67970400D01*
X17526846Y-64922400D02*
G75*
G03*
X17526846Y-64922400I-1524846J0D01*
G01*
X13004370Y-64922400D02*
G75*
G03*
X16052800Y-67919600I2997630J0D01*
G01*
X67919656Y-16051109D02*
G75*
G03*
X65024000Y-12954001I-2997256J99909D01*
G01*
X67970400Y-64871600D02*
X67919656Y-16051109D01*
X17526000Y-16002000D02*
G75*
G03*
X17526000Y-16002000I-1524000J0D01*
G01*
X65024000Y-12954001D02*
X16002000Y-12954000D01*
X16002000Y-12954000D02*
G75*
G03*
X12954000Y-16002000I0J-3048000D01*
G01*
D10*
X66659666Y-44979371D02*
X66659666Y-44660323D01*
X66851095Y-45043180D02*
X66181095Y-44819847D01*
X66851095Y-44596514D01*
X66244904Y-44405085D02*
X66213000Y-44373180D01*
X66181095Y-44309371D01*
X66181095Y-44149847D01*
X66213000Y-44086038D01*
X66244904Y-44054133D01*
X66308714Y-44022228D01*
X66372523Y-44022228D01*
X66468238Y-44054133D01*
X66851095Y-44436990D01*
X66851095Y-44022228D01*
X19870876Y-24534695D02*
X19870876Y-23864695D01*
X20253733Y-24534695D02*
X19966590Y-24151838D01*
X20253733Y-23864695D02*
X19870876Y-24247552D01*
X20796114Y-24502790D02*
X20732304Y-24534695D01*
X20604685Y-24534695D01*
X20540876Y-24502790D01*
X20508971Y-24438980D01*
X20508971Y-24183742D01*
X20540876Y-24119933D01*
X20604685Y-24088028D01*
X20732304Y-24088028D01*
X20796114Y-24119933D01*
X20828019Y-24183742D01*
X20828019Y-24247552D01*
X20508971Y-24311361D01*
X21051352Y-24088028D02*
X21210876Y-24534695D01*
X21370400Y-24088028D02*
X21210876Y-24534695D01*
X21147066Y-24694219D01*
X21115161Y-24726123D01*
X21051352Y-24758028D01*
X21593733Y-24502790D02*
X21657542Y-24534695D01*
X21785161Y-24534695D01*
X21848971Y-24502790D01*
X21880876Y-24438980D01*
X21880876Y-24407076D01*
X21848971Y-24343266D01*
X21785161Y-24311361D01*
X21689447Y-24311361D01*
X21625638Y-24279457D01*
X21593733Y-24215647D01*
X21593733Y-24183742D01*
X21625638Y-24119933D01*
X21689447Y-24088028D01*
X21785161Y-24088028D01*
X21848971Y-24119933D01*
X22455161Y-24534695D02*
X22455161Y-24183742D01*
X22423257Y-24119933D01*
X22359447Y-24088028D01*
X22231828Y-24088028D01*
X22168019Y-24119933D01*
X22455161Y-24502790D02*
X22391352Y-24534695D01*
X22231828Y-24534695D01*
X22168019Y-24502790D01*
X22136114Y-24438980D01*
X22136114Y-24375171D01*
X22168019Y-24311361D01*
X22231828Y-24279457D01*
X22391352Y-24279457D01*
X22455161Y-24247552D01*
X22774209Y-24088028D02*
X22774209Y-24534695D01*
X22774209Y-24151838D02*
X22806114Y-24119933D01*
X22869923Y-24088028D01*
X22965638Y-24088028D01*
X23029447Y-24119933D01*
X23061352Y-24183742D01*
X23061352Y-24534695D01*
X23412304Y-24502790D02*
X23412304Y-24534695D01*
X23380400Y-24598504D01*
X23348495Y-24630409D01*
X24209923Y-24534695D02*
X24209923Y-23864695D01*
X24433257Y-24343266D01*
X24656590Y-23864695D01*
X24656590Y-24534695D01*
X25071352Y-24534695D02*
X25007542Y-24502790D01*
X24975638Y-24470885D01*
X24943733Y-24407076D01*
X24943733Y-24215647D01*
X24975638Y-24151838D01*
X25007542Y-24119933D01*
X25071352Y-24088028D01*
X25167066Y-24088028D01*
X25230876Y-24119933D01*
X25262780Y-24151838D01*
X25294685Y-24215647D01*
X25294685Y-24407076D01*
X25262780Y-24470885D01*
X25230876Y-24502790D01*
X25167066Y-24534695D01*
X25071352Y-24534695D01*
X25581828Y-24534695D02*
X25581828Y-23864695D01*
X25645638Y-24279457D02*
X25837066Y-24534695D01*
X25837066Y-24088028D02*
X25581828Y-24343266D01*
X26124209Y-24534695D02*
X26124209Y-23864695D01*
X26411352Y-24534695D02*
X26411352Y-24183742D01*
X26379447Y-24119933D01*
X26315638Y-24088028D01*
X26219923Y-24088028D01*
X26156114Y-24119933D01*
X26124209Y-24151838D01*
X26634685Y-24088028D02*
X26889923Y-24088028D01*
X26730400Y-23864695D02*
X26730400Y-24438980D01*
X26762304Y-24502790D01*
X26826114Y-24534695D01*
X26889923Y-24534695D01*
X27400400Y-24534695D02*
X27400400Y-24183742D01*
X27368495Y-24119933D01*
X27304685Y-24088028D01*
X27177066Y-24088028D01*
X27113257Y-24119933D01*
X27400400Y-24502790D02*
X27336590Y-24534695D01*
X27177066Y-24534695D01*
X27113257Y-24502790D01*
X27081352Y-24438980D01*
X27081352Y-24375171D01*
X27113257Y-24311361D01*
X27177066Y-24279457D01*
X27336590Y-24279457D01*
X27400400Y-24247552D01*
X27719447Y-24534695D02*
X27719447Y-24088028D01*
X27719447Y-24215647D02*
X27751352Y-24151838D01*
X27783257Y-24119933D01*
X27847066Y-24088028D01*
X27910876Y-24088028D01*
X28389447Y-24502790D02*
X28325638Y-24534695D01*
X28198019Y-24534695D01*
X28134209Y-24502790D01*
X28102304Y-24438980D01*
X28102304Y-24183742D01*
X28134209Y-24119933D01*
X28198019Y-24088028D01*
X28325638Y-24088028D01*
X28389447Y-24119933D01*
X28421352Y-24183742D01*
X28421352Y-24247552D01*
X28102304Y-24311361D01*
X28740400Y-24502790D02*
X28740400Y-24534695D01*
X28708495Y-24598504D01*
X28676590Y-24630409D01*
X29920876Y-24470885D02*
X29888971Y-24502790D01*
X29793257Y-24534695D01*
X29729447Y-24534695D01*
X29633733Y-24502790D01*
X29569923Y-24438980D01*
X29538019Y-24375171D01*
X29506114Y-24247552D01*
X29506114Y-24151838D01*
X29538019Y-24024219D01*
X29569923Y-23960409D01*
X29633733Y-23896600D01*
X29729447Y-23864695D01*
X29793257Y-23864695D01*
X29888971Y-23896600D01*
X29920876Y-23928504D01*
X30495161Y-24534695D02*
X30495161Y-24183742D01*
X30463257Y-24119933D01*
X30399447Y-24088028D01*
X30271828Y-24088028D01*
X30208019Y-24119933D01*
X30495161Y-24502790D02*
X30431352Y-24534695D01*
X30271828Y-24534695D01*
X30208019Y-24502790D01*
X30176114Y-24438980D01*
X30176114Y-24375171D01*
X30208019Y-24311361D01*
X30271828Y-24279457D01*
X30431352Y-24279457D01*
X30495161Y-24247552D01*
X30814209Y-24088028D02*
X30814209Y-24534695D01*
X30814209Y-24151838D02*
X30846114Y-24119933D01*
X30909923Y-24088028D01*
X31005638Y-24088028D01*
X31069447Y-24119933D01*
X31101352Y-24183742D01*
X31101352Y-24534695D01*
X31707542Y-24534695D02*
X31707542Y-24183742D01*
X31675638Y-24119933D01*
X31611828Y-24088028D01*
X31484209Y-24088028D01*
X31420400Y-24119933D01*
X31707542Y-24502790D02*
X31643733Y-24534695D01*
X31484209Y-24534695D01*
X31420400Y-24502790D01*
X31388495Y-24438980D01*
X31388495Y-24375171D01*
X31420400Y-24311361D01*
X31484209Y-24279457D01*
X31643733Y-24279457D01*
X31707542Y-24247552D01*
X31962780Y-24088028D02*
X32313733Y-24088028D01*
X31962780Y-24534695D01*
X32313733Y-24534695D01*
X66659666Y-53357961D02*
X66659666Y-53038914D01*
X66851095Y-53421771D02*
X66181095Y-53198438D01*
X66851095Y-52975104D01*
X66851095Y-52368914D02*
X66532047Y-52592247D01*
X66851095Y-52751771D02*
X66181095Y-52751771D01*
X66181095Y-52496533D01*
X66213000Y-52432723D01*
X66244904Y-52400819D01*
X66308714Y-52368914D01*
X66404428Y-52368914D01*
X66468238Y-52400819D01*
X66500142Y-52432723D01*
X66532047Y-52496533D01*
X66532047Y-52751771D01*
X66500142Y-52081771D02*
X66500142Y-51858438D01*
X66851095Y-51762723D02*
X66851095Y-52081771D01*
X66181095Y-52081771D01*
X66181095Y-51762723D01*
X66500142Y-51252247D02*
X66500142Y-51475580D01*
X66851095Y-51475580D02*
X66181095Y-51475580D01*
X66181095Y-51156533D01*
X50138828Y-67486095D02*
X50138828Y-66816095D01*
X50298352Y-66816095D01*
X50394066Y-66848000D01*
X50457876Y-66911809D01*
X50489780Y-66975619D01*
X50521685Y-67103238D01*
X50521685Y-67198952D01*
X50489780Y-67326571D01*
X50457876Y-67390380D01*
X50394066Y-67454190D01*
X50298352Y-67486095D01*
X50138828Y-67486095D01*
X51159780Y-67486095D02*
X50776923Y-67486095D01*
X50968352Y-67486095D02*
X50968352Y-66816095D01*
X50904542Y-66911809D01*
X50840733Y-66975619D01*
X50776923Y-67007523D01*
X51574542Y-66816095D02*
X51638352Y-66816095D01*
X51702161Y-66848000D01*
X51734066Y-66879904D01*
X51765971Y-66943714D01*
X51797876Y-67071333D01*
X51797876Y-67230857D01*
X51765971Y-67358476D01*
X51734066Y-67422285D01*
X51702161Y-67454190D01*
X51638352Y-67486095D01*
X51574542Y-67486095D01*
X51510733Y-67454190D01*
X51478828Y-67422285D01*
X51446923Y-67358476D01*
X51415019Y-67230857D01*
X51415019Y-67071333D01*
X51446923Y-66943714D01*
X51478828Y-66879904D01*
X51510733Y-66848000D01*
X51574542Y-66816095D01*
X66659666Y-47443171D02*
X66659666Y-47124123D01*
X66851095Y-47506980D02*
X66181095Y-47283647D01*
X66851095Y-47060314D01*
X66851095Y-46486028D02*
X66851095Y-46868885D01*
X66851095Y-46677457D02*
X66181095Y-46677457D01*
X66276809Y-46741266D01*
X66340619Y-46805076D01*
X66372523Y-46868885D01*
D12*
X27971904Y-41263866D02*
X28448095Y-41263866D01*
X27876666Y-41549580D02*
X28210000Y-40549580D01*
X28543333Y-41549580D01*
X28876666Y-40549580D02*
X28876666Y-41359104D01*
X28924285Y-41454342D01*
X28971904Y-41501961D01*
X29067142Y-41549580D01*
X29257619Y-41549580D01*
X29352857Y-41501961D01*
X29400476Y-41454342D01*
X29448095Y-41359104D01*
X29448095Y-40549580D01*
X29829047Y-40549580D02*
X30495714Y-41549580D01*
X30495714Y-40549580D02*
X29829047Y-41549580D01*
D10*
X39129476Y-50061695D02*
X39129476Y-49391695D01*
X39289000Y-49391695D01*
X39384714Y-49423600D01*
X39448523Y-49487409D01*
X39480428Y-49551219D01*
X39512333Y-49678838D01*
X39512333Y-49774552D01*
X39480428Y-49902171D01*
X39448523Y-49965980D01*
X39384714Y-50029790D01*
X39289000Y-50061695D01*
X39129476Y-50061695D01*
X40086619Y-49391695D02*
X39959000Y-49391695D01*
X39895190Y-49423600D01*
X39863285Y-49455504D01*
X39799476Y-49551219D01*
X39767571Y-49678838D01*
X39767571Y-49934076D01*
X39799476Y-49997885D01*
X39831380Y-50029790D01*
X39895190Y-50061695D01*
X40022809Y-50061695D01*
X40086619Y-50029790D01*
X40118523Y-49997885D01*
X40150428Y-49934076D01*
X40150428Y-49774552D01*
X40118523Y-49710742D01*
X40086619Y-49678838D01*
X40022809Y-49646933D01*
X39895190Y-49646933D01*
X39831380Y-49678838D01*
X39799476Y-49710742D01*
X39767571Y-49774552D01*
X66659666Y-49906971D02*
X66659666Y-49587923D01*
X66851095Y-49970780D02*
X66181095Y-49747447D01*
X66851095Y-49524114D01*
X66181095Y-49173161D02*
X66181095Y-49109352D01*
X66213000Y-49045542D01*
X66244904Y-49013638D01*
X66308714Y-48981733D01*
X66436333Y-48949828D01*
X66595857Y-48949828D01*
X66723476Y-48981733D01*
X66787285Y-49013638D01*
X66819190Y-49045542D01*
X66851095Y-49109352D01*
X66851095Y-49173161D01*
X66819190Y-49236971D01*
X66787285Y-49268876D01*
X66723476Y-49300780D01*
X66595857Y-49332685D01*
X66436333Y-49332685D01*
X66308714Y-49300780D01*
X66244904Y-49268876D01*
X66213000Y-49236971D01*
X66181095Y-49173161D01*
D12*
X37315876Y-41422580D02*
X37315876Y-40422580D01*
X37649209Y-41136866D01*
X37982542Y-40422580D01*
X37982542Y-41422580D01*
X38982542Y-41422580D02*
X38411114Y-41422580D01*
X38696828Y-41422580D02*
X38696828Y-40422580D01*
X38601590Y-40565438D01*
X38506352Y-40660676D01*
X38411114Y-40708295D01*
D10*
X47573428Y-67435295D02*
X47573428Y-66765295D01*
X47732952Y-66765295D01*
X47828666Y-66797200D01*
X47892476Y-66861009D01*
X47924380Y-66924819D01*
X47956285Y-67052438D01*
X47956285Y-67148152D01*
X47924380Y-67275771D01*
X47892476Y-67339580D01*
X47828666Y-67403390D01*
X47732952Y-67435295D01*
X47573428Y-67435295D01*
X48594380Y-67435295D02*
X48211523Y-67435295D01*
X48402952Y-67435295D02*
X48402952Y-66765295D01*
X48339142Y-66861009D01*
X48275333Y-66924819D01*
X48211523Y-66956723D01*
X49232476Y-67435295D02*
X48849619Y-67435295D01*
X49041047Y-67435295D02*
X49041047Y-66765295D01*
X48977238Y-66861009D01*
X48913428Y-66924819D01*
X48849619Y-66956723D01*
X66659666Y-32177771D02*
X66659666Y-31858723D01*
X66851095Y-32241580D02*
X66181095Y-32018247D01*
X66851095Y-31794914D01*
X66181095Y-31635390D02*
X66181095Y-31188723D01*
X66851095Y-31475866D01*
X41682333Y-14603295D02*
X41459000Y-14284247D01*
X41299476Y-14603295D02*
X41299476Y-13933295D01*
X41554714Y-13933295D01*
X41618523Y-13965200D01*
X41650428Y-13997104D01*
X41682333Y-14060914D01*
X41682333Y-14156628D01*
X41650428Y-14220438D01*
X41618523Y-14252342D01*
X41554714Y-14284247D01*
X41299476Y-14284247D01*
X41905666Y-13933295D02*
X42352333Y-14603295D01*
X42352333Y-13933295D02*
X41905666Y-14603295D01*
X43086142Y-13901390D02*
X42511857Y-14762819D01*
X43309476Y-14603295D02*
X43309476Y-13933295D01*
X43469000Y-13933295D01*
X43564714Y-13965200D01*
X43628523Y-14029009D01*
X43660428Y-14092819D01*
X43692333Y-14220438D01*
X43692333Y-14316152D01*
X43660428Y-14443771D01*
X43628523Y-14507580D01*
X43564714Y-14571390D01*
X43469000Y-14603295D01*
X43309476Y-14603295D01*
X44107095Y-13933295D02*
X44170904Y-13933295D01*
X44234714Y-13965200D01*
X44266619Y-13997104D01*
X44298523Y-14060914D01*
X44330428Y-14188533D01*
X44330428Y-14348057D01*
X44298523Y-14475676D01*
X44266619Y-14539485D01*
X44234714Y-14571390D01*
X44170904Y-14603295D01*
X44107095Y-14603295D01*
X44043285Y-14571390D01*
X44011380Y-14539485D01*
X43979476Y-14475676D01*
X43947571Y-14348057D01*
X43947571Y-14188533D01*
X43979476Y-14060914D01*
X44011380Y-13997104D01*
X44043285Y-13965200D01*
X44107095Y-13933295D01*
X45575038Y-14373457D02*
X45606942Y-14341552D01*
X45670752Y-14309647D01*
X45798371Y-14373457D01*
X45862180Y-14341552D01*
X45894085Y-14309647D01*
X46532180Y-14628695D02*
X46308847Y-14309647D01*
X46149323Y-14628695D02*
X46149323Y-13958695D01*
X46404561Y-13958695D01*
X46468371Y-13990600D01*
X46500276Y-14022504D01*
X46532180Y-14086314D01*
X46532180Y-14182028D01*
X46500276Y-14245838D01*
X46468371Y-14277742D01*
X46404561Y-14309647D01*
X46149323Y-14309647D01*
X46787419Y-14596790D02*
X46883133Y-14628695D01*
X47042657Y-14628695D01*
X47106466Y-14596790D01*
X47138371Y-14564885D01*
X47170276Y-14501076D01*
X47170276Y-14437266D01*
X47138371Y-14373457D01*
X47106466Y-14341552D01*
X47042657Y-14309647D01*
X46915038Y-14277742D01*
X46851228Y-14245838D01*
X46819323Y-14213933D01*
X46787419Y-14150123D01*
X46787419Y-14086314D01*
X46819323Y-14022504D01*
X46851228Y-13990600D01*
X46915038Y-13958695D01*
X47074561Y-13958695D01*
X47170276Y-13990600D01*
X47361704Y-13958695D02*
X47744561Y-13958695D01*
X47553133Y-14628695D02*
X47553133Y-13958695D01*
D13*
X31913533Y-41498780D02*
X31580200Y-41022590D01*
X31342104Y-41498780D02*
X31342104Y-40498780D01*
X31723057Y-40498780D01*
X31818295Y-40546400D01*
X31865914Y-40594019D01*
X31913533Y-40689257D01*
X31913533Y-40832114D01*
X31865914Y-40927352D01*
X31818295Y-40974971D01*
X31723057Y-41022590D01*
X31342104Y-41022590D01*
X32246866Y-40498780D02*
X32913533Y-41498780D01*
X32913533Y-40498780D02*
X32246866Y-41498780D01*
D10*
X31534876Y-50163295D02*
X31534876Y-49493295D01*
X31694400Y-49493295D01*
X31790114Y-49525200D01*
X31853923Y-49589009D01*
X31885828Y-49652819D01*
X31917733Y-49780438D01*
X31917733Y-49876152D01*
X31885828Y-50003771D01*
X31853923Y-50067580D01*
X31790114Y-50131390D01*
X31694400Y-50163295D01*
X31534876Y-50163295D01*
X32141066Y-49493295D02*
X32555828Y-49493295D01*
X32332495Y-49748533D01*
X32428209Y-49748533D01*
X32492019Y-49780438D01*
X32523923Y-49812342D01*
X32555828Y-49876152D01*
X32555828Y-50035676D01*
X32523923Y-50099485D01*
X32492019Y-50131390D01*
X32428209Y-50163295D01*
X32236780Y-50163295D01*
X32172971Y-50131390D01*
X32141066Y-50099485D01*
D13*
X41173495Y-57796180D02*
X41744923Y-57796180D01*
X41459209Y-58796180D02*
X41459209Y-57796180D01*
X41983019Y-57796180D02*
X42649685Y-58796180D01*
X42649685Y-57796180D02*
X41983019Y-58796180D01*
D10*
X36462476Y-50087095D02*
X36462476Y-49417095D01*
X36622000Y-49417095D01*
X36717714Y-49449000D01*
X36781523Y-49512809D01*
X36813428Y-49576619D01*
X36845333Y-49704238D01*
X36845333Y-49799952D01*
X36813428Y-49927571D01*
X36781523Y-49991380D01*
X36717714Y-50055190D01*
X36622000Y-50087095D01*
X36462476Y-50087095D01*
X37451523Y-49417095D02*
X37132476Y-49417095D01*
X37100571Y-49736142D01*
X37132476Y-49704238D01*
X37196285Y-49672333D01*
X37355809Y-49672333D01*
X37419619Y-49704238D01*
X37451523Y-49736142D01*
X37483428Y-49799952D01*
X37483428Y-49959476D01*
X37451523Y-50023285D01*
X37419619Y-50055190D01*
X37355809Y-50087095D01*
X37196285Y-50087095D01*
X37132476Y-50055190D01*
X37100571Y-50023285D01*
X66595857Y-27932561D02*
X66563952Y-27900657D01*
X66532047Y-27836847D01*
X66595857Y-27709228D01*
X66563952Y-27645419D01*
X66532047Y-27613514D01*
X66851095Y-26975419D02*
X66532047Y-27198752D01*
X66851095Y-27358276D02*
X66181095Y-27358276D01*
X66181095Y-27103038D01*
X66213000Y-27039228D01*
X66244904Y-27007323D01*
X66308714Y-26975419D01*
X66404428Y-26975419D01*
X66468238Y-27007323D01*
X66500142Y-27039228D01*
X66532047Y-27103038D01*
X66532047Y-27358276D01*
X66819190Y-26720180D02*
X66851095Y-26624466D01*
X66851095Y-26464942D01*
X66819190Y-26401133D01*
X66787285Y-26369228D01*
X66723476Y-26337323D01*
X66659666Y-26337323D01*
X66595857Y-26369228D01*
X66563952Y-26401133D01*
X66532047Y-26464942D01*
X66500142Y-26592561D01*
X66468238Y-26656371D01*
X66436333Y-26688276D01*
X66372523Y-26720180D01*
X66308714Y-26720180D01*
X66244904Y-26688276D01*
X66213000Y-26656371D01*
X66181095Y-26592561D01*
X66181095Y-26433038D01*
X66213000Y-26337323D01*
X66181095Y-26145895D02*
X66181095Y-25763038D01*
X66851095Y-25954466D02*
X66181095Y-25954466D01*
X45058828Y-67460695D02*
X45058828Y-66790695D01*
X45218352Y-66790695D01*
X45314066Y-66822600D01*
X45377876Y-66886409D01*
X45409780Y-66950219D01*
X45441685Y-67077838D01*
X45441685Y-67173552D01*
X45409780Y-67301171D01*
X45377876Y-67364980D01*
X45314066Y-67428790D01*
X45218352Y-67460695D01*
X45058828Y-67460695D01*
X46079780Y-67460695D02*
X45696923Y-67460695D01*
X45888352Y-67460695D02*
X45888352Y-66790695D01*
X45824542Y-66886409D01*
X45760733Y-66950219D01*
X45696923Y-66982123D01*
X46335019Y-66854504D02*
X46366923Y-66822600D01*
X46430733Y-66790695D01*
X46590257Y-66790695D01*
X46654066Y-66822600D01*
X46685971Y-66854504D01*
X46717876Y-66918314D01*
X46717876Y-66982123D01*
X46685971Y-67077838D01*
X46303114Y-67460695D01*
X46717876Y-67460695D01*
X66659666Y-42388571D02*
X66659666Y-42069523D01*
X66851095Y-42452380D02*
X66181095Y-42229047D01*
X66851095Y-42005714D01*
X66181095Y-41846190D02*
X66181095Y-41431428D01*
X66436333Y-41654761D01*
X66436333Y-41559047D01*
X66468238Y-41495238D01*
X66500142Y-41463333D01*
X66563952Y-41431428D01*
X66723476Y-41431428D01*
X66787285Y-41463333D01*
X66819190Y-41495238D01*
X66851095Y-41559047D01*
X66851095Y-41750476D01*
X66819190Y-41814285D01*
X66787285Y-41846190D01*
X66181095Y-29261419D02*
X66181095Y-29580466D01*
X66500142Y-29612371D01*
X66468238Y-29580466D01*
X66436333Y-29516657D01*
X66436333Y-29357133D01*
X66468238Y-29293323D01*
X66500142Y-29261419D01*
X66563952Y-29229514D01*
X66723476Y-29229514D01*
X66787285Y-29261419D01*
X66819190Y-29293323D01*
X66851095Y-29357133D01*
X66851095Y-29516657D01*
X66819190Y-29580466D01*
X66787285Y-29612371D01*
X66181095Y-29038085D02*
X66851095Y-28814752D01*
X66181095Y-28591419D01*
D13*
X41819533Y-61666380D02*
X41486200Y-61190190D01*
X41248104Y-61666380D02*
X41248104Y-60666380D01*
X41629057Y-60666380D01*
X41724295Y-60714000D01*
X41771914Y-60761619D01*
X41819533Y-60856857D01*
X41819533Y-60999714D01*
X41771914Y-61094952D01*
X41724295Y-61142571D01*
X41629057Y-61190190D01*
X41248104Y-61190190D01*
X42152866Y-60666380D02*
X42819533Y-61666380D01*
X42819533Y-60666380D02*
X42152866Y-61666380D01*
D10*
X66213000Y-24716676D02*
X66181095Y-24780485D01*
X66181095Y-24876200D01*
X66213000Y-24971914D01*
X66276809Y-25035723D01*
X66340619Y-25067628D01*
X66468238Y-25099533D01*
X66563952Y-25099533D01*
X66691571Y-25067628D01*
X66755380Y-25035723D01*
X66819190Y-24971914D01*
X66851095Y-24876200D01*
X66851095Y-24812390D01*
X66819190Y-24716676D01*
X66787285Y-24684771D01*
X66563952Y-24684771D01*
X66563952Y-24812390D01*
X66851095Y-24397628D02*
X66181095Y-24397628D01*
X66851095Y-24014771D01*
X66181095Y-24014771D01*
X66851095Y-23695723D02*
X66181095Y-23695723D01*
X66181095Y-23536200D01*
X66213000Y-23440485D01*
X66276809Y-23376676D01*
X66340619Y-23344771D01*
X66468238Y-23312866D01*
X66563952Y-23312866D01*
X66691571Y-23344771D01*
X66755380Y-23376676D01*
X66819190Y-23440485D01*
X66851095Y-23536200D01*
X66851095Y-23695723D01*
X33998676Y-50036295D02*
X33998676Y-49366295D01*
X34158200Y-49366295D01*
X34253914Y-49398200D01*
X34317723Y-49462009D01*
X34349628Y-49525819D01*
X34381533Y-49653438D01*
X34381533Y-49749152D01*
X34349628Y-49876771D01*
X34317723Y-49940580D01*
X34253914Y-50004390D01*
X34158200Y-50036295D01*
X33998676Y-50036295D01*
X34955819Y-49589628D02*
X34955819Y-50036295D01*
X34796295Y-49334390D02*
X34636771Y-49812961D01*
X35051533Y-49812961D01*
X66659666Y-37384771D02*
X66659666Y-37065723D01*
X66851095Y-37448580D02*
X66181095Y-37225247D01*
X66851095Y-37001914D01*
X66181095Y-36459533D02*
X66181095Y-36778580D01*
X66500142Y-36810485D01*
X66468238Y-36778580D01*
X66436333Y-36714771D01*
X66436333Y-36555247D01*
X66468238Y-36491438D01*
X66500142Y-36459533D01*
X66563952Y-36427628D01*
X66723476Y-36427628D01*
X66787285Y-36459533D01*
X66819190Y-36491438D01*
X66851095Y-36555247D01*
X66851095Y-36714771D01*
X66819190Y-36778580D01*
X66787285Y-36810485D01*
D14*
X43581580Y-24091733D02*
X42581580Y-24091733D01*
X42581580Y-23710780D01*
X42629200Y-23615542D01*
X42676819Y-23567923D01*
X42772057Y-23520304D01*
X42914914Y-23520304D01*
X43010152Y-23567923D01*
X43057771Y-23615542D01*
X43105390Y-23710780D01*
X43105390Y-24091733D01*
X42581580Y-23186971D02*
X43581580Y-22948876D01*
X42867295Y-22758400D01*
X43581580Y-22567923D01*
X42581580Y-22329828D01*
X43581580Y-21377447D02*
X43105390Y-21710780D01*
X43581580Y-21948876D02*
X42581580Y-21948876D01*
X42581580Y-21567923D01*
X42629200Y-21472685D01*
X42676819Y-21425066D01*
X42772057Y-21377447D01*
X42914914Y-21377447D01*
X43010152Y-21425066D01*
X43057771Y-21472685D01*
X43105390Y-21567923D01*
X43105390Y-21948876D01*
D13*
X40630600Y-63231780D02*
X40821076Y-63231780D01*
X40916314Y-63279400D01*
X41011552Y-63374638D01*
X41059171Y-63565114D01*
X41059171Y-63898447D01*
X41011552Y-64088923D01*
X40916314Y-64184161D01*
X40821076Y-64231780D01*
X40630600Y-64231780D01*
X40535361Y-64184161D01*
X40440123Y-64088923D01*
X40392504Y-63898447D01*
X40392504Y-63565114D01*
X40440123Y-63374638D01*
X40535361Y-63279400D01*
X40630600Y-63231780D01*
X41487742Y-63231780D02*
X41487742Y-64041304D01*
X41535361Y-64136542D01*
X41582980Y-64184161D01*
X41678219Y-64231780D01*
X41868695Y-64231780D01*
X41963933Y-64184161D01*
X42011552Y-64136542D01*
X42059171Y-64041304D01*
X42059171Y-63231780D01*
X42392504Y-63231780D02*
X42963933Y-63231780D01*
X42678219Y-64231780D02*
X42678219Y-63231780D01*
D10*
X66659666Y-34819371D02*
X66659666Y-34500323D01*
X66851095Y-34883180D02*
X66181095Y-34659847D01*
X66851095Y-34436514D01*
X66181095Y-33926038D02*
X66181095Y-34053657D01*
X66213000Y-34117466D01*
X66244904Y-34149371D01*
X66340619Y-34213180D01*
X66468238Y-34245085D01*
X66723476Y-34245085D01*
X66787285Y-34213180D01*
X66819190Y-34181276D01*
X66851095Y-34117466D01*
X66851095Y-33989847D01*
X66819190Y-33926038D01*
X66787285Y-33894133D01*
X66723476Y-33862228D01*
X66563952Y-33862228D01*
X66500142Y-33894133D01*
X66468238Y-33926038D01*
X66436333Y-33989847D01*
X66436333Y-34117466D01*
X66468238Y-34181276D01*
X66500142Y-34213180D01*
X66563952Y-34245085D01*
D13*
X34366295Y-40447980D02*
X34937723Y-40447980D01*
X34652009Y-41447980D02*
X34652009Y-40447980D01*
X35175819Y-40447980D02*
X35842485Y-41447980D01*
X35842485Y-40447980D02*
X35175819Y-41447980D01*
D12*
X40211476Y-41498780D02*
X40211476Y-40498780D01*
X40544809Y-41213066D01*
X40878142Y-40498780D01*
X40878142Y-41498780D01*
X41544809Y-40498780D02*
X41640047Y-40498780D01*
X41735285Y-40546400D01*
X41782904Y-40594019D01*
X41830523Y-40689257D01*
X41878142Y-40879733D01*
X41878142Y-41117828D01*
X41830523Y-41308304D01*
X41782904Y-41403542D01*
X41735285Y-41451161D01*
X41640047Y-41498780D01*
X41544809Y-41498780D01*
X41449571Y-41451161D01*
X41401952Y-41403542D01*
X41354333Y-41308304D01*
X41306714Y-41117828D01*
X41306714Y-40879733D01*
X41354333Y-40689257D01*
X41401952Y-40594019D01*
X41449571Y-40546400D01*
X41544809Y-40498780D01*
D10*
X28893276Y-50112495D02*
X28893276Y-49442495D01*
X29052800Y-49442495D01*
X29148514Y-49474400D01*
X29212323Y-49538209D01*
X29244228Y-49602019D01*
X29276133Y-49729638D01*
X29276133Y-49825352D01*
X29244228Y-49952971D01*
X29212323Y-50016780D01*
X29148514Y-50080590D01*
X29052800Y-50112495D01*
X28893276Y-50112495D01*
X29531371Y-49506304D02*
X29563276Y-49474400D01*
X29627085Y-49442495D01*
X29786609Y-49442495D01*
X29850419Y-49474400D01*
X29882323Y-49506304D01*
X29914228Y-49570114D01*
X29914228Y-49633923D01*
X29882323Y-49729638D01*
X29499466Y-50112495D01*
X29914228Y-50112495D01*
X66181095Y-22377552D02*
X66851095Y-22154219D01*
X66181095Y-21930885D01*
X66851095Y-21707552D02*
X66404428Y-21707552D01*
X66181095Y-21707552D02*
X66213000Y-21739457D01*
X66244904Y-21707552D01*
X66213000Y-21675647D01*
X66181095Y-21707552D01*
X66244904Y-21707552D01*
X66404428Y-21388504D02*
X66851095Y-21388504D01*
X66468238Y-21388504D02*
X66436333Y-21356600D01*
X66404428Y-21292790D01*
X66404428Y-21197076D01*
X66436333Y-21133266D01*
X66500142Y-21101361D01*
X66851095Y-21101361D01*
X37168723Y-13984095D02*
X37551580Y-13984095D01*
X37360152Y-14654095D02*
X37360152Y-13984095D01*
X37711104Y-13984095D02*
X38157771Y-14654095D01*
X38157771Y-13984095D02*
X37711104Y-14654095D01*
X38891580Y-13952190D02*
X38317295Y-14813619D01*
X39114914Y-14654095D02*
X39114914Y-13984095D01*
X39274438Y-13984095D01*
X39370152Y-14016000D01*
X39433961Y-14079809D01*
X39465866Y-14143619D01*
X39497771Y-14271238D01*
X39497771Y-14366952D01*
X39465866Y-14494571D01*
X39433961Y-14558380D01*
X39370152Y-14622190D01*
X39274438Y-14654095D01*
X39114914Y-14654095D01*
X40135866Y-14654095D02*
X39753009Y-14654095D01*
X39944438Y-14654095D02*
X39944438Y-13984095D01*
X39880628Y-14079809D01*
X39816819Y-14143619D01*
X39753009Y-14175523D01*
X66851095Y-58471571D02*
X66181095Y-58471571D01*
X66181095Y-58312047D01*
X66213000Y-58216333D01*
X66276809Y-58152523D01*
X66340619Y-58120619D01*
X66468238Y-58088714D01*
X66563952Y-58088714D01*
X66691571Y-58120619D01*
X66755380Y-58152523D01*
X66819190Y-58216333D01*
X66851095Y-58312047D01*
X66851095Y-58471571D01*
X66851095Y-57450619D02*
X66851095Y-57833476D01*
X66851095Y-57642047D02*
X66181095Y-57642047D01*
X66276809Y-57705857D01*
X66340619Y-57769666D01*
X66372523Y-57833476D01*
X66181095Y-57227285D02*
X66181095Y-56812523D01*
X66436333Y-57035857D01*
X66436333Y-56940142D01*
X66468238Y-56876333D01*
X66500142Y-56844428D01*
X66563952Y-56812523D01*
X66723476Y-56812523D01*
X66787285Y-56844428D01*
X66819190Y-56876333D01*
X66851095Y-56940142D01*
X66851095Y-57131571D01*
X66819190Y-57195380D01*
X66787285Y-57227285D01*
X66659666Y-39721571D02*
X66659666Y-39402523D01*
X66851095Y-39785380D02*
X66181095Y-39562047D01*
X66851095Y-39338714D01*
X66404428Y-38828238D02*
X66851095Y-38828238D01*
X66149190Y-38987761D02*
X66627761Y-39147285D01*
X66627761Y-38732523D01*
X66181095Y-55896723D02*
X66181095Y-55481961D01*
X66436333Y-55705295D01*
X66436333Y-55609580D01*
X66468238Y-55545771D01*
X66500142Y-55513866D01*
X66563952Y-55481961D01*
X66723476Y-55481961D01*
X66787285Y-55513866D01*
X66819190Y-55545771D01*
X66851095Y-55609580D01*
X66851095Y-55801009D01*
X66819190Y-55864819D01*
X66787285Y-55896723D01*
X66181095Y-55290533D02*
X66851095Y-55067200D01*
X66181095Y-54843866D01*
X66181095Y-54684342D02*
X66181095Y-54269580D01*
X66436333Y-54492914D01*
X66436333Y-54397200D01*
X66468238Y-54333390D01*
X66500142Y-54301485D01*
X66563952Y-54269580D01*
X66723476Y-54269580D01*
X66787285Y-54301485D01*
X66819190Y-54333390D01*
X66851095Y-54397200D01*
X66851095Y-54588628D01*
X66819190Y-54652438D01*
X66787285Y-54684342D01*
D12*
X33506703Y-45331737D02*
X33123182Y-45264057D01*
X33235982Y-45602458D02*
X32762221Y-45128697D01*
X32942701Y-44948216D01*
X33010382Y-44925656D01*
X33055502Y-44925656D01*
X33123182Y-44948216D01*
X33190862Y-45015896D01*
X33213422Y-45083576D01*
X33213422Y-45128697D01*
X33190862Y-45196377D01*
X33010382Y-45376857D01*
X33957905Y-44880536D02*
X33687184Y-45151257D01*
X33822544Y-45015896D02*
X33348783Y-44542135D01*
X33371343Y-44654935D01*
X33371343Y-44745175D01*
X33348783Y-44812856D01*
X33890224Y-44000693D02*
X33799984Y-44090933D01*
X33777424Y-44158613D01*
X33777424Y-44203734D01*
X33799984Y-44316534D01*
X33867664Y-44429334D01*
X34048145Y-44609815D01*
X34115825Y-44632375D01*
X34160945Y-44632375D01*
X34228626Y-44609815D01*
X34318866Y-44519575D01*
X34341426Y-44451894D01*
X34341426Y-44406774D01*
X34318866Y-44339094D01*
X34206065Y-44226294D01*
X34138385Y-44203734D01*
X34093265Y-44203734D01*
X34025585Y-44226294D01*
X33935345Y-44316534D01*
X33912785Y-44384214D01*
X33912785Y-44429334D01*
X33935345Y-44497014D01*
X41667359Y-43597281D02*
X41283838Y-43529601D01*
X41396638Y-43868002D02*
X40922877Y-43394241D01*
X41103357Y-43213760D01*
X41171038Y-43191200D01*
X41216158Y-43191200D01*
X41283838Y-43213760D01*
X41351518Y-43281440D01*
X41374078Y-43349120D01*
X41374078Y-43394241D01*
X41351518Y-43461921D01*
X41171038Y-43642401D01*
X42118561Y-43146080D02*
X41847840Y-43416801D01*
X41983200Y-43281440D02*
X41509439Y-42807679D01*
X41531999Y-42920479D01*
X41531999Y-43010719D01*
X41509439Y-43078400D01*
X42118561Y-42604638D02*
X42050880Y-42627198D01*
X42005760Y-42627198D01*
X41938080Y-42604638D01*
X41915520Y-42582078D01*
X41892960Y-42514398D01*
X41892960Y-42469278D01*
X41915520Y-42401597D01*
X42005760Y-42311357D01*
X42073441Y-42288797D01*
X42118561Y-42288797D01*
X42186241Y-42311357D01*
X42208801Y-42333917D01*
X42231361Y-42401597D01*
X42231361Y-42446717D01*
X42208801Y-42514398D01*
X42118561Y-42604638D01*
X42096001Y-42672318D01*
X42096001Y-42717438D01*
X42118561Y-42785119D01*
X42208801Y-42875359D01*
X42276481Y-42897919D01*
X42321601Y-42897919D01*
X42389282Y-42875359D01*
X42479522Y-42785119D01*
X42502082Y-42717438D01*
X42502082Y-42672318D01*
X42479522Y-42604638D01*
X42389282Y-42514398D01*
X42321601Y-42491838D01*
X42276481Y-42491838D01*
X42208801Y-42514398D01*
X38205703Y-43883937D02*
X37822182Y-43816257D01*
X37934982Y-44154658D02*
X37461221Y-43680897D01*
X37641701Y-43500416D01*
X37709382Y-43477856D01*
X37754502Y-43477856D01*
X37822182Y-43500416D01*
X37889862Y-43568096D01*
X37912422Y-43635776D01*
X37912422Y-43680897D01*
X37889862Y-43748577D01*
X37709382Y-43929057D01*
X38656905Y-43432736D02*
X38386184Y-43703457D01*
X38521544Y-43568096D02*
X38047783Y-43094335D01*
X38070343Y-43207135D01*
X38070343Y-43297375D01*
X38047783Y-43365056D01*
X38341064Y-42801054D02*
X38656905Y-42485213D01*
X38927626Y-43162015D01*
X20816640Y-34944560D02*
X20816640Y-34989680D01*
X20771520Y-35079921D01*
X20726400Y-35125041D01*
X20636159Y-35170161D01*
X20545919Y-35170161D01*
X20478239Y-35147601D01*
X20365438Y-35079921D01*
X20297758Y-35012241D01*
X20230078Y-34899440D01*
X20207518Y-34831760D01*
X20207518Y-34741520D01*
X20252638Y-34651279D01*
X20297758Y-34606159D01*
X20387998Y-34561039D01*
X20433119Y-34561039D01*
X21312961Y-34538479D02*
X21042241Y-34809200D01*
X21177601Y-34673839D02*
X20703839Y-34200078D01*
X20726400Y-34312878D01*
X20726399Y-34403119D01*
X20703839Y-34470799D01*
X40729676Y-20673895D02*
X40729676Y-20003895D01*
X40889200Y-20003895D01*
X40984914Y-20035800D01*
X41048723Y-20099609D01*
X41080628Y-20163419D01*
X41112533Y-20291038D01*
X41112533Y-20386752D01*
X41080628Y-20514371D01*
X41048723Y-20578180D01*
X40984914Y-20641990D01*
X40889200Y-20673895D01*
X40729676Y-20673895D01*
X41750628Y-20673895D02*
X41367771Y-20673895D01*
X41559200Y-20673895D02*
X41559200Y-20003895D01*
X41495390Y-20099609D01*
X41431580Y-20163419D01*
X41367771Y-20195323D01*
X32654333Y-54684495D02*
X32431000Y-54365447D01*
X32271476Y-54684495D02*
X32271476Y-54014495D01*
X32526714Y-54014495D01*
X32590523Y-54046400D01*
X32622428Y-54078304D01*
X32654333Y-54142114D01*
X32654333Y-54237828D01*
X32622428Y-54301638D01*
X32590523Y-54333542D01*
X32526714Y-54365447D01*
X32271476Y-54365447D01*
X33292428Y-54684495D02*
X32909571Y-54684495D01*
X33101000Y-54684495D02*
X33101000Y-54014495D01*
X33037190Y-54110209D01*
X32973380Y-54174019D01*
X32909571Y-54205923D01*
X32129295Y-29335914D02*
X31810247Y-29559247D01*
X32129295Y-29718771D02*
X31459295Y-29718771D01*
X31459295Y-29463533D01*
X31491200Y-29399723D01*
X31523104Y-29367819D01*
X31586914Y-29335914D01*
X31682628Y-29335914D01*
X31746438Y-29367819D01*
X31778342Y-29399723D01*
X31810247Y-29463533D01*
X31810247Y-29718771D01*
X32129295Y-28697819D02*
X32129295Y-29080676D01*
X32129295Y-28889247D02*
X31459295Y-28889247D01*
X31555009Y-28953057D01*
X31618819Y-29016866D01*
X31650723Y-29080676D01*
X31459295Y-28283057D02*
X31459295Y-28219247D01*
X31491200Y-28155438D01*
X31523104Y-28123533D01*
X31586914Y-28091628D01*
X31714533Y-28059723D01*
X31874057Y-28059723D01*
X32001676Y-28091628D01*
X32065485Y-28123533D01*
X32097390Y-28155438D01*
X32129295Y-28219247D01*
X32129295Y-28283057D01*
X32097390Y-28346866D01*
X32065485Y-28378771D01*
X32001676Y-28410676D01*
X31874057Y-28442580D01*
X31714533Y-28442580D01*
X31586914Y-28410676D01*
X31523104Y-28378771D01*
X31491200Y-28346866D01*
X31459295Y-28283057D01*
X36323085Y-56716495D02*
X36099752Y-56397447D01*
X35940228Y-56716495D02*
X35940228Y-56046495D01*
X36195466Y-56046495D01*
X36259276Y-56078400D01*
X36291180Y-56110304D01*
X36323085Y-56174114D01*
X36323085Y-56269828D01*
X36291180Y-56333638D01*
X36259276Y-56365542D01*
X36195466Y-56397447D01*
X35940228Y-56397447D01*
X36961180Y-56716495D02*
X36578323Y-56716495D01*
X36769752Y-56716495D02*
X36769752Y-56046495D01*
X36705942Y-56142209D01*
X36642133Y-56206019D01*
X36578323Y-56237923D01*
X37599276Y-56716495D02*
X37216419Y-56716495D01*
X37407847Y-56716495D02*
X37407847Y-56046495D01*
X37344038Y-56142209D01*
X37280228Y-56206019D01*
X37216419Y-56237923D01*
X40247076Y-35710695D02*
X40247076Y-35040695D01*
X40406600Y-35040695D01*
X40502314Y-35072600D01*
X40566123Y-35136409D01*
X40598028Y-35200219D01*
X40629933Y-35327838D01*
X40629933Y-35423552D01*
X40598028Y-35551171D01*
X40566123Y-35614980D01*
X40502314Y-35678790D01*
X40406600Y-35710695D01*
X40247076Y-35710695D01*
X40948980Y-35710695D02*
X41076600Y-35710695D01*
X41140409Y-35678790D01*
X41172314Y-35646885D01*
X41236123Y-35551171D01*
X41268028Y-35423552D01*
X41268028Y-35168314D01*
X41236123Y-35104504D01*
X41204219Y-35072600D01*
X41140409Y-35040695D01*
X41012790Y-35040695D01*
X40948980Y-35072600D01*
X40917076Y-35104504D01*
X40885171Y-35168314D01*
X40885171Y-35327838D01*
X40917076Y-35391647D01*
X40948980Y-35423552D01*
X41012790Y-35455457D01*
X41140409Y-35455457D01*
X41204219Y-35423552D01*
X41236123Y-35391647D01*
X41268028Y-35327838D01*
X35253495Y-64527923D02*
X34583495Y-64527923D01*
X34583495Y-64368400D01*
X34615400Y-64272685D01*
X34679209Y-64208876D01*
X34743019Y-64176971D01*
X34870638Y-64145066D01*
X34966352Y-64145066D01*
X35093971Y-64176971D01*
X35157780Y-64208876D01*
X35221590Y-64272685D01*
X35253495Y-64368400D01*
X35253495Y-64527923D01*
X34583495Y-63921733D02*
X34583495Y-63506971D01*
X34838733Y-63730304D01*
X34838733Y-63634590D01*
X34870638Y-63570780D01*
X34902542Y-63538876D01*
X34966352Y-63506971D01*
X35125876Y-63506971D01*
X35189685Y-63538876D01*
X35221590Y-63570780D01*
X35253495Y-63634590D01*
X35253495Y-63826019D01*
X35221590Y-63889828D01*
X35189685Y-63921733D01*
X38761485Y-56665695D02*
X38538152Y-56346647D01*
X38378628Y-56665695D02*
X38378628Y-55995695D01*
X38633866Y-55995695D01*
X38697676Y-56027600D01*
X38729580Y-56059504D01*
X38761485Y-56123314D01*
X38761485Y-56219028D01*
X38729580Y-56282838D01*
X38697676Y-56314742D01*
X38633866Y-56346647D01*
X38378628Y-56346647D01*
X39399580Y-56665695D02*
X39016723Y-56665695D01*
X39208152Y-56665695D02*
X39208152Y-55995695D01*
X39144342Y-56091409D01*
X39080533Y-56155219D01*
X39016723Y-56187123D01*
X39622914Y-55995695D02*
X40037676Y-55995695D01*
X39814342Y-56250933D01*
X39910057Y-56250933D01*
X39973866Y-56282838D01*
X40005771Y-56314742D01*
X40037676Y-56378552D01*
X40037676Y-56538076D01*
X40005771Y-56601885D01*
X39973866Y-56633790D01*
X39910057Y-56665695D01*
X39718628Y-56665695D01*
X39654819Y-56633790D01*
X39622914Y-56601885D01*
X25618533Y-43089085D02*
X25586628Y-43120990D01*
X25490914Y-43152895D01*
X25427104Y-43152895D01*
X25331390Y-43120990D01*
X25267580Y-43057180D01*
X25235676Y-42993371D01*
X25203771Y-42865752D01*
X25203771Y-42770038D01*
X25235676Y-42642419D01*
X25267580Y-42578609D01*
X25331390Y-42514800D01*
X25427104Y-42482895D01*
X25490914Y-42482895D01*
X25586628Y-42514800D01*
X25618533Y-42546704D01*
X25873771Y-42546704D02*
X25905676Y-42514800D01*
X25969485Y-42482895D01*
X26129009Y-42482895D01*
X26192819Y-42514800D01*
X26224723Y-42546704D01*
X26256628Y-42610514D01*
X26256628Y-42674323D01*
X26224723Y-42770038D01*
X25841866Y-43152895D01*
X26256628Y-43152895D01*
X23205533Y-51103095D02*
X22982200Y-50784047D01*
X22822676Y-51103095D02*
X22822676Y-50433095D01*
X23077914Y-50433095D01*
X23141723Y-50465000D01*
X23173628Y-50496904D01*
X23205533Y-50560714D01*
X23205533Y-50656428D01*
X23173628Y-50720238D01*
X23141723Y-50752142D01*
X23077914Y-50784047D01*
X22822676Y-50784047D01*
X23779819Y-50433095D02*
X23652200Y-50433095D01*
X23588390Y-50465000D01*
X23556485Y-50496904D01*
X23492676Y-50592619D01*
X23460771Y-50720238D01*
X23460771Y-50975476D01*
X23492676Y-51039285D01*
X23524580Y-51071190D01*
X23588390Y-51103095D01*
X23716009Y-51103095D01*
X23779819Y-51071190D01*
X23811723Y-51039285D01*
X23843628Y-50975476D01*
X23843628Y-50815952D01*
X23811723Y-50752142D01*
X23779819Y-50720238D01*
X23716009Y-50688333D01*
X23588390Y-50688333D01*
X23524580Y-50720238D01*
X23492676Y-50752142D01*
X23460771Y-50815952D01*
X29716295Y-29270866D02*
X29397247Y-29494200D01*
X29716295Y-29653723D02*
X29046295Y-29653723D01*
X29046295Y-29398485D01*
X29078200Y-29334676D01*
X29110104Y-29302771D01*
X29173914Y-29270866D01*
X29269628Y-29270866D01*
X29333438Y-29302771D01*
X29365342Y-29334676D01*
X29397247Y-29398485D01*
X29397247Y-29653723D01*
X29333438Y-28888009D02*
X29301533Y-28951819D01*
X29269628Y-28983723D01*
X29205819Y-29015628D01*
X29173914Y-29015628D01*
X29110104Y-28983723D01*
X29078200Y-28951819D01*
X29046295Y-28888009D01*
X29046295Y-28760390D01*
X29078200Y-28696580D01*
X29110104Y-28664676D01*
X29173914Y-28632771D01*
X29205819Y-28632771D01*
X29269628Y-28664676D01*
X29301533Y-28696580D01*
X29333438Y-28760390D01*
X29333438Y-28888009D01*
X29365342Y-28951819D01*
X29397247Y-28983723D01*
X29461057Y-29015628D01*
X29588676Y-29015628D01*
X29652485Y-28983723D01*
X29684390Y-28951819D01*
X29716295Y-28888009D01*
X29716295Y-28760390D01*
X29684390Y-28696580D01*
X29652485Y-28664676D01*
X29588676Y-28632771D01*
X29461057Y-28632771D01*
X29397247Y-28664676D01*
X29365342Y-28696580D01*
X29333438Y-28760390D01*
X37228695Y-29361314D02*
X36909647Y-29584647D01*
X37228695Y-29744171D02*
X36558695Y-29744171D01*
X36558695Y-29488933D01*
X36590600Y-29425123D01*
X36622504Y-29393219D01*
X36686314Y-29361314D01*
X36782028Y-29361314D01*
X36845838Y-29393219D01*
X36877742Y-29425123D01*
X36909647Y-29488933D01*
X36909647Y-29744171D01*
X37228695Y-28723219D02*
X37228695Y-29106076D01*
X37228695Y-28914647D02*
X36558695Y-28914647D01*
X36654409Y-28978457D01*
X36718219Y-29042266D01*
X36750123Y-29106076D01*
X36782028Y-28148933D02*
X37228695Y-28148933D01*
X36526790Y-28308457D02*
X37005361Y-28467980D01*
X37005361Y-28053219D01*
X42187695Y-31937866D02*
X41868647Y-32161200D01*
X42187695Y-32320723D02*
X41517695Y-32320723D01*
X41517695Y-32065485D01*
X41549600Y-32001676D01*
X41581504Y-31969771D01*
X41645314Y-31937866D01*
X41741028Y-31937866D01*
X41804838Y-31969771D01*
X41836742Y-32001676D01*
X41868647Y-32065485D01*
X41868647Y-32320723D01*
X41517695Y-31714533D02*
X41517695Y-31267866D01*
X42187695Y-31555009D01*
X35228095Y-61581523D02*
X34558095Y-61581523D01*
X34558095Y-61422000D01*
X34590000Y-61326285D01*
X34653809Y-61262476D01*
X34717619Y-61230571D01*
X34845238Y-61198666D01*
X34940952Y-61198666D01*
X35068571Y-61230571D01*
X35132380Y-61262476D01*
X35196190Y-61326285D01*
X35228095Y-61422000D01*
X35228095Y-61581523D01*
X34558095Y-60975333D02*
X34558095Y-60528666D01*
X35228095Y-60815809D01*
X25923333Y-57656295D02*
X25700000Y-57337247D01*
X25540476Y-57656295D02*
X25540476Y-56986295D01*
X25795714Y-56986295D01*
X25859523Y-57018200D01*
X25891428Y-57050104D01*
X25923333Y-57113914D01*
X25923333Y-57209628D01*
X25891428Y-57273438D01*
X25859523Y-57305342D01*
X25795714Y-57337247D01*
X25540476Y-57337247D01*
X26529523Y-56986295D02*
X26210476Y-56986295D01*
X26178571Y-57305342D01*
X26210476Y-57273438D01*
X26274285Y-57241533D01*
X26433809Y-57241533D01*
X26497619Y-57273438D01*
X26529523Y-57305342D01*
X26561428Y-57369152D01*
X26561428Y-57528676D01*
X26529523Y-57592485D01*
X26497619Y-57624390D01*
X26433809Y-57656295D01*
X26274285Y-57656295D01*
X26210476Y-57624390D01*
X26178571Y-57592485D01*
X28776495Y-58480866D02*
X28457447Y-58704200D01*
X28776495Y-58863723D02*
X28106495Y-58863723D01*
X28106495Y-58608485D01*
X28138400Y-58544676D01*
X28170304Y-58512771D01*
X28234114Y-58480866D01*
X28329828Y-58480866D01*
X28393638Y-58512771D01*
X28425542Y-58544676D01*
X28457447Y-58608485D01*
X28457447Y-58863723D01*
X28106495Y-58257533D02*
X28106495Y-57842771D01*
X28361733Y-58066104D01*
X28361733Y-57970390D01*
X28393638Y-57906580D01*
X28425542Y-57874676D01*
X28489352Y-57842771D01*
X28648876Y-57842771D01*
X28712685Y-57874676D01*
X28744590Y-57906580D01*
X28776495Y-57970390D01*
X28776495Y-58161819D01*
X28744590Y-58225628D01*
X28712685Y-58257533D01*
X53074866Y-44068380D02*
X53074866Y-43592190D01*
X53360580Y-44163619D02*
X52360580Y-43830285D01*
X53360580Y-43496952D01*
X53360580Y-43163619D02*
X52693914Y-43163619D01*
X52884390Y-43163619D02*
X52789152Y-43116000D01*
X52741533Y-43068380D01*
X52693914Y-42973142D01*
X52693914Y-42877904D01*
X53360580Y-42116000D02*
X52360580Y-42116000D01*
X53312961Y-42116000D02*
X53360580Y-42211238D01*
X53360580Y-42401714D01*
X53312961Y-42496952D01*
X53265342Y-42544571D01*
X53170104Y-42592190D01*
X52884390Y-42592190D01*
X52789152Y-42544571D01*
X52741533Y-42496952D01*
X52693914Y-42401714D01*
X52693914Y-42211238D01*
X52741533Y-42116000D01*
X52693914Y-41211238D02*
X53360580Y-41211238D01*
X52693914Y-41639809D02*
X53217723Y-41639809D01*
X53312961Y-41592190D01*
X53360580Y-41496952D01*
X53360580Y-41354095D01*
X53312961Y-41258857D01*
X53265342Y-41211238D01*
X53360580Y-40735047D02*
X52693914Y-40735047D01*
X52360580Y-40735047D02*
X52408200Y-40782666D01*
X52455819Y-40735047D01*
X52408200Y-40687428D01*
X52360580Y-40735047D01*
X52455819Y-40735047D01*
X52693914Y-40258857D02*
X53360580Y-40258857D01*
X52789152Y-40258857D02*
X52741533Y-40211238D01*
X52693914Y-40116000D01*
X52693914Y-39973142D01*
X52741533Y-39877904D01*
X52836771Y-39830285D01*
X53360580Y-39830285D01*
X53360580Y-39211238D02*
X53312961Y-39306476D01*
X53265342Y-39354095D01*
X53170104Y-39401714D01*
X52884390Y-39401714D01*
X52789152Y-39354095D01*
X52741533Y-39306476D01*
X52693914Y-39211238D01*
X52693914Y-39068380D01*
X52741533Y-38973142D01*
X52789152Y-38925523D01*
X52884390Y-38877904D01*
X53170104Y-38877904D01*
X53265342Y-38925523D01*
X53312961Y-38973142D01*
X53360580Y-39068380D01*
X53360580Y-39211238D01*
X53360580Y-38449333D02*
X52360580Y-38449333D01*
X53360580Y-37877904D01*
X52360580Y-37877904D01*
X53360580Y-36973142D02*
X52836771Y-36973142D01*
X52741533Y-37020761D01*
X52693914Y-37116000D01*
X52693914Y-37306476D01*
X52741533Y-37401714D01*
X53312961Y-36973142D02*
X53360580Y-37068380D01*
X53360580Y-37306476D01*
X53312961Y-37401714D01*
X53217723Y-37449333D01*
X53122485Y-37449333D01*
X53027247Y-37401714D01*
X52979628Y-37306476D01*
X52979628Y-37068380D01*
X52932009Y-36973142D01*
X52693914Y-36496952D02*
X53360580Y-36496952D01*
X52789152Y-36496952D02*
X52741533Y-36449333D01*
X52693914Y-36354095D01*
X52693914Y-36211238D01*
X52741533Y-36116000D01*
X52836771Y-36068380D01*
X53360580Y-36068380D01*
X53360580Y-35449333D02*
X53312961Y-35544571D01*
X53265342Y-35592190D01*
X53170104Y-35639809D01*
X52884390Y-35639809D01*
X52789152Y-35592190D01*
X52741533Y-35544571D01*
X52693914Y-35449333D01*
X52693914Y-35306476D01*
X52741533Y-35211238D01*
X52789152Y-35163619D01*
X52884390Y-35116000D01*
X53170104Y-35116000D01*
X53265342Y-35163619D01*
X53312961Y-35211238D01*
X53360580Y-35306476D01*
X53360580Y-35449333D01*
X53360580Y-34163619D02*
X53360580Y-34735047D01*
X53360580Y-34449333D02*
X52360580Y-34449333D01*
X52503438Y-34544571D01*
X52598676Y-34639809D01*
X52646295Y-34735047D01*
X51707095Y-56627780D02*
X51707095Y-57437304D01*
X51754714Y-57532542D01*
X51802333Y-57580161D01*
X51897571Y-57627780D01*
X52088047Y-57627780D01*
X52183285Y-57580161D01*
X52230904Y-57532542D01*
X52278523Y-57437304D01*
X52278523Y-56627780D01*
X52707095Y-57580161D02*
X52849952Y-57627780D01*
X53088047Y-57627780D01*
X53183285Y-57580161D01*
X53230904Y-57532542D01*
X53278523Y-57437304D01*
X53278523Y-57342066D01*
X53230904Y-57246828D01*
X53183285Y-57199209D01*
X53088047Y-57151590D01*
X52897571Y-57103971D01*
X52802333Y-57056352D01*
X52754714Y-57008733D01*
X52707095Y-56913495D01*
X52707095Y-56818257D01*
X52754714Y-56723019D01*
X52802333Y-56675400D01*
X52897571Y-56627780D01*
X53135666Y-56627780D01*
X53278523Y-56675400D01*
X54040428Y-57103971D02*
X54183285Y-57151590D01*
X54230904Y-57199209D01*
X54278523Y-57294447D01*
X54278523Y-57437304D01*
X54230904Y-57532542D01*
X54183285Y-57580161D01*
X54088047Y-57627780D01*
X53707095Y-57627780D01*
X53707095Y-56627780D01*
X54040428Y-56627780D01*
X54135666Y-56675400D01*
X54183285Y-56723019D01*
X54230904Y-56818257D01*
X54230904Y-56913495D01*
X54183285Y-57008733D01*
X54135666Y-57056352D01*
X54040428Y-57103971D01*
X53707095Y-57103971D01*
X34720095Y-29285114D02*
X34401047Y-29508447D01*
X34720095Y-29667971D02*
X34050095Y-29667971D01*
X34050095Y-29412733D01*
X34082000Y-29348923D01*
X34113904Y-29317019D01*
X34177714Y-29285114D01*
X34273428Y-29285114D01*
X34337238Y-29317019D01*
X34369142Y-29348923D01*
X34401047Y-29412733D01*
X34401047Y-29667971D01*
X34720095Y-28647019D02*
X34720095Y-29029876D01*
X34720095Y-28838447D02*
X34050095Y-28838447D01*
X34145809Y-28902257D01*
X34209619Y-28966066D01*
X34241523Y-29029876D01*
X34113904Y-28391780D02*
X34082000Y-28359876D01*
X34050095Y-28296066D01*
X34050095Y-28136542D01*
X34082000Y-28072733D01*
X34113904Y-28040828D01*
X34177714Y-28008923D01*
X34241523Y-28008923D01*
X34337238Y-28040828D01*
X34720095Y-28423685D01*
X34720095Y-28008923D01*
X39717895Y-29310514D02*
X39398847Y-29533847D01*
X39717895Y-29693371D02*
X39047895Y-29693371D01*
X39047895Y-29438133D01*
X39079800Y-29374323D01*
X39111704Y-29342419D01*
X39175514Y-29310514D01*
X39271228Y-29310514D01*
X39335038Y-29342419D01*
X39366942Y-29374323D01*
X39398847Y-29438133D01*
X39398847Y-29693371D01*
X39717895Y-28672419D02*
X39717895Y-29055276D01*
X39717895Y-28863847D02*
X39047895Y-28863847D01*
X39143609Y-28927657D01*
X39207419Y-28991466D01*
X39239323Y-29055276D01*
X39047895Y-28066228D02*
X39047895Y-28385276D01*
X39366942Y-28417180D01*
X39335038Y-28385276D01*
X39303133Y-28321466D01*
X39303133Y-28161942D01*
X39335038Y-28098133D01*
X39366942Y-28066228D01*
X39430752Y-28034323D01*
X39590276Y-28034323D01*
X39654085Y-28066228D01*
X39685990Y-28098133D01*
X39717895Y-28161942D01*
X39717895Y-28321466D01*
X39685990Y-28385276D01*
X39654085Y-28417180D01*
X23256333Y-65225495D02*
X23033000Y-64906447D01*
X22873476Y-65225495D02*
X22873476Y-64555495D01*
X23128714Y-64555495D01*
X23192523Y-64587400D01*
X23224428Y-64619304D01*
X23256333Y-64683114D01*
X23256333Y-64778828D01*
X23224428Y-64842638D01*
X23192523Y-64874542D01*
X23128714Y-64906447D01*
X22873476Y-64906447D01*
X23511571Y-64619304D02*
X23543476Y-64587400D01*
X23607285Y-64555495D01*
X23766809Y-64555495D01*
X23830619Y-64587400D01*
X23862523Y-64619304D01*
X23894428Y-64683114D01*
X23894428Y-64746923D01*
X23862523Y-64842638D01*
X23479666Y-65225495D01*
X23894428Y-65225495D01*
X37402276Y-35685295D02*
X37402276Y-35015295D01*
X37561800Y-35015295D01*
X37657514Y-35047200D01*
X37721323Y-35111009D01*
X37753228Y-35174819D01*
X37785133Y-35302438D01*
X37785133Y-35398152D01*
X37753228Y-35525771D01*
X37721323Y-35589580D01*
X37657514Y-35653390D01*
X37561800Y-35685295D01*
X37402276Y-35685295D01*
X38167990Y-35302438D02*
X38104180Y-35270533D01*
X38072276Y-35238628D01*
X38040371Y-35174819D01*
X38040371Y-35142914D01*
X38072276Y-35079104D01*
X38104180Y-35047200D01*
X38167990Y-35015295D01*
X38295609Y-35015295D01*
X38359419Y-35047200D01*
X38391323Y-35079104D01*
X38423228Y-35142914D01*
X38423228Y-35174819D01*
X38391323Y-35238628D01*
X38359419Y-35270533D01*
X38295609Y-35302438D01*
X38167990Y-35302438D01*
X38104180Y-35334342D01*
X38072276Y-35366247D01*
X38040371Y-35430057D01*
X38040371Y-35557676D01*
X38072276Y-35621485D01*
X38104180Y-35653390D01*
X38167990Y-35685295D01*
X38295609Y-35685295D01*
X38359419Y-35653390D01*
X38391323Y-35621485D01*
X38423228Y-35557676D01*
X38423228Y-35430057D01*
X38391323Y-35366247D01*
X38359419Y-35334342D01*
X38295609Y-35302438D01*
X41544333Y-56564095D02*
X41321000Y-56245047D01*
X41161476Y-56564095D02*
X41161476Y-55894095D01*
X41416714Y-55894095D01*
X41480523Y-55926000D01*
X41512428Y-55957904D01*
X41544333Y-56021714D01*
X41544333Y-56117428D01*
X41512428Y-56181238D01*
X41480523Y-56213142D01*
X41416714Y-56245047D01*
X41161476Y-56245047D01*
X41863380Y-56564095D02*
X41991000Y-56564095D01*
X42054809Y-56532190D01*
X42086714Y-56500285D01*
X42150523Y-56404571D01*
X42182428Y-56276952D01*
X42182428Y-56021714D01*
X42150523Y-55957904D01*
X42118619Y-55926000D01*
X42054809Y-55894095D01*
X41927190Y-55894095D01*
X41863380Y-55926000D01*
X41831476Y-55957904D01*
X41799571Y-56021714D01*
X41799571Y-56181238D01*
X41831476Y-56245047D01*
X41863380Y-56276952D01*
X41927190Y-56308857D01*
X42054809Y-56308857D01*
X42118619Y-56276952D01*
X42150523Y-56245047D01*
X42182428Y-56181238D01*
X34557476Y-35710695D02*
X34557476Y-35040695D01*
X34717000Y-35040695D01*
X34812714Y-35072600D01*
X34876523Y-35136409D01*
X34908428Y-35200219D01*
X34940333Y-35327838D01*
X34940333Y-35423552D01*
X34908428Y-35551171D01*
X34876523Y-35614980D01*
X34812714Y-35678790D01*
X34717000Y-35710695D01*
X34557476Y-35710695D01*
X35514619Y-35040695D02*
X35387000Y-35040695D01*
X35323190Y-35072600D01*
X35291285Y-35104504D01*
X35227476Y-35200219D01*
X35195571Y-35327838D01*
X35195571Y-35583076D01*
X35227476Y-35646885D01*
X35259380Y-35678790D01*
X35323190Y-35710695D01*
X35450809Y-35710695D01*
X35514619Y-35678790D01*
X35546523Y-35646885D01*
X35578428Y-35583076D01*
X35578428Y-35423552D01*
X35546523Y-35359742D01*
X35514619Y-35327838D01*
X35450809Y-35295933D01*
X35323190Y-35295933D01*
X35259380Y-35327838D01*
X35227476Y-35359742D01*
X35195571Y-35423552D01*
X35278895Y-58558923D02*
X34608895Y-58558923D01*
X34608895Y-58399400D01*
X34640800Y-58303685D01*
X34704609Y-58239876D01*
X34768419Y-58207971D01*
X34896038Y-58176066D01*
X34991752Y-58176066D01*
X35119371Y-58207971D01*
X35183180Y-58239876D01*
X35246990Y-58303685D01*
X35278895Y-58399400D01*
X35278895Y-58558923D01*
X34608895Y-57569876D02*
X34608895Y-57888923D01*
X34927942Y-57920828D01*
X34896038Y-57888923D01*
X34864133Y-57825114D01*
X34864133Y-57665590D01*
X34896038Y-57601780D01*
X34927942Y-57569876D01*
X34991752Y-57537971D01*
X35151276Y-57537971D01*
X35215085Y-57569876D01*
X35246990Y-57601780D01*
X35278895Y-57665590D01*
X35278895Y-57825114D01*
X35246990Y-57888923D01*
X35215085Y-57920828D01*
X63589066Y-12578180D02*
X63255733Y-12101990D01*
X63017638Y-12578180D02*
X63017638Y-11578180D01*
X63398590Y-11578180D01*
X63493828Y-11625800D01*
X63541447Y-11673419D01*
X63589066Y-11768657D01*
X63589066Y-11911514D01*
X63541447Y-12006752D01*
X63493828Y-12054371D01*
X63398590Y-12101990D01*
X63017638Y-12101990D01*
X64017638Y-12054371D02*
X64350971Y-12054371D01*
X64493828Y-12578180D02*
X64017638Y-12578180D01*
X64017638Y-11578180D01*
X64493828Y-11578180D01*
X65255733Y-12054371D02*
X64922400Y-12054371D01*
X64922400Y-12578180D02*
X64922400Y-11578180D01*
X65398590Y-11578180D01*
X65922400Y-11578180D02*
X65922400Y-11816276D01*
X65684304Y-11721038D02*
X65922400Y-11816276D01*
X66160495Y-11721038D01*
X65779542Y-12006752D02*
X65922400Y-11816276D01*
X66065257Y-12006752D01*
X66684304Y-11578180D02*
X66684304Y-11816276D01*
X66446209Y-11721038D02*
X66684304Y-11816276D01*
X66922400Y-11721038D01*
X66541447Y-12006752D02*
X66684304Y-11816276D01*
X66827161Y-12006752D01*
X20953295Y-56575866D02*
X20634247Y-56799200D01*
X20953295Y-56958723D02*
X20283295Y-56958723D01*
X20283295Y-56703485D01*
X20315200Y-56639676D01*
X20347104Y-56607771D01*
X20410914Y-56575866D01*
X20506628Y-56575866D01*
X20570438Y-56607771D01*
X20602342Y-56639676D01*
X20634247Y-56703485D01*
X20634247Y-56958723D01*
X20506628Y-56001580D02*
X20953295Y-56001580D01*
X20251390Y-56161104D02*
X20729961Y-56320628D01*
X20729961Y-55905866D01*
X31661876Y-35685295D02*
X31661876Y-35015295D01*
X31821400Y-35015295D01*
X31917114Y-35047200D01*
X31980923Y-35111009D01*
X32012828Y-35174819D01*
X32044733Y-35302438D01*
X32044733Y-35398152D01*
X32012828Y-35525771D01*
X31980923Y-35589580D01*
X31917114Y-35653390D01*
X31821400Y-35685295D01*
X31661876Y-35685295D01*
X32619019Y-35238628D02*
X32619019Y-35685295D01*
X32459495Y-34983390D02*
X32299971Y-35461961D01*
X32714733Y-35461961D01*
X16217280Y-37618795D02*
X15898233Y-37618795D01*
X15866328Y-37937842D01*
X15898233Y-37905938D01*
X15962042Y-37874033D01*
X16121566Y-37874033D01*
X16185376Y-37905938D01*
X16217280Y-37937842D01*
X16249185Y-38001652D01*
X16249185Y-38161176D01*
X16217280Y-38224985D01*
X16185376Y-38256890D01*
X16121566Y-38288795D01*
X15962042Y-38288795D01*
X15898233Y-38256890D01*
X15866328Y-38224985D01*
X16440614Y-37618795D02*
X16663947Y-38288795D01*
X16887280Y-37618795D01*
X15847123Y-41867100D02*
X15783314Y-41835195D01*
X15687600Y-41835195D01*
X15591885Y-41867100D01*
X15528076Y-41930909D01*
X15496171Y-41994719D01*
X15464266Y-42122338D01*
X15464266Y-42218052D01*
X15496171Y-42345671D01*
X15528076Y-42409480D01*
X15591885Y-42473290D01*
X15687600Y-42505195D01*
X15751409Y-42505195D01*
X15847123Y-42473290D01*
X15879028Y-42441385D01*
X15879028Y-42218052D01*
X15751409Y-42218052D01*
X16166171Y-42505195D02*
X16166171Y-41835195D01*
X16549028Y-42505195D01*
X16549028Y-41835195D01*
X16868076Y-42505195D02*
X16868076Y-41835195D01*
X17027600Y-41835195D01*
X17123314Y-41867100D01*
X17187123Y-41930909D01*
X17219028Y-41994719D01*
X17250933Y-42122338D01*
X17250933Y-42218052D01*
X17219028Y-42345671D01*
X17187123Y-42409480D01*
X17123314Y-42473290D01*
X17027600Y-42505195D01*
X16868076Y-42505195D01*
X16172676Y-46326966D02*
X16491723Y-46326966D01*
X16108866Y-46518395D02*
X16332200Y-45848395D01*
X16555533Y-46518395D01*
X16380057Y-50333042D02*
X16475771Y-50364947D01*
X16507676Y-50396852D01*
X16539580Y-50460661D01*
X16539580Y-50556376D01*
X16507676Y-50620185D01*
X16475771Y-50652090D01*
X16411961Y-50683995D01*
X16156723Y-50683995D01*
X16156723Y-50013995D01*
X16380057Y-50013995D01*
X16443866Y-50045900D01*
X16475771Y-50077804D01*
X16507676Y-50141614D01*
X16507676Y-50205423D01*
X16475771Y-50269233D01*
X16443866Y-50301138D01*
X16380057Y-50333042D01*
X16156723Y-50333042D01*
X28715476Y-35634495D02*
X28715476Y-34964495D01*
X28875000Y-34964495D01*
X28970714Y-34996400D01*
X29034523Y-35060209D01*
X29066428Y-35124019D01*
X29098333Y-35251638D01*
X29098333Y-35347352D01*
X29066428Y-35474971D01*
X29034523Y-35538780D01*
X28970714Y-35602590D01*
X28875000Y-35634495D01*
X28715476Y-35634495D01*
X29353571Y-35028304D02*
X29385476Y-34996400D01*
X29449285Y-34964495D01*
X29608809Y-34964495D01*
X29672619Y-34996400D01*
X29704523Y-35028304D01*
X29736428Y-35092114D01*
X29736428Y-35155923D01*
X29704523Y-35251638D01*
X29321666Y-35634495D01*
X29736428Y-35634495D01*
D15*
X36793779Y-45036555D02*
X35765555Y-46064779D01*
X35506845Y-43749621D02*
X34478621Y-44777845D01*
X42864379Y-45265155D02*
X41836155Y-46293379D01*
X41577445Y-43978221D02*
X40549221Y-45006445D01*
X39790979Y-45112755D02*
X38762755Y-46140979D01*
X38504045Y-43825821D02*
X37475821Y-44854045D01*
X25875900Y-33738700D02*
X25875900Y-34526200D01*
X27438400Y-35830637D02*
X27438400Y-41586200D01*
X26373963Y-34766200D02*
X27438400Y-35830637D01*
X21682837Y-34766200D02*
X22968400Y-34766200D01*
X20618400Y-35830637D02*
X20618400Y-41586200D01*
X26269650Y-34132450D02*
X25482150Y-34132450D01*
X20618400Y-41586200D02*
X22968400Y-41586200D01*
X26373963Y-34766200D02*
X25088400Y-34766200D01*
X27438400Y-41586200D02*
X25088400Y-41586200D01*
X21682837Y-34766200D02*
X20618400Y-35830637D01*
X63169800Y-53619400D02*
X65709800Y-53619400D01*
X65709800Y-53619400D02*
X65709800Y-56159400D01*
X65709800Y-56159400D02*
X63169800Y-56159400D01*
X63169800Y-56159400D02*
X63169800Y-53619400D01*
G36*
X32176916Y-41743361D02*
G01*
X32222012Y-41744961D01*
X32265314Y-41747688D01*
X32268552Y-41747945D01*
X32339526Y-41755214D01*
X32409736Y-41765501D01*
X32479115Y-41778779D01*
X32547594Y-41795018D01*
X32615106Y-41814189D01*
X32681581Y-41836266D01*
X32746952Y-41861218D01*
X32811150Y-41889017D01*
X32874108Y-41919636D01*
X32935757Y-41953045D01*
X32996028Y-41989216D01*
X33054854Y-42028120D01*
X33112167Y-42069729D01*
X33167897Y-42114015D01*
X33190484Y-42133120D01*
X33203347Y-42144318D01*
X33216029Y-42155583D01*
X33228231Y-42166634D01*
X33239658Y-42177194D01*
X33250012Y-42186982D01*
X33258996Y-42195721D01*
X33266313Y-42203132D01*
X33271667Y-42208935D01*
X33273339Y-42210926D01*
X33280121Y-42220609D01*
X33286786Y-42232305D01*
X33292806Y-42244932D01*
X33297652Y-42257405D01*
X33300164Y-42265877D01*
X33302525Y-42278908D01*
X33303704Y-42293428D01*
X33303703Y-42308349D01*
X33302523Y-42322581D01*
X33300166Y-42335034D01*
X33300093Y-42335308D01*
X33293097Y-42355741D01*
X33283535Y-42374569D01*
X33271563Y-42391599D01*
X33257341Y-42406639D01*
X33241026Y-42419495D01*
X33222777Y-42429976D01*
X33222289Y-42430209D01*
X33210740Y-42435375D01*
X33200434Y-42439096D01*
X33190416Y-42441579D01*
X33179727Y-42443034D01*
X33167411Y-42443667D01*
X33160013Y-42443741D01*
X33146177Y-42443433D01*
X33134476Y-42442374D01*
X33123970Y-42440358D01*
X33113716Y-42437182D01*
X33102774Y-42432641D01*
X33097509Y-42430162D01*
X33091351Y-42427079D01*
X33085822Y-42424018D01*
X33080513Y-42420666D01*
X33075016Y-42416710D01*
X33068921Y-42411840D01*
X33061818Y-42405744D01*
X33053299Y-42398108D01*
X33042955Y-42388622D01*
X33042613Y-42388306D01*
X33009915Y-42358869D01*
X32977953Y-42331678D01*
X32946043Y-42306195D01*
X32913502Y-42281883D01*
X32879646Y-42258202D01*
X32863120Y-42247160D01*
X32809291Y-42213549D01*
X32754087Y-42182723D01*
X32697584Y-42154701D01*
X32639856Y-42129499D01*
X32580980Y-42107137D01*
X32521031Y-42087630D01*
X32460084Y-42070996D01*
X32398215Y-42057254D01*
X32335500Y-42046420D01*
X32272013Y-42038513D01*
X32207830Y-42033549D01*
X32143028Y-42031547D01*
X32077680Y-42032523D01*
X32011863Y-42036497D01*
X31973479Y-42040184D01*
X31913070Y-42048299D01*
X31852597Y-42059425D01*
X31792361Y-42073472D01*
X31732660Y-42090345D01*
X31673797Y-42109953D01*
X31616069Y-42132204D01*
X31559777Y-42157006D01*
X31505517Y-42184109D01*
X31464258Y-42206865D01*
X31424629Y-42230528D01*
X31386217Y-42255398D01*
X31348606Y-42281771D01*
X31311381Y-42309949D01*
X31274129Y-42340228D01*
X31236433Y-42372908D01*
X31209749Y-42397198D01*
X31202802Y-42403526D01*
X31196020Y-42409505D01*
X31190002Y-42414618D01*
X31185350Y-42418350D01*
X31183734Y-42419530D01*
X31174295Y-42425242D01*
X31163038Y-42430877D01*
X31151229Y-42435861D01*
X31140135Y-42439621D01*
X31138014Y-42440202D01*
X31127006Y-42442352D01*
X31114227Y-42443710D01*
X31100837Y-42444233D01*
X31087997Y-42443879D01*
X31076869Y-42442606D01*
X31076032Y-42442453D01*
X31055732Y-42437056D01*
X31036717Y-42428925D01*
X31019203Y-42418261D01*
X31003402Y-42405266D01*
X30989531Y-42390140D01*
X30977803Y-42373086D01*
X30968432Y-42354305D01*
X30961980Y-42335308D01*
X30959676Y-42323432D01*
X30958449Y-42309714D01*
X30958297Y-42295246D01*
X30959221Y-42281118D01*
X30961219Y-42268423D01*
X30962018Y-42265096D01*
X30966327Y-42251897D01*
X30972266Y-42238126D01*
X30979245Y-42225002D01*
X30986678Y-42213746D01*
X30986889Y-42213465D01*
X30991951Y-42207430D01*
X30999200Y-42199705D01*
X31008368Y-42190533D01*
X31019184Y-42180156D01*
X31031380Y-42168816D01*
X31044686Y-42156755D01*
X31058833Y-42144215D01*
X31073551Y-42131439D01*
X31088572Y-42118668D01*
X31103625Y-42106144D01*
X31118443Y-42094111D01*
X31128638Y-42086024D01*
X31185749Y-42043164D01*
X31244290Y-42003080D01*
X31304220Y-41965785D01*
X31365498Y-41931299D01*
X31428082Y-41899636D01*
X31491931Y-41870814D01*
X31557006Y-41844849D01*
X31623264Y-41821759D01*
X31690664Y-41801559D01*
X31759166Y-41784266D01*
X31828728Y-41769897D01*
X31899310Y-41758469D01*
X31952126Y-41751920D01*
X31994364Y-41748034D01*
X32038750Y-41745225D01*
X32084497Y-41743503D01*
X32130815Y-41742879D01*
X32176916Y-41743361D01*
G37*
G36*
X32141390Y-43205258D02*
G01*
X32149350Y-43205432D01*
X32155660Y-43205811D01*
X32161058Y-43206466D01*
X32166281Y-43207469D01*
X32172067Y-43208892D01*
X32174015Y-43209410D01*
X32196099Y-43216901D01*
X32216680Y-43227018D01*
X32235571Y-43239565D01*
X32252583Y-43254343D01*
X32267529Y-43271156D01*
X32280222Y-43289808D01*
X32290474Y-43310100D01*
X32298098Y-43331836D01*
X32300722Y-43342506D01*
X32303924Y-43364675D01*
X32304152Y-43386638D01*
X32301559Y-43408164D01*
X32296296Y-43429024D01*
X32288515Y-43448989D01*
X32278367Y-43467829D01*
X32266005Y-43485315D01*
X32251581Y-43501217D01*
X32235245Y-43515307D01*
X32217150Y-43527355D01*
X32197448Y-43537132D01*
X32176290Y-43544407D01*
X32165421Y-43546993D01*
X32154248Y-43548747D01*
X32141633Y-43549875D01*
X32128818Y-43550321D01*
X32117044Y-43550027D01*
X32111115Y-43549487D01*
X32088431Y-43545136D01*
X32066844Y-43537995D01*
X32046571Y-43528249D01*
X32027829Y-43516080D01*
X32010835Y-43501674D01*
X31995806Y-43485213D01*
X31982960Y-43466884D01*
X31972514Y-43446869D01*
X31964684Y-43425352D01*
X31964672Y-43425313D01*
X31959759Y-43402952D01*
X31957868Y-43380523D01*
X31958915Y-43358277D01*
X31962815Y-43336467D01*
X31969483Y-43315345D01*
X31978832Y-43295164D01*
X31990778Y-43276177D01*
X32005236Y-43258635D01*
X32022120Y-43242792D01*
X32027912Y-43238204D01*
X32037474Y-43231773D01*
X32049121Y-43225243D01*
X32061864Y-43219088D01*
X32074714Y-43213780D01*
X32086684Y-43209793D01*
X32088072Y-43209410D01*
X32094169Y-43207847D01*
X32099484Y-43206726D01*
X32104752Y-43205974D01*
X32110713Y-43205521D01*
X32118102Y-43205293D01*
X32127659Y-43205219D01*
X32131043Y-43205216D01*
X32141390Y-43205258D01*
G37*
G36*
X32175630Y-42224149D02*
G01*
X32234247Y-42227934D01*
X32292627Y-42234745D01*
X32350636Y-42244583D01*
X32408138Y-42257453D01*
X32450594Y-42269021D01*
X32507389Y-42287322D01*
X32563025Y-42308510D01*
X32617426Y-42332540D01*
X32670515Y-42359367D01*
X32722215Y-42388945D01*
X32772448Y-42421230D01*
X32821138Y-42456177D01*
X32868208Y-42493739D01*
X32913581Y-42533873D01*
X32931661Y-42551046D01*
X32941962Y-42561268D01*
X32950245Y-42570069D01*
X32956939Y-42577968D01*
X32962474Y-42585487D01*
X32967278Y-42593147D01*
X32969152Y-42596476D01*
X32978009Y-42615820D01*
X32983842Y-42635823D01*
X32986637Y-42656295D01*
X32986376Y-42677043D01*
X32983044Y-42697878D01*
X32978876Y-42712409D01*
X32971036Y-42730892D01*
X32960643Y-42748150D01*
X32948020Y-42763840D01*
X32933491Y-42777620D01*
X32917378Y-42789148D01*
X32900004Y-42798083D01*
X32896631Y-42799442D01*
X32884664Y-42803730D01*
X32874132Y-42806648D01*
X32863828Y-42808421D01*
X32852548Y-42809273D01*
X32842806Y-42809442D01*
X32826449Y-42808819D01*
X32811936Y-42806770D01*
X32798218Y-42803054D01*
X32784248Y-42797431D01*
X32778739Y-42794787D01*
X32772827Y-42791729D01*
X32767411Y-42788622D01*
X32762115Y-42785170D01*
X32756565Y-42781077D01*
X32750384Y-42776050D01*
X32743198Y-42769791D01*
X32734632Y-42762005D01*
X32724309Y-42752398D01*
X32721358Y-42749629D01*
X32681817Y-42714526D01*
X32640747Y-42682077D01*
X32598229Y-42652324D01*
X32554343Y-42625309D01*
X32509169Y-42601075D01*
X32462789Y-42579665D01*
X32415281Y-42561119D01*
X32366726Y-42545481D01*
X32317205Y-42532794D01*
X32305050Y-42530164D01*
X32254446Y-42521184D01*
X32203692Y-42515292D01*
X32152912Y-42512465D01*
X32102232Y-42512679D01*
X32051778Y-42515909D01*
X32001675Y-42522131D01*
X31952050Y-42531322D01*
X31903027Y-42543457D01*
X31854732Y-42558512D01*
X31807291Y-42576463D01*
X31760829Y-42597285D01*
X31715472Y-42620955D01*
X31671347Y-42647449D01*
X31661856Y-42653629D01*
X31637430Y-42670296D01*
X31614103Y-42687364D01*
X31591259Y-42705328D01*
X31568283Y-42724680D01*
X31544558Y-42745914D01*
X31531697Y-42757885D01*
X31521193Y-42767632D01*
X31512336Y-42775465D01*
X31504634Y-42781750D01*
X31497596Y-42786853D01*
X31490731Y-42791139D01*
X31483546Y-42794973D01*
X31478676Y-42797301D01*
X31463927Y-42802847D01*
X31447398Y-42806900D01*
X31430127Y-42809314D01*
X31413156Y-42809940D01*
X31398186Y-42808733D01*
X31386939Y-42806317D01*
X31374366Y-42802448D01*
X31361638Y-42797554D01*
X31349923Y-42792062D01*
X31344698Y-42789159D01*
X31333639Y-42781515D01*
X31322292Y-42771795D01*
X31311497Y-42760837D01*
X31302093Y-42749480D01*
X31296024Y-42740484D01*
X31286571Y-42721670D01*
X31279990Y-42702066D01*
X31276263Y-42681980D01*
X31275372Y-42661720D01*
X31277300Y-42641594D01*
X31282031Y-42621909D01*
X31289546Y-42602972D01*
X31299828Y-42585093D01*
X31305159Y-42577725D01*
X31310104Y-42571875D01*
X31317115Y-42564362D01*
X31325847Y-42555514D01*
X31335957Y-42545654D01*
X31347098Y-42535109D01*
X31358927Y-42524205D01*
X31371097Y-42513267D01*
X31383265Y-42502621D01*
X31395086Y-42492594D01*
X31396710Y-42491244D01*
X31444751Y-42453362D01*
X31493994Y-42418358D01*
X31544481Y-42386209D01*
X31596254Y-42356892D01*
X31649355Y-42330382D01*
X31703826Y-42306657D01*
X31759708Y-42285693D01*
X31770084Y-42282156D01*
X31826560Y-42264834D01*
X31883748Y-42250520D01*
X31941513Y-42239215D01*
X31999719Y-42230923D01*
X32058231Y-42225646D01*
X32116913Y-42223388D01*
X32175630Y-42224149D01*
G37*
G36*
X32189955Y-42706723D02*
G01*
X32223470Y-42710462D01*
X32268952Y-42718332D01*
X32313603Y-42729191D01*
X32357297Y-42742981D01*
X32399909Y-42759646D01*
X32441311Y-42779129D01*
X32481378Y-42801375D01*
X32519983Y-42826325D01*
X32557000Y-42853925D01*
X32573258Y-42867322D01*
X32581593Y-42874641D01*
X32590775Y-42883105D01*
X32600384Y-42892291D01*
X32610003Y-42901775D01*
X32619211Y-42911135D01*
X32627589Y-42919947D01*
X32634719Y-42927787D01*
X32640181Y-42934232D01*
X32642486Y-42937257D01*
X32653552Y-42955322D01*
X32661642Y-42974289D01*
X32666790Y-42994263D01*
X32669029Y-43015346D01*
X32669139Y-43021392D01*
X32668393Y-43038317D01*
X32665984Y-43053566D01*
X32661654Y-43068258D01*
X32655147Y-43083508D01*
X32654578Y-43084678D01*
X32643841Y-43103193D01*
X32630941Y-43119555D01*
X32616088Y-43133631D01*
X32599490Y-43145292D01*
X32581355Y-43154408D01*
X32561892Y-43160848D01*
X32541309Y-43164483D01*
X32525599Y-43165289D01*
X32508625Y-43164591D01*
X32493481Y-43162351D01*
X32479164Y-43158343D01*
X32464668Y-43152339D01*
X32461532Y-43150816D01*
X32450847Y-43144887D01*
X32440303Y-43137693D01*
X32429399Y-43128838D01*
X32417630Y-43117930D01*
X32410748Y-43111056D01*
X32388826Y-43090155D01*
X32366361Y-43071766D01*
X32342627Y-43055362D01*
X32316899Y-43040419D01*
X32304412Y-43033999D01*
X32273535Y-43020196D01*
X32242444Y-43009369D01*
X32210761Y-43001421D01*
X32178106Y-42996259D01*
X32144102Y-42993789D01*
X32142671Y-42993743D01*
X32108909Y-42994019D01*
X32076381Y-42996975D01*
X32044720Y-43002692D01*
X32013556Y-43011253D01*
X31982519Y-43022739D01*
X31955852Y-43034917D01*
X31936986Y-43044825D01*
X31919386Y-43055324D01*
X31902512Y-43066812D01*
X31885821Y-43079688D01*
X31868772Y-43094353D01*
X31850824Y-43111206D01*
X31845825Y-43116113D01*
X31836363Y-43125288D01*
X31828478Y-43132479D01*
X31821710Y-43138074D01*
X31815598Y-43142460D01*
X31811447Y-43145028D01*
X31792475Y-43154548D01*
X31773401Y-43161063D01*
X31753784Y-43164673D01*
X31733181Y-43165479D01*
X31723987Y-43164995D01*
X31703865Y-43161906D01*
X31684646Y-43155973D01*
X31666574Y-43147403D01*
X31649890Y-43136408D01*
X31634838Y-43123197D01*
X31621660Y-43107978D01*
X31610598Y-43090963D01*
X31601897Y-43072359D01*
X31596372Y-43054796D01*
X31594607Y-43046463D01*
X31593532Y-43038105D01*
X31593027Y-43028551D01*
X31592948Y-43021392D01*
X31594387Y-42999983D01*
X31598726Y-42979713D01*
X31605999Y-42960477D01*
X31616238Y-42942173D01*
X31619601Y-42937257D01*
X31623774Y-42931965D01*
X31629860Y-42925017D01*
X31637440Y-42916838D01*
X31646093Y-42907852D01*
X31655401Y-42898484D01*
X31664944Y-42889159D01*
X31674302Y-42880300D01*
X31683057Y-42872332D01*
X31688047Y-42867983D01*
X31723842Y-42839493D01*
X31761462Y-42813473D01*
X31800722Y-42790012D01*
X31841437Y-42769194D01*
X31883424Y-42751106D01*
X31926497Y-42735836D01*
X31970471Y-42723469D01*
X32015161Y-42714092D01*
X32017755Y-42713645D01*
X32060004Y-42707895D01*
X32103229Y-42704818D01*
X32146766Y-42704424D01*
X32189955Y-42706723D01*
G37*
X63144400Y-35687000D02*
X65684400Y-35687000D01*
X65684400Y-35687000D02*
X65684400Y-38227000D01*
X65684400Y-38227000D02*
X63144400Y-38227000D01*
X63144400Y-38227000D02*
X63144400Y-35687000D01*
X63144400Y-51054000D02*
X65684400Y-51054000D01*
X65684400Y-51054000D02*
X65684400Y-53594000D01*
X65684400Y-53594000D02*
X63144400Y-53594000D01*
X63144400Y-53594000D02*
X63144400Y-51054000D01*
X63169800Y-20370800D02*
X65709800Y-20370800D01*
X65709800Y-20370800D02*
X65709800Y-22910800D01*
X65709800Y-22910800D02*
X63169800Y-22910800D01*
X63169800Y-22910800D02*
X63169800Y-20370800D01*
X31932200Y-56194336D02*
X31932200Y-57648464D01*
X33752200Y-56194336D02*
X33752200Y-57648464D01*
X32730200Y-32876964D02*
X32730200Y-31422836D01*
X30910200Y-32876964D02*
X30910200Y-31422836D01*
X17974400Y-47344800D02*
X17974400Y-46014800D01*
X17974400Y-44744800D02*
X17974400Y-37064800D01*
X19304400Y-47344800D02*
X17974400Y-47344800D01*
X20634400Y-37064800D02*
X17974400Y-37064800D01*
X20634400Y-44744800D02*
X17974400Y-44744800D01*
X20634400Y-44744800D02*
X20634400Y-37064800D01*
X49682400Y-63931800D02*
X52222400Y-63931800D01*
X52222400Y-63931800D02*
X52222400Y-66471800D01*
X52222400Y-66471800D02*
X49682400Y-66471800D01*
X49682400Y-66471800D02*
X49682400Y-63931800D01*
X63144400Y-43307000D02*
X65684400Y-43307000D01*
X65684400Y-43307000D02*
X65684400Y-45847000D01*
X65684400Y-45847000D02*
X63144400Y-45847000D01*
X63144400Y-45847000D02*
X63144400Y-43307000D01*
X63144400Y-33147000D02*
X65684400Y-33147000D01*
X65684400Y-33147000D02*
X65684400Y-35687000D01*
X65684400Y-35687000D02*
X63144400Y-35687000D01*
X63144400Y-35687000D02*
X63144400Y-33147000D01*
X37663800Y-54411964D02*
X37663800Y-52957836D01*
X35843800Y-54411964D02*
X35843800Y-52957836D01*
X63169800Y-48412400D02*
X65709800Y-48412400D01*
X65709800Y-48412400D02*
X65709800Y-50952400D01*
X65709800Y-50952400D02*
X63169800Y-50952400D01*
X63169800Y-50952400D02*
X63169800Y-48412400D01*
G36*
X40338782Y-59421071D02*
G01*
X40338103Y-59362110D01*
X40337764Y-59296506D01*
X40337734Y-59270090D01*
X40337734Y-59000413D01*
X40307706Y-59000413D01*
X40284772Y-58997356D01*
X40269834Y-58989934D01*
X40269308Y-58989300D01*
X40263699Y-58978307D01*
X40252327Y-58953235D01*
X40243788Y-58933735D01*
X40311063Y-58933735D01*
X40315508Y-58938180D01*
X40319953Y-58933735D01*
X40315508Y-58929289D01*
X40311063Y-58933735D01*
X40243788Y-58933735D01*
X40236214Y-58916438D01*
X40216912Y-58871502D01*
X40284391Y-58871502D01*
X40288837Y-58875947D01*
X40293282Y-58871502D01*
X40288837Y-58867056D01*
X40284391Y-58871502D01*
X40216912Y-58871502D01*
X40216384Y-58870273D01*
X40193857Y-58817095D01*
X40174870Y-58771774D01*
X40088802Y-58565362D01*
X40088802Y-58337781D01*
X40089029Y-58261791D01*
X40089857Y-58201772D01*
X40091499Y-58155914D01*
X40092925Y-58138040D01*
X40274496Y-58138040D01*
X40290557Y-58165743D01*
X40322615Y-58204678D01*
X40366657Y-58235435D01*
X40417756Y-58255328D01*
X40466646Y-58261726D01*
X40500257Y-58258451D01*
X40533607Y-58250500D01*
X40535565Y-58249822D01*
X40581105Y-58226979D01*
X40620110Y-58195055D01*
X40642734Y-58165743D01*
X40658795Y-58138040D01*
X40274496Y-58138040D01*
X40092925Y-58138040D01*
X40094172Y-58122412D01*
X40098092Y-58099458D01*
X40103475Y-58085245D01*
X40110536Y-58077965D01*
X40119491Y-58075812D01*
X40120081Y-58075807D01*
X40195487Y-58075807D01*
X40355515Y-58075807D01*
X40355515Y-57951341D01*
X40326176Y-57951341D01*
X40307789Y-57950388D01*
X40294478Y-57945890D01*
X40285427Y-57935384D01*
X40279820Y-57916411D01*
X40277100Y-57889107D01*
X40337734Y-57889107D01*
X40368538Y-57889107D01*
X40389344Y-57891597D01*
X40403472Y-57900858D01*
X40412118Y-57919575D01*
X40416477Y-57950434D01*
X40417744Y-57996121D01*
X40417748Y-57999653D01*
X40417748Y-58075807D01*
X40515543Y-58075807D01*
X40577776Y-58075807D01*
X40737804Y-58075807D01*
X40737804Y-57666846D01*
X40657790Y-57666846D01*
X40657790Y-57798425D01*
X40657474Y-57853909D01*
X40655984Y-57894076D01*
X40652502Y-57921389D01*
X40646214Y-57938309D01*
X40636305Y-57947296D01*
X40621957Y-57950812D01*
X40607115Y-57951341D01*
X40577776Y-57951341D01*
X40577776Y-58075807D01*
X40515543Y-58075807D01*
X40515543Y-57999653D01*
X40516651Y-57952914D01*
X40520774Y-57921176D01*
X40529106Y-57901755D01*
X40542843Y-57891963D01*
X40563181Y-57889116D01*
X40564753Y-57889107D01*
X40595557Y-57889107D01*
X40595557Y-57613504D01*
X40337734Y-57613504D01*
X40337734Y-57889107D01*
X40277100Y-57889107D01*
X40276841Y-57886507D01*
X40275676Y-57843213D01*
X40275501Y-57798425D01*
X40275501Y-57666846D01*
X40195487Y-57666846D01*
X40195487Y-58075807D01*
X40120081Y-58075807D01*
X40124096Y-58073444D01*
X40127279Y-58065102D01*
X40129756Y-58048898D01*
X40131651Y-58022952D01*
X40133090Y-57985381D01*
X40134198Y-57934303D01*
X40135100Y-57867838D01*
X40135326Y-57846878D01*
X40137699Y-57617949D01*
X40204858Y-57615384D01*
X40238982Y-57613818D01*
X40259536Y-57611201D01*
X40270718Y-57605804D01*
X40276729Y-57595898D01*
X40280427Y-57584267D01*
X40288837Y-57555716D01*
X40644454Y-57555716D01*
X40652864Y-57584267D01*
X40657751Y-57598765D01*
X40664615Y-57607437D01*
X40677653Y-57612014D01*
X40701065Y-57614223D01*
X40728433Y-57615384D01*
X40795592Y-57617949D01*
X40797965Y-57846878D01*
X40798833Y-57917849D01*
X40799873Y-57972920D01*
X40801210Y-58013974D01*
X40802968Y-58042893D01*
X40805274Y-58061557D01*
X40808253Y-58071848D01*
X40812030Y-58075649D01*
X40813210Y-58075807D01*
X40822297Y-58077722D01*
X40829472Y-58084675D01*
X40834950Y-58098474D01*
X40838949Y-58120930D01*
X40841686Y-58153850D01*
X40843377Y-58199046D01*
X40844239Y-58258326D01*
X40844489Y-58333499D01*
X40844489Y-58563650D01*
X40758537Y-58775364D01*
X40734884Y-58832978D01*
X40712973Y-58885135D01*
X40693798Y-58929561D01*
X40678356Y-58963981D01*
X40667643Y-58986120D01*
X40662964Y-58993609D01*
X40647846Y-58998240D01*
X40624864Y-59000275D01*
X40624579Y-59000277D01*
X40595814Y-59000413D01*
X40591112Y-59547175D01*
X40470590Y-59549638D01*
X40425963Y-59550109D01*
X40387866Y-59549679D01*
X40359753Y-59548451D01*
X40345077Y-59546523D01*
X40343901Y-59545933D01*
X40342360Y-59535820D01*
X40340961Y-59510154D01*
X40340317Y-59489387D01*
X40391077Y-59489387D01*
X40542214Y-59489387D01*
X40542214Y-59000413D01*
X40391077Y-59000413D01*
X40391077Y-59489387D01*
X40340317Y-59489387D01*
X40339751Y-59471162D01*
X40338782Y-59421071D01*
G37*
X40127600Y-54422664D02*
X40127600Y-52968536D01*
X38307600Y-54422664D02*
X38307600Y-52968536D01*
X26492252Y-45410800D02*
X25069748Y-45410800D01*
X26492252Y-43590800D02*
X25069748Y-43590800D01*
X25587336Y-51684600D02*
X27041464Y-51684600D01*
X25587336Y-49864600D02*
X27041464Y-49864600D01*
X63144400Y-56210200D02*
X65684400Y-56210200D01*
X65684400Y-56210200D02*
X65684400Y-58750200D01*
X65684400Y-58750200D02*
X63144400Y-58750200D01*
X63144400Y-58750200D02*
X63144400Y-56210200D01*
X28421000Y-32869964D02*
X28421000Y-31415836D01*
X30241000Y-32869964D02*
X30241000Y-31415836D01*
X35990200Y-32869964D02*
X35990200Y-31415836D01*
X37810200Y-32869964D02*
X37810200Y-31415836D01*
X42820000Y-28000336D02*
X42820000Y-29454464D01*
X41000000Y-28000336D02*
X41000000Y-29454464D01*
X63144400Y-45847000D02*
X65684400Y-45847000D01*
X65684400Y-45847000D02*
X65684400Y-48387000D01*
X65684400Y-48387000D02*
X63144400Y-48387000D01*
X63144400Y-48387000D02*
X63144400Y-45847000D01*
G36*
X35955080Y-22217678D02*
G01*
X36001383Y-22026067D01*
X36045863Y-21843134D01*
X36086638Y-21676710D01*
X36121825Y-21534628D01*
X36149538Y-21424719D01*
X36167895Y-21354816D01*
X36171918Y-21340725D01*
X36187176Y-21316383D01*
X36222470Y-21301661D01*
X36289107Y-21294320D01*
X36398396Y-21292118D01*
X36417441Y-21292092D01*
X36648310Y-21292092D01*
X36874363Y-22216107D01*
X36927633Y-22434511D01*
X36976418Y-22635786D01*
X37019195Y-22813558D01*
X37054445Y-22961456D01*
X37080647Y-23073105D01*
X37096279Y-23142133D01*
X37100156Y-23162291D01*
X37074783Y-23172593D01*
X37008895Y-23177450D01*
X36927514Y-23176186D01*
X36755131Y-23167913D01*
X36710732Y-22987278D01*
X36666333Y-22806644D01*
X36419949Y-22806644D01*
X36303107Y-22806316D01*
X36227364Y-22811786D01*
X36180666Y-22832737D01*
X36150957Y-22878849D01*
X36126183Y-22959804D01*
X36099884Y-23063700D01*
X36069526Y-23181808D01*
X35903857Y-23181808D01*
X35804226Y-23177846D01*
X35751726Y-23164750D01*
X35738189Y-23144046D01*
X35744499Y-23110986D01*
X35762173Y-23031780D01*
X35789328Y-22914260D01*
X35824080Y-22766258D01*
X35864545Y-22595605D01*
X35895446Y-22466217D01*
X36247057Y-22466217D01*
X36265756Y-22477054D01*
X36326344Y-22484591D01*
X36404767Y-22487059D01*
X36574406Y-22487059D01*
X36557064Y-22396742D01*
X36543010Y-22329958D01*
X36519873Y-22226626D01*
X36491602Y-22104230D01*
X36477029Y-22042420D01*
X36414337Y-21778416D01*
X36336661Y-22111895D01*
X36305912Y-22241570D01*
X36278877Y-22351249D01*
X36258396Y-22429714D01*
X36247304Y-22465748D01*
X36247057Y-22466217D01*
X35895446Y-22466217D01*
X35908840Y-22410135D01*
X35955080Y-22217678D01*
G37*
G36*
X27316921Y-21028088D02*
G01*
X27498473Y-21209652D01*
X27506286Y-21702458D01*
X27508676Y-21881185D01*
X27508830Y-22013514D01*
X27505977Y-22108609D01*
X27499347Y-22175631D01*
X27488166Y-22223745D01*
X27471665Y-22262113D01*
X27457045Y-22287255D01*
X27384262Y-22369878D01*
X27281982Y-22424018D01*
X27142218Y-22452675D01*
X26999147Y-22459269D01*
X26789830Y-22459269D01*
X26789830Y-23181808D01*
X26428561Y-23181808D01*
X26428561Y-22098000D01*
X26789830Y-22098000D01*
X26941697Y-22098000D01*
X27036168Y-22093809D01*
X27090837Y-22078187D01*
X27121059Y-22046568D01*
X27122332Y-22044247D01*
X27135194Y-21993266D01*
X27145088Y-21902755D01*
X27150513Y-21788746D01*
X27151099Y-21736731D01*
X27148778Y-21588979D01*
X27138423Y-21487954D01*
X27114947Y-21424879D01*
X27073264Y-21390979D01*
X27008288Y-21377479D01*
X26941697Y-21375462D01*
X26789830Y-21375462D01*
X26789830Y-22098000D01*
X26428561Y-22098000D01*
X26428561Y-21010368D01*
X27316921Y-21028088D01*
G37*
G36*
X32850696Y-21292092D02*
G01*
X33040849Y-21294009D01*
X33183841Y-21301630D01*
X33288014Y-21317763D01*
X33361711Y-21345215D01*
X33413275Y-21386793D01*
X33451049Y-21445303D01*
X33475470Y-21502306D01*
X33494287Y-21565962D01*
X33506172Y-21646183D01*
X33511880Y-21753867D01*
X33512168Y-21899914D01*
X33510220Y-22003489D01*
X33505795Y-22160080D01*
X33500012Y-22271970D01*
X33491181Y-22350037D01*
X33477611Y-22405160D01*
X33457611Y-22448216D01*
X33435985Y-22481087D01*
X33370871Y-22572380D01*
X33438677Y-22862823D01*
X33465086Y-22982543D01*
X33483922Y-23081080D01*
X33493122Y-23146693D01*
X33492212Y-23167537D01*
X33458814Y-23175246D01*
X33387177Y-23180427D01*
X33316904Y-23181808D01*
X33155867Y-23181808D01*
X33128218Y-23077595D01*
X33106571Y-22990985D01*
X33080520Y-22879887D01*
X33064123Y-22806644D01*
X33027678Y-22639904D01*
X32911092Y-22631409D01*
X32794506Y-22622913D01*
X32786533Y-22895413D01*
X32778561Y-23167913D01*
X32604874Y-23176186D01*
X32431187Y-23184460D01*
X32431187Y-22264740D01*
X32792456Y-22264740D01*
X32939743Y-22264740D01*
X33029467Y-22258781D01*
X33098066Y-22243536D01*
X33120377Y-22231392D01*
X33138192Y-22183912D01*
X33149530Y-22087077D01*
X33153716Y-21946806D01*
X33153725Y-21938910D01*
X33153038Y-21817523D01*
X33149044Y-21740072D01*
X33138843Y-21694912D01*
X33119535Y-21670400D01*
X33088221Y-21654892D01*
X33082441Y-21652673D01*
X33006090Y-21634477D01*
X32913333Y-21625712D01*
X32901807Y-21625571D01*
X32792456Y-21625571D01*
X32792456Y-22264740D01*
X32431187Y-22264740D01*
X32431187Y-21292092D01*
X32850696Y-21292092D01*
G37*
G36*
X16062036Y-20205191D02*
G01*
X16096393Y-20274359D01*
X16144334Y-20380619D01*
X16202911Y-20516589D01*
X16269177Y-20674888D01*
X16340185Y-20848137D01*
X16412986Y-21028953D01*
X16484633Y-21209957D01*
X16552178Y-21383768D01*
X16612674Y-21543004D01*
X16663173Y-21680285D01*
X16700728Y-21788230D01*
X16722391Y-21859459D01*
X16725501Y-21886444D01*
X16697947Y-21899165D01*
X16628517Y-21929707D01*
X16526447Y-21974047D01*
X16400969Y-22028163D01*
X16340815Y-22053995D01*
X16206477Y-22112367D01*
X16090202Y-22164315D01*
X16001691Y-22205398D01*
X15950641Y-22231171D01*
X15942728Y-22236341D01*
X15953663Y-22262600D01*
X15994548Y-22328454D01*
X16061986Y-22429030D01*
X16152581Y-22559459D01*
X16262936Y-22714870D01*
X16389654Y-22890393D01*
X16529338Y-23081155D01*
X16574993Y-23142963D01*
X16746135Y-23373406D01*
X16886443Y-23562458D01*
X16996961Y-23714258D01*
X17078733Y-23832944D01*
X17132803Y-23922654D01*
X17160215Y-23987527D01*
X17162014Y-24031701D01*
X17139243Y-24059314D01*
X17092947Y-24074505D01*
X17024169Y-24081411D01*
X16933954Y-24084172D01*
X16823346Y-24086926D01*
X16813244Y-24087285D01*
X16560310Y-24085707D01*
X16351169Y-24060310D01*
X16326920Y-24055251D01*
X16073749Y-23977277D01*
X15817876Y-23857926D01*
X15573291Y-23706057D01*
X15353986Y-23530530D01*
X15173949Y-23340204D01*
X15150851Y-23310471D01*
X14970290Y-23026587D01*
X14840322Y-22724276D01*
X14761399Y-22409083D01*
X14733972Y-22086557D01*
X14758492Y-21762245D01*
X14835410Y-21441693D01*
X14965178Y-21130450D01*
X14972444Y-21116414D01*
X15053373Y-20985936D01*
X15164878Y-20838855D01*
X15293454Y-20690509D01*
X15425599Y-20556234D01*
X15547808Y-20451368D01*
X15575709Y-20431212D01*
X15646675Y-20386095D01*
X15738586Y-20332598D01*
X15837827Y-20278007D01*
X15930785Y-20229608D01*
X16003845Y-20194686D01*
X16043392Y-20180527D01*
X16044210Y-20180495D01*
X16062036Y-20205191D01*
G37*
G36*
X29297131Y-21295361D02*
G01*
X29361538Y-21303831D01*
X29383521Y-21312935D01*
X29390298Y-21345694D01*
X29402002Y-21425130D01*
X29417513Y-21542671D01*
X29435711Y-21689745D01*
X29455474Y-21857779D01*
X29460327Y-21900293D01*
X29480093Y-22067504D01*
X29498635Y-22211470D01*
X29514863Y-22324746D01*
X29527690Y-22399885D01*
X29536029Y-22429442D01*
X29537494Y-22428301D01*
X29547570Y-22390402D01*
X29568135Y-22307258D01*
X29597044Y-22187754D01*
X29632149Y-22040769D01*
X29671306Y-21875186D01*
X29677726Y-21847891D01*
X29805090Y-21305987D01*
X30079480Y-21305987D01*
X30141128Y-21556097D01*
X30173767Y-21690077D01*
X30213241Y-21854448D01*
X30253866Y-22025449D01*
X30280721Y-22139685D01*
X30358666Y-22473164D01*
X30429396Y-21889576D01*
X30500127Y-21305987D01*
X30687539Y-21297770D01*
X30781383Y-21295602D01*
X30848613Y-21297764D01*
X30874939Y-21303784D01*
X30874951Y-21303942D01*
X30871055Y-21336774D01*
X30860150Y-21416571D01*
X30843407Y-21535320D01*
X30821996Y-21685013D01*
X30797089Y-21857637D01*
X30769856Y-22045182D01*
X30741470Y-22239639D01*
X30713101Y-22432995D01*
X30685920Y-22617241D01*
X30661099Y-22784366D01*
X30639808Y-22926359D01*
X30623220Y-23035209D01*
X30612504Y-23102906D01*
X30609372Y-23120481D01*
X30598374Y-23153423D01*
X30574997Y-23171715D01*
X30526427Y-23178703D01*
X30439850Y-23177732D01*
X30396482Y-23176061D01*
X30197575Y-23167913D01*
X30081228Y-22650400D01*
X30044200Y-22486574D01*
X30010762Y-22340274D01*
X29983024Y-22220597D01*
X29963094Y-22136643D01*
X29953083Y-22097508D01*
X29952934Y-22097050D01*
X29943583Y-22111776D01*
X29924295Y-22173425D01*
X29897031Y-22274629D01*
X29863749Y-22408019D01*
X29826408Y-22566227D01*
X29815358Y-22614562D01*
X29689727Y-23167913D01*
X29490326Y-23176078D01*
X29392577Y-23179017D01*
X29320460Y-23179169D01*
X29288143Y-23176532D01*
X29287629Y-23176078D01*
X29280675Y-23141379D01*
X29267699Y-23060269D01*
X29249775Y-22940567D01*
X29227973Y-22790091D01*
X29203364Y-22616660D01*
X29177020Y-22428092D01*
X29150012Y-22232206D01*
X29123412Y-22036821D01*
X29098291Y-21849755D01*
X29075721Y-21678827D01*
X29056772Y-21531855D01*
X29042517Y-21416658D01*
X29034027Y-21341055D01*
X29032317Y-21312935D01*
X29064240Y-21301768D01*
X29134881Y-21294204D01*
X29207554Y-21292092D01*
X29297131Y-21295361D01*
G37*
G36*
X24066417Y-21375462D02*
G01*
X23705147Y-21375462D01*
X23705147Y-23181808D01*
X23343878Y-23181808D01*
X23343878Y-21375462D01*
X22982609Y-21375462D01*
X22982609Y-21014193D01*
X24066417Y-21014193D01*
X24066417Y-21375462D01*
G37*
G36*
X21184579Y-21020039D02*
G01*
X21412478Y-21028088D01*
X21412478Y-23167913D01*
X21238791Y-23176186D01*
X21065104Y-23184460D01*
X21063223Y-22550913D01*
X21061591Y-22342734D01*
X21058146Y-22177568D01*
X21053024Y-22058400D01*
X21046366Y-21988215D01*
X21038308Y-21970001D01*
X21036501Y-21972946D01*
X21022707Y-22017664D01*
X21000094Y-22106645D01*
X20971077Y-22229716D01*
X20938068Y-22376708D01*
X20911204Y-22500954D01*
X20866580Y-22711681D01*
X20831787Y-22874302D01*
X20804373Y-22994914D01*
X20781888Y-23079618D01*
X20761881Y-23134512D01*
X20741902Y-23165695D01*
X20719499Y-23179268D01*
X20692224Y-23181329D01*
X20657624Y-23177977D01*
X20639825Y-23176386D01*
X20523200Y-23167913D01*
X20384250Y-22542639D01*
X20245301Y-21917366D01*
X20237831Y-22549587D01*
X20230362Y-23181808D01*
X20063272Y-23181808D01*
X19953895Y-23175834D01*
X19893202Y-23158438D01*
X19882814Y-23146972D01*
X19879984Y-23112132D01*
X19877742Y-23028065D01*
X19876122Y-22901119D01*
X19875162Y-22737644D01*
X19874896Y-22543988D01*
X19875361Y-22326501D01*
X19876592Y-22091532D01*
X19876739Y-22070112D01*
X19884031Y-21028088D01*
X20089763Y-21019837D01*
X20193236Y-21019196D01*
X20275319Y-21025158D01*
X20319947Y-21036459D01*
X20322018Y-21038109D01*
X20335370Y-21071688D01*
X20358605Y-21151714D01*
X20389709Y-21270340D01*
X20426668Y-21419724D01*
X20467471Y-21592017D01*
X20495268Y-21713318D01*
X20536582Y-21891653D01*
X20574651Y-22047836D01*
X20607658Y-22175054D01*
X20633781Y-22266493D01*
X20651203Y-22315340D01*
X20657336Y-22320320D01*
X20667817Y-22281128D01*
X20687897Y-22196741D01*
X20715484Y-22076301D01*
X20748486Y-21928949D01*
X20784810Y-21763826D01*
X20787688Y-21750626D01*
X20825264Y-21579069D01*
X20860619Y-21419395D01*
X20891380Y-21282196D01*
X20915171Y-21178060D01*
X20929620Y-21117578D01*
X20929690Y-21117303D01*
X20956680Y-21011989D01*
X21184579Y-21020039D01*
G37*
G36*
X27792778Y-21835475D02*
G01*
X27796461Y-21701302D01*
X27802248Y-21602552D01*
X27810501Y-21532507D01*
X27821584Y-21484452D01*
X27832423Y-21457922D01*
X27877706Y-21390878D01*
X27939087Y-21343854D01*
X28025993Y-21313776D01*
X28147849Y-21297570D01*
X28314080Y-21292163D01*
X28340939Y-21292092D01*
X28478567Y-21293258D01*
X28573126Y-21298074D01*
X28637101Y-21308521D01*
X28682976Y-21326578D01*
X28720850Y-21352338D01*
X28766477Y-21392147D01*
X28802091Y-21436019D01*
X28828914Y-21491068D01*
X28848171Y-21564406D01*
X28861084Y-21663148D01*
X28868878Y-21794408D01*
X28872775Y-21965298D01*
X28874000Y-22182932D01*
X28874032Y-22243005D01*
X28873130Y-22475853D01*
X28869472Y-22659910D01*
X28861578Y-22801947D01*
X28847968Y-22908739D01*
X28827163Y-22987058D01*
X28797682Y-23043678D01*
X28758046Y-23085371D01*
X28706774Y-23118912D01*
X28679546Y-23133132D01*
X28594157Y-23158932D01*
X28471781Y-23175296D01*
X28330235Y-23182026D01*
X28187339Y-23178922D01*
X28060912Y-23165784D01*
X27968772Y-23142413D01*
X27965753Y-23141133D01*
X27915474Y-23116253D01*
X27875805Y-23086037D01*
X27845497Y-23044048D01*
X27823301Y-22983850D01*
X27807969Y-22899006D01*
X27798249Y-22783081D01*
X27792895Y-22629638D01*
X27790655Y-22432241D01*
X27790268Y-22236950D01*
X27790311Y-22219683D01*
X28151537Y-22219683D01*
X28152469Y-22391447D01*
X28155069Y-22544074D01*
X28159045Y-22668917D01*
X28164105Y-22757323D01*
X28169955Y-22800645D01*
X28171276Y-22803224D01*
X28207943Y-22812757D01*
X28281468Y-22816409D01*
X28344963Y-22814804D01*
X28498911Y-22806644D01*
X28498911Y-21671888D01*
X28420997Y-21645917D01*
X28337625Y-21632843D01*
X28247310Y-21637913D01*
X28151537Y-21655880D01*
X28151537Y-22219683D01*
X27790311Y-22219683D01*
X27790835Y-22011785D01*
X27792778Y-21835475D01*
G37*
G36*
X17217051Y-20106981D02*
G01*
X17288133Y-20125920D01*
X17384396Y-20158458D01*
X17493105Y-20199957D01*
X17601522Y-20245783D01*
X17696909Y-20291299D01*
X17707454Y-20296827D01*
X17937333Y-20444614D01*
X18156973Y-20633951D01*
X18352798Y-20851003D01*
X18511235Y-21081939D01*
X18552619Y-21158084D01*
X18591780Y-21247418D01*
X18636685Y-21368031D01*
X18679091Y-21497409D01*
X18688723Y-21529818D01*
X18742208Y-21792010D01*
X18761014Y-22075790D01*
X18744825Y-22359064D01*
X18703835Y-22580899D01*
X18601265Y-22874314D01*
X18449918Y-23154139D01*
X18256454Y-23410766D01*
X18027532Y-23634587D01*
X17910905Y-23724776D01*
X17822208Y-23783134D01*
X17717113Y-23845029D01*
X17609139Y-23903374D01*
X17511805Y-23951082D01*
X17438631Y-23981066D01*
X17409339Y-23987716D01*
X17389281Y-23965500D01*
X17368601Y-23925188D01*
X17327513Y-23828826D01*
X17274334Y-23702086D01*
X17212193Y-23552625D01*
X17144219Y-23388101D01*
X17073539Y-23216170D01*
X17003283Y-23044489D01*
X16936579Y-22880714D01*
X16876555Y-22732503D01*
X16826340Y-22607512D01*
X16789062Y-22513397D01*
X16767851Y-22457816D01*
X16764189Y-22445945D01*
X16791708Y-22435608D01*
X16861853Y-22410766D01*
X16964663Y-22374910D01*
X17090179Y-22331530D01*
X17118933Y-22321638D01*
X17310082Y-22254448D01*
X17453426Y-22200125D01*
X17554494Y-22155885D01*
X17618812Y-22118945D01*
X17651907Y-22086521D01*
X17659306Y-22055831D01*
X17658281Y-22050041D01*
X17648952Y-22012269D01*
X17627665Y-21927144D01*
X17596064Y-21801203D01*
X17555791Y-21640983D01*
X17508490Y-21453021D01*
X17455804Y-21243854D01*
X17409323Y-21059468D01*
X17354335Y-20839771D01*
X17304522Y-20637590D01*
X17261353Y-20459124D01*
X17226292Y-20310572D01*
X17200806Y-20198135D01*
X17186362Y-20128012D01*
X17183890Y-20106275D01*
X17217051Y-20106981D01*
G37*
G36*
X25184961Y-21019814D02*
G01*
X25358649Y-21028088D01*
X25365971Y-21952099D01*
X25367801Y-22224389D01*
X25368014Y-22446817D01*
X25365806Y-22625095D01*
X25360369Y-22764935D01*
X25350900Y-22872049D01*
X25336593Y-22952148D01*
X25316642Y-23010945D01*
X25290242Y-23054151D01*
X25256588Y-23087479D01*
X25214874Y-23116641D01*
X25200529Y-23125515D01*
X25117435Y-23155973D01*
X24996753Y-23175697D01*
X24855474Y-23184460D01*
X24710586Y-23182039D01*
X24579080Y-23168208D01*
X24477944Y-23142741D01*
X24460981Y-23135320D01*
X24417345Y-23112549D01*
X24381780Y-23087783D01*
X24353461Y-23055454D01*
X24331562Y-23009995D01*
X24315258Y-22945838D01*
X24303725Y-22857417D01*
X24296137Y-22739163D01*
X24291669Y-22585509D01*
X24289497Y-22390889D01*
X24288795Y-22149734D01*
X24288736Y-21973000D01*
X24288736Y-21011541D01*
X24462423Y-21019814D01*
X24636110Y-21028088D01*
X24643466Y-21887220D01*
X24646892Y-22172623D01*
X24651824Y-22402974D01*
X24658282Y-22578780D01*
X24666289Y-22700548D01*
X24675866Y-22768786D01*
X24681606Y-22783446D01*
X24730646Y-22808098D01*
X24809622Y-22819023D01*
X24894535Y-22815916D01*
X24961389Y-22798475D01*
X24977926Y-22787191D01*
X24988041Y-22760468D01*
X24996127Y-22700044D01*
X25002327Y-22602001D01*
X25006787Y-22462421D01*
X25009651Y-22277385D01*
X25011063Y-22042975D01*
X25011274Y-21882692D01*
X25011274Y-21011541D01*
X25184961Y-21019814D01*
G37*
G36*
X37741724Y-21292092D02*
G01*
X37951060Y-21295376D01*
X38111450Y-21308783D01*
X38229320Y-21337642D01*
X38311098Y-21387285D01*
X38363209Y-21463044D01*
X38392082Y-21570249D01*
X38404142Y-21714231D01*
X38406023Y-21843126D01*
X38405164Y-21971001D01*
X38400909Y-22055546D01*
X38390740Y-22109002D01*
X38372138Y-22143612D01*
X38342586Y-22171619D01*
X38337646Y-22175541D01*
X38269270Y-22229326D01*
X38337646Y-22293562D01*
X38368887Y-22326766D01*
X38388826Y-22363926D01*
X38399971Y-22417693D01*
X38404833Y-22500718D01*
X38405920Y-22625651D01*
X38405919Y-22637801D01*
X38403820Y-22776728D01*
X38396299Y-22873887D01*
X38381336Y-22942985D01*
X38356914Y-22997730D01*
X38351568Y-23006771D01*
X38307073Y-23069657D01*
X38255563Y-23115661D01*
X38187979Y-23147319D01*
X38095265Y-23167168D01*
X37968364Y-23177745D01*
X37798218Y-23181585D01*
X37726549Y-23181808D01*
X37322215Y-23181808D01*
X37322215Y-22848328D01*
X37655694Y-22848328D01*
X37787697Y-22847949D01*
X37881815Y-22844130D01*
X37962155Y-22834977D01*
X37983415Y-22830502D01*
X38017378Y-22817102D01*
X38035573Y-22790921D01*
X38041762Y-22738358D01*
X38039704Y-22645809D01*
X38038995Y-22629404D01*
X38030859Y-22445374D01*
X37843277Y-22437157D01*
X37655694Y-22428940D01*
X37655694Y-22848328D01*
X37322215Y-22848328D01*
X37322215Y-22044960D01*
X37655694Y-22044960D01*
X37843277Y-22036743D01*
X38030859Y-22028525D01*
X38039247Y-21850421D01*
X38040817Y-21741666D01*
X38026007Y-21675299D01*
X37984394Y-21640866D01*
X37905551Y-21627910D01*
X37815487Y-21625997D01*
X37655694Y-21625571D01*
X37655694Y-22044960D01*
X37322215Y-22044960D01*
X37322215Y-21292092D01*
X37741724Y-21292092D01*
G37*
G36*
X34821121Y-22820539D02*
G01*
X35515870Y-22820539D01*
X35515870Y-23181808D01*
X34459852Y-23181808D01*
X34459852Y-21014193D01*
X34821121Y-21014193D01*
X34821121Y-22820539D01*
G37*
G36*
X32181077Y-21653361D02*
G01*
X31486329Y-21653361D01*
X31486329Y-22070210D01*
X31747360Y-22070210D01*
X31878025Y-22071696D01*
X31962957Y-22080172D01*
X32011996Y-22101668D01*
X32034980Y-22142214D01*
X32041749Y-22207838D01*
X32042128Y-22250845D01*
X32039704Y-22330917D01*
X32025872Y-22382963D01*
X31990793Y-22413014D01*
X31924629Y-22427099D01*
X31817540Y-22431247D01*
X31747360Y-22431479D01*
X31486329Y-22431479D01*
X31486329Y-22820539D01*
X32181077Y-22820539D01*
X32181077Y-23181808D01*
X31657700Y-23181808D01*
X31492490Y-23180867D01*
X31346728Y-23178251D01*
X31229396Y-23174266D01*
X31149475Y-23169219D01*
X31115948Y-23163418D01*
X31115797Y-23163281D01*
X31111375Y-23132027D01*
X31107332Y-23051811D01*
X31103796Y-22929249D01*
X31100897Y-22770960D01*
X31098766Y-22583559D01*
X31097531Y-22373663D01*
X31097270Y-22218423D01*
X31097270Y-21292092D01*
X32181077Y-21292092D01*
X32181077Y-21653361D01*
G37*
G36*
X22760290Y-21375462D02*
G01*
X22037751Y-21375462D01*
X22037751Y-21901526D01*
X22607445Y-21917366D01*
X22615923Y-22065519D01*
X22617827Y-22161604D01*
X22604615Y-22225980D01*
X22567474Y-22264946D01*
X22497594Y-22284798D01*
X22386163Y-22291837D01*
X22298353Y-22292530D01*
X22037751Y-22292530D01*
X22037751Y-22820539D01*
X22760290Y-22820539D01*
X22760290Y-23181808D01*
X22231409Y-23181808D01*
X22034663Y-23180845D01*
X21887942Y-23177719D01*
X21785720Y-23172075D01*
X21722473Y-23163559D01*
X21692674Y-23151814D01*
X21689160Y-23146972D01*
X21686330Y-23112132D01*
X21684087Y-23028065D01*
X21682468Y-22901119D01*
X21681507Y-22737644D01*
X21681242Y-22543988D01*
X21681706Y-22326501D01*
X21682938Y-22091532D01*
X21683085Y-22070112D01*
X21690377Y-21028088D01*
X22225333Y-21020540D01*
X22760290Y-21012993D01*
X22760290Y-21375462D01*
G37*
X26736664Y-56688400D02*
X25282536Y-56688400D01*
X26736664Y-54868400D02*
X25282536Y-54868400D01*
X63169800Y-27990800D02*
X65709800Y-27990800D01*
X65709800Y-27990800D02*
X65709800Y-30530800D01*
X65709800Y-30530800D02*
X63169800Y-30530800D01*
X63169800Y-30530800D02*
X63169800Y-27990800D01*
X63169800Y-30581600D02*
X65709800Y-30581600D01*
X65709800Y-30581600D02*
X65709800Y-33121600D01*
X65709800Y-33121600D02*
X63169800Y-33121600D01*
X63169800Y-33121600D02*
X63169800Y-30581600D01*
X30907400Y-56194336D02*
X30907400Y-57648464D01*
X29087400Y-56194336D02*
X29087400Y-57648464D01*
X63144400Y-38227000D02*
X65684400Y-38227000D01*
X65684400Y-38227000D02*
X65684400Y-40767000D01*
X65684400Y-40767000D02*
X63144400Y-40767000D01*
X63144400Y-40767000D02*
X63144400Y-38227000D01*
X61989000Y-17675400D02*
X43949000Y-17675400D01*
X43949000Y-61115400D02*
X49029000Y-61115400D01*
X46619000Y-58445400D02*
X43949000Y-58445400D01*
X43949000Y-17675400D02*
X43949000Y-20345400D01*
X49029000Y-63655400D02*
X49029000Y-53235400D01*
X46619000Y-22885400D02*
X43949000Y-22885400D01*
X56909000Y-63655400D02*
X49029000Y-63655400D01*
X61989000Y-61115400D02*
X56909000Y-61115400D01*
X59319000Y-58445400D02*
X61989000Y-58445400D01*
X46619000Y-22885400D02*
X46619000Y-58445400D01*
X49029000Y-53235400D02*
X56909000Y-53235400D01*
X46619000Y-20345400D02*
X43949000Y-20345400D01*
X46619000Y-22885400D02*
X46619000Y-20345400D01*
X59319000Y-20345400D02*
X61989000Y-20345400D01*
X59319000Y-20345400D02*
X59319000Y-58445400D01*
X61989000Y-61115400D02*
X61989000Y-17675400D01*
X56909000Y-53235400D02*
X56909000Y-63655400D01*
X43949000Y-22885400D02*
X43949000Y-61115400D01*
X33501000Y-32869964D02*
X33501000Y-31415836D01*
X35321000Y-32869964D02*
X35321000Y-31415836D01*
X38612400Y-32858064D02*
X38612400Y-31403936D01*
X40432400Y-32858064D02*
X40432400Y-31403936D01*
G36*
X40414982Y-62011871D02*
G01*
X40414303Y-61952910D01*
X40413964Y-61887306D01*
X40413934Y-61860890D01*
X40413934Y-61591213D01*
X40383906Y-61591213D01*
X40360972Y-61588156D01*
X40346034Y-61580734D01*
X40345508Y-61580100D01*
X40339899Y-61569107D01*
X40328527Y-61544035D01*
X40319988Y-61524535D01*
X40387263Y-61524535D01*
X40391708Y-61528980D01*
X40396153Y-61524535D01*
X40391708Y-61520089D01*
X40387263Y-61524535D01*
X40319988Y-61524535D01*
X40312414Y-61507238D01*
X40293112Y-61462302D01*
X40360591Y-61462302D01*
X40365037Y-61466747D01*
X40369482Y-61462302D01*
X40365037Y-61457856D01*
X40360591Y-61462302D01*
X40293112Y-61462302D01*
X40292584Y-61461073D01*
X40270057Y-61407895D01*
X40251070Y-61362574D01*
X40165002Y-61156162D01*
X40165002Y-60928581D01*
X40165229Y-60852591D01*
X40166057Y-60792572D01*
X40167699Y-60746714D01*
X40169125Y-60728840D01*
X40350696Y-60728840D01*
X40366757Y-60756543D01*
X40398815Y-60795478D01*
X40442857Y-60826235D01*
X40493956Y-60846128D01*
X40542846Y-60852526D01*
X40576457Y-60849251D01*
X40609807Y-60841300D01*
X40611765Y-60840622D01*
X40657305Y-60817779D01*
X40696310Y-60785855D01*
X40718934Y-60756543D01*
X40734995Y-60728840D01*
X40350696Y-60728840D01*
X40169125Y-60728840D01*
X40170372Y-60713212D01*
X40174292Y-60690258D01*
X40179675Y-60676045D01*
X40186736Y-60668765D01*
X40195691Y-60666612D01*
X40196281Y-60666607D01*
X40271687Y-60666607D01*
X40431715Y-60666607D01*
X40431715Y-60542141D01*
X40402376Y-60542141D01*
X40383989Y-60541188D01*
X40370678Y-60536690D01*
X40361627Y-60526184D01*
X40356020Y-60507211D01*
X40353300Y-60479907D01*
X40413934Y-60479907D01*
X40444738Y-60479907D01*
X40465544Y-60482397D01*
X40479672Y-60491658D01*
X40488318Y-60510375D01*
X40492677Y-60541234D01*
X40493944Y-60586921D01*
X40493948Y-60590453D01*
X40493948Y-60666607D01*
X40591743Y-60666607D01*
X40653976Y-60666607D01*
X40814004Y-60666607D01*
X40814004Y-60257646D01*
X40733990Y-60257646D01*
X40733990Y-60389225D01*
X40733674Y-60444709D01*
X40732184Y-60484876D01*
X40728702Y-60512189D01*
X40722414Y-60529109D01*
X40712505Y-60538096D01*
X40698157Y-60541612D01*
X40683315Y-60542141D01*
X40653976Y-60542141D01*
X40653976Y-60666607D01*
X40591743Y-60666607D01*
X40591743Y-60590453D01*
X40592851Y-60543714D01*
X40596974Y-60511976D01*
X40605306Y-60492555D01*
X40619043Y-60482763D01*
X40639381Y-60479916D01*
X40640953Y-60479907D01*
X40671757Y-60479907D01*
X40671757Y-60204304D01*
X40413934Y-60204304D01*
X40413934Y-60479907D01*
X40353300Y-60479907D01*
X40353041Y-60477307D01*
X40351876Y-60434013D01*
X40351701Y-60389225D01*
X40351701Y-60257646D01*
X40271687Y-60257646D01*
X40271687Y-60666607D01*
X40196281Y-60666607D01*
X40200296Y-60664244D01*
X40203479Y-60655902D01*
X40205956Y-60639698D01*
X40207851Y-60613752D01*
X40209290Y-60576181D01*
X40210398Y-60525103D01*
X40211300Y-60458638D01*
X40211526Y-60437678D01*
X40213899Y-60208749D01*
X40281058Y-60206184D01*
X40315182Y-60204618D01*
X40335736Y-60202001D01*
X40346918Y-60196604D01*
X40352929Y-60186698D01*
X40356627Y-60175067D01*
X40365037Y-60146516D01*
X40720654Y-60146516D01*
X40729064Y-60175067D01*
X40733951Y-60189565D01*
X40740815Y-60198237D01*
X40753853Y-60202814D01*
X40777265Y-60205023D01*
X40804633Y-60206184D01*
X40871792Y-60208749D01*
X40874165Y-60437678D01*
X40875033Y-60508649D01*
X40876073Y-60563720D01*
X40877410Y-60604774D01*
X40879168Y-60633693D01*
X40881474Y-60652357D01*
X40884453Y-60662648D01*
X40888230Y-60666449D01*
X40889410Y-60666607D01*
X40898497Y-60668522D01*
X40905672Y-60675475D01*
X40911150Y-60689274D01*
X40915149Y-60711730D01*
X40917886Y-60744650D01*
X40919577Y-60789846D01*
X40920439Y-60849126D01*
X40920689Y-60924299D01*
X40920689Y-61154450D01*
X40834737Y-61366164D01*
X40811084Y-61423778D01*
X40789173Y-61475935D01*
X40769998Y-61520361D01*
X40754556Y-61554781D01*
X40743843Y-61576920D01*
X40739164Y-61584409D01*
X40724046Y-61589040D01*
X40701064Y-61591075D01*
X40700779Y-61591077D01*
X40672014Y-61591213D01*
X40667312Y-62137975D01*
X40546790Y-62140438D01*
X40502163Y-62140909D01*
X40464066Y-62140479D01*
X40435953Y-62139251D01*
X40421277Y-62137323D01*
X40420101Y-62136733D01*
X40418560Y-62126620D01*
X40417161Y-62100954D01*
X40416517Y-62080187D01*
X40467277Y-62080187D01*
X40618414Y-62080187D01*
X40618414Y-61591213D01*
X40467277Y-61591213D01*
X40467277Y-62080187D01*
X40416517Y-62080187D01*
X40415951Y-62061962D01*
X40414982Y-62011871D01*
G37*
X63144400Y-25425400D02*
X65684400Y-25425400D01*
X65684400Y-25425400D02*
X65684400Y-27965400D01*
X65684400Y-27965400D02*
X63144400Y-27965400D01*
X63144400Y-27965400D02*
X63144400Y-25425400D01*
X22666336Y-62361400D02*
X24120464Y-62361400D01*
X22666336Y-64181400D02*
X24120464Y-64181400D01*
X37439600Y-14935200D02*
X39979600Y-14935200D01*
X39979600Y-14935200D02*
X39979600Y-17475200D01*
X39979600Y-17475200D02*
X37439600Y-17475200D01*
X37439600Y-17475200D02*
X37439600Y-14935200D01*
X47117000Y-63906400D02*
X49657000Y-63906400D01*
X49657000Y-63906400D02*
X49657000Y-66446400D01*
X49657000Y-66446400D02*
X47117000Y-66446400D01*
X47117000Y-66446400D02*
X47117000Y-63906400D01*
X40771400Y-54411964D02*
X40771400Y-52957836D01*
X42591400Y-54411964D02*
X42591400Y-52957836D01*
X45542200Y-14935200D02*
X48082200Y-14935200D01*
X48082200Y-14935200D02*
X48082200Y-17475200D01*
X48082200Y-17475200D02*
X45542200Y-17475200D01*
X45542200Y-17475200D02*
X45542200Y-14935200D01*
X44526200Y-63906400D02*
X47066200Y-63906400D01*
X47066200Y-63906400D02*
X47066200Y-66446400D01*
X47066200Y-66446400D02*
X44526200Y-66446400D01*
X44526200Y-66446400D02*
X44526200Y-63906400D01*
X23185800Y-55711736D02*
X23185800Y-57165864D01*
X21365800Y-55711736D02*
X21365800Y-57165864D01*
G36*
X35223630Y-42173349D02*
G01*
X35282247Y-42177134D01*
X35340627Y-42183945D01*
X35398636Y-42193783D01*
X35456138Y-42206653D01*
X35498594Y-42218221D01*
X35555389Y-42236522D01*
X35611025Y-42257710D01*
X35665426Y-42281740D01*
X35718515Y-42308567D01*
X35770215Y-42338145D01*
X35820448Y-42370430D01*
X35869138Y-42405377D01*
X35916208Y-42442939D01*
X35961581Y-42483073D01*
X35979661Y-42500246D01*
X35989962Y-42510468D01*
X35998245Y-42519269D01*
X36004939Y-42527168D01*
X36010474Y-42534687D01*
X36015278Y-42542347D01*
X36017152Y-42545676D01*
X36026009Y-42565020D01*
X36031842Y-42585023D01*
X36034637Y-42605495D01*
X36034376Y-42626243D01*
X36031044Y-42647078D01*
X36026876Y-42661609D01*
X36019036Y-42680092D01*
X36008643Y-42697350D01*
X35996020Y-42713040D01*
X35981491Y-42726820D01*
X35965378Y-42738348D01*
X35948004Y-42747283D01*
X35944631Y-42748642D01*
X35932664Y-42752930D01*
X35922132Y-42755848D01*
X35911828Y-42757621D01*
X35900548Y-42758473D01*
X35890806Y-42758642D01*
X35874449Y-42758019D01*
X35859936Y-42755970D01*
X35846218Y-42752254D01*
X35832248Y-42746631D01*
X35826739Y-42743987D01*
X35820827Y-42740929D01*
X35815411Y-42737822D01*
X35810115Y-42734370D01*
X35804565Y-42730277D01*
X35798384Y-42725250D01*
X35791198Y-42718991D01*
X35782632Y-42711205D01*
X35772309Y-42701598D01*
X35769358Y-42698829D01*
X35729817Y-42663726D01*
X35688747Y-42631277D01*
X35646229Y-42601524D01*
X35602343Y-42574509D01*
X35557169Y-42550275D01*
X35510789Y-42528865D01*
X35463281Y-42510319D01*
X35414726Y-42494681D01*
X35365205Y-42481994D01*
X35353050Y-42479364D01*
X35302446Y-42470384D01*
X35251692Y-42464492D01*
X35200912Y-42461665D01*
X35150232Y-42461879D01*
X35099778Y-42465109D01*
X35049675Y-42471331D01*
X35000050Y-42480522D01*
X34951027Y-42492657D01*
X34902732Y-42507712D01*
X34855291Y-42525663D01*
X34808829Y-42546485D01*
X34763472Y-42570155D01*
X34719347Y-42596649D01*
X34709856Y-42602829D01*
X34685430Y-42619496D01*
X34662103Y-42636564D01*
X34639259Y-42654528D01*
X34616283Y-42673880D01*
X34592558Y-42695114D01*
X34579697Y-42707085D01*
X34569193Y-42716832D01*
X34560336Y-42724665D01*
X34552634Y-42730950D01*
X34545596Y-42736053D01*
X34538731Y-42740339D01*
X34531546Y-42744173D01*
X34526676Y-42746501D01*
X34511927Y-42752047D01*
X34495398Y-42756100D01*
X34478127Y-42758514D01*
X34461156Y-42759140D01*
X34446186Y-42757933D01*
X34434939Y-42755517D01*
X34422366Y-42751648D01*
X34409638Y-42746754D01*
X34397923Y-42741262D01*
X34392698Y-42738359D01*
X34381639Y-42730715D01*
X34370292Y-42720995D01*
X34359497Y-42710037D01*
X34350093Y-42698680D01*
X34344024Y-42689684D01*
X34334571Y-42670870D01*
X34327990Y-42651266D01*
X34324263Y-42631180D01*
X34323372Y-42610920D01*
X34325300Y-42590794D01*
X34330031Y-42571109D01*
X34337546Y-42552172D01*
X34347828Y-42534293D01*
X34353159Y-42526925D01*
X34358104Y-42521075D01*
X34365115Y-42513562D01*
X34373847Y-42504714D01*
X34383957Y-42494854D01*
X34395098Y-42484309D01*
X34406927Y-42473405D01*
X34419097Y-42462467D01*
X34431265Y-42451821D01*
X34443086Y-42441794D01*
X34444710Y-42440444D01*
X34492751Y-42402562D01*
X34541994Y-42367558D01*
X34592481Y-42335409D01*
X34644254Y-42306092D01*
X34697355Y-42279582D01*
X34751826Y-42255857D01*
X34807708Y-42234893D01*
X34818084Y-42231356D01*
X34874560Y-42214034D01*
X34931748Y-42199720D01*
X34989513Y-42188415D01*
X35047719Y-42180123D01*
X35106231Y-42174846D01*
X35164913Y-42172588D01*
X35223630Y-42173349D01*
G37*
G36*
X35189390Y-43154458D02*
G01*
X35197350Y-43154632D01*
X35203660Y-43155011D01*
X35209058Y-43155666D01*
X35214281Y-43156669D01*
X35220067Y-43158092D01*
X35222015Y-43158610D01*
X35244099Y-43166101D01*
X35264680Y-43176218D01*
X35283571Y-43188765D01*
X35300583Y-43203543D01*
X35315529Y-43220356D01*
X35328222Y-43239008D01*
X35338474Y-43259300D01*
X35346098Y-43281036D01*
X35348722Y-43291706D01*
X35351924Y-43313875D01*
X35352152Y-43335838D01*
X35349559Y-43357364D01*
X35344296Y-43378224D01*
X35336515Y-43398189D01*
X35326367Y-43417029D01*
X35314005Y-43434515D01*
X35299581Y-43450417D01*
X35283245Y-43464507D01*
X35265150Y-43476555D01*
X35245448Y-43486332D01*
X35224290Y-43493607D01*
X35213421Y-43496193D01*
X35202248Y-43497947D01*
X35189633Y-43499075D01*
X35176818Y-43499521D01*
X35165044Y-43499227D01*
X35159115Y-43498687D01*
X35136431Y-43494336D01*
X35114844Y-43487195D01*
X35094571Y-43477449D01*
X35075829Y-43465280D01*
X35058835Y-43450874D01*
X35043806Y-43434413D01*
X35030960Y-43416084D01*
X35020514Y-43396069D01*
X35012684Y-43374552D01*
X35012672Y-43374513D01*
X35007759Y-43352152D01*
X35005868Y-43329723D01*
X35006915Y-43307477D01*
X35010815Y-43285667D01*
X35017483Y-43264545D01*
X35026832Y-43244364D01*
X35038778Y-43225377D01*
X35053236Y-43207835D01*
X35070120Y-43191992D01*
X35075912Y-43187404D01*
X35085474Y-43180973D01*
X35097121Y-43174443D01*
X35109864Y-43168288D01*
X35122714Y-43162980D01*
X35134684Y-43158993D01*
X35136072Y-43158610D01*
X35142169Y-43157047D01*
X35147484Y-43155926D01*
X35152752Y-43155174D01*
X35158713Y-43154721D01*
X35166102Y-43154493D01*
X35175659Y-43154419D01*
X35179043Y-43154416D01*
X35189390Y-43154458D01*
G37*
G36*
X35224916Y-41692561D02*
G01*
X35270012Y-41694161D01*
X35313314Y-41696888D01*
X35316552Y-41697145D01*
X35387526Y-41704414D01*
X35457736Y-41714701D01*
X35527115Y-41727979D01*
X35595594Y-41744218D01*
X35663106Y-41763389D01*
X35729581Y-41785466D01*
X35794952Y-41810418D01*
X35859150Y-41838217D01*
X35922108Y-41868836D01*
X35983757Y-41902245D01*
X36044028Y-41938416D01*
X36102854Y-41977320D01*
X36160167Y-42018929D01*
X36215897Y-42063215D01*
X36238484Y-42082320D01*
X36251347Y-42093518D01*
X36264029Y-42104783D01*
X36276231Y-42115834D01*
X36287658Y-42126394D01*
X36298012Y-42136182D01*
X36306996Y-42144921D01*
X36314313Y-42152332D01*
X36319667Y-42158135D01*
X36321339Y-42160126D01*
X36328121Y-42169809D01*
X36334786Y-42181505D01*
X36340806Y-42194132D01*
X36345652Y-42206605D01*
X36348164Y-42215077D01*
X36350525Y-42228108D01*
X36351704Y-42242628D01*
X36351703Y-42257549D01*
X36350523Y-42271781D01*
X36348166Y-42284234D01*
X36348093Y-42284508D01*
X36341097Y-42304941D01*
X36331535Y-42323769D01*
X36319563Y-42340799D01*
X36305341Y-42355839D01*
X36289026Y-42368695D01*
X36270777Y-42379176D01*
X36270289Y-42379409D01*
X36258740Y-42384575D01*
X36248434Y-42388296D01*
X36238416Y-42390779D01*
X36227727Y-42392234D01*
X36215411Y-42392867D01*
X36208013Y-42392941D01*
X36194177Y-42392633D01*
X36182476Y-42391574D01*
X36171970Y-42389558D01*
X36161716Y-42386382D01*
X36150774Y-42381841D01*
X36145509Y-42379362D01*
X36139351Y-42376279D01*
X36133822Y-42373218D01*
X36128513Y-42369866D01*
X36123016Y-42365910D01*
X36116921Y-42361040D01*
X36109818Y-42354944D01*
X36101299Y-42347308D01*
X36090955Y-42337822D01*
X36090613Y-42337506D01*
X36057915Y-42308069D01*
X36025953Y-42280878D01*
X35994043Y-42255395D01*
X35961502Y-42231083D01*
X35927646Y-42207402D01*
X35911120Y-42196360D01*
X35857291Y-42162749D01*
X35802087Y-42131923D01*
X35745584Y-42103901D01*
X35687856Y-42078699D01*
X35628980Y-42056337D01*
X35569031Y-42036830D01*
X35508084Y-42020196D01*
X35446215Y-42006454D01*
X35383500Y-41995620D01*
X35320013Y-41987713D01*
X35255830Y-41982749D01*
X35191028Y-41980747D01*
X35125680Y-41981723D01*
X35059863Y-41985697D01*
X35021479Y-41989384D01*
X34961070Y-41997499D01*
X34900597Y-42008625D01*
X34840361Y-42022672D01*
X34780660Y-42039545D01*
X34721797Y-42059153D01*
X34664069Y-42081404D01*
X34607777Y-42106206D01*
X34553517Y-42133309D01*
X34512258Y-42156065D01*
X34472629Y-42179728D01*
X34434217Y-42204598D01*
X34396606Y-42230971D01*
X34359381Y-42259149D01*
X34322129Y-42289428D01*
X34284433Y-42322108D01*
X34257749Y-42346398D01*
X34250802Y-42352726D01*
X34244020Y-42358705D01*
X34238002Y-42363818D01*
X34233350Y-42367550D01*
X34231734Y-42368730D01*
X34222295Y-42374442D01*
X34211038Y-42380077D01*
X34199229Y-42385061D01*
X34188135Y-42388821D01*
X34186014Y-42389402D01*
X34175006Y-42391552D01*
X34162227Y-42392910D01*
X34148837Y-42393433D01*
X34135997Y-42393079D01*
X34124869Y-42391806D01*
X34124032Y-42391653D01*
X34103732Y-42386256D01*
X34084717Y-42378125D01*
X34067203Y-42367461D01*
X34051402Y-42354466D01*
X34037531Y-42339340D01*
X34025803Y-42322286D01*
X34016432Y-42303505D01*
X34009980Y-42284508D01*
X34007676Y-42272632D01*
X34006449Y-42258914D01*
X34006297Y-42244446D01*
X34007221Y-42230318D01*
X34009219Y-42217623D01*
X34010018Y-42214296D01*
X34014327Y-42201097D01*
X34020266Y-42187326D01*
X34027245Y-42174202D01*
X34034678Y-42162946D01*
X34034889Y-42162665D01*
X34039951Y-42156630D01*
X34047200Y-42148905D01*
X34056368Y-42139733D01*
X34067184Y-42129356D01*
X34079380Y-42118016D01*
X34092686Y-42105955D01*
X34106833Y-42093415D01*
X34121551Y-42080639D01*
X34136572Y-42067868D01*
X34151625Y-42055344D01*
X34166443Y-42043311D01*
X34176638Y-42035224D01*
X34233749Y-41992364D01*
X34292290Y-41952280D01*
X34352220Y-41914985D01*
X34413498Y-41880499D01*
X34476082Y-41848836D01*
X34539931Y-41820014D01*
X34605006Y-41794049D01*
X34671264Y-41770959D01*
X34738664Y-41750759D01*
X34807166Y-41733466D01*
X34876728Y-41719097D01*
X34947310Y-41707669D01*
X35000126Y-41701120D01*
X35042364Y-41697234D01*
X35086750Y-41694425D01*
X35132497Y-41692703D01*
X35178815Y-41692079D01*
X35224916Y-41692561D01*
G37*
G36*
X35237955Y-42655923D02*
G01*
X35271470Y-42659662D01*
X35316952Y-42667532D01*
X35361603Y-42678391D01*
X35405297Y-42692181D01*
X35447909Y-42708846D01*
X35489311Y-42728329D01*
X35529378Y-42750575D01*
X35567983Y-42775525D01*
X35605000Y-42803125D01*
X35621258Y-42816522D01*
X35629593Y-42823841D01*
X35638775Y-42832305D01*
X35648384Y-42841491D01*
X35658003Y-42850975D01*
X35667211Y-42860335D01*
X35675589Y-42869147D01*
X35682719Y-42876987D01*
X35688181Y-42883432D01*
X35690486Y-42886457D01*
X35701552Y-42904522D01*
X35709642Y-42923489D01*
X35714790Y-42943463D01*
X35717029Y-42964546D01*
X35717139Y-42970592D01*
X35716393Y-42987517D01*
X35713984Y-43002766D01*
X35709654Y-43017458D01*
X35703147Y-43032708D01*
X35702578Y-43033878D01*
X35691841Y-43052393D01*
X35678941Y-43068755D01*
X35664088Y-43082831D01*
X35647490Y-43094492D01*
X35629355Y-43103608D01*
X35609892Y-43110048D01*
X35589309Y-43113683D01*
X35573599Y-43114489D01*
X35556625Y-43113791D01*
X35541481Y-43111551D01*
X35527164Y-43107543D01*
X35512668Y-43101539D01*
X35509532Y-43100016D01*
X35498847Y-43094087D01*
X35488303Y-43086893D01*
X35477399Y-43078038D01*
X35465630Y-43067130D01*
X35458748Y-43060256D01*
X35436826Y-43039355D01*
X35414361Y-43020966D01*
X35390627Y-43004562D01*
X35364899Y-42989619D01*
X35352412Y-42983199D01*
X35321535Y-42969396D01*
X35290444Y-42958569D01*
X35258761Y-42950621D01*
X35226106Y-42945459D01*
X35192102Y-42942989D01*
X35190671Y-42942943D01*
X35156909Y-42943219D01*
X35124381Y-42946175D01*
X35092720Y-42951892D01*
X35061556Y-42960453D01*
X35030519Y-42971939D01*
X35003852Y-42984117D01*
X34984986Y-42994025D01*
X34967386Y-43004524D01*
X34950512Y-43016012D01*
X34933821Y-43028888D01*
X34916772Y-43043553D01*
X34898824Y-43060406D01*
X34893825Y-43065313D01*
X34884363Y-43074488D01*
X34876478Y-43081679D01*
X34869710Y-43087274D01*
X34863598Y-43091660D01*
X34859447Y-43094228D01*
X34840475Y-43103748D01*
X34821401Y-43110263D01*
X34801784Y-43113873D01*
X34781181Y-43114679D01*
X34771987Y-43114195D01*
X34751865Y-43111106D01*
X34732646Y-43105173D01*
X34714574Y-43096603D01*
X34697890Y-43085608D01*
X34682838Y-43072397D01*
X34669660Y-43057178D01*
X34658598Y-43040163D01*
X34649897Y-43021559D01*
X34644372Y-43003996D01*
X34642607Y-42995663D01*
X34641532Y-42987305D01*
X34641027Y-42977751D01*
X34640948Y-42970592D01*
X34642387Y-42949183D01*
X34646726Y-42928913D01*
X34653999Y-42909677D01*
X34664238Y-42891373D01*
X34667601Y-42886457D01*
X34671774Y-42881165D01*
X34677860Y-42874217D01*
X34685440Y-42866038D01*
X34694093Y-42857052D01*
X34703401Y-42847684D01*
X34712944Y-42838359D01*
X34722302Y-42829500D01*
X34731057Y-42821532D01*
X34736047Y-42817183D01*
X34771842Y-42788693D01*
X34809462Y-42762673D01*
X34848722Y-42739212D01*
X34889437Y-42718394D01*
X34931424Y-42700306D01*
X34974497Y-42685036D01*
X35018471Y-42672669D01*
X35063161Y-42663292D01*
X35065755Y-42662845D01*
X35108004Y-42657095D01*
X35151229Y-42654018D01*
X35194766Y-42653624D01*
X35237955Y-42655923D01*
G37*
X63169800Y-40792400D02*
X65709800Y-40792400D01*
X65709800Y-40792400D02*
X65709800Y-43332400D01*
X65709800Y-43332400D02*
X63169800Y-43332400D01*
X63169800Y-43332400D02*
X63169800Y-40792400D01*
X41452800Y-14986000D02*
X43992800Y-14986000D01*
X43992800Y-14986000D02*
X43992800Y-17526000D01*
X43992800Y-17526000D02*
X41452800Y-17526000D01*
X41452800Y-17526000D02*
X41452800Y-14986000D01*
D12*
X14884400Y-47002700D02*
X17907000Y-47002700D01*
X17907000Y-47002700D02*
X17907000Y-50914300D01*
X17907000Y-50914300D02*
X14884400Y-50914300D01*
X14884400Y-50914300D02*
X14884400Y-47002700D01*
X14859000Y-38874700D02*
X17881600Y-38874700D01*
X17881600Y-38874700D02*
X17881600Y-42786300D01*
X17881600Y-42786300D02*
X14859000Y-42786300D01*
X14859000Y-42786300D02*
X14859000Y-38874700D01*
X14859000Y-42938700D02*
X17881600Y-42938700D01*
X17881600Y-42938700D02*
X17881600Y-46850300D01*
X17881600Y-46850300D02*
X14859000Y-46850300D01*
X14859000Y-46850300D02*
X14859000Y-42938700D01*
X14859000Y-34785300D02*
X17881600Y-34785300D01*
X17881600Y-34785300D02*
X17881600Y-38696900D01*
X17881600Y-38696900D02*
X14859000Y-38696900D01*
X14859000Y-38696900D02*
X14859000Y-34785300D01*
D15*
X63169800Y-22910800D02*
X65709800Y-22910800D01*
X65709800Y-22910800D02*
X65709800Y-25450800D01*
X65709800Y-25450800D02*
X63169800Y-25450800D01*
X63169800Y-25450800D02*
X63169800Y-22910800D01*
M02*
