G04 #@! TF.GenerationSoftware,KiCad,Pcbnew,(6.0.11)*
G04 #@! TF.CreationDate,2023-03-02T01:09:38+03:00*
G04 #@! TF.ProjectId,Device-1,44657669-6365-42d3-912e-6b696361645f,rev?*
G04 #@! TF.SameCoordinates,Original*
G04 #@! TF.FileFunction,Legend,Bot*
G04 #@! TF.FilePolarity,Positive*
%FSLAX46Y46*%
G04 Gerber Fmt 4.6, Leading zero omitted, Abs format (unit mm)*
G04 Created by KiCad (PCBNEW (6.0.11)) date 2023-03-02 01:09:38*
%MOMM*%
%LPD*%
G01*
G04 APERTURE LIST*
G04 #@! TA.AperFunction,Profile*
%ADD10C,0.100000*%
G04 #@! TD*
%ADD11C,0.167500*%
%ADD12C,0.300000*%
%ADD13C,0.250000*%
%ADD14C,0.150000*%
%ADD15C,0.120000*%
G04 APERTURE END LIST*
D10*
X12954000Y-16002000D02*
X13004370Y-64922400D01*
X66447246Y-64922400D02*
G75*
G03*
X66447246Y-64922400I-1524846J0D01*
G01*
X64973200Y-67970400D02*
G75*
G03*
X67970400Y-64871600I-50800J3048000D01*
G01*
X66447246Y-15951200D02*
G75*
G03*
X66447246Y-15951200I-1524846J0D01*
G01*
X16052800Y-67919600D02*
X64973200Y-67970400D01*
X17526846Y-64922400D02*
G75*
G03*
X17526846Y-64922400I-1524846J0D01*
G01*
X13004370Y-64922400D02*
G75*
G03*
X16052800Y-67919600I2997630J0D01*
G01*
X67919656Y-16051109D02*
G75*
G03*
X65024000Y-12954001I-2997256J99909D01*
G01*
X67970400Y-64871600D02*
X67919656Y-16051109D01*
X17526000Y-16002000D02*
G75*
G03*
X17526000Y-16002000I-1524000J0D01*
G01*
X65024000Y-12954001D02*
X16002000Y-12954000D01*
X16002000Y-12954000D02*
G75*
G03*
X12954000Y-16002000I0J-3048000D01*
G01*
D11*
X17768204Y-32537066D02*
X18438204Y-32537066D01*
X18438204Y-32377542D01*
X18406300Y-32281828D01*
X18342490Y-32218019D01*
X18278680Y-32186114D01*
X18151061Y-32154209D01*
X18055347Y-32154209D01*
X17927728Y-32186114D01*
X17863919Y-32218019D01*
X17800109Y-32281828D01*
X17768204Y-32377542D01*
X17768204Y-32537066D01*
X17800109Y-31611828D02*
X17768204Y-31675638D01*
X17768204Y-31803257D01*
X17800109Y-31867066D01*
X17863919Y-31898971D01*
X18119157Y-31898971D01*
X18182966Y-31867066D01*
X18214871Y-31803257D01*
X18214871Y-31675638D01*
X18182966Y-31611828D01*
X18119157Y-31579923D01*
X18055347Y-31579923D01*
X17991538Y-31898971D01*
X17800109Y-31324685D02*
X17768204Y-31260876D01*
X17768204Y-31133257D01*
X17800109Y-31069447D01*
X17863919Y-31037542D01*
X17895823Y-31037542D01*
X17959633Y-31069447D01*
X17991538Y-31133257D01*
X17991538Y-31228971D01*
X18023442Y-31292780D01*
X18087252Y-31324685D01*
X18119157Y-31324685D01*
X18182966Y-31292780D01*
X18214871Y-31228971D01*
X18214871Y-31133257D01*
X18182966Y-31069447D01*
X17768204Y-30750400D02*
X18214871Y-30750400D01*
X18438204Y-30750400D02*
X18406300Y-30782304D01*
X18374395Y-30750400D01*
X18406300Y-30718495D01*
X18438204Y-30750400D01*
X18374395Y-30750400D01*
X18214871Y-30144209D02*
X17672490Y-30144209D01*
X17608680Y-30176114D01*
X17576776Y-30208019D01*
X17544871Y-30271828D01*
X17544871Y-30367542D01*
X17576776Y-30431352D01*
X17800109Y-30144209D02*
X17768204Y-30208019D01*
X17768204Y-30335638D01*
X17800109Y-30399447D01*
X17832014Y-30431352D01*
X17895823Y-30463257D01*
X18087252Y-30463257D01*
X18151061Y-30431352D01*
X18182966Y-30399447D01*
X18214871Y-30335638D01*
X18214871Y-30208019D01*
X18182966Y-30144209D01*
X18214871Y-29825161D02*
X17768204Y-29825161D01*
X18151061Y-29825161D02*
X18182966Y-29793257D01*
X18214871Y-29729447D01*
X18214871Y-29633733D01*
X18182966Y-29569923D01*
X18119157Y-29538019D01*
X17768204Y-29538019D01*
X17800109Y-28963733D02*
X17768204Y-29027542D01*
X17768204Y-29155161D01*
X17800109Y-29218971D01*
X17863919Y-29250876D01*
X18119157Y-29250876D01*
X18182966Y-29218971D01*
X18214871Y-29155161D01*
X18214871Y-29027542D01*
X18182966Y-28963733D01*
X18119157Y-28931828D01*
X18055347Y-28931828D01*
X17991538Y-29250876D01*
X17768204Y-28357542D02*
X18438204Y-28357542D01*
X17800109Y-28357542D02*
X17768204Y-28421352D01*
X17768204Y-28548971D01*
X17800109Y-28612780D01*
X17832014Y-28644685D01*
X17895823Y-28676590D01*
X18087252Y-28676590D01*
X18151061Y-28644685D01*
X18182966Y-28612780D01*
X18214871Y-28548971D01*
X18214871Y-28421352D01*
X18182966Y-28357542D01*
X17768204Y-27528019D02*
X18438204Y-27528019D01*
X18182966Y-27528019D02*
X18214871Y-27464209D01*
X18214871Y-27336590D01*
X18182966Y-27272780D01*
X18151061Y-27240876D01*
X18087252Y-27208971D01*
X17895823Y-27208971D01*
X17832014Y-27240876D01*
X17800109Y-27272780D01*
X17768204Y-27336590D01*
X17768204Y-27464209D01*
X17800109Y-27528019D01*
X18214871Y-26985638D02*
X17768204Y-26826114D01*
X18214871Y-26666590D02*
X17768204Y-26826114D01*
X17608680Y-26889923D01*
X17576776Y-26921828D01*
X17544871Y-26985638D01*
X18119157Y-25900876D02*
X18119157Y-25677542D01*
X17768204Y-25581828D02*
X17768204Y-25900876D01*
X18438204Y-25900876D01*
X18438204Y-25581828D01*
X17768204Y-25294685D02*
X18214871Y-25294685D01*
X18087252Y-25294685D02*
X18151061Y-25262780D01*
X18182966Y-25230876D01*
X18214871Y-25167066D01*
X18214871Y-25103257D01*
X17768204Y-24592780D02*
X18438204Y-24592780D01*
X17800109Y-24592780D02*
X17768204Y-24656590D01*
X17768204Y-24784209D01*
X17800109Y-24848019D01*
X17832014Y-24879923D01*
X17895823Y-24911828D01*
X18087252Y-24911828D01*
X18151061Y-24879923D01*
X18182966Y-24848019D01*
X18214871Y-24784209D01*
X18214871Y-24656590D01*
X18182966Y-24592780D01*
X17800109Y-24018495D02*
X17768204Y-24082304D01*
X17768204Y-24209923D01*
X17800109Y-24273733D01*
X17863919Y-24305638D01*
X18119157Y-24305638D01*
X18182966Y-24273733D01*
X18214871Y-24209923D01*
X18214871Y-24082304D01*
X18182966Y-24018495D01*
X18119157Y-23986590D01*
X18055347Y-23986590D01*
X17991538Y-24305638D01*
X17768204Y-23699447D02*
X18214871Y-23699447D01*
X18151061Y-23699447D02*
X18182966Y-23667542D01*
X18214871Y-23603733D01*
X18214871Y-23508019D01*
X18182966Y-23444209D01*
X18119157Y-23412304D01*
X17768204Y-23412304D01*
X18119157Y-23412304D02*
X18182966Y-23380400D01*
X18214871Y-23316590D01*
X18214871Y-23220876D01*
X18182966Y-23157066D01*
X18119157Y-23125161D01*
X17768204Y-23125161D01*
X17832014Y-21912780D02*
X17800109Y-21944685D01*
X17768204Y-22040400D01*
X17768204Y-22104209D01*
X17800109Y-22199923D01*
X17863919Y-22263733D01*
X17927728Y-22295638D01*
X18055347Y-22327542D01*
X18151061Y-22327542D01*
X18278680Y-22295638D01*
X18342490Y-22263733D01*
X18406300Y-22199923D01*
X18438204Y-22104209D01*
X18438204Y-22040400D01*
X18406300Y-21944685D01*
X18374395Y-21912780D01*
X17768204Y-21338495D02*
X18119157Y-21338495D01*
X18182966Y-21370400D01*
X18214871Y-21434209D01*
X18214871Y-21561828D01*
X18182966Y-21625638D01*
X17800109Y-21338495D02*
X17768204Y-21402304D01*
X17768204Y-21561828D01*
X17800109Y-21625638D01*
X17863919Y-21657542D01*
X17927728Y-21657542D01*
X17991538Y-21625638D01*
X18023442Y-21561828D01*
X18023442Y-21402304D01*
X18055347Y-21338495D01*
X18214871Y-21019447D02*
X17768204Y-21019447D01*
X18151061Y-21019447D02*
X18182966Y-20987542D01*
X18214871Y-20923733D01*
X18214871Y-20828019D01*
X18182966Y-20764209D01*
X18119157Y-20732304D01*
X17768204Y-20732304D01*
X17768204Y-20126114D02*
X18119157Y-20126114D01*
X18182966Y-20158019D01*
X18214871Y-20221828D01*
X18214871Y-20349447D01*
X18182966Y-20413257D01*
X17800109Y-20126114D02*
X17768204Y-20189923D01*
X17768204Y-20349447D01*
X17800109Y-20413257D01*
X17863919Y-20445161D01*
X17927728Y-20445161D01*
X17991538Y-20413257D01*
X18023442Y-20349447D01*
X18023442Y-20189923D01*
X18055347Y-20126114D01*
X18214871Y-19870876D02*
X18214871Y-19519923D01*
X17768204Y-19870876D01*
X17768204Y-19519923D01*
X17295695Y-28804209D02*
X17327600Y-28772304D01*
X17359504Y-28708495D01*
X17359504Y-28548971D01*
X17327600Y-28485161D01*
X17295695Y-28453257D01*
X17231885Y-28421352D01*
X17168076Y-28421352D01*
X17072361Y-28453257D01*
X16689504Y-28836114D01*
X16689504Y-28421352D01*
X17359504Y-28198019D02*
X17359504Y-27751352D01*
X16689504Y-28038495D01*
X16753314Y-27496114D02*
X16721409Y-27464209D01*
X16689504Y-27496114D01*
X16721409Y-27528019D01*
X16753314Y-27496114D01*
X16689504Y-27496114D01*
X17359504Y-27049447D02*
X17359504Y-26985638D01*
X17327600Y-26921828D01*
X17295695Y-26889923D01*
X17231885Y-26858019D01*
X17104266Y-26826114D01*
X16944742Y-26826114D01*
X16817123Y-26858019D01*
X16753314Y-26889923D01*
X16721409Y-26921828D01*
X16689504Y-26985638D01*
X16689504Y-27049447D01*
X16721409Y-27113257D01*
X16753314Y-27145161D01*
X16817123Y-27177066D01*
X16944742Y-27208971D01*
X17104266Y-27208971D01*
X17231885Y-27177066D01*
X17295695Y-27145161D01*
X17327600Y-27113257D01*
X17359504Y-27049447D01*
X17295695Y-26570876D02*
X17327600Y-26538971D01*
X17359504Y-26475161D01*
X17359504Y-26315638D01*
X17327600Y-26251828D01*
X17295695Y-26219923D01*
X17231885Y-26188019D01*
X17168076Y-26188019D01*
X17072361Y-26219923D01*
X16689504Y-26602780D01*
X16689504Y-26188019D01*
X16753314Y-25900876D02*
X16721409Y-25868971D01*
X16689504Y-25900876D01*
X16721409Y-25932780D01*
X16753314Y-25900876D01*
X16689504Y-25900876D01*
X17295695Y-25613733D02*
X17327600Y-25581828D01*
X17359504Y-25518019D01*
X17359504Y-25358495D01*
X17327600Y-25294685D01*
X17295695Y-25262780D01*
X17231885Y-25230876D01*
X17168076Y-25230876D01*
X17072361Y-25262780D01*
X16689504Y-25645638D01*
X16689504Y-25230876D01*
X17359504Y-24816114D02*
X17359504Y-24752304D01*
X17327600Y-24688495D01*
X17295695Y-24656590D01*
X17231885Y-24624685D01*
X17104266Y-24592780D01*
X16944742Y-24592780D01*
X16817123Y-24624685D01*
X16753314Y-24656590D01*
X16721409Y-24688495D01*
X16689504Y-24752304D01*
X16689504Y-24816114D01*
X16721409Y-24879923D01*
X16753314Y-24911828D01*
X16817123Y-24943733D01*
X16944742Y-24975638D01*
X17104266Y-24975638D01*
X17231885Y-24943733D01*
X17295695Y-24911828D01*
X17327600Y-24879923D01*
X17359504Y-24816114D01*
X17295695Y-24337542D02*
X17327600Y-24305638D01*
X17359504Y-24241828D01*
X17359504Y-24082304D01*
X17327600Y-24018495D01*
X17295695Y-23986590D01*
X17231885Y-23954685D01*
X17168076Y-23954685D01*
X17072361Y-23986590D01*
X16689504Y-24369447D01*
X16689504Y-23954685D01*
X17359504Y-23731352D02*
X17359504Y-23316590D01*
X17104266Y-23539923D01*
X17104266Y-23444209D01*
X17072361Y-23380400D01*
X17040457Y-23348495D01*
X16976647Y-23316590D01*
X16817123Y-23316590D01*
X16753314Y-23348495D01*
X16721409Y-23380400D01*
X16689504Y-23444209D01*
X16689504Y-23635638D01*
X16721409Y-23699447D01*
X16753314Y-23731352D01*
X16057471Y-31723495D02*
X15515090Y-31723495D01*
X15451280Y-31755400D01*
X15419376Y-31787304D01*
X15387471Y-31851114D01*
X15387471Y-31946828D01*
X15419376Y-32010638D01*
X15642709Y-31723495D02*
X15610804Y-31787304D01*
X15610804Y-31914923D01*
X15642709Y-31978733D01*
X15674614Y-32010638D01*
X15738423Y-32042542D01*
X15929852Y-32042542D01*
X15993661Y-32010638D01*
X16025566Y-31978733D01*
X16057471Y-31914923D01*
X16057471Y-31787304D01*
X16025566Y-31723495D01*
X15610804Y-31404447D02*
X16057471Y-31404447D01*
X16280804Y-31404447D02*
X16248899Y-31436352D01*
X16216995Y-31404447D01*
X16248899Y-31372542D01*
X16280804Y-31404447D01*
X16216995Y-31404447D01*
X16057471Y-31181114D02*
X16057471Y-30925876D01*
X16280804Y-31085400D02*
X15706519Y-31085400D01*
X15642709Y-31053495D01*
X15610804Y-30989685D01*
X15610804Y-30925876D01*
X15610804Y-30702542D02*
X16280804Y-30702542D01*
X15610804Y-30415400D02*
X15961757Y-30415400D01*
X16025566Y-30447304D01*
X16057471Y-30511114D01*
X16057471Y-30606828D01*
X16025566Y-30670638D01*
X15993661Y-30702542D01*
X16057471Y-29809209D02*
X15610804Y-29809209D01*
X16057471Y-30096352D02*
X15706519Y-30096352D01*
X15642709Y-30064447D01*
X15610804Y-30000638D01*
X15610804Y-29904923D01*
X15642709Y-29841114D01*
X15674614Y-29809209D01*
X15610804Y-29490161D02*
X16280804Y-29490161D01*
X16025566Y-29490161D02*
X16057471Y-29426352D01*
X16057471Y-29298733D01*
X16025566Y-29234923D01*
X15993661Y-29203019D01*
X15929852Y-29171114D01*
X15738423Y-29171114D01*
X15674614Y-29203019D01*
X15642709Y-29234923D01*
X15610804Y-29298733D01*
X15610804Y-29426352D01*
X15642709Y-29490161D01*
X15674614Y-28883971D02*
X15642709Y-28852066D01*
X15610804Y-28883971D01*
X15642709Y-28915876D01*
X15674614Y-28883971D01*
X15610804Y-28883971D01*
X15642709Y-28277780D02*
X15610804Y-28341590D01*
X15610804Y-28469209D01*
X15642709Y-28533019D01*
X15674614Y-28564923D01*
X15738423Y-28596828D01*
X15929852Y-28596828D01*
X15993661Y-28564923D01*
X16025566Y-28533019D01*
X16057471Y-28469209D01*
X16057471Y-28341590D01*
X16025566Y-28277780D01*
X15610804Y-27894923D02*
X15642709Y-27958733D01*
X15674614Y-27990638D01*
X15738423Y-28022542D01*
X15929852Y-28022542D01*
X15993661Y-27990638D01*
X16025566Y-27958733D01*
X16057471Y-27894923D01*
X16057471Y-27799209D01*
X16025566Y-27735400D01*
X15993661Y-27703495D01*
X15929852Y-27671590D01*
X15738423Y-27671590D01*
X15674614Y-27703495D01*
X15642709Y-27735400D01*
X15610804Y-27799209D01*
X15610804Y-27894923D01*
X15610804Y-27384447D02*
X16057471Y-27384447D01*
X15993661Y-27384447D02*
X16025566Y-27352542D01*
X16057471Y-27288733D01*
X16057471Y-27193019D01*
X16025566Y-27129209D01*
X15961757Y-27097304D01*
X15610804Y-27097304D01*
X15961757Y-27097304D02*
X16025566Y-27065400D01*
X16057471Y-27001590D01*
X16057471Y-26905876D01*
X16025566Y-26842066D01*
X15961757Y-26810161D01*
X15610804Y-26810161D01*
X16312709Y-26012542D02*
X15451280Y-26586828D01*
X15642709Y-25533971D02*
X15610804Y-25597780D01*
X15610804Y-25725400D01*
X15642709Y-25789209D01*
X15706519Y-25821114D01*
X15961757Y-25821114D01*
X16025566Y-25789209D01*
X16057471Y-25725400D01*
X16057471Y-25597780D01*
X16025566Y-25533971D01*
X15961757Y-25502066D01*
X15897947Y-25502066D01*
X15834138Y-25821114D01*
X15610804Y-25214923D02*
X16057471Y-25214923D01*
X15929852Y-25214923D02*
X15993661Y-25183019D01*
X16025566Y-25151114D01*
X16057471Y-25087304D01*
X16057471Y-25023495D01*
X15610804Y-24513019D02*
X16280804Y-24513019D01*
X15642709Y-24513019D02*
X15610804Y-24576828D01*
X15610804Y-24704447D01*
X15642709Y-24768257D01*
X15674614Y-24800161D01*
X15738423Y-24832066D01*
X15929852Y-24832066D01*
X15993661Y-24800161D01*
X16025566Y-24768257D01*
X16057471Y-24704447D01*
X16057471Y-24576828D01*
X16025566Y-24513019D01*
X15642709Y-23938733D02*
X15610804Y-24002542D01*
X15610804Y-24130161D01*
X15642709Y-24193971D01*
X15706519Y-24225876D01*
X15961757Y-24225876D01*
X16025566Y-24193971D01*
X16057471Y-24130161D01*
X16057471Y-24002542D01*
X16025566Y-23938733D01*
X15961757Y-23906828D01*
X15897947Y-23906828D01*
X15834138Y-24225876D01*
X15610804Y-23619685D02*
X16057471Y-23619685D01*
X15993661Y-23619685D02*
X16025566Y-23587780D01*
X16057471Y-23523971D01*
X16057471Y-23428257D01*
X16025566Y-23364447D01*
X15961757Y-23332542D01*
X15610804Y-23332542D01*
X15961757Y-23332542D02*
X16025566Y-23300638D01*
X16057471Y-23236828D01*
X16057471Y-23141114D01*
X16025566Y-23077304D01*
X15961757Y-23045400D01*
X15610804Y-23045400D01*
X15642709Y-22439209D02*
X15610804Y-22503019D01*
X15610804Y-22630638D01*
X15642709Y-22694447D01*
X15674614Y-22726352D01*
X15738423Y-22758257D01*
X15929852Y-22758257D01*
X15993661Y-22726352D01*
X16025566Y-22694447D01*
X16057471Y-22630638D01*
X16057471Y-22503019D01*
X16025566Y-22439209D01*
X15610804Y-21864923D02*
X15961757Y-21864923D01*
X16025566Y-21896828D01*
X16057471Y-21960638D01*
X16057471Y-22088257D01*
X16025566Y-22152066D01*
X15642709Y-21864923D02*
X15610804Y-21928733D01*
X15610804Y-22088257D01*
X15642709Y-22152066D01*
X15706519Y-22183971D01*
X15770328Y-22183971D01*
X15834138Y-22152066D01*
X15866042Y-22088257D01*
X15866042Y-21928733D01*
X15897947Y-21864923D01*
X16057471Y-21545876D02*
X15610804Y-21545876D01*
X15993661Y-21545876D02*
X16025566Y-21513971D01*
X16057471Y-21450161D01*
X16057471Y-21354447D01*
X16025566Y-21290638D01*
X15961757Y-21258733D01*
X15610804Y-21258733D01*
X15610804Y-20652542D02*
X15961757Y-20652542D01*
X16025566Y-20684447D01*
X16057471Y-20748257D01*
X16057471Y-20875876D01*
X16025566Y-20939685D01*
X15642709Y-20652542D02*
X15610804Y-20716352D01*
X15610804Y-20875876D01*
X15642709Y-20939685D01*
X15706519Y-20971590D01*
X15770328Y-20971590D01*
X15834138Y-20939685D01*
X15866042Y-20875876D01*
X15866042Y-20716352D01*
X15897947Y-20652542D01*
X16057471Y-20397304D02*
X16057471Y-20046352D01*
X15610804Y-20397304D01*
X15610804Y-20046352D01*
D12*
X29654066Y-57788895D02*
X29654066Y-56488895D01*
X29220733Y-57417466D01*
X28787400Y-56488895D01*
X28787400Y-57788895D01*
X28230257Y-57417466D02*
X27611209Y-57417466D01*
X28354066Y-57788895D02*
X27920733Y-56488895D01*
X27487400Y-57788895D01*
X27177876Y-56488895D02*
X26311209Y-57788895D01*
X26311209Y-56488895D02*
X27177876Y-57788895D01*
X25258828Y-56922228D02*
X25258828Y-57788895D01*
X25568352Y-56426990D02*
X25877876Y-57355561D01*
X25073114Y-57355561D01*
X24392161Y-57046038D02*
X24515971Y-56984133D01*
X24577876Y-56922228D01*
X24639780Y-56798419D01*
X24639780Y-56736514D01*
X24577876Y-56612704D01*
X24515971Y-56550800D01*
X24392161Y-56488895D01*
X24144542Y-56488895D01*
X24020733Y-56550800D01*
X23958828Y-56612704D01*
X23896923Y-56736514D01*
X23896923Y-56798419D01*
X23958828Y-56922228D01*
X24020733Y-56984133D01*
X24144542Y-57046038D01*
X24392161Y-57046038D01*
X24515971Y-57107942D01*
X24577876Y-57169847D01*
X24639780Y-57293657D01*
X24639780Y-57541276D01*
X24577876Y-57665085D01*
X24515971Y-57726990D01*
X24392161Y-57788895D01*
X24144542Y-57788895D01*
X24020733Y-57726990D01*
X23958828Y-57665085D01*
X23896923Y-57541276D01*
X23896923Y-57293657D01*
X23958828Y-57169847D01*
X24020733Y-57107942D01*
X24144542Y-57046038D01*
X23463590Y-56488895D02*
X22596923Y-56488895D01*
X23154066Y-57788895D01*
X38689800Y-33700257D02*
X38189800Y-33700257D01*
X37975514Y-34485971D02*
X38689800Y-34485971D01*
X38689800Y-32985971D01*
X37975514Y-32985971D01*
X36832657Y-33700257D02*
X36618371Y-33771685D01*
X36546942Y-33843114D01*
X36475514Y-33985971D01*
X36475514Y-34200257D01*
X36546942Y-34343114D01*
X36618371Y-34414542D01*
X36761228Y-34485971D01*
X37332657Y-34485971D01*
X37332657Y-32985971D01*
X36832657Y-32985971D01*
X36689800Y-33057400D01*
X36618371Y-33128828D01*
X36546942Y-33271685D01*
X36546942Y-33414542D01*
X36618371Y-33557400D01*
X36689800Y-33628828D01*
X36832657Y-33700257D01*
X37332657Y-33700257D01*
X35546942Y-33771685D02*
X35546942Y-34485971D01*
X36046942Y-32985971D02*
X35546942Y-33771685D01*
X35046942Y-32985971D01*
X34761228Y-32985971D02*
X33904085Y-32985971D01*
X34332657Y-34485971D02*
X34332657Y-32985971D01*
X33404085Y-33700257D02*
X32904085Y-33700257D01*
X32689800Y-34485971D02*
X33404085Y-34485971D01*
X33404085Y-32985971D01*
X32689800Y-32985971D01*
X32046942Y-33914542D02*
X30904085Y-33914542D01*
X30189800Y-33700257D02*
X29689800Y-33700257D01*
X29475514Y-34485971D02*
X30189800Y-34485971D01*
X30189800Y-32985971D01*
X29475514Y-32985971D01*
X28975514Y-32985971D02*
X28046942Y-32985971D01*
X28546942Y-33557400D01*
X28332657Y-33557400D01*
X28189800Y-33628828D01*
X28118371Y-33700257D01*
X28046942Y-33843114D01*
X28046942Y-34200257D01*
X28118371Y-34343114D01*
X28189800Y-34414542D01*
X28332657Y-34485971D01*
X28761228Y-34485971D01*
X28904085Y-34414542D01*
X28975514Y-34343114D01*
X27475514Y-33128828D02*
X27404085Y-33057400D01*
X27261228Y-32985971D01*
X26904085Y-32985971D01*
X26761228Y-33057400D01*
X26689800Y-33128828D01*
X26618371Y-33271685D01*
X26618371Y-33414542D01*
X26689800Y-33628828D01*
X27546942Y-34485971D01*
X26618371Y-34485971D01*
D13*
X54262657Y-59609638D02*
X54215038Y-59657257D01*
X54167419Y-59800114D01*
X54167419Y-59895352D01*
X54215038Y-60038209D01*
X54310276Y-60133447D01*
X54405514Y-60181066D01*
X54595990Y-60228685D01*
X54738847Y-60228685D01*
X54929323Y-60181066D01*
X55024561Y-60133447D01*
X55119799Y-60038209D01*
X55167419Y-59895352D01*
X55167419Y-59800114D01*
X55119799Y-59657257D01*
X55072180Y-59609638D01*
X54167419Y-59038209D02*
X54215038Y-59133447D01*
X54262657Y-59181066D01*
X54357895Y-59228685D01*
X54643609Y-59228685D01*
X54738847Y-59181066D01*
X54786466Y-59133447D01*
X54834085Y-59038209D01*
X54834085Y-58895352D01*
X54786466Y-58800114D01*
X54738847Y-58752495D01*
X54643609Y-58704876D01*
X54357895Y-58704876D01*
X54262657Y-58752495D01*
X54215038Y-58800114D01*
X54167419Y-58895352D01*
X54167419Y-59038209D01*
X54167419Y-58276304D02*
X54834085Y-58276304D01*
X54738847Y-58276304D02*
X54786466Y-58228685D01*
X54834085Y-58133447D01*
X54834085Y-57990590D01*
X54786466Y-57895352D01*
X54691228Y-57847733D01*
X54167419Y-57847733D01*
X54691228Y-57847733D02*
X54786466Y-57800114D01*
X54834085Y-57704876D01*
X54834085Y-57562019D01*
X54786466Y-57466780D01*
X54691228Y-57419161D01*
X54167419Y-57419161D01*
X54167419Y-56942971D02*
X54834085Y-56942971D01*
X54738847Y-56942971D02*
X54786466Y-56895352D01*
X54834085Y-56800114D01*
X54834085Y-56657257D01*
X54786466Y-56562019D01*
X54691228Y-56514400D01*
X54167419Y-56514400D01*
X54691228Y-56514400D02*
X54786466Y-56466780D01*
X54834085Y-56371542D01*
X54834085Y-56228685D01*
X54786466Y-56133447D01*
X54691228Y-56085828D01*
X54167419Y-56085828D01*
X54834085Y-55181066D02*
X54167419Y-55181066D01*
X54834085Y-55609638D02*
X54310276Y-55609638D01*
X54215038Y-55562019D01*
X54167419Y-55466780D01*
X54167419Y-55323923D01*
X54215038Y-55228685D01*
X54262657Y-55181066D01*
X54834085Y-54704876D02*
X54167419Y-54704876D01*
X54738847Y-54704876D02*
X54786466Y-54657257D01*
X54834085Y-54562019D01*
X54834085Y-54419161D01*
X54786466Y-54323923D01*
X54691228Y-54276304D01*
X54167419Y-54276304D01*
X54167419Y-53800114D02*
X54834085Y-53800114D01*
X55167419Y-53800114D02*
X55119800Y-53847733D01*
X55072180Y-53800114D01*
X55119800Y-53752495D01*
X55167419Y-53800114D01*
X55072180Y-53800114D01*
X54834085Y-53466780D02*
X54834085Y-53085828D01*
X55167419Y-53323923D02*
X54310276Y-53323923D01*
X54215038Y-53276304D01*
X54167419Y-53181066D01*
X54167419Y-53085828D01*
X54834085Y-52847733D02*
X54167419Y-52609638D01*
X54834085Y-52371542D02*
X54167419Y-52609638D01*
X53929323Y-52704876D01*
X53881704Y-52752495D01*
X53834085Y-52847733D01*
X54548371Y-51990590D02*
X54548371Y-51228685D01*
X54167419Y-50752495D02*
X55167419Y-50752495D01*
X54786466Y-50752495D02*
X54834085Y-50657257D01*
X54834085Y-50466780D01*
X54786466Y-50371542D01*
X54738847Y-50323923D01*
X54643609Y-50276304D01*
X54357895Y-50276304D01*
X54262657Y-50323923D01*
X54215038Y-50371542D01*
X54167419Y-50466780D01*
X54167419Y-50657257D01*
X54215038Y-50752495D01*
X54167419Y-49419161D02*
X54691228Y-49419161D01*
X54786466Y-49466780D01*
X54834085Y-49562019D01*
X54834085Y-49752495D01*
X54786466Y-49847733D01*
X54215038Y-49419161D02*
X54167419Y-49514400D01*
X54167419Y-49752495D01*
X54215038Y-49847733D01*
X54310276Y-49895352D01*
X54405514Y-49895352D01*
X54500752Y-49847733D01*
X54548371Y-49752495D01*
X54548371Y-49514400D01*
X54595990Y-49419161D01*
X54215038Y-48990590D02*
X54167419Y-48895352D01*
X54167419Y-48704876D01*
X54215038Y-48609638D01*
X54310276Y-48562019D01*
X54357895Y-48562019D01*
X54453133Y-48609638D01*
X54500752Y-48704876D01*
X54500752Y-48847733D01*
X54548371Y-48942971D01*
X54643609Y-48990590D01*
X54691228Y-48990590D01*
X54786466Y-48942971D01*
X54834085Y-48847733D01*
X54834085Y-48704876D01*
X54786466Y-48609638D01*
X54215038Y-47752495D02*
X54167419Y-47847733D01*
X54167419Y-48038209D01*
X54215038Y-48133447D01*
X54310276Y-48181066D01*
X54691228Y-48181066D01*
X54786466Y-48133447D01*
X54834085Y-48038209D01*
X54834085Y-47847733D01*
X54786466Y-47752495D01*
X54691228Y-47704876D01*
X54595990Y-47704876D01*
X54500752Y-48181066D01*
X54167419Y-46847733D02*
X55167419Y-46847733D01*
X54215038Y-46847733D02*
X54167419Y-46942971D01*
X54167419Y-47133447D01*
X54215038Y-47228685D01*
X54262657Y-47276304D01*
X54357895Y-47323923D01*
X54643609Y-47323923D01*
X54738847Y-47276304D01*
X54786466Y-47228685D01*
X54834085Y-47133447D01*
X54834085Y-46942971D01*
X54786466Y-46847733D01*
X55167419Y-45419161D02*
X55167419Y-45228685D01*
X55119800Y-45133447D01*
X55024561Y-45038209D01*
X54834085Y-44990590D01*
X54500752Y-44990590D01*
X54310276Y-45038209D01*
X54215038Y-45133447D01*
X54167419Y-45228685D01*
X54167419Y-45419161D01*
X54215038Y-45514400D01*
X54310276Y-45609638D01*
X54500752Y-45657257D01*
X54834085Y-45657257D01*
X55024561Y-45609638D01*
X55119800Y-45514400D01*
X55167419Y-45419161D01*
X54834085Y-44704876D02*
X54834085Y-44323923D01*
X54167419Y-44562019D02*
X55024561Y-44562019D01*
X55119800Y-44514400D01*
X55167419Y-44419161D01*
X55167419Y-44323923D01*
X54834085Y-44133447D02*
X54834085Y-43752495D01*
X54167419Y-43990590D02*
X55024561Y-43990590D01*
X55119800Y-43942971D01*
X55167419Y-43847733D01*
X55167419Y-43752495D01*
X54548371Y-43419161D02*
X54548371Y-42657257D01*
X54834085Y-41752495D02*
X54024561Y-41752495D01*
X53929323Y-41800114D01*
X53881704Y-41847733D01*
X53834085Y-41942971D01*
X53834085Y-42085828D01*
X53881704Y-42181066D01*
X54215038Y-41752495D02*
X54167419Y-41847733D01*
X54167419Y-42038209D01*
X54215038Y-42133447D01*
X54262657Y-42181066D01*
X54357895Y-42228685D01*
X54643609Y-42228685D01*
X54738847Y-42181066D01*
X54786466Y-42133447D01*
X54834085Y-42038209D01*
X54834085Y-41847733D01*
X54786466Y-41752495D01*
X54167419Y-41276304D02*
X54834085Y-41276304D01*
X54643609Y-41276304D02*
X54738847Y-41228685D01*
X54786466Y-41181066D01*
X54834085Y-41085828D01*
X54834085Y-40990590D01*
X54167419Y-40657257D02*
X54834085Y-40657257D01*
X55167419Y-40657257D02*
X55119800Y-40704876D01*
X55072180Y-40657257D01*
X55119800Y-40609638D01*
X55167419Y-40657257D01*
X55072180Y-40657257D01*
X54167419Y-39752495D02*
X55167419Y-39752495D01*
X54215038Y-39752495D02*
X54167419Y-39847733D01*
X54167419Y-40038209D01*
X54215038Y-40133447D01*
X54262657Y-40181066D01*
X54357895Y-40228685D01*
X54643609Y-40228685D01*
X54738847Y-40181066D01*
X54786466Y-40133447D01*
X54834085Y-40038209D01*
X54834085Y-39847733D01*
X54786466Y-39752495D01*
X55167419Y-38514400D02*
X54357895Y-38514400D01*
X54262657Y-38466780D01*
X54215038Y-38419161D01*
X54167419Y-38323923D01*
X54167419Y-38133447D01*
X54215038Y-38038209D01*
X54262657Y-37990590D01*
X54357895Y-37942971D01*
X55167419Y-37942971D01*
X54167419Y-37323923D02*
X54215038Y-37419161D01*
X54310276Y-37466780D01*
X55167419Y-37466780D01*
X54834085Y-37085828D02*
X54834085Y-36704876D01*
X55167419Y-36942971D02*
X54310276Y-36942971D01*
X54215038Y-36895352D01*
X54167419Y-36800114D01*
X54167419Y-36704876D01*
X54167419Y-36371542D02*
X54834085Y-36371542D01*
X54643609Y-36371542D02*
X54738847Y-36323923D01*
X54786466Y-36276304D01*
X54834085Y-36181066D01*
X54834085Y-36085828D01*
X54167419Y-35323923D02*
X54691228Y-35323923D01*
X54786466Y-35371542D01*
X54834085Y-35466780D01*
X54834085Y-35657257D01*
X54786466Y-35752495D01*
X54215038Y-35323923D02*
X54167419Y-35419161D01*
X54167419Y-35657257D01*
X54215038Y-35752495D01*
X54310276Y-35800114D01*
X54405514Y-35800114D01*
X54500752Y-35752495D01*
X54548371Y-35657257D01*
X54548371Y-35419161D01*
X54595990Y-35323923D01*
X54548371Y-34847733D02*
X54548371Y-34085828D01*
X54215038Y-33228685D02*
X54167419Y-33323923D01*
X54167419Y-33514400D01*
X54215038Y-33609638D01*
X54310276Y-33657257D01*
X54691228Y-33657257D01*
X54786466Y-33609638D01*
X54834085Y-33514400D01*
X54834085Y-33323923D01*
X54786466Y-33228685D01*
X54691228Y-33181066D01*
X54595990Y-33181066D01*
X54500752Y-33657257D01*
X54834085Y-32895352D02*
X54834085Y-32514400D01*
X54167419Y-32752495D02*
X55024561Y-32752495D01*
X55119800Y-32704876D01*
X55167419Y-32609638D01*
X55167419Y-32514400D01*
X54834085Y-32323923D02*
X54834085Y-31942971D01*
X54167419Y-32181066D02*
X55024561Y-32181066D01*
X55119800Y-32133447D01*
X55167419Y-32038209D01*
X55167419Y-31942971D01*
X54167419Y-31609638D02*
X54834085Y-31609638D01*
X55167419Y-31609638D02*
X55119800Y-31657257D01*
X55072180Y-31609638D01*
X55119800Y-31562019D01*
X55167419Y-31609638D01*
X55072180Y-31609638D01*
X54215038Y-30704876D02*
X54167419Y-30800114D01*
X54167419Y-30990590D01*
X54215038Y-31085828D01*
X54262657Y-31133447D01*
X54357895Y-31181066D01*
X54643609Y-31181066D01*
X54738847Y-31133447D01*
X54786466Y-31085828D01*
X54834085Y-30990590D01*
X54834085Y-30800114D01*
X54786466Y-30704876D01*
X54167419Y-30276304D02*
X54834085Y-30276304D01*
X55167419Y-30276304D02*
X55119800Y-30323923D01*
X55072180Y-30276304D01*
X55119800Y-30228685D01*
X55167419Y-30276304D01*
X55072180Y-30276304D01*
X54215038Y-29419161D02*
X54167419Y-29514400D01*
X54167419Y-29704876D01*
X54215038Y-29800114D01*
X54310276Y-29847733D01*
X54691228Y-29847733D01*
X54786466Y-29800114D01*
X54834085Y-29704876D01*
X54834085Y-29514400D01*
X54786466Y-29419161D01*
X54691228Y-29371542D01*
X54595990Y-29371542D01*
X54500752Y-29847733D01*
X54834085Y-28942971D02*
X54167419Y-28942971D01*
X54738847Y-28942971D02*
X54786466Y-28895352D01*
X54834085Y-28800114D01*
X54834085Y-28657257D01*
X54786466Y-28562019D01*
X54691228Y-28514400D01*
X54167419Y-28514400D01*
X54834085Y-28181066D02*
X54834085Y-27800114D01*
X55167419Y-28038209D02*
X54310276Y-28038209D01*
X54215038Y-27990590D01*
X54167419Y-27895352D01*
X54167419Y-27800114D01*
X54167419Y-26704876D02*
X54834085Y-26704876D01*
X54738847Y-26704876D02*
X54786466Y-26657257D01*
X54834085Y-26562019D01*
X54834085Y-26419161D01*
X54786466Y-26323923D01*
X54691228Y-26276304D01*
X54167419Y-26276304D01*
X54691228Y-26276304D02*
X54786466Y-26228685D01*
X54834085Y-26133447D01*
X54834085Y-25990590D01*
X54786466Y-25895352D01*
X54691228Y-25847733D01*
X54167419Y-25847733D01*
X54167419Y-25371542D02*
X54834085Y-25371542D01*
X55167419Y-25371542D02*
X55119800Y-25419161D01*
X55072180Y-25371542D01*
X55119800Y-25323923D01*
X55167419Y-25371542D01*
X55072180Y-25371542D01*
X54215038Y-24466780D02*
X54167419Y-24562019D01*
X54167419Y-24752495D01*
X54215038Y-24847733D01*
X54262657Y-24895352D01*
X54357895Y-24942971D01*
X54643609Y-24942971D01*
X54738847Y-24895352D01*
X54786466Y-24847733D01*
X54834085Y-24752495D01*
X54834085Y-24562019D01*
X54786466Y-24466780D01*
X54167419Y-24038209D02*
X54834085Y-24038209D01*
X54643609Y-24038209D02*
X54738847Y-23990590D01*
X54786466Y-23942971D01*
X54834085Y-23847733D01*
X54834085Y-23752495D01*
X54167419Y-23276304D02*
X54215038Y-23371542D01*
X54262657Y-23419161D01*
X54357895Y-23466780D01*
X54643609Y-23466780D01*
X54738847Y-23419161D01*
X54786466Y-23371542D01*
X54834085Y-23276304D01*
X54834085Y-23133447D01*
X54786466Y-23038209D01*
X54738847Y-22990590D01*
X54643609Y-22942971D01*
X54357895Y-22942971D01*
X54262657Y-22990590D01*
X54215038Y-23038209D01*
X54167419Y-23133447D01*
X54167419Y-23276304D01*
X54834085Y-22085828D02*
X54024561Y-22085828D01*
X53929323Y-22133447D01*
X53881704Y-22181066D01*
X53834085Y-22276304D01*
X53834085Y-22419161D01*
X53881704Y-22514400D01*
X54215038Y-22085828D02*
X54167419Y-22181066D01*
X54167419Y-22371542D01*
X54215038Y-22466780D01*
X54262657Y-22514400D01*
X54357895Y-22562019D01*
X54643609Y-22562019D01*
X54738847Y-22514400D01*
X54786466Y-22466780D01*
X54834085Y-22371542D01*
X54834085Y-22181066D01*
X54786466Y-22085828D01*
X54167419Y-21609638D02*
X54834085Y-21609638D01*
X54643609Y-21609638D02*
X54738847Y-21562019D01*
X54786466Y-21514400D01*
X54834085Y-21419161D01*
X54834085Y-21323923D01*
X54167419Y-20990590D02*
X54834085Y-20990590D01*
X55167419Y-20990590D02*
X55119800Y-21038209D01*
X55072180Y-20990590D01*
X55119800Y-20942971D01*
X55167419Y-20990590D01*
X55072180Y-20990590D01*
X54167419Y-20085828D02*
X55167419Y-20085828D01*
X54215038Y-20085828D02*
X54167419Y-20181066D01*
X54167419Y-20371542D01*
X54215038Y-20466780D01*
X54262657Y-20514400D01*
X54357895Y-20562019D01*
X54643609Y-20562019D01*
X54738847Y-20514400D01*
X54786466Y-20466780D01*
X54834085Y-20371542D01*
X54834085Y-20181066D01*
X54786466Y-20085828D01*
X54834085Y-18990590D02*
X54834085Y-18609638D01*
X55167419Y-18847733D02*
X54310276Y-18847733D01*
X54215038Y-18800114D01*
X54167419Y-18704876D01*
X54167419Y-18609638D01*
X54167419Y-18133447D02*
X54215038Y-18228685D01*
X54262657Y-18276304D01*
X54357895Y-18323923D01*
X54643609Y-18323923D01*
X54738847Y-18276304D01*
X54786466Y-18228685D01*
X54834085Y-18133447D01*
X54834085Y-17990590D01*
X54786466Y-17895352D01*
X54738847Y-17847733D01*
X54643609Y-17800114D01*
X54357895Y-17800114D01*
X54262657Y-17847733D01*
X54215038Y-17895352D01*
X54167419Y-17990590D01*
X54167419Y-18133447D01*
X52557419Y-54419161D02*
X53224085Y-54419161D01*
X53033609Y-54419161D02*
X53128847Y-54371542D01*
X53176466Y-54323923D01*
X53224085Y-54228685D01*
X53224085Y-54133447D01*
X52605038Y-53419161D02*
X52557419Y-53514400D01*
X52557419Y-53704876D01*
X52605038Y-53800114D01*
X52700276Y-53847733D01*
X53081228Y-53847733D01*
X53176466Y-53800114D01*
X53224085Y-53704876D01*
X53224085Y-53514400D01*
X53176466Y-53419161D01*
X53081228Y-53371542D01*
X52985990Y-53371542D01*
X52890752Y-53847733D01*
X53224085Y-53038209D02*
X52557419Y-52800114D01*
X53224085Y-52562019D01*
X52557419Y-52181066D02*
X53224085Y-52181066D01*
X53557419Y-52181066D02*
X53509800Y-52228685D01*
X53462180Y-52181066D01*
X53509800Y-52133447D01*
X53557419Y-52181066D01*
X53462180Y-52181066D01*
X53224085Y-51800114D02*
X52557419Y-51562019D01*
X53224085Y-51323923D01*
X52605038Y-50562019D02*
X52557419Y-50657257D01*
X52557419Y-50847733D01*
X52605038Y-50942971D01*
X52700276Y-50990590D01*
X53081228Y-50990590D01*
X53176466Y-50942971D01*
X53224085Y-50847733D01*
X53224085Y-50657257D01*
X53176466Y-50562019D01*
X53081228Y-50514400D01*
X52985990Y-50514400D01*
X52890752Y-50990590D01*
X53224085Y-49419161D02*
X52557419Y-49228685D01*
X53033609Y-49038209D01*
X52557419Y-48847733D01*
X53224085Y-48657257D01*
X52557419Y-47847733D02*
X53081228Y-47847733D01*
X53176466Y-47895352D01*
X53224085Y-47990590D01*
X53224085Y-48181066D01*
X53176466Y-48276304D01*
X52605038Y-47847733D02*
X52557419Y-47942971D01*
X52557419Y-48181066D01*
X52605038Y-48276304D01*
X52700276Y-48323923D01*
X52795514Y-48323923D01*
X52890752Y-48276304D01*
X52938371Y-48181066D01*
X52938371Y-47942971D01*
X52985990Y-47847733D01*
X53224085Y-47514400D02*
X53224085Y-47133447D01*
X53557419Y-47371542D02*
X52700276Y-47371542D01*
X52605038Y-47323923D01*
X52557419Y-47228685D01*
X52557419Y-47133447D01*
X52605038Y-46419161D02*
X52557419Y-46514400D01*
X52557419Y-46704876D01*
X52605038Y-46800114D01*
X52700276Y-46847733D01*
X53081228Y-46847733D01*
X53176466Y-46800114D01*
X53224085Y-46704876D01*
X53224085Y-46514400D01*
X53176466Y-46419161D01*
X53081228Y-46371542D01*
X52985990Y-46371542D01*
X52890752Y-46847733D01*
X52557419Y-45942971D02*
X53224085Y-45942971D01*
X53033609Y-45942971D02*
X53128847Y-45895352D01*
X53176466Y-45847733D01*
X53224085Y-45752495D01*
X53224085Y-45657257D01*
X52938371Y-45323923D02*
X52938371Y-44562019D01*
X53224085Y-44228685D02*
X53224085Y-43847733D01*
X52557419Y-44085828D02*
X53414561Y-44085828D01*
X53509800Y-44038209D01*
X53557419Y-43942971D01*
X53557419Y-43847733D01*
X52557419Y-43371542D02*
X52605038Y-43466780D01*
X52652657Y-43514400D01*
X52747895Y-43562019D01*
X53033609Y-43562019D01*
X53128847Y-43514400D01*
X53176466Y-43466780D01*
X53224085Y-43371542D01*
X53224085Y-43228685D01*
X53176466Y-43133447D01*
X53128847Y-43085828D01*
X53033609Y-43038209D01*
X52747895Y-43038209D01*
X52652657Y-43085828D01*
X52605038Y-43133447D01*
X52557419Y-43228685D01*
X52557419Y-43371542D01*
X52557419Y-42466780D02*
X52605038Y-42562019D01*
X52652657Y-42609638D01*
X52747895Y-42657257D01*
X53033609Y-42657257D01*
X53128847Y-42609638D01*
X53176466Y-42562019D01*
X53224085Y-42466780D01*
X53224085Y-42323923D01*
X53176466Y-42228685D01*
X53128847Y-42181066D01*
X53033609Y-42133447D01*
X52747895Y-42133447D01*
X52652657Y-42181066D01*
X52605038Y-42228685D01*
X52557419Y-42323923D01*
X52557419Y-42466780D01*
X52557419Y-41276304D02*
X53557419Y-41276304D01*
X52605038Y-41276304D02*
X52557419Y-41371542D01*
X52557419Y-41562019D01*
X52605038Y-41657257D01*
X52652657Y-41704876D01*
X52747895Y-41752495D01*
X53033609Y-41752495D01*
X53128847Y-41704876D01*
X53176466Y-41657257D01*
X53224085Y-41562019D01*
X53224085Y-41371542D01*
X53176466Y-41276304D01*
X52605038Y-40085828D02*
X52557419Y-39990590D01*
X52557419Y-39800114D01*
X52605038Y-39704876D01*
X52700276Y-39657257D01*
X52747895Y-39657257D01*
X52843133Y-39704876D01*
X52890752Y-39800114D01*
X52890752Y-39942971D01*
X52938371Y-40038209D01*
X53033609Y-40085828D01*
X53081228Y-40085828D01*
X53176466Y-40038209D01*
X53224085Y-39942971D01*
X53224085Y-39800114D01*
X53176466Y-39704876D01*
X52605038Y-38847733D02*
X52557419Y-38942971D01*
X52557419Y-39133447D01*
X52605038Y-39228685D01*
X52700276Y-39276304D01*
X53081228Y-39276304D01*
X53176466Y-39228685D01*
X53224085Y-39133447D01*
X53224085Y-38942971D01*
X53176466Y-38847733D01*
X53081228Y-38800114D01*
X52985990Y-38800114D01*
X52890752Y-39276304D01*
X52605038Y-37942971D02*
X52557419Y-38038209D01*
X52557419Y-38228685D01*
X52605038Y-38323923D01*
X52652657Y-38371542D01*
X52747895Y-38419161D01*
X53033609Y-38419161D01*
X53128847Y-38371542D01*
X53176466Y-38323923D01*
X53224085Y-38228685D01*
X53224085Y-38038209D01*
X53176466Y-37942971D01*
X53224085Y-37085828D02*
X52557419Y-37085828D01*
X53224085Y-37514400D02*
X52700276Y-37514400D01*
X52605038Y-37466780D01*
X52557419Y-37371542D01*
X52557419Y-37228685D01*
X52605038Y-37133447D01*
X52652657Y-37085828D01*
X52557419Y-36609638D02*
X53224085Y-36609638D01*
X53033609Y-36609638D02*
X53128847Y-36562019D01*
X53176466Y-36514400D01*
X53224085Y-36419161D01*
X53224085Y-36323923D01*
X52557419Y-35990590D02*
X53224085Y-35990590D01*
X53557419Y-35990590D02*
X53509800Y-36038209D01*
X53462180Y-35990590D01*
X53509800Y-35942971D01*
X53557419Y-35990590D01*
X53462180Y-35990590D01*
X53224085Y-35657257D02*
X53224085Y-35276304D01*
X53557419Y-35514400D02*
X52700276Y-35514400D01*
X52605038Y-35466780D01*
X52557419Y-35371542D01*
X52557419Y-35276304D01*
X53224085Y-35038209D02*
X52557419Y-34800114D01*
X53224085Y-34562019D02*
X52557419Y-34800114D01*
X52319323Y-34895352D01*
X52271704Y-34942971D01*
X52224085Y-35038209D01*
X52557419Y-33419161D02*
X53224085Y-33419161D01*
X53557419Y-33419161D02*
X53509800Y-33466780D01*
X53462180Y-33419161D01*
X53509800Y-33371542D01*
X53557419Y-33419161D01*
X53462180Y-33419161D01*
X53224085Y-32942971D02*
X52557419Y-32942971D01*
X53128847Y-32942971D02*
X53176466Y-32895352D01*
X53224085Y-32800114D01*
X53224085Y-32657257D01*
X53176466Y-32562019D01*
X53081228Y-32514400D01*
X52557419Y-32514400D01*
X52557419Y-30847733D02*
X53081228Y-30847733D01*
X53176466Y-30895352D01*
X53224085Y-30990590D01*
X53224085Y-31181066D01*
X53176466Y-31276304D01*
X52605038Y-30847733D02*
X52557419Y-30942971D01*
X52557419Y-31181066D01*
X52605038Y-31276304D01*
X52700276Y-31323923D01*
X52795514Y-31323923D01*
X52890752Y-31276304D01*
X52938371Y-31181066D01*
X52938371Y-30942971D01*
X52985990Y-30847733D01*
X53224085Y-29942971D02*
X52414561Y-29942971D01*
X52319323Y-29990590D01*
X52271704Y-30038209D01*
X52224085Y-30133447D01*
X52224085Y-30276304D01*
X52271704Y-30371542D01*
X52605038Y-29942971D02*
X52557419Y-30038209D01*
X52557419Y-30228685D01*
X52605038Y-30323923D01*
X52652657Y-30371542D01*
X52747895Y-30419161D01*
X53033609Y-30419161D01*
X53128847Y-30371542D01*
X53176466Y-30323923D01*
X53224085Y-30228685D01*
X53224085Y-30038209D01*
X53176466Y-29942971D01*
X52557419Y-29466780D02*
X53224085Y-29466780D01*
X53033609Y-29466780D02*
X53128847Y-29419161D01*
X53176466Y-29371542D01*
X53224085Y-29276304D01*
X53224085Y-29181066D01*
X52557419Y-28847733D02*
X53224085Y-28847733D01*
X53557419Y-28847733D02*
X53509800Y-28895352D01*
X53462180Y-28847733D01*
X53509800Y-28800114D01*
X53557419Y-28847733D01*
X53462180Y-28847733D01*
X52605038Y-27942971D02*
X52557419Y-28038209D01*
X52557419Y-28228685D01*
X52605038Y-28323923D01*
X52652657Y-28371542D01*
X52747895Y-28419161D01*
X53033609Y-28419161D01*
X53128847Y-28371542D01*
X53176466Y-28323923D01*
X53224085Y-28228685D01*
X53224085Y-28038209D01*
X53176466Y-27942971D01*
X53224085Y-27085828D02*
X52557419Y-27085828D01*
X53224085Y-27514400D02*
X52700276Y-27514400D01*
X52605038Y-27466780D01*
X52557419Y-27371542D01*
X52557419Y-27228685D01*
X52605038Y-27133447D01*
X52652657Y-27085828D01*
X52557419Y-26466780D02*
X52605038Y-26562019D01*
X52700276Y-26609638D01*
X53557419Y-26609638D01*
X53224085Y-26228685D02*
X53224085Y-25847733D01*
X53557419Y-26085828D02*
X52700276Y-26085828D01*
X52605038Y-26038209D01*
X52557419Y-25942971D01*
X52557419Y-25847733D01*
X53224085Y-25085828D02*
X52557419Y-25085828D01*
X53224085Y-25514400D02*
X52700276Y-25514400D01*
X52605038Y-25466780D01*
X52557419Y-25371542D01*
X52557419Y-25228685D01*
X52605038Y-25133447D01*
X52652657Y-25085828D01*
X52557419Y-24609638D02*
X53224085Y-24609638D01*
X53033609Y-24609638D02*
X53128847Y-24562019D01*
X53176466Y-24514400D01*
X53224085Y-24419161D01*
X53224085Y-24323923D01*
X52605038Y-23609638D02*
X52557419Y-23704876D01*
X52557419Y-23895352D01*
X52605038Y-23990590D01*
X52700276Y-24038209D01*
X53081228Y-24038209D01*
X53176466Y-23990590D01*
X53224085Y-23895352D01*
X53224085Y-23704876D01*
X53176466Y-23609638D01*
X53081228Y-23562019D01*
X52985990Y-23562019D01*
X52890752Y-24038209D01*
X50566466Y-41657257D02*
X50614085Y-41704876D01*
X50756942Y-41800114D01*
X50852180Y-41847733D01*
X50995038Y-41895352D01*
X51233133Y-41942971D01*
X51423609Y-41942971D01*
X51661704Y-41895352D01*
X51804561Y-41847733D01*
X51899800Y-41800114D01*
X52042657Y-41704876D01*
X52090276Y-41657257D01*
X51042657Y-40704876D02*
X50995038Y-40752495D01*
X50947419Y-40895352D01*
X50947419Y-40990590D01*
X50995038Y-41133447D01*
X51090276Y-41228685D01*
X51185514Y-41276304D01*
X51375990Y-41323923D01*
X51518847Y-41323923D01*
X51709323Y-41276304D01*
X51804561Y-41228685D01*
X51899800Y-41133447D01*
X51947419Y-40990590D01*
X51947419Y-40895352D01*
X51899800Y-40752495D01*
X51852180Y-40704876D01*
X51947419Y-40085828D02*
X51947419Y-39895352D01*
X51899800Y-39800114D01*
X51804561Y-39704876D01*
X51614085Y-39657257D01*
X51280752Y-39657257D01*
X51090276Y-39704876D01*
X50995038Y-39800114D01*
X50947419Y-39895352D01*
X50947419Y-40085828D01*
X50995038Y-40181066D01*
X51090276Y-40276304D01*
X51280752Y-40323923D01*
X51614085Y-40323923D01*
X51804561Y-40276304D01*
X51899800Y-40181066D01*
X51947419Y-40085828D01*
X50947419Y-39228685D02*
X51947419Y-39228685D01*
X51233133Y-38895352D01*
X51947419Y-38562019D01*
X50947419Y-38562019D01*
X50995038Y-38133447D02*
X50947419Y-37990590D01*
X50947419Y-37752495D01*
X50995038Y-37657257D01*
X51042657Y-37609638D01*
X51137895Y-37562019D01*
X51233133Y-37562019D01*
X51328371Y-37609638D01*
X51375990Y-37657257D01*
X51423609Y-37752495D01*
X51471228Y-37942971D01*
X51518847Y-38038209D01*
X51566466Y-38085828D01*
X51661704Y-38133447D01*
X51756942Y-38133447D01*
X51852180Y-38085828D01*
X51899800Y-38038209D01*
X51947419Y-37942971D01*
X51947419Y-37704876D01*
X51899800Y-37562019D01*
X51233133Y-37181066D02*
X51233133Y-36704876D01*
X50947419Y-37276304D02*
X51947419Y-36942971D01*
X50947419Y-36609638D01*
X50566466Y-36371542D02*
X50614085Y-36323923D01*
X50756942Y-36228685D01*
X50852180Y-36181066D01*
X50995038Y-36133447D01*
X51233133Y-36085828D01*
X51423609Y-36085828D01*
X51661704Y-36133447D01*
X51804561Y-36181066D01*
X51899800Y-36228685D01*
X52042657Y-36323923D01*
X52090276Y-36371542D01*
D14*
X31754380Y-56235695D02*
X32563904Y-56235695D01*
X32659142Y-56283314D01*
X32706761Y-56330933D01*
X32754380Y-56426171D01*
X32754380Y-56616647D01*
X32706761Y-56711885D01*
X32659142Y-56759504D01*
X32563904Y-56807123D01*
X31754380Y-56807123D01*
X31849619Y-57235695D02*
X31802000Y-57283314D01*
X31754380Y-57378552D01*
X31754380Y-57616647D01*
X31802000Y-57711885D01*
X31849619Y-57759504D01*
X31944857Y-57807123D01*
X32040095Y-57807123D01*
X32182952Y-57759504D01*
X32754380Y-57188076D01*
X32754380Y-57807123D01*
D15*
X21793200Y-50749200D02*
X42113200Y-50749200D01*
X42113200Y-50749200D02*
X42113200Y-45669200D01*
X42113200Y-45669200D02*
X21793200Y-45669200D01*
X21793200Y-45669200D02*
X21793200Y-50749200D01*
X21818600Y-45288200D02*
X42113200Y-45288200D01*
X42113200Y-45288200D02*
X42113200Y-23291800D01*
X42113200Y-23291800D02*
X21818600Y-23291800D01*
X21818600Y-23291800D02*
X21818600Y-45288200D01*
X23850600Y-19481800D02*
X23850600Y-23291800D01*
X28930600Y-19481800D02*
X23850600Y-19481800D01*
X28930600Y-23291800D02*
X28930600Y-19481800D01*
X21022000Y-59647600D02*
X21022000Y-54347600D01*
X31302000Y-57997600D02*
X31302000Y-59647600D01*
X31302000Y-54347600D02*
X31302000Y-55997600D01*
X21022000Y-54347600D02*
X31302000Y-54347600D01*
X31302000Y-59647600D02*
X21022000Y-59647600D01*
X31302000Y-55997600D02*
G75*
G03*
X31302000Y-57997600I0J-1000000D01*
G01*
M02*
