G04 #@! TF.GenerationSoftware,KiCad,Pcbnew,(6.0.11)*
G04 #@! TF.CreationDate,2023-03-02T01:09:38+03:00*
G04 #@! TF.ProjectId,Device-1,44657669-6365-42d3-912e-6b696361645f,rev?*
G04 #@! TF.SameCoordinates,Original*
G04 #@! TF.FileFunction,Paste,Top*
G04 #@! TF.FilePolarity,Positive*
%FSLAX46Y46*%
G04 Gerber Fmt 4.6, Leading zero omitted, Abs format (unit mm)*
G04 Created by KiCad (PCBNEW (6.0.11)) date 2023-03-02 01:09:38*
%MOMM*%
%LPD*%
G01*
G04 APERTURE LIST*
G04 Aperture macros list*
%AMRoundRect*
0 Rectangle with rounded corners*
0 $1 Rounding radius*
0 $2 $3 $4 $5 $6 $7 $8 $9 X,Y pos of 4 corners*
0 Add a 4 corners polygon primitive as box body*
4,1,4,$2,$3,$4,$5,$6,$7,$8,$9,$2,$3,0*
0 Add four circle primitives for the rounded corners*
1,1,$1+$1,$2,$3*
1,1,$1+$1,$4,$5*
1,1,$1+$1,$6,$7*
1,1,$1+$1,$8,$9*
0 Add four rect primitives between the rounded corners*
20,1,$1+$1,$2,$3,$4,$5,0*
20,1,$1+$1,$4,$5,$6,$7,0*
20,1,$1+$1,$6,$7,$8,$9,0*
20,1,$1+$1,$8,$9,$2,$3,0*%
G04 Aperture macros list end*
G04 #@! TA.AperFunction,Profile*
%ADD10C,0.100000*%
G04 #@! TD*
%ADD11RoundRect,0.250000X-0.220971X0.662913X-0.662913X0.220971X0.220971X-0.662913X0.662913X-0.220971X0*%
%ADD12RoundRect,0.250000X-0.550000X1.500000X-0.550000X-1.500000X0.550000X-1.500000X0.550000X1.500000X0*%
%ADD13R,2.000000X1.950000*%
%ADD14R,2.000000X1.300000*%
%ADD15RoundRect,0.250000X-0.625000X0.312500X-0.625000X-0.312500X0.625000X-0.312500X0.625000X0.312500X0*%
%ADD16RoundRect,0.250000X0.625000X-0.312500X0.625000X0.312500X-0.625000X0.312500X-0.625000X-0.312500X0*%
%ADD17R,1.950000X2.000000*%
%ADD18R,1.300000X2.000000*%
%ADD19RoundRect,0.250000X0.325000X0.650000X-0.325000X0.650000X-0.325000X-0.650000X0.325000X-0.650000X0*%
%ADD20RoundRect,0.250000X-0.312500X-0.625000X0.312500X-0.625000X0.312500X0.625000X-0.312500X0.625000X0*%
%ADD21RoundRect,0.250000X0.312500X0.625000X-0.312500X0.625000X-0.312500X-0.625000X0.312500X-0.625000X0*%
G04 APERTURE END LIST*
D10*
X12954000Y-16002000D02*
X13004370Y-64922400D01*
X66447246Y-64922400D02*
G75*
G03*
X66447246Y-64922400I-1524846J0D01*
G01*
X64973200Y-67970400D02*
G75*
G03*
X67970400Y-64871600I-50800J3048000D01*
G01*
X66447246Y-15951200D02*
G75*
G03*
X66447246Y-15951200I-1524846J0D01*
G01*
X16052800Y-67919600D02*
X64973200Y-67970400D01*
X17526846Y-64922400D02*
G75*
G03*
X17526846Y-64922400I-1524846J0D01*
G01*
X13004370Y-64922400D02*
G75*
G03*
X16052800Y-67919600I2997630J0D01*
G01*
X67919656Y-16051109D02*
G75*
G03*
X65024000Y-12954001I-2997256J99909D01*
G01*
X67970400Y-64871600D02*
X67919656Y-16051109D01*
X17526000Y-16002000D02*
G75*
G03*
X17526000Y-16002000I-1524000J0D01*
G01*
X65024000Y-12954001D02*
X16002000Y-12954000D01*
X16002000Y-12954000D02*
G75*
G03*
X12954000Y-16002000I0J-3048000D01*
G01*
D11*
X34602056Y-45941344D03*
X36670344Y-43873056D03*
X40672656Y-46169944D03*
X42740944Y-44101656D03*
X37599256Y-46017544D03*
X39667544Y-43949256D03*
D12*
X24028400Y-35376200D03*
X24028400Y-40976200D03*
D13*
X41173400Y-23799800D03*
D14*
X41173400Y-21615400D03*
D15*
X32842200Y-55458900D03*
X32842200Y-58383900D03*
D16*
X31820200Y-33612400D03*
X31820200Y-30687400D03*
X36753800Y-55147400D03*
X36753800Y-52222400D03*
D13*
X40919400Y-37160200D03*
D14*
X40919400Y-39344600D03*
D17*
X38531800Y-64084200D03*
D18*
X36347400Y-64084200D03*
D16*
X39217600Y-55158100D03*
X39217600Y-52233100D03*
D19*
X27256000Y-44500800D03*
X24306000Y-44500800D03*
D20*
X24851900Y-50774600D03*
X27776900Y-50774600D03*
D16*
X29331000Y-30680400D03*
X29331000Y-33605400D03*
X36900200Y-33605400D03*
X36900200Y-30680400D03*
D15*
X41910000Y-27264900D03*
X41910000Y-30189900D03*
D17*
X38511750Y-61061600D03*
D18*
X36327350Y-61061600D03*
D21*
X27472100Y-55778400D03*
X24547100Y-55778400D03*
D15*
X29997400Y-55458900D03*
X29997400Y-58383900D03*
D16*
X34411000Y-33605400D03*
X34411000Y-30680400D03*
X39522400Y-33593500D03*
X39522400Y-30668500D03*
D20*
X21930900Y-63271400D03*
X24855900Y-63271400D03*
D13*
X38023800Y-37160200D03*
D14*
X38023800Y-39344600D03*
D16*
X41681400Y-52222400D03*
X41681400Y-55147400D03*
D13*
X35077400Y-37185600D03*
D14*
X35077400Y-39370000D03*
D17*
X38537150Y-58160000D03*
D18*
X36352750Y-58160000D03*
D15*
X22275800Y-54976300D03*
X22275800Y-57901300D03*
D13*
X32156400Y-37160200D03*
D14*
X32156400Y-39344600D03*
D13*
X29235400Y-37160200D03*
D14*
X29235400Y-39344600D03*
M02*
