M48
INCH,TZ
T1C0.0157
T2C0.0300
T3C0.0315
T4C0.0354
T5C0.0394
T6C0.0508
T7C0.1260
%
G90
G05
T1
X8640Y-25760
X10420Y-12070
X12130Y-17100
X13010Y-25100
X13020Y-24120
X13100Y-17100
X13400Y-20560
X13590Y-23540
X15000Y-16640
X15610Y-16430
T2
X9580Y-18980
X10580Y-18980
X11580Y-18980
X12580Y-18980
X13580Y-18980
X14580Y-18980
X15580Y-18980
T3
X7600Y-15116
X7600Y-16116
X7600Y-17116
X7600Y-18116
X8800Y-20940
X8800Y-23940
X9800Y-20940
X9800Y-23940
X10800Y-20940
X10800Y-23940
X11800Y-20940
X11800Y-23940
X15230Y-6380
X16810Y-6400
X17854Y-9510
X18020Y-25660
X18420Y-6380
X19040Y-25660
X20050Y-25670
X25350Y-10510
X25350Y-13550
X25350Y-14550
X25350Y-15550
X25350Y-17550
X25350Y-18550
X25350Y-20600
X25350Y-22630
X25360Y-8520
X25360Y-9520
X25360Y-11520
X25360Y-12540
X25360Y-16560
X25360Y-19560
X25360Y-21610
T4
X17854Y-10510
X17854Y-11510
X17854Y-12510
X17854Y-13510
X17854Y-14510
X17854Y-15510
X17854Y-16510
X17854Y-17510
X17854Y-18510
X17854Y-19510
X17854Y-20510
X17854Y-21510
X17854Y-22510
X23854Y-8510
X23854Y-9510
X23854Y-10510
X23854Y-11510
X23854Y-12510
X23854Y-13510
X23854Y-14510
X23854Y-15510
X23854Y-16510
X23854Y-17510
X23854Y-18510
X23854Y-19510
X23854Y-20510
X23854Y-21510
X23854Y-22510
T5
X17854Y-8510
T6
X6430Y-14245
X6430Y-19055
X6450Y-15855
X6450Y-17445
T7
X6230Y-6230
X6270Y-25640
X25560Y-6270
X25610Y-25650
T0
M30
